%FSTAX23Y23*%
%MOIN*%
%SFA1B1*%

%IPPOS*%
%AMD73*
4,1,4,0.204700,-0.139500,0.207700,0.134900,-0.204700,0.139500,-0.207700,-0.134900,0.204700,-0.139500,0.0*
%
%AMD74*
4,1,4,0.329300,-0.065600,0.330700,0.058400,-0.329300,0.065600,-0.330700,-0.058400,0.329300,-0.065600,0.0*
%
%AMD75*
4,1,4,0.094500,0.014000,0.064800,0.070200,-0.094500,-0.014000,-0.064800,-0.070200,0.094500,0.014000,0.0*
%
%AMD76*
4,1,4,0.094400,0.050300,0.058100,0.089700,-0.094400,-0.050300,-0.058100,-0.089700,0.094400,0.050300,0.0*
%
%AMD77*
4,1,4,0.146700,-0.141700,0.201600,-0.030900,-0.146700,0.141700,-0.201600,0.030900,0.146700,-0.141700,0.0*
%
%AMD79*
1,1,0.041339,0.000000,0.000000*
1,0,0.025591,0.000000,0.000000*
4,0,4,0.011800,0.017300,-0.017300,-0.011800,-0.011800,-0.017300,0.017300,0.011800,0.011800,0.017300,0.0*
4,0,4,-0.011800,0.017300,0.017300,-0.011800,0.011800,-0.017300,-0.017300,0.011800,-0.011800,0.017300,0.0*
%
%AMD81*
1,1,0.076772,0.000000,0.000000*
1,0,0.061024,0.000000,0.000000*
4,0,4,0.024300,0.029800,-0.029800,-0.024300,-0.024300,-0.029800,0.029800,0.024300,0.024300,0.029800,0.0*
4,0,4,-0.024300,0.029800,0.029800,-0.024300,0.024300,-0.029800,-0.029800,0.024300,-0.024300,0.029800,0.0*
%
%ADD58C,0.015748*%
G04~CAMADD=73~9~0.0~0.0~2745.0~4124.8~0.0~0.0~0~0.0~0.0~0.0~0.0~0~0.0~0.0~0.0~0.0~0~0.0~0.0~0.0~269.4~4154.0~2789.0*
%ADD73D73*%
G04~CAMADD=74~9~0.0~0.0~1241.3~6600.6~0.0~0.0~0~0.0~0.0~0.0~0.0~0~0.0~0.0~0.0~0.0~0~0.0~0.0~0.0~269.4~6614.0~1311.0*
%ADD74D74*%
G04~CAMADD=75~9~0.0~0.0~636.5~1803.3~0.0~0.0~0~0.0~0.0~0.0~0.0~0~0.0~0.0~0.0~0.0~0~0.0~0.0~0.0~297.9~1890.0~1403.0*
%ADD75D75*%
G04~CAMADD=76~9~0.0~0.0~537.6~2071.0~0.0~0.0~0~0.0~0.0~0.0~0.0~0~0.0~0.0~0.0~0.0~0~0.0~0.0~0.0~312.6~1888.0~1793.0*
%ADD76D76*%
G04~CAMADD=77~9~0.0~0.0~1237.9~3889.6~0.0~0.0~0~0.0~0.0~0.0~0.0~0~0.0~0.0~0.0~0.0~0~0.0~0.0~0.0~243.6~4032.0~2833.0*
%ADD77D77*%
%ADD78R,0.064020X0.207102*%
G04~CAMADD=79~12~0.0~0.0~0.0~0.0~0.0~0.0~0~413.4~255.9~0.0~45.0~4~78.7~0.0~0.0~0.0~0~0.0~0.0~0.0~0.0~413.4~413.4*
%ADD79D79*%
%ADD80C,0.031496*%
G04~CAMADD=81~12~0.0~0.0~0.0~0.0~0.0~0.0~0~767.7~610.2~0.0~45.0~4~78.7~0.0~0.0~0.0~0~0.0~0.0~0.0~0.0~767.7~767.7*
%ADD81D81*%
%LNflytta-36-1*%
%LPD*%
G36*
X-00919Y00992D02*
D01*
G37*
G36*
X0105Y00435D02*
D01*
G37*
G36*
X01094Y00747D02*
D01*
G37*
G54D58*
X-00243Y-00602D02*
X-00243Y-00602D01*
X-00243Y-00602D02*
X-00243Y-00602D01*
X-00314Y-00673D02*
X-00313Y-00673D01*
X-00313Y-00673*
X-00313Y-00674*
X-01139Y-00673D02*
X-01139Y-00673D01*
X-01139Y-00673*
X-01139Y-00672*
X-0121Y-00602D02*
X-0121Y-00602D01*
X-0121Y-00602D02*
X-0121Y-00602D01*
X-0121Y-00602D02*
X-0121Y-00602D01*
X-01215Y-00603D02*
X-0121Y-00602D01*
Y00223D02*
X-0121Y00223D01*
X-0121Y00223*
X-0121Y00223*
X-01139Y00294D02*
X-01139Y00294D01*
X-01139Y00294D02*
X-01139Y00294D01*
X-0114Y00296D02*
X-01139Y00294D01*
X-00313Y00294D02*
X-00313Y00294D01*
X-00314Y00294D02*
X-00313Y00294D01*
X-00314Y00293D02*
X-00314Y00294D01*
X-00243Y00223D02*
X-00243Y00223D01*
X-00243Y00223*
X-00243Y00223*
X-00238Y00225*
X-00353Y-00269D02*
X-00175D01*
X-00139*
X-00078*
X-00243Y-00602D02*
X-00243Y-00602D01*
X-00419Y0044D02*
X-00409Y00439D01*
X-01034Y0044D02*
X-00419D01*
X-01044Y00439D02*
X-01034Y0044D01*
X-01054Y00437D02*
X-01044Y00439D01*
X-01062Y00433D02*
X-01054Y00437D01*
X-01108Y00406D02*
X-01062Y00433D01*
X-01151Y00376D02*
X-01108Y00406D01*
X-01176Y00356D02*
X-01151Y00376D01*
X-01177Y00354D02*
X-01176Y00356D01*
X-01178Y00351D02*
X-01177Y00354D01*
X-01178Y00349D02*
X-01178Y00351D01*
X-01178Y00349D02*
X-01178Y00346D01*
X-01178Y00344*
X-01177Y00341*
X-01176Y00339*
X-01174Y00337*
X-01153Y00316*
X-01146Y00308*
X-01143Y00302*
X-0114Y00296*
X-01139Y00294D02*
X-01139Y00293D01*
X-01137Y00286*
X-01137Y00275*
X-01138Y00264D02*
X-01137Y00275D01*
X-01141Y00254D02*
X-01138Y00264D01*
X-01147Y00244D02*
X-01141Y00254D01*
X-01154Y00236D02*
X-01147Y00244D01*
X-01162Y00229D02*
X-01154Y00236D01*
X-01172Y00224D02*
X-01162Y00229D01*
X-01182Y00221D02*
X-01172Y00224D01*
X-01193Y0022D02*
X-01182Y00221D01*
X-012Y00221D02*
X-01193Y0022D01*
X-01207Y00222D02*
X-012Y00221D01*
X-0121Y00223D02*
X-01207Y00222D01*
X-01215Y00225D02*
X-0121Y00223D01*
X-01218Y00226D02*
X-01215Y00225D01*
X-01225Y00231D02*
X-01218Y00226D01*
X-01232Y00237D02*
X-01225Y00231D01*
X-01254Y00258D02*
X-01232Y00237D01*
X-01256Y0026D02*
X-01254Y00258D01*
X-01258Y00261D02*
X-01256Y0026D01*
X-01261Y00262D02*
X-01258Y00261D01*
X-01263Y00262D02*
X-01261Y00262D01*
X-01266Y00262D02*
X-01263Y00262D01*
X-01269Y00261D02*
X-01266Y00262D01*
X-01271Y0026D02*
X-01269Y00261D01*
X-01274Y00259D02*
X-01271Y0026D01*
X-01275Y00257D02*
X-01274Y00259D01*
X-01335Y00171D02*
X-01275Y00257D01*
X-01358Y00129D02*
X-01335Y00171D01*
X-0138Y00081D02*
X-01358Y00129D01*
X-01397Y00036D02*
X-0138Y00081D01*
X-01412Y-00014D02*
X-01397Y00036D01*
X-0142Y-00046D02*
X-01412Y-00014D01*
X-01426Y-00079D02*
X-0142Y-00046D01*
X-01426Y-00091D02*
X-01426Y-00079D01*
X-01426Y-00091D02*
X-01425Y-00103D01*
X-01421Y-00114*
X-01418Y-0012*
X-01414Y-00126*
X-01412Y-0013*
X-0141Y-00135*
X-01409Y-00139*
X-01409Y-00143*
X-0141Y-00184D02*
X-01409Y-00143D01*
X-0141Y-00184D02*
X-0141Y-00209D01*
X-01409Y-00234*
X-01409Y-00239D02*
X-01409Y-00234D01*
X-0141Y-00244D02*
X-01409Y-00239D01*
X-01412Y-00248D02*
X-0141Y-00244D01*
X-01414Y-00251D02*
X-01412Y-00248D01*
X-0142Y-00261D02*
X-01414Y-00251D01*
X-01424Y-00273D02*
X-0142Y-00261D01*
X-01426Y-00284D02*
X-01424Y-00273D01*
X-01426Y-00291D02*
X-01426Y-00284D01*
X-01426Y-00291D02*
X-01426Y-00298D01*
X-01417Y-00343*
X-01406Y-00388*
X-01391Y-00433*
X-0137Y-00482*
X-01349Y-00525*
X-01322Y-00571*
X-01292Y-00615*
X-01272Y-00639*
X-01269Y-0064*
X-01267Y-00641*
X-01264Y-00641*
X-01261Y-00641*
X-01259Y-0064*
X-01256Y-00639*
X-01255Y-00638*
X-01254Y-00637*
X-01232Y-00615*
X-01227Y-00611*
X-01221Y-00607*
X-01215Y-00603*
X-0121Y-00602D02*
X-01207Y-00601D01*
X-01196Y-00599*
X-01185Y-006*
X-01175Y-00602*
X-01165Y-00606*
X-01156Y-00613*
X-01148Y-00621*
X-01143Y-0063*
X-01139Y-0064*
X-01137Y-00651*
X-01137Y-00658*
X-01137Y-00665D02*
X-01137Y-00658D01*
X-01139Y-00672D02*
X-01137Y-00665D01*
X-0114Y-00674D02*
X-01139Y-00673D01*
X-01145Y-00684D02*
X-0114Y-00674D01*
X-01149Y-0069D02*
X-01145Y-00684D01*
X-01153Y-00695D02*
X-01149Y-0069D01*
X-01174Y-00716D02*
X-01153Y-00695D01*
X-01176Y-00718D02*
X-01174Y-00716D01*
X-01177Y-0072D02*
X-01176Y-00718D01*
X-01178Y-00723D02*
X-01177Y-0072D01*
X-01179Y-00726D02*
X-01178Y-00723D01*
X-01179Y-00726D02*
X-01178Y-00729D01*
X-01178Y-00731*
X-01177Y-00734*
X-01175Y-00736*
X-01174Y-00737*
X-01088Y-00797*
X-01046Y-0082*
X-00997Y-00843*
X-00952Y-00859*
X-00902Y-00875*
X-00855Y-00885*
X-00802Y-00892*
X-00749Y-00896*
X-00701Y-00896*
X-00653Y-00893*
X-00601Y-00885*
X-00549Y-00874*
X-00503Y-0086*
X-00458Y-00844*
X-0041Y-00822*
X-00363Y-00796*
X-00323Y-0077*
X-00284Y-00741*
X-00278Y-00735*
X-00276Y-00733*
X-00275Y-0073*
X-00274Y-00728*
X-00274Y-00726*
X-00275Y-00723D02*
X-00274Y-00726D01*
X-00276Y-0072D02*
X-00275Y-00723D01*
X-00277Y-00718D02*
X-00276Y-0072D01*
X-00279Y-00716D02*
X-00277Y-00718D01*
X-003Y-00695D02*
X-00279Y-00716D01*
X-00307Y-00687D02*
X-003Y-00695D01*
X-0031Y-00681D02*
X-00307Y-00687D01*
X-00313Y-00674D02*
X-0031Y-00681D01*
X-00314Y-00672D02*
X-00314Y-00673D01*
X-00315Y-00665D02*
X-00314Y-00672D01*
X-00316Y-00654D02*
X-00315Y-00665D01*
X-00316Y-00654D02*
X-00315Y-00643D01*
X-00312Y-00633*
X-00306Y-00623*
X-00299Y-00615*
X-00291Y-00608*
X-00281Y-00603*
X-00271Y-006*
X-0026Y-00599*
X-00253Y-00599*
X-00246Y-00601*
X-00243Y-00602*
X-00243Y-00602D02*
X-00238Y-00603D01*
X-00235Y-00605*
X-00227Y-0061*
X-0022Y-00615*
X-00199Y-00637*
X-00197Y-00638*
X-00195Y-0064*
X-00192Y-00641*
X-00189Y-00641*
X-00187Y-00641*
X-00184Y-0064*
X-00181Y-00639*
X-00179Y-00637*
X-00177Y-00635*
X-00132Y-00573*
X-00094Y-00505*
X-00074Y-00462*
X-00057Y-00417*
X-00043Y-00371*
X-00032Y-00325*
X-00031Y-00316*
X-00032Y-00307D02*
X-00031Y-00316D01*
X-00035Y-00298D02*
X-00032Y-00307D01*
X-00038Y-00292D02*
X-00035Y-00298D01*
X-00042Y-00286D02*
X-00038Y-00292D01*
X-00048Y-00279D02*
X-00042Y-00286D01*
X-00056Y-00274D02*
X-00048Y-00279D01*
X-00064Y-00271D02*
X-00056Y-00274D01*
X-00071Y-00269D02*
X-00064Y-00271D01*
X-00078Y-00269D02*
X-00071Y-00269D01*
X-0036Y-00269D02*
X-00353Y-00269D01*
X-00367Y-00271D02*
X-0036Y-00269D01*
X-00374Y-00274D02*
X-00367Y-00271D01*
X-0038Y-00277D02*
X-00374Y-00274D01*
X-00386Y-00282D02*
X-0038Y-00277D01*
X-00391Y-00288D02*
X-00386Y-00282D01*
X-00395Y-00294D02*
X-00391Y-00288D01*
X-00396Y-00297D02*
X-00395Y-00294D01*
X-00397Y-00301D02*
X-00396Y-00297D01*
X-00406Y-00324D02*
X-00397Y-00301D01*
X-00434Y-00376D02*
X-00406Y-00324D01*
X-00533Y-00532D02*
X-00434Y-00376D01*
X-0054Y-00541D02*
X-00533Y-00532D01*
X-00549Y-00549D02*
X-0054Y-00541D01*
X-00559Y-00555D02*
X-00549Y-00549D01*
X-0061Y-00574D02*
X-00559Y-00555D01*
X-00664Y-00585D02*
X-0061Y-00574D01*
X-00789Y-00585D02*
X-00664D01*
X-00802Y-00584D02*
X-00789Y-00585D01*
X-0088Y-00561D02*
X-00802Y-00584D01*
X-009Y-00551D02*
X-0088Y-00561D01*
X-0091Y-00544D02*
X-009Y-00551D01*
X-00915Y-00538D02*
X-0091Y-00544D01*
X-0092Y-00532D02*
X-00915Y-00538D01*
X-01019Y-00376D02*
X-0092Y-00532D01*
X-01047Y-00324D02*
X-01019Y-00376D01*
X-01057Y-00296D02*
X-01047Y-00324D01*
X-01065Y-00266D02*
X-01057Y-00296D01*
X-01074Y-00205D02*
X-01065Y-00266D01*
X-01074Y-00189D02*
X-01074Y-00205D01*
X-01074Y-00189D02*
X-01074Y-00173D01*
X-01065Y-00111*
X-01057Y-00082*
X-01047Y-00054*
X-01019Y-00002*
X-0092Y00153*
X-00913Y00162*
X-00904Y0017*
X-00894Y00176*
X-00843Y00196*
X-00789Y00207*
X-00664*
X-00652Y00206*
X-00579Y00185*
X-00555Y00174*
X-00545Y00167*
X-00539Y0016*
X-00533Y00153*
X-00434Y-00002*
X-00406Y-00054*
X-00397Y-00077*
X-00395Y-00084*
X-00391Y-0009*
X-00386Y-00095*
X-0038Y-001*
X-00374Y-00104*
X-00367Y-00107*
X-0036Y-00109*
X-00356Y-00109*
X-00353Y-00109*
X-00139*
X-00078*
X-00069Y-00108*
X-00061Y-00106*
X-00052Y-00101*
X-00047Y-00097*
X-00042Y-00092*
X-00037Y-00084*
X-00033Y-00076*
X-00031Y-00067*
X-00031Y-0006*
X-00032Y-00053D02*
X-00031Y-0006D01*
X-00043Y-00006D02*
X-00032Y-00053D01*
X-00057Y00039D02*
X-00043Y-00006D01*
X-00074Y00084D02*
X-00057Y00039D01*
X-00094Y00127D02*
X-00074Y00084D01*
X-00119Y00173D02*
X-00094Y00127D01*
X-00148Y00218D02*
X-00119Y00173D01*
X-0018Y00259D02*
X-00148Y00218D01*
X-00182Y00261D02*
X-0018Y00259D01*
X-00185Y00262D02*
X-00182Y00261D01*
X-00188Y00262D02*
X-00185Y00262D01*
X-00191Y00262D02*
X-00188Y00262D01*
X-00193Y00262D02*
X-00191Y00262D01*
X-00196Y00261D02*
X-00193Y00262D01*
X-00198Y00259D02*
X-00196Y00261D01*
X-00199Y00258D02*
X-00198Y00259D01*
X-0022Y00237D02*
X-00199Y00258D01*
X-00226Y00232D02*
X-0022Y00237D01*
X-00232Y00228D02*
X-00226Y00232D01*
X-00238Y00225D02*
X-00232Y00228D01*
X-00246Y00222D02*
X-00243Y00223D01*
X-00257Y0022D02*
X-00246Y00222D01*
X-00268Y00221D02*
X-00257Y0022D01*
X-00278Y00223D02*
X-00268Y00221D01*
X-00288Y00228D02*
X-00278Y00223D01*
X-00297Y00234D02*
X-00288Y00228D01*
X-00304Y00242D02*
X-00297Y00234D01*
X-0031Y00251D02*
X-00304Y00242D01*
X-00314Y00261D02*
X-0031Y00251D01*
X-00316Y00272D02*
X-00314Y00261D01*
X-00316Y00279D02*
X-00316Y00272D01*
X-00316Y00279D02*
X-00315Y00286D01*
X-00314Y00293*
X-00313Y00294D02*
X-00313Y00296D01*
X-00308Y00306*
X-00304Y00311*
X-003Y00316*
X-00279Y00337*
X-00277Y00339*
X-00276Y00342*
X-00275Y00344*
X-00274Y00347*
X-00275Y0035D02*
X-00274Y00347D01*
X-00275Y00352D02*
X-00275Y0035D01*
X-00276Y00355D02*
X-00275Y00352D01*
X-00278Y00357D02*
X-00276Y00355D01*
X-00279Y00359D02*
X-00278Y00357D01*
X-00333Y00398D02*
X-00279Y00359D01*
X-0039Y00433D02*
X-00333Y00398D01*
X-00399Y00437D02*
X-0039Y00433D01*
X-00409Y00439D02*
X-00399Y00437D01*
G54D73*
X-00481Y00328D03*
G54D74*
X-00742Y0038D03*
G54D75*
X-0109Y0036D03*
G54D76*
X-01055Y0034D03*
X-01089Y00259D03*
G54D77*
X-00726Y00319D03*
G54D78*
X-01157Y00108D03*
G54D79*
X-01261Y-00033D03*
X-01221Y-00073D03*
Y-00033D03*
Y00006D03*
X-01181Y-00033D03*
X-00479Y-00492D03*
X-01084Y-0025D03*
X-01085Y-00218D03*
X-0109Y-00473D03*
X-0075Y00244D03*
X-01061Y-00031D03*
X-0126Y00008D03*
Y-0007D03*
X-00862Y-00603D03*
X-00114Y-00307D03*
X-00095Y-00324D03*
X-00978Y0017D03*
X-0009Y-00348D03*
Y-00288D03*
X-00052Y-00298D03*
X-01187Y00008D03*
X-0119Y-00069D03*
X-0035Y-00494D03*
X-0009Y-00422D03*
X-00105Y-00452D03*
X-00278Y-00375D03*
X-00194Y-0037D03*
X-00252Y-00329D03*
X-00064Y-00371D03*
X-00105Y-00369D03*
Y-00487D03*
X-00336Y-00564D03*
X-00084Y-00389D03*
X-00064Y-00339D03*
X-00072Y-00311D03*
X-01399Y-0031D03*
X-00247Y-00582D03*
X-01341Y-0016D03*
X-00986Y00076D03*
X-00972Y00099D03*
X-01049Y00116D03*
X-01057Y00062D03*
X-01036Y00204D03*
X-00955Y00191D03*
X-01065Y00092D03*
X-01105Y00177D03*
X-01059Y00145D03*
X-01082Y00157D03*
X-00998Y00243D03*
X-01019Y00224D03*
X-01059Y00178D03*
X-00968Y00265D03*
X-00931Y0029D03*
X-00728Y0023D03*
X-00776Y00256D03*
X-00968Y00305D03*
X-01059Y00218D03*
X-0078Y00221D03*
X-01019Y00264D03*
X-00998Y00283D03*
X-00568Y-00859D03*
X-00529Y-0085D03*
X-0054Y-00746D03*
X-00612Y-00792D03*
X-0034Y-00662D03*
X-01036Y00244D03*
X-00902Y-00772D03*
X-00513Y-00581D03*
X-00701Y-00692D03*
X-01245Y-00247D03*
X-00405Y-0038D03*
X-01096Y-00672D03*
X-00715Y-00795D03*
X-01223Y00138D03*
X-01118Y00151D03*
X-01117Y00095D03*
X-01192Y00179D03*
X-01193Y00152D03*
X-01193Y00099D03*
X-01193Y00125D03*
X-01193Y00072D03*
X-00406Y-00626D03*
X-01226Y00184D03*
X-01095Y-00329D03*
X-0108Y00119D03*
X-00387Y-00356D03*
X-0121Y-00241D03*
X-01376Y-00395D03*
X-00886Y00293D03*
X-00811Y00264D03*
X-00842Y00285D03*
X-0019Y-0062D03*
X-0021Y-00598D03*
X-01339Y-00489D03*
X-00384Y-00558D03*
X-01238Y00075D03*
X-01082Y00197D03*
X-01353Y-00459D03*
X-00384Y-00326D03*
X-01384Y-00032D03*
X-0127Y00183D03*
X-01297Y00183D03*
X-0139Y-00346D03*
X-00641Y-0068D03*
X-00673Y-00678D03*
X-00612Y-00683D03*
G54D80*
X-00529Y-00558D03*
X-00737Y-00609D03*
X-01023Y-00517D03*
X-01128Y-00142D03*
X-01067Y-00544D03*
X-01085Y-00564D03*
X-01106Y-00582D03*
X-00958Y-00733D03*
X-00623Y-00617D03*
X-01128Y-00106D03*
X-01064Y-00062D03*
X-01168Y-00247D03*
X-01182Y-00199D03*
X-01103Y-00091D03*
X-01325Y00012D03*
X-01357Y-00077D03*
X-01308Y00039D03*
Y0007D03*
X-00134Y-00473D03*
Y-0044D03*
X-00309Y-00542D03*
X-01344Y-00345D03*
X-01297Y-00295D03*
X-01312Y-00337D03*
X-004Y-00451D03*
X-00995Y-00545D03*
X-0105Y-00521D03*
X-00465Y-00796D03*
X-00641Y-00792D03*
X-00328Y-00732D03*
X-00925Y-00792D03*
X-00773Y-00745D03*
X-00715Y-00732D03*
X-00438Y-00546D03*
X-00432Y-00519D03*
X-00459Y-00462D03*
X-01269Y-00326D03*
X-01223Y-00179D03*
X-011Y-00025D03*
X-01125Y00029D03*
X-00719Y-00839D03*
X-00684Y-00743D03*
X-00788Y-00609D03*
X-01296Y00137D03*
X-00828Y-00611D03*
X-01075Y-00293D03*
X-01131Y-00295D03*
X-00505Y-00684D03*
X-00473Y-00715D03*
X-00473Y-00689D03*
X-0087Y-00685D03*
X-01247Y-00205D03*
X-01283Y-00218D03*
X-00813Y-00693D03*
X-00822Y-00783D03*
X-01075Y-00593D03*
X-00825Y-00837D03*
X-00691Y-00834D03*
X-00572Y-00627D03*
X-01133Y-00512D03*
X-00528Y-00696D03*
X-00365Y-00534D03*
X-0109Y-00738D03*
X-01351Y-0028D03*
G54D81*
X-00174Y00042D03*
M02*