%FSTAX23Y23*%
%MOIN*%
%SFA1B1*%

%IPPOS*%
%ADD10C,0.012000*%
%ADD11C,0.007874*%
%ADD12C,0.009843*%
%ADD13C,0.010000*%
%ADD14C,0.003937*%
%ADD15C,0.005000*%
%LNflytta-36-1*%
%LPD*%
G36*
X-00246Y00014D02*
Y00004D01*
X-00251*
Y00014*
X-0026Y00029*
X-00254*
X-00248Y00019*
X-00242Y00029*
X-00237*
X-00246Y00014*
G37*
G36*
X-00147Y0001D02*
X-00156D01*
Y00015*
X-00147*
Y0001*
G37*
G36*
X-00127Y00029D02*
X-00127Y00029D01*
X-00126Y00029*
X-00126Y00029*
X-00125Y00029*
X-00124Y00028*
X-00124Y00028*
X-00123Y00028*
X-00123Y00028*
X-00123Y00027*
X-00122Y00027*
X-00122Y00027*
X-00122Y00027*
X-00122Y00027*
X-00122Y00027*
X-00121Y00026*
X-00121Y00026*
X-00121Y00026*
X-0012Y00025*
X-0012Y00024*
X-0012Y00023*
X-0012Y00023*
X-0012Y00023*
Y00022*
Y00022*
X-0012Y00022*
X-0012Y00022*
X-0012Y00022*
X-0012Y00021*
X-0012Y00021*
X-0012Y00021*
X-00121Y0002*
X-00121Y0002*
X-00121Y00019*
X-00121Y00019*
X-00122Y00018*
X-00122Y00018*
X-00123Y00018*
X-00124Y00017*
X-00124*
X-00123Y00017*
X-00123*
X-00123Y00017*
X-00123Y00017*
X-00122Y00017*
X-00122Y00016*
X-00121Y00016*
X-00121Y00016*
X-0012Y00015*
X-0012Y00015*
X-0012Y00015*
X-0012Y00014*
X-00119Y00014*
X-00119Y00013*
X-00119Y00013*
X-00119Y00012*
X-00119Y00011*
Y00011*
Y00011*
Y00011*
X-00119Y00011*
X-00119Y0001*
X-00119Y0001*
X-00119Y0001*
X-00119Y00009*
X-00119Y00008*
X-0012Y00008*
X-0012Y00007*
X-0012Y00007*
X-0012Y00006*
X-00121Y00006*
X-00121Y00006*
X-00121Y00006*
X-00121Y00005*
X-00121Y00005*
X-00122Y00005*
X-00122Y00005*
X-00122Y00005*
X-00123Y00005*
X-00123Y00004*
X-00123Y00004*
X-00124Y00004*
X-00124Y00004*
X-00125Y00004*
X-00125Y00003*
X-00126Y00003*
X-00127Y00003*
X-00127Y00003*
X-00128*
X-00128Y00003*
X-00128Y00003*
X-00128Y00003*
X-00129Y00003*
X-00129Y00003*
X-0013Y00004*
X-00131Y00004*
X-00132Y00004*
X-00132Y00005*
X-00133Y00005*
X-00133Y00005*
X-00133Y00005*
X-00133Y00005*
X-00133Y00005*
X-00133Y00006*
X-00134Y00006*
X-00134Y00006*
X-00134Y00006*
X-00134Y00007*
X-00134Y00007*
X-00135Y00007*
X-00135Y00008*
X-00135Y00009*
X-00135Y0001*
X-00136Y0001*
X-00131Y00011*
Y00011*
Y00011*
X-00131Y00011*
X-00131Y0001*
X-00131Y0001*
X-0013Y00009*
X-0013Y00009*
X-0013Y00009*
X-0013Y00008*
X-0013Y00008*
X-00129Y00008*
X-00129Y00008*
X-00129Y00008*
X-00129Y00008*
X-00128Y00007*
X-00128Y00007*
X-00127Y00007*
X-00127*
X-00127Y00007*
X-00127Y00007*
X-00126Y00007*
X-00126Y00008*
X-00126Y00008*
X-00125Y00008*
X-00125Y00008*
X-00125Y00008*
X-00125Y00009*
X-00124Y00009*
X-00124Y00009*
X-00124Y0001*
X-00124Y0001*
X-00124Y00011*
X-00124Y00011*
Y00011*
Y00012*
Y00012*
X-00124Y00012*
X-00124Y00012*
X-00124Y00013*
X-00124Y00013*
X-00124Y00014*
X-00125Y00014*
X-00125Y00014*
X-00125Y00015*
X-00125Y00015*
X-00125Y00015*
X-00126Y00015*
X-00126Y00015*
X-00127Y00015*
X-00127Y00015*
X-00127*
X-00128Y00015*
X-00128Y00015*
X-00128Y00015*
X-00129Y00015*
X-00129Y00015*
X-00129Y00019*
X-00129*
X-00128Y00019*
X-00128Y00019*
X-00127Y00019*
X-00127Y00019*
X-00126Y0002*
X-00126Y0002*
X-00126Y0002*
X-00126Y0002*
X-00125Y0002*
X-00125Y0002*
X-00125Y00021*
X-00125Y00021*
X-00125Y00022*
X-00125Y00022*
Y00022*
Y00022*
X-00125Y00023*
X-00125Y00023*
X-00125Y00023*
X-00125Y00024*
X-00125Y00024*
X-00126Y00024*
X-00126Y00024*
X-00126Y00024*
X-00126Y00025*
X-00126Y00025*
X-00126Y00025*
X-00127Y00025*
X-00127Y00025*
X-00128Y00025*
X-00128*
X-00128Y00025*
X-00128Y00025*
X-00129Y00025*
X-00129Y00025*
X-00129Y00024*
X-0013Y00024*
X-0013Y00024*
X-0013Y00024*
X-0013Y00024*
X-0013Y00023*
X-0013Y00023*
X-0013Y00023*
X-00131Y00022*
X-00131Y00022*
X-00135Y00022*
Y00022*
X-00135Y00022*
Y00023*
X-00135Y00023*
X-00135Y00023*
X-00135Y00024*
X-00135Y00024*
X-00134Y00025*
X-00134Y00025*
X-00134Y00026*
X-00134Y00026*
X-00134Y00026*
X-00133Y00027*
X-00133Y00027*
X-00133Y00027*
X-00132Y00028*
X-00132Y00028*
X-00131Y00028*
X-00131*
X-00131Y00028*
X-00131Y00028*
X-00131Y00028*
X-0013Y00029*
X-0013Y00029*
X-00129Y00029*
X-00128Y00029*
X-00127Y00029*
X-00127*
X-00127Y00029*
G37*
G36*
X-00168Y00004D02*
X-00174D01*
X-00176Y00009*
X-00186*
X-00188Y00004*
X-00194*
X-00184Y00029*
X-00178*
X-00168Y00004*
G37*
G36*
X-00194Y00025D02*
X-00202D01*
Y00004*
X-00207*
Y00025*
X-00214*
Y00029*
X-00194*
Y00025*
G37*
G36*
X-00216D02*
X-00223D01*
Y00004*
X-00228*
Y00025*
X-00236*
Y00029*
X-00216*
Y00025*
G37*
G36*
X-00274Y00008D02*
X-00261D01*
Y00004*
X-00279*
Y00029*
X-00274*
Y00008*
G37*
G36*
X-00283Y00025D02*
X-00295D01*
Y00019*
X-00285*
Y00014*
X-00295*
Y00004*
X-00301*
Y00029*
X-00283*
Y00025*
G37*
G36*
X-00107Y00029D02*
X-00107Y00029D01*
X-00106Y00029*
X-00106Y00029*
X-00106Y00029*
X-00105Y00029*
X-00105Y00028*
X-00104Y00028*
X-00104Y00028*
X-00103Y00028*
X-00103Y00027*
X-00102Y00027*
X-00102Y00026*
X-00102Y00026*
X-00102Y00026*
X-00102Y00026*
X-00102Y00026*
X-00101Y00025*
X-00101Y00025*
X-00101Y00025*
X-00101Y00024*
X-001Y00023*
X-001Y00022*
X-001Y00022*
X-001Y00021*
X-001Y0002*
X-001Y00019*
X-00099Y00017*
X-00099Y00016*
Y00016*
Y00016*
Y00016*
Y00016*
Y00015*
X-00099Y00015*
X-001Y00014*
X-001Y00014*
X-001Y00013*
X-001Y00012*
X-001Y00011*
X-001Y0001*
X-001Y0001*
X-001Y00009*
X-00101Y00008*
X-00101Y00007*
X-00101Y00006*
X-00102Y00006*
X-00102Y00006*
X-00102Y00006*
X-00102Y00006*
X-00102Y00005*
X-00102Y00005*
X-00103Y00005*
X-00103Y00005*
X-00103Y00005*
X-00104Y00004*
X-00104Y00004*
X-00105Y00004*
X-00105Y00004*
X-00106Y00003*
X-00106Y00003*
X-00107Y00003*
X-00108Y00003*
X-00108*
X-00108Y00003*
X-00108*
X-00109Y00003*
X-00109Y00003*
X-00109Y00003*
X-0011Y00004*
X-0011Y00004*
X-00111Y00004*
X-00111Y00004*
X-00112Y00004*
X-00112Y00005*
X-00113Y00005*
X-00113Y00006*
X-00114Y00006*
X-00114Y00006*
X-00114Y00006*
X-00114Y00006*
X-00114Y00007*
X-00114Y00007*
X-00114Y00007*
X-00114Y00008*
X-00115Y00008*
X-00115Y00009*
X-00115Y0001*
X-00115Y00011*
X-00115Y00011*
X-00116Y00012*
X-00116Y00014*
X-00116Y00015*
X-00116Y00016*
Y00016*
Y00016*
Y00016*
Y00016*
Y00017*
X-00116Y00017*
X-00116Y00018*
X-00116Y00019*
X-00116Y00019*
X-00115Y0002*
X-00115Y00021*
X-00115Y00022*
X-00115Y00023*
X-00115Y00023*
X-00114Y00024*
X-00114Y00025*
X-00114Y00026*
X-00113Y00026*
X-00113Y00026*
X-00113Y00027*
X-00113Y00027*
X-00113Y00027*
X-00113Y00027*
X-00113Y00027*
X-00112Y00027*
X-00112Y00028*
X-00111Y00028*
X-00111Y00028*
X-00111Y00028*
X-0011Y00029*
X-0011Y00029*
X-00109Y00029*
X-00108Y00029*
X-00108Y00029*
X-00107*
X-00107Y00029*
G37*
G36*
X-00216Y-0005D02*
X-00221D01*
Y-00046*
X-00216*
Y-0005*
G37*
G36*
X-00148Y-00045D02*
X-00147Y-00045D01*
X-00147Y-00045*
X-00146Y-00045*
X-00146Y-00045*
X-00145Y-00046*
X-00143Y-00046*
X-00143Y-00046*
X-00142Y-00047*
X-00142Y-00047*
X-00141Y-00047*
X-00141Y-00047*
X-00141Y-00047*
X-00141Y-00047*
X-00141Y-00048*
X-00141Y-00048*
X-0014Y-00048*
X-0014Y-00048*
X-0014Y-00049*
X-0014Y-00049*
X-00139Y-00049*
X-00139Y-0005*
X-00139Y-0005*
X-00138Y-00051*
X-00138Y-00051*
X-00138Y-00052*
X-00138Y-00053*
X-00143Y-00054*
Y-00054*
X-00143Y-00053*
X-00143Y-00053*
X-00143Y-00053*
X-00143Y-00053*
X-00144Y-00052*
X-00144Y-00052*
X-00144Y-00051*
X-00145Y-00051*
X-00145Y-00051*
X-00145Y-0005*
X-00145Y-0005*
X-00146Y-0005*
X-00146Y-0005*
X-00147Y-0005*
X-00148Y-0005*
X-00149Y-0005*
X-00149*
X-00149Y-0005*
X-00149Y-0005*
X-0015Y-0005*
X-0015Y-0005*
X-0015Y-0005*
X-00151Y-0005*
X-00152Y-0005*
X-00152Y-0005*
X-00153Y-00051*
X-00153Y-00051*
X-00153Y-00051*
X-00154Y-00052*
X-00154Y-00052*
X-00154Y-00052*
X-00154Y-00052*
X-00154Y-00052*
X-00154Y-00052*
X-00154Y-00053*
X-00155Y-00053*
X-00155Y-00053*
X-00155Y-00054*
X-00155Y-00054*
X-00155Y-00055*
X-00155Y-00055*
X-00156Y-00056*
X-00156Y-00057*
X-00156Y-00057*
X-00156Y-00058*
Y-00058*
Y-00058*
Y-00058*
X-00156Y-00059*
X-00156Y-00059*
X-00156Y-0006*
X-00156Y-0006*
X-00156Y-00061*
X-00155Y-00062*
X-00155Y-00063*
X-00155Y-00063*
X-00154Y-00064*
X-00154Y-00064*
X-00154Y-00065*
X-00154Y-00065*
X-00154Y-00065*
X-00154Y-00065*
X-00153Y-00065*
X-00153Y-00065*
X-00153Y-00065*
X-00153Y-00066*
X-00152Y-00066*
X-00152Y-00066*
X-00152Y-00066*
X-00151Y-00067*
X-0015Y-00067*
X-0015Y-00067*
X-00149Y-00067*
X-00149Y-00067*
X-00148*
X-00148Y-00067*
X-00148Y-00067*
X-00147Y-00067*
X-00147Y-00067*
X-00146Y-00067*
X-00145Y-00066*
X-00145*
X-00145Y-00066*
X-00145Y-00066*
X-00145Y-00066*
X-00144Y-00066*
X-00144Y-00066*
X-00144Y-00065*
X-00143Y-00065*
X-00143Y-00065*
Y-00062*
X-00148*
Y-00057*
X-00137*
Y-00068*
X-00138Y-00068*
X-00138Y-00068*
X-00138Y-00068*
X-00138Y-00068*
X-00138Y-00068*
X-00139Y-00068*
X-00139Y-00069*
X-0014Y-00069*
X-00141Y-0007*
X-00142Y-0007*
X-00142*
X-00142Y-0007*
X-00142Y-0007*
X-00143Y-0007*
X-00143Y-0007*
X-00143Y-00071*
X-00144Y-00071*
X-00144Y-00071*
X-00145Y-00071*
X-00146Y-00071*
X-00147Y-00071*
X-00148Y-00071*
X-00149*
X-00149Y-00071*
X-00149*
X-0015Y-00071*
X-0015Y-00071*
X-00151Y-00071*
X-00152Y-00071*
X-00153Y-00071*
X-00154Y-0007*
X-00155Y-0007*
X-00155Y-0007*
X-00155Y-0007*
X-00155Y-0007*
X-00155Y-0007*
X-00156Y-00069*
X-00156Y-00069*
X-00156Y-00069*
X-00156Y-00069*
X-00157Y-00068*
X-00158Y-00068*
X-00158Y-00067*
X-00159Y-00066*
X-0016Y-00065*
Y-00065*
X-0016Y-00065*
X-0016Y-00065*
X-0016Y-00064*
X-0016Y-00064*
X-0016Y-00064*
X-0016Y-00063*
X-0016Y-00063*
X-0016Y-00062*
X-00161Y-00062*
X-00161Y-00061*
X-00161Y-0006*
X-00161Y-00058*
Y-00058*
Y-00058*
Y-00058*
X-00161Y-00058*
Y-00057*
X-00161Y-00057*
X-00161Y-00056*
X-00161Y-00056*
X-00161Y-00055*
X-0016Y-00054*
X-0016Y-00052*
X-0016Y-00052*
X-00159Y-00051*
X-00159Y-00051*
X-00159Y-00051*
X-00159Y-00051*
X-00159Y-00051*
X-00159Y-0005*
X-00159Y-0005*
X-00158Y-0005*
X-00158Y-00049*
X-00158Y-00049*
X-00157Y-00049*
X-00157Y-00048*
X-00157Y-00048*
X-00156Y-00048*
X-00156Y-00047*
X-00155Y-00046*
X-00155*
X-00154Y-00046*
X-00154Y-00046*
X-00154Y-00046*
X-00154Y-00046*
X-00154Y-00046*
X-00153Y-00046*
X-00153Y-00046*
X-00152Y-00046*
X-00152Y-00046*
X-00152Y-00046*
X-00151Y-00045*
X-0015Y-00045*
X-00149Y-00045*
X-00148*
X-00148Y-00045*
G37*
G36*
X-00292Y-00071D02*
X-00297D01*
Y-00068*
X-00297Y-00068*
X-00297Y-00068*
X-00297Y-00069*
X-00297Y-00069*
X-00298Y-00069*
X-00298Y-0007*
X-00299Y-0007*
X-00299Y-00071*
X-00299Y-00071*
X-00299Y-00071*
X-003Y-00071*
X-003Y-00071*
X-00301Y-00071*
X-00301Y-00071*
X-00302Y-00071*
X-00302Y-00071*
X-00303*
X-00303Y-00071*
X-00303Y-00071*
X-00303Y-00071*
X-00304Y-00071*
X-00304Y-00071*
X-00305Y-00071*
X-00305Y-00071*
X-00305Y-0007*
X-00306Y-0007*
X-00306Y-0007*
X-00307Y-0007*
X-00307Y-00069*
X-00308Y-00069*
X-00308Y-00069*
X-00308Y-00069*
X-00308Y-00069*
X-00308Y-00068*
X-00308Y-00068*
X-00308Y-00068*
X-00309Y-00067*
X-00309Y-00067*
X-00309Y-00066*
X-00309Y-00066*
X-00309Y-00065*
X-0031Y-00065*
X-0031Y-00064*
X-0031Y-00063*
X-0031Y-00063*
X-0031Y-00062*
Y-00062*
Y-00061*
Y-00061*
X-0031Y-00061*
X-0031Y-00061*
X-0031Y-0006*
X-0031Y-0006*
X-0031Y-00059*
X-00309Y-00058*
X-00309Y-00057*
X-00309Y-00057*
X-00309Y-00056*
X-00308Y-00056*
X-00308Y-00055*
X-00308Y-00055*
X-00308Y-00055*
X-00308Y-00055*
X-00308Y-00054*
X-00307Y-00054*
X-00307Y-00054*
X-00307Y-00054*
X-00307Y-00054*
X-00306Y-00053*
X-00306Y-00053*
X-00305Y-00053*
X-00305Y-00053*
X-00304Y-00052*
X-00303Y-00052*
X-00303Y-00052*
X-00302Y-00052*
X-00302*
X-00302Y-00052*
X-00301Y-00052*
X-00301Y-00052*
X-00301Y-00052*
X-003Y-00053*
X-003Y-00053*
X-003Y-00053*
X-00299Y-00053*
X-00299Y-00053*
X-00298Y-00054*
X-00298Y-00054*
X-00297Y-00054*
X-00297Y-00055*
Y-00046*
X-00292*
Y-00071*
G37*
G36*
X-00112Y-00052D02*
X-00111Y-00052D01*
X-00111Y-00052*
X-0011Y-00053*
X-00109Y-00053*
X-00109Y-00053*
X-00109Y-00053*
X-00109Y-00053*
X-00108Y-00053*
X-00108Y-00054*
X-00108Y-00054*
X-00107Y-00054*
X-00107Y-00055*
X-00107Y-00055*
X-00107Y-00055*
X-00107Y-00056*
X-00107Y-00056*
X-00107Y-00056*
X-00106Y-00057*
X-00106Y-00058*
X-00106Y-00058*
X-00106Y-00059*
Y-00071*
X-00111*
Y-0006*
Y-0006*
Y-0006*
Y-0006*
Y-0006*
X-00111Y-0006*
X-00111Y-00059*
X-00111Y-00058*
X-00111Y-00058*
X-00111Y-00057*
X-00112Y-00057*
X-00112Y-00057*
X-00112Y-00057*
X-00112Y-00057*
X-00112Y-00057*
X-00112Y-00056*
X-00112Y-00056*
X-00113Y-00056*
X-00113Y-00056*
X-00114Y-00056*
X-00114*
X-00114Y-00056*
X-00114Y-00056*
X-00115Y-00056*
X-00115Y-00056*
X-00115Y-00056*
X-00116Y-00057*
X-00116Y-00057*
X-00116Y-00057*
X-00116Y-00057*
X-00116Y-00057*
X-00116Y-00057*
X-00117Y-00058*
X-00117Y-00058*
X-00117Y-00058*
Y-00058*
X-00117Y-00059*
X-00117Y-00059*
X-00117Y-00059*
X-00117Y-0006*
X-00117Y-0006*
X-00117Y-00061*
Y-00062*
Y-00071*
X-00122*
Y-00061*
Y-00061*
Y-00061*
Y-00061*
Y-0006*
Y-0006*
X-00122Y-00059*
X-00122Y-00059*
X-00122Y-00058*
X-00122Y-00058*
X-00122Y-00058*
X-00122Y-00057*
Y-00057*
X-00122Y-00057*
X-00123Y-00057*
X-00123Y-00057*
X-00123Y-00057*
X-00123Y-00056*
X-00123Y-00056*
X-00123Y-00056*
X-00123Y-00056*
X-00123Y-00056*
X-00124Y-00056*
X-00124Y-00056*
X-00124Y-00056*
X-00124Y-00056*
X-00125*
X-00125Y-00056*
X-00125Y-00056*
X-00126Y-00056*
X-00126Y-00056*
X-00126Y-00056*
X-00127Y-00057*
X-00127Y-00057*
X-00127Y-00057*
X-00127Y-00057*
X-00127Y-00057*
X-00127Y-00057*
X-00128Y-00058*
X-00128Y-00058*
X-00128Y-00058*
Y-00058*
X-00128Y-00059*
X-00128Y-00059*
X-00128Y-00059*
X-00128Y-0006*
X-00128Y-0006*
X-00128Y-00061*
Y-00062*
Y-00071*
X-00133*
Y-00053*
X-00129*
Y-00055*
X-00129Y-00055*
X-00129Y-00055*
X-00128Y-00055*
X-00128Y-00055*
X-00128Y-00054*
X-00128Y-00054*
X-00127Y-00054*
X-00127Y-00054*
X-00127Y-00053*
X-00126Y-00053*
X-00125Y-00053*
X-00125Y-00052*
X-00124Y-00052*
X-00124Y-00052*
X-00123Y-00052*
X-00123*
X-00122Y-00052*
X-00122Y-00052*
X-00122Y-00052*
X-00121Y-00053*
X-00121Y-00053*
X-0012Y-00053*
X-0012Y-00053*
X-0012Y-00053*
X-0012Y-00053*
X-00119Y-00053*
X-00119Y-00054*
X-00119Y-00054*
X-00118Y-00055*
X-00118Y-00055*
X-00118Y-00055*
X-00118Y-00055*
X-00117Y-00055*
X-00117Y-00054*
X-00117Y-00054*
X-00116Y-00054*
X-00116Y-00053*
X-00115Y-00053*
X-00115Y-00053*
X-00115Y-00053*
X-00115Y-00053*
X-00114Y-00053*
X-00114Y-00052*
X-00113Y-00052*
X-00113Y-00052*
X-00112Y-00052*
X-00112*
X-00112Y-00052*
G37*
G36*
X-002D02*
X-002Y-00052D01*
X-00199Y-00052*
X-00199Y-00052*
X-00198Y-00053*
X-00198Y-00053*
X-00198Y-00053*
X-00197Y-00053*
X-00197Y-00053*
X-00197Y-00053*
X-00197Y-00053*
X-00196Y-00054*
X-00196Y-00054*
X-00196Y-00054*
X-00196Y-00054*
X-00196Y-00054*
X-00195Y-00055*
X-00195Y-00055*
X-00195Y-00055*
X-00195Y-00056*
X-00195Y-00056*
X-00195Y-00056*
Y-00056*
X-00195Y-00057*
X-00195Y-00057*
X-00195Y-00057*
X-00195Y-00058*
X-00194Y-00058*
X-00194Y-00059*
Y-0006*
Y-00071*
X-00199*
Y-00062*
Y-00062*
Y-00061*
Y-00061*
Y-00061*
Y-00061*
Y-00061*
X-00199Y-0006*
X-00199Y-00059*
X-00199Y-00059*
X-00199Y-00058*
X-002Y-00058*
X-002Y-00058*
Y-00058*
X-002Y-00058*
X-002Y-00057*
X-002Y-00057*
X-002Y-00057*
X-002Y-00057*
X-00201Y-00056*
X-00201Y-00056*
X-00201Y-00056*
X-00201Y-00056*
X-00201Y-00056*
X-00201Y-00056*
X-00202Y-00056*
X-00202Y-00056*
X-00202Y-00056*
X-00203*
X-00203Y-00056*
X-00203Y-00056*
X-00203Y-00056*
X-00204Y-00056*
X-00204Y-00056*
X-00205Y-00057*
X-00205Y-00057*
X-00205Y-00057*
X-00205Y-00057*
X-00205Y-00057*
X-00205Y-00057*
X-00206Y-00058*
X-00206Y-00058*
X-00206Y-00058*
Y-00059*
X-00206Y-00059*
X-00206Y-00059*
X-00206Y-00059*
X-00206Y-0006*
X-00206Y-0006*
X-00206Y-0006*
Y-00061*
X-00206Y-00061*
X-00206Y-00062*
Y-00062*
Y-00063*
Y-00071*
X-00211*
Y-00053*
X-00207*
Y-00055*
X-00207Y-00055*
X-00207Y-00055*
X-00206Y-00055*
X-00206Y-00055*
X-00206Y-00055*
X-00206Y-00054*
X-00205Y-00054*
X-00205Y-00054*
X-00205Y-00053*
X-00204Y-00053*
X-00204Y-00053*
X-00203Y-00053*
X-00203Y-00053*
X-00202Y-00052*
X-00201Y-00052*
X-00201Y-00052*
X-002*
X-002Y-00052*
G37*
G36*
X-00253D02*
X-00252Y-00052D01*
X-00252Y-00052*
X-00252Y-00052*
X-00251Y-00053*
X-00251Y-00053*
X-0025Y-00053*
X-0025Y-00053*
X-0025Y-00053*
X-0025Y-00053*
X-00249Y-00053*
X-00249Y-00054*
X-00249Y-00054*
X-00248Y-00054*
X-00248Y-00054*
X-00248Y-00054*
X-00248Y-00055*
X-00248Y-00055*
X-00248Y-00055*
X-00248Y-00056*
X-00248Y-00056*
X-00248Y-00056*
Y-00056*
X-00248Y-00057*
X-00247Y-00057*
X-00247Y-00057*
X-00247Y-00058*
X-00247Y-00058*
X-00247Y-00059*
Y-0006*
Y-00071*
X-00252*
Y-00062*
Y-00062*
Y-00061*
Y-00061*
Y-00061*
Y-00061*
Y-00061*
X-00252Y-0006*
X-00252Y-00059*
X-00252Y-00059*
X-00252Y-00058*
X-00252Y-00058*
X-00252Y-00058*
Y-00058*
X-00252Y-00058*
X-00253Y-00057*
X-00253Y-00057*
X-00253Y-00057*
X-00253Y-00057*
X-00253Y-00056*
X-00253Y-00056*
X-00254Y-00056*
X-00254Y-00056*
X-00254Y-00056*
X-00254Y-00056*
X-00254Y-00056*
X-00255Y-00056*
X-00255Y-00056*
X-00255*
X-00256Y-00056*
X-00256Y-00056*
X-00256Y-00056*
X-00257Y-00056*
X-00257Y-00056*
X-00257Y-00057*
X-00257Y-00057*
X-00258Y-00057*
X-00258Y-00057*
X-00258Y-00057*
X-00258Y-00057*
X-00258Y-00058*
X-00259Y-00058*
X-00259Y-00058*
Y-00059*
X-00259Y-00059*
X-00259Y-00059*
X-00259Y-00059*
X-00259Y-0006*
X-00259Y-0006*
X-00259Y-0006*
Y-00061*
X-00259Y-00061*
X-00259Y-00062*
Y-00062*
Y-00063*
Y-00071*
X-00264*
Y-00053*
X-00259*
Y-00055*
X-00259Y-00055*
X-00259Y-00055*
X-00259Y-00055*
X-00259Y-00055*
X-00259Y-00055*
X-00258Y-00054*
X-00258Y-00054*
X-00258Y-00054*
X-00257Y-00053*
X-00257Y-00053*
X-00256Y-00053*
X-00256Y-00053*
X-00255Y-00053*
X-00255Y-00052*
X-00254Y-00052*
X-00253Y-00052*
X-00253*
X-00253Y-00052*
G37*
G36*
X-0006Y-00071D02*
X-00065D01*
Y-0006*
X-00075*
Y-00071*
X-0008*
Y-00046*
X-00075*
Y-00056*
X-00065*
Y-00046*
X-0006*
Y-00071*
G37*
G36*
X-00334D02*
X-00338D01*
X-00338Y-00051*
X-00343Y-00071*
X-00348*
X-00353Y-00051*
Y-00071*
X-00358*
Y-00046*
X-0035*
X-00346Y-00063*
X-00341Y-00046*
X-00334*
Y-00071*
G37*
G36*
X-00216D02*
X-00221D01*
Y-00053*
X-00216*
Y-00071*
G37*
G36*
X-00269Y-0005D02*
X-00282D01*
Y-00056*
X-0027*
Y-0006*
X-00282*
Y-00067*
X-00268*
Y-00071*
X-00287*
Y-00046*
X-00269*
Y-0005*
G37*
G36*
X-00097Y-00055D02*
X-00097Y-00055D01*
X-00097Y-00055*
X-00097Y-00055*
X-00096Y-00054*
X-00096Y-00054*
X-00096Y-00054*
X-00096Y-00054*
X-00095Y-00053*
X-00095Y-00053*
X-00094Y-00053*
X-00093Y-00052*
X-00093Y-00052*
X-00092Y-00052*
X-00092Y-00052*
X-00091*
X-00091Y-00052*
X-00091Y-00052*
X-0009Y-00052*
X-0009Y-00052*
X-0009Y-00053*
X-00089Y-00053*
X-00088Y-00053*
X-00088Y-00053*
X-00087Y-00054*
X-00087Y-00054*
X-00086Y-00054*
X-00086Y-00055*
X-00086Y-00055*
X-00086Y-00055*
X-00086Y-00055*
X-00086Y-00055*
X-00086Y-00055*
X-00085Y-00056*
X-00085Y-00056*
X-00085Y-00056*
X-00085Y-00057*
X-00085Y-00057*
X-00084Y-00058*
X-00084Y-00059*
X-00084Y-00059*
X-00084Y-0006*
X-00084Y-00061*
X-00084Y-00062*
Y-00062*
Y-00062*
Y-00062*
X-00084Y-00062*
X-00084Y-00063*
X-00084Y-00063*
X-00084Y-00064*
X-00084Y-00064*
X-00084Y-00065*
X-00085Y-00066*
X-00085Y-00067*
X-00085Y-00067*
X-00085Y-00068*
X-00086Y-00068*
X-00086Y-00069*
X-00086Y-00069*
X-00086Y-00069*
X-00086Y-00069*
X-00086Y-00069*
X-00087Y-00069*
X-00087Y-0007*
X-00087Y-0007*
X-00088Y-0007*
X-00088Y-0007*
X-00088Y-0007*
X-00089Y-00071*
X-0009Y-00071*
X-0009Y-00071*
X-00091Y-00071*
X-00091Y-00071*
X-00092*
X-00092Y-00071*
X-00092Y-00071*
X-00093Y-00071*
X-00093Y-00071*
X-00094Y-00071*
X-00095Y-00071*
X-00095Y-0007*
X-00095Y-0007*
X-00095Y-0007*
X-00095Y-0007*
X-00096Y-0007*
X-00096Y-00069*
X-00097Y-00069*
X-00097Y-00068*
Y-00071*
X-00102*
Y-00046*
X-00097*
Y-00055*
G37*
G36*
X-00182Y-00052D02*
X-00182Y-00052D01*
X-00181Y-00052*
X-00181Y-00052*
X-0018Y-00053*
X-0018Y-00053*
X-00179Y-00053*
X-00179Y-00053*
X-00178Y-00053*
X-00178Y-00054*
X-00177Y-00054*
X-00177Y-00054*
X-00176Y-00055*
X-00176Y-00055*
X-00176Y-00055*
X-00176Y-00055*
X-00176Y-00055*
X-00176Y-00056*
X-00175Y-00056*
X-00175Y-00057*
X-00175Y-00057*
X-00175Y-00058*
X-00175Y-00058*
X-00174Y-00059*
X-00174Y-0006*
X-00174Y-0006*
X-00174Y-00061*
X-00174Y-00062*
Y-00063*
X-00186*
Y-00063*
Y-00063*
Y-00063*
X-00186Y-00064*
X-00186Y-00064*
X-00186Y-00064*
X-00186Y-00065*
X-00185Y-00065*
X-00185Y-00066*
X-00185Y-00067*
X-00185Y-00067*
X-00185Y-00067*
X-00184Y-00067*
X-00184Y-00067*
X-00184Y-00067*
X-00183Y-00068*
X-00183Y-00068*
X-00182Y-00068*
X-00182*
X-00182Y-00068*
X-00181Y-00068*
X-00181Y-00068*
X-00181Y-00067*
X-0018Y-00067*
X-0018Y-00067*
X-0018Y-00067*
X-0018Y-00067*
X-0018Y-00067*
X-0018Y-00067*
X-0018Y-00066*
X-00179Y-00066*
X-00179Y-00066*
X-00179Y-00065*
X-00174Y-00066*
Y-00066*
X-00174Y-00066*
X-00174Y-00066*
X-00174Y-00066*
X-00174Y-00067*
X-00175Y-00067*
X-00175Y-00067*
X-00175Y-00068*
X-00176Y-00069*
X-00176Y-00069*
X-00177Y-0007*
X-00177*
X-00177Y-0007*
X-00177Y-0007*
X-00177Y-0007*
X-00178Y-0007*
X-00178Y-0007*
X-00178Y-0007*
X-00178Y-00071*
X-00179Y-00071*
X-0018Y-00071*
X-00181Y-00071*
X-00182Y-00071*
X-00182*
X-00183Y-00071*
X-00183*
X-00183Y-00071*
X-00184Y-00071*
X-00184Y-00071*
X-00185Y-00071*
X-00185Y-00071*
X-00186Y-00071*
X-00186Y-0007*
X-00187Y-0007*
X-00188Y-0007*
X-00188Y-00069*
X-00189Y-00069*
X-00189Y-00068*
X-00189Y-00068*
X-00189Y-00068*
X-00189Y-00068*
X-00189Y-00068*
X-0019Y-00068*
X-0019Y-00067*
X-0019Y-00067*
X-0019Y-00066*
X-0019Y-00066*
X-0019Y-00066*
X-00191Y-00065*
X-00191Y-00064*
X-00191Y-00064*
X-00191Y-00063*
X-00191Y-00063*
X-00191Y-00062*
Y-00062*
Y-00062*
Y-00061*
X-00191Y-00061*
X-00191Y-00061*
X-00191Y-0006*
X-00191Y-0006*
X-00191Y-00059*
X-0019Y-00058*
X-0019Y-00058*
X-0019Y-00057*
X-0019Y-00056*
X-00189Y-00056*
X-00189Y-00055*
X-00189Y-00055*
X-00189Y-00055*
X-00188Y-00055*
X-00188Y-00055*
X-00188Y-00054*
X-00188Y-00054*
X-00188Y-00054*
X-00187Y-00054*
X-00187Y-00053*
X-00187Y-00053*
X-00186Y-00053*
X-00186Y-00053*
X-00185Y-00053*
X-00184Y-00052*
X-00184Y-00052*
X-00183Y-00052*
X-00183Y-00052*
X-00182*
X-00182Y-00052*
G37*
G36*
X-00321D02*
X-0032Y-00052D01*
X-0032Y-00052*
X-0032Y-00052*
X-00319Y-00053*
X-00319Y-00053*
X-00318Y-00053*
X-00318Y-00053*
X-00317Y-00053*
X-00317Y-00054*
X-00316Y-00054*
X-00316Y-00054*
X-00315Y-00055*
X-00315Y-00055*
X-00315Y-00055*
X-00315Y-00055*
X-00315Y-00055*
X-00315Y-00056*
X-00314Y-00056*
X-00314Y-00057*
X-00314Y-00057*
X-00314Y-00058*
X-00313Y-00058*
X-00313Y-00059*
X-00313Y-0006*
X-00313Y-0006*
X-00313Y-00061*
X-00313Y-00062*
Y-00063*
X-00325*
Y-00063*
Y-00063*
Y-00063*
X-00325Y-00064*
X-00325Y-00064*
X-00325Y-00064*
X-00325Y-00065*
X-00324Y-00065*
X-00324Y-00066*
X-00324Y-00067*
X-00324Y-00067*
X-00324Y-00067*
X-00323Y-00067*
X-00323Y-00067*
X-00323Y-00067*
X-00322Y-00068*
X-00322Y-00068*
X-00321Y-00068*
X-00321*
X-00321Y-00068*
X-0032Y-00068*
X-0032Y-00068*
X-0032Y-00067*
X-00319Y-00067*
X-00319Y-00067*
X-00319Y-00067*
X-00319Y-00067*
X-00319Y-00067*
X-00319Y-00067*
X-00318Y-00066*
X-00318Y-00066*
X-00318Y-00066*
X-00318Y-00065*
X-00313Y-00066*
Y-00066*
X-00313Y-00066*
X-00313Y-00066*
X-00313Y-00066*
X-00313Y-00067*
X-00313Y-00067*
X-00314Y-00067*
X-00314Y-00068*
X-00315Y-00069*
X-00315Y-00069*
X-00316Y-0007*
X-00316*
X-00316Y-0007*
X-00316Y-0007*
X-00316Y-0007*
X-00317Y-0007*
X-00317Y-0007*
X-00317Y-0007*
X-00317Y-00071*
X-00318Y-00071*
X-00319Y-00071*
X-0032Y-00071*
X-00321Y-00071*
X-00321*
X-00321Y-00071*
X-00322*
X-00322Y-00071*
X-00323Y-00071*
X-00323Y-00071*
X-00324Y-00071*
X-00324Y-00071*
X-00325Y-00071*
X-00325Y-0007*
X-00326Y-0007*
X-00327Y-0007*
X-00327Y-00069*
X-00328Y-00069*
X-00328Y-00068*
X-00328Y-00068*
X-00328Y-00068*
X-00328Y-00068*
X-00328Y-00068*
X-00328Y-00068*
X-00329Y-00067*
X-00329Y-00067*
X-00329Y-00066*
X-00329Y-00066*
X-00329Y-00066*
X-00329Y-00065*
X-0033Y-00064*
X-0033Y-00064*
X-0033Y-00063*
X-0033Y-00063*
X-0033Y-00062*
Y-00062*
Y-00062*
Y-00061*
X-0033Y-00061*
X-0033Y-00061*
X-0033Y-0006*
X-0033Y-0006*
X-0033Y-00059*
X-00329Y-00058*
X-00329Y-00058*
X-00329Y-00057*
X-00329Y-00056*
X-00328Y-00056*
X-00328Y-00055*
X-00327Y-00055*
X-00327Y-00055*
X-00327Y-00055*
X-00327Y-00055*
X-00327Y-00054*
X-00327Y-00054*
X-00327Y-00054*
X-00326Y-00054*
X-00326Y-00053*
X-00325Y-00053*
X-00325Y-00053*
X-00324Y-00053*
X-00324Y-00053*
X-00323Y-00052*
X-00323Y-00052*
X-00322Y-00052*
X-00322Y-00052*
X-00321*
X-00321Y-00052*
G37*
G36*
X-00235D02*
X-00235D01*
X-00235Y-00052*
X-00235Y-00052*
X-00234Y-00052*
X-00234Y-00053*
X-00233Y-00053*
X-00233Y-00053*
X-00232Y-00053*
X-00232Y-00053*
X-00231Y-00054*
X-00231Y-00054*
X-00231Y-00055*
X-0023Y-00055*
Y-00053*
X-00226*
Y-00069*
Y-00069*
Y-00069*
Y-00069*
Y-0007*
Y-0007*
X-00226Y-0007*
X-00226Y-00071*
X-00226Y-00072*
X-00226Y-00072*
X-00226Y-00073*
X-00226Y-00074*
X-00226Y-00074*
X-00226Y-00074*
X-00226Y-00074*
X-00226Y-00074*
X-00227Y-00075*
X-00227Y-00075*
X-00227Y-00076*
X-00227Y-00076*
X-00228Y-00076*
X-00228Y-00076*
X-00228Y-00076*
X-00228Y-00077*
X-00228Y-00077*
X-00229Y-00077*
X-00229Y-00077*
X-0023Y-00078*
X-0023Y-00078*
X-0023Y-00078*
X-00231Y-00078*
X-00231Y-00078*
X-00231Y-00078*
X-00232Y-00078*
X-00233Y-00078*
X-00233Y-00078*
X-00234Y-00078*
X-00235*
X-00235Y-00078*
X-00235*
X-00236Y-00078*
X-00236Y-00078*
X-00237Y-00078*
X-00238Y-00078*
X-00239Y-00078*
X-0024Y-00077*
X-0024Y-00077*
X-00241Y-00077*
X-00241Y-00077*
X-00241Y-00077*
X-00241Y-00077*
X-00241Y-00076*
X-00242Y-00076*
X-00242Y-00076*
X-00242Y-00075*
X-00243Y-00074*
X-00243Y-00074*
X-00243Y-00073*
X-00243Y-00073*
Y-00073*
Y-00072*
Y-00072*
X-00243Y-00072*
X-00237Y-00073*
Y-00073*
X-00237Y-00073*
X-00237Y-00073*
X-00237Y-00073*
X-00237Y-00074*
X-00237Y-00074*
X-00237Y-00074*
X-00237Y-00074*
X-00237Y-00074*
X-00236Y-00074*
X-00236Y-00074*
X-00236Y-00074*
X-00235Y-00075*
X-00235Y-00075*
X-00235Y-00075*
X-00234*
X-00234Y-00075*
X-00233Y-00075*
X-00233Y-00074*
X-00233Y-00074*
X-00232Y-00074*
X-00232Y-00074*
X-00232Y-00074*
X-00232Y-00074*
X-00231Y-00074*
X-00231Y-00074*
X-00231Y-00074*
X-00231Y-00073*
X-00231Y-00073*
X-00231Y-00073*
Y-00073*
X-00231Y-00073*
X-00231Y-00073*
X-00231Y-00072*
X-00231Y-00072*
X-00231Y-00072*
X-0023Y-00071*
Y-00071*
Y-00068*
X-00231Y-00068*
X-00231Y-00068*
X-00231Y-00068*
X-00231Y-00068*
X-00231Y-00069*
X-00231Y-00069*
X-00232Y-00069*
X-00232Y-00069*
X-00232Y-0007*
X-00233Y-0007*
X-00234Y-0007*
X-00234Y-00071*
X-00235Y-00071*
X-00235Y-00071*
X-00236Y-00071*
X-00236*
X-00236Y-00071*
X-00237*
X-00237Y-00071*
X-00237Y-00071*
X-00238Y-00071*
X-00238Y-0007*
X-00238Y-0007*
X-00239Y-0007*
X-00239Y-0007*
X-0024Y-0007*
X-0024Y-00069*
X-00241Y-00069*
X-00241Y-00068*
X-00242Y-00068*
Y-00068*
X-00242Y-00068*
X-00242Y-00068*
X-00242Y-00067*
X-00242Y-00067*
X-00242Y-00067*
X-00242Y-00066*
X-00243Y-00066*
X-00243Y-00066*
X-00243Y-00065*
X-00243Y-00065*
X-00243Y-00064*
X-00243Y-00063*
X-00243Y-00062*
X-00243Y-00062*
Y-00062*
Y-00061*
Y-00061*
X-00243Y-00061*
X-00243Y-00061*
X-00243Y-0006*
X-00243Y-0006*
X-00243Y-00059*
X-00243Y-00058*
X-00243Y-00057*
X-00243Y-00057*
X-00242Y-00056*
X-00242Y-00056*
X-00242Y-00055*
X-00241Y-00055*
X-00241Y-00055*
X-00241Y-00055*
X-00241Y-00054*
X-00241Y-00054*
X-00241Y-00054*
X-0024Y-00054*
X-0024Y-00054*
X-0024Y-00053*
X-00239Y-00053*
X-00239Y-00053*
X-00238Y-00053*
X-00237Y-00052*
X-00237Y-00052*
X-00236Y-00052*
X-00236Y-00052*
X-00236*
X-00235Y-00052*
G37*
%LNflytta-36-2*%
%LPC*%
G36*
X-00181Y00023D02*
X-00185Y00014D01*
X-00178*
X-00181Y00023*
G37*
G36*
X-00108Y00025D02*
X-00108D01*
X-00108Y00025*
X-00108Y00025*
X-00108Y00025*
X-00109Y00025*
X-00109Y00025*
X-00109Y00024*
X-00109Y00024*
X-00109Y00024*
X-00109Y00024*
X-0011Y00024*
X-0011Y00024*
X-0011Y00023*
X-0011Y00023*
X-0011Y00022*
Y00022*
X-0011Y00022*
Y00022*
X-0011Y00022*
X-0011Y00022*
X-0011Y00022*
X-0011Y00021*
X-0011Y00021*
X-0011Y0002*
X-00111Y0002*
X-00111Y0002*
X-00111Y00019*
X-00111Y00018*
Y00018*
X-00111Y00017*
Y00016*
Y00016*
Y00016*
Y00016*
Y00015*
Y00015*
X-00111Y00015*
Y00014*
X-00111Y00014*
X-00111Y00013*
X-0011Y00012*
X-0011Y00011*
X-0011Y00011*
X-0011Y0001*
X-0011Y0001*
X-0011Y0001*
X-0011Y0001*
X-0011Y00009*
X-0011Y00009*
X-0011Y00009*
X-0011Y00008*
X-00109Y00008*
X-00109Y00008*
X-00109Y00008*
X-00109Y00008*
X-00109Y00008*
X-00109Y00008*
X-00108Y00007*
X-00108Y00007*
X-00108Y00007*
X-00108Y00007*
X-00107*
X-00107Y00007*
X-00107Y00007*
X-00107Y00007*
X-00107Y00007*
X-00106Y00008*
X-00106Y00008*
X-00106Y00008*
X-00106Y00008*
X-00106Y00008*
X-00106Y00008*
X-00106Y00008*
X-00105Y00009*
X-00105Y00009*
X-00105Y0001*
Y0001*
X-00105Y0001*
Y0001*
X-00105Y0001*
X-00105Y0001*
X-00105Y00011*
X-00105Y00011*
X-00105Y00011*
X-00105Y00012*
X-00105Y00012*
X-00105Y00013*
X-00105Y00013*
X-00105Y00014*
Y00015*
X-00105Y00015*
Y00016*
Y00016*
Y00016*
Y00017*
Y00017*
Y00017*
X-00105Y00018*
Y00018*
X-00105Y00019*
X-00105Y0002*
X-00105Y00021*
X-00105Y00021*
X-00105Y00021*
X-00105Y00022*
X-00105Y00022*
Y00022*
X-00105Y00022*
X-00105Y00022*
X-00105Y00023*
X-00105Y00023*
X-00105Y00023*
X-00106Y00024*
X-00106Y00024*
X-00106Y00024*
X-00106Y00024*
X-00106Y00025*
X-00106Y00025*
X-00107Y00025*
X-00107Y00025*
X-00107Y00025*
X-00107Y00025*
X-00108Y00025*
G37*
G36*
X-00301Y-00056D02*
X-00301D01*
X-00301Y-00056*
X-00302Y-00056*
X-00302Y-00056*
X-00302Y-00056*
X-00303Y-00057*
X-00303Y-00057*
X-00304Y-00057*
X-00304Y-00057*
X-00304Y-00058*
X-00304Y-00058*
X-00304Y-00058*
X-00305Y-00059*
X-00305Y-0006*
X-00305Y-0006*
X-00305Y-00061*
Y-00061*
Y-00061*
Y-00062*
Y-00062*
X-00305Y-00062*
Y-00062*
X-00305Y-00063*
X-00305Y-00064*
X-00305Y-00064*
X-00304Y-00065*
X-00304Y-00065*
X-00304Y-00066*
Y-00066*
X-00304Y-00066*
X-00304Y-00066*
X-00304Y-00066*
X-00303Y-00067*
X-00303Y-00067*
X-00302Y-00067*
X-00302Y-00067*
X-00301Y-00067*
X-00301Y-00067*
X-00301*
X-00301Y-00067*
X-003Y-00067*
X-003Y-00067*
X-003Y-00067*
X-00299Y-00067*
X-00299Y-00067*
X-00298Y-00066*
X-00298Y-00066*
X-00298Y-00066*
X-00298Y-00065*
X-00298Y-00065*
X-00297Y-00064*
X-00297Y-00064*
X-00297Y-00063*
X-00297Y-00062*
Y-00062*
Y-00062*
Y-00062*
Y-00061*
X-00297Y-00061*
X-00297Y-00061*
X-00297Y-0006*
X-00297Y-00059*
X-00297Y-00059*
X-00298Y-00058*
X-00298Y-00058*
X-00298Y-00057*
X-00298Y-00057*
X-00298Y-00057*
X-00299Y-00057*
X-00299Y-00057*
X-00299Y-00056*
X-003Y-00056*
X-003Y-00056*
X-00301Y-00056*
G37*
G36*
X-00093D02*
X-00093D01*
X-00093Y-00056*
X-00093Y-00056*
X-00094Y-00056*
X-00094Y-00056*
X-00095Y-00057*
X-00095Y-00057*
X-00096Y-00057*
X-00096Y-00057*
X-00096Y-00058*
X-00096Y-00058*
X-00096Y-00058*
X-00097Y-00059*
X-00097Y-0006*
X-00097Y-0006*
X-00097Y-00061*
Y-00061*
Y-00061*
Y-00062*
Y-00062*
X-00097Y-00062*
Y-00062*
X-00097Y-00063*
X-00097Y-00064*
X-00097Y-00064*
X-00096Y-00065*
X-00096Y-00066*
Y-00066*
X-00096Y-00066*
X-00096Y-00066*
X-00096Y-00066*
X-00095Y-00067*
X-00095Y-00067*
X-00094Y-00067*
X-00093Y-00067*
X-00093Y-00067*
X-00093Y-00067*
X-00093*
X-00092Y-00067*
X-00092Y-00067*
X-00092Y-00067*
X-00091Y-00067*
X-00091Y-00067*
X-0009Y-00067*
X-0009Y-00066*
X-0009Y-00066*
X-0009Y-00066*
X-0009Y-00066*
X-00089Y-00065*
X-00089Y-00064*
X-00089Y-00064*
X-00089Y-00063*
X-00089Y-00063*
X-00089Y-00062*
Y-00062*
Y-00062*
Y-00062*
Y-00062*
Y-00061*
X-00089Y-00061*
X-00089Y-00061*
X-00089Y-0006*
X-00089Y-00059*
X-00089Y-00059*
X-0009Y-00058*
X-0009Y-00058*
X-0009Y-00057*
X-0009Y-00057*
X-0009Y-00057*
X-0009Y-00057*
X-00091Y-00057*
X-00091Y-00056*
X-00092Y-00056*
X-00092Y-00056*
X-00093Y-00056*
G37*
G36*
X-00182D02*
X-00183D01*
X-00183Y-00056*
X-00183Y-00056*
X-00184Y-00056*
X-00184Y-00056*
X-00184Y-00057*
X-00185Y-00057*
X-00185Y-00057*
X-00185Y-00057*
X-00185Y-00058*
X-00185Y-00058*
X-00186Y-00058*
X-00186Y-00059*
X-00186Y-0006*
X-00186Y-0006*
X-00179*
Y-0006*
Y-0006*
Y-0006*
X-00179Y-0006*
X-00179Y-00059*
X-00179Y-00059*
X-00179Y-00059*
X-00179Y-00058*
X-00179Y-00057*
X-0018Y-00057*
X-0018Y-00057*
X-0018Y-00057*
X-0018Y-00057*
X-0018Y-00056*
X-00181Y-00056*
X-00181Y-00056*
X-00182Y-00056*
X-00182Y-00056*
G37*
G36*
X-00321D02*
X-00321D01*
X-00322Y-00056*
X-00322Y-00056*
X-00323Y-00056*
X-00323Y-00056*
X-00323Y-00057*
X-00324Y-00057*
X-00324Y-00057*
X-00324Y-00057*
X-00324Y-00058*
X-00324Y-00058*
X-00325Y-00058*
X-00325Y-00059*
X-00325Y-0006*
X-00325Y-0006*
X-00318*
Y-0006*
Y-0006*
Y-0006*
X-00318Y-0006*
X-00318Y-00059*
X-00318Y-00059*
X-00318Y-00059*
X-00318Y-00058*
X-00318Y-00057*
X-00319Y-00057*
X-00319Y-00057*
X-00319Y-00057*
X-00319Y-00057*
X-00319Y-00056*
X-0032Y-00056*
X-0032Y-00056*
X-00321Y-00056*
X-00321Y-00056*
G37*
G36*
X-00235D02*
X-00235D01*
X-00235Y-00056*
X-00235Y-00056*
X-00236Y-00056*
X-00236Y-00056*
X-00236Y-00057*
X-00237Y-00057*
X-00237Y-00057*
X-00237Y-00057*
X-00238Y-00058*
X-00238Y-00058*
X-00238Y-00058*
X-00238Y-00059*
X-00238Y-0006*
X-00238Y-0006*
X-00238Y-00061*
Y-00061*
Y-00062*
Y-00062*
X-00238Y-00062*
Y-00062*
X-00238Y-00062*
X-00238Y-00063*
X-00238Y-00064*
X-00238Y-00064*
X-00238Y-00065*
X-00237Y-00066*
X-00237Y-00066*
X-00237Y-00066*
X-00237Y-00066*
X-00237Y-00066*
X-00236Y-00067*
X-00236Y-00067*
X-00235Y-00067*
X-00235Y-00067*
X-00235*
X-00234Y-00067*
X-00234Y-00067*
X-00234Y-00067*
X-00233Y-00067*
X-00233Y-00066*
X-00232Y-00066*
X-00232Y-00066*
X-00232Y-00066*
X-00231Y-00065*
X-00231Y-00065*
X-00231Y-00065*
X-00231Y-00064*
X-00231Y-00063*
X-0023Y-00062*
X-0023Y-00062*
Y-00061*
Y-00061*
Y-00061*
Y-00061*
X-0023Y-00061*
X-0023Y-00061*
X-00231Y-0006*
X-00231Y-00059*
X-00231Y-00059*
X-00231Y-00058*
X-00232Y-00057*
X-00232Y-00057*
X-00232Y-00057*
X-00232Y-00057*
X-00232Y-00057*
X-00233Y-00056*
X-00233Y-00056*
X-00234Y-00056*
X-00235Y-00056*
G37*
%LNflytta-36-3*%
%LPD*%
G54D10*
X-00158Y-00444D02*
D01*
D01*
G75*
G03X-00166I-00003J0D01*
G74*G01*
D01*
G75*
G03X-00158I00003J0D01*
G74*G01*
G54D11*
X-00973Y-00551D02*
D01*
D01*
G75*
G03X-00979Y-00546I-00002J00002D01*
G74*G01*
X-00979Y-00546D02*
D01*
D01*
G75*
G03X-00974Y-00552I00002J-00002D01*
G74*G01*
X-01015Y00161D02*
X-00987Y00189D01*
X-01015Y00161D02*
X-00964Y00111D01*
X-00937Y00138*
X-00987Y00189D02*
X-00937Y00138D01*
X-00833Y00247D02*
X-00762D01*
Y00207D02*
Y00247D01*
X-00833Y00207D02*
X-00762D01*
X-00833D02*
Y00247D01*
X-01133Y-00121D02*
Y-00113D01*
Y00033D02*
Y00053D01*
X-01153D02*
X-01133D01*
X-01141Y-00121D02*
X-01133D01*
X-01308D02*
X-01301D01*
X-01308D02*
Y-00113D01*
Y00053D02*
X-01301D01*
X-01308Y00045D02*
Y00053D01*
X-00702Y-00631D02*
X-00576D01*
X-00702Y-00731D02*
Y-00631D01*
Y-00731D02*
X-00576D01*
Y-00631*
G54D12*
X-01173Y-0056D02*
D01*
D01*
G75*
G03X-01182I-00004J0D01*
G74*G01*
D01*
G75*
G03X-01173I00004J0D01*
G74*G01*
G54D13*
X-00448Y-0056D02*
D01*
D01*
G75*
G03X-00448Y-00559I-0J0D01*
G74*G01*
X-00516Y-00678D02*
Y-00679D01*
X-00829Y-00597D02*
X-00828Y-00598D01*
X-0108Y00305D02*
X-01017Y00243D01*
X-0108Y00305D02*
X-01045Y0034D01*
X-00983Y00277*
X-01017Y00243D02*
X-00983Y00277D01*
X-00185Y-00534D02*
Y-00444D01*
X-00342Y-00534D02*
X-00185D01*
X-00342D02*
Y-00444D01*
X-00185*
X-00908Y-00546D02*
X-00907Y-00547D01*
X-00578Y00316D02*
Y00433D01*
X-00857D02*
X-00578D01*
X-00857Y00316D02*
Y00433D01*
Y00316D02*
X-00578D01*
X-00993Y00392D02*
X-00958Y00357D01*
X-01055Y00329D02*
X-00993Y00392D01*
X-01055Y00329D02*
X-01021Y00294D01*
X-00958Y00357*
X-00975Y0029D02*
X-00925D01*
Y00379*
X-00975D02*
X-00925D01*
X-00975Y0029D02*
Y00379D01*
X-00706Y-00718D02*
Y-00629D01*
X-00755Y-00718D02*
X-00706D01*
X-00755D02*
Y-00629D01*
X-00706*
X-01271Y-00278D02*
Y-00189D01*
X-01222*
Y-00278D02*
Y-00189D01*
X-01271Y-00278D02*
X-01222D01*
X-01314Y-00236D02*
Y-00147D01*
X-01363Y-00236D02*
X-01314D01*
X-01363D02*
Y-00147D01*
X-01314*
X-01062Y00322D02*
X-01027Y00287D01*
X-01124Y00259D02*
X-01062Y00322D01*
X-01124Y00259D02*
X-0109Y00224D01*
X-01027Y00287*
X-00424Y-00495D02*
X-00365Y-00393D01*
X-00477Y-00464D02*
X-00418Y-00362D01*
X-00365Y-00393*
X-00477Y-00464D02*
X-00424Y-00495D01*
X-01065Y00043D02*
Y00092D01*
X-01153D02*
X-01065D01*
X-01153Y00043D02*
Y00092D01*
Y00043D02*
X-01065D01*
X-00408Y-00731D02*
Y-00682D01*
X-00496D02*
X-00408D01*
X-00496Y-00731D02*
Y-00682D01*
Y-00731D02*
X-00408D01*
X-01134Y00066D02*
Y00067D01*
X-01182Y00043D02*
Y00131D01*
X-01133*
Y00043D02*
Y00131D01*
X-01182Y00043D02*
X-01133D01*
X-00834Y-00649D02*
X-00716D01*
X-00834Y-00588D02*
X-00716D01*
Y-00649D02*
Y-00588D01*
X-00834Y-00649D02*
Y-00588D01*
X-01266Y-00247D02*
Y-00129D01*
X-01327Y-00247D02*
Y-00129D01*
X-01266*
X-01327Y-00247D02*
X-01266D01*
X-01182Y00107D02*
X-01093D01*
X-01182D02*
Y00156D01*
X-01093*
Y00107D02*
Y00156D01*
X-01126Y00009D02*
X-01037D01*
X-01126D02*
Y00058D01*
X-01037*
Y00009D02*
Y00058D01*
G54D14*
X-00556Y-00665D02*
X-00516Y-00665D01*
Y-00592*
X-00556D02*
X-00516D01*
X-00556Y-00665D02*
Y-00592D01*
X-00923Y-00589D02*
X-0086Y-00625D01*
X-00923Y-00589D02*
X-00903Y-00554D01*
X-0084Y-00591*
X-0086Y-00625D02*
X-0084Y-00591D01*
X-013Y00066D02*
Y00082D01*
Y00066D02*
X-01278D01*
Y00112*
X-013D02*
X-01278D01*
X-013Y00082D02*
Y00112D01*
X-01348Y-00323D02*
Y-00293D01*
X-01326*
Y-00339D02*
Y-00293D01*
X-01348Y-00339D02*
X-01326D01*
X-01348D02*
Y-00323D01*
X-01319Y-00319D02*
Y-00289D01*
X-01297*
Y-00335D02*
Y-00289D01*
X-01319Y-00335D02*
X-01297D01*
X-01319D02*
Y-00319D01*
X-00148Y-00278D02*
X-00132D01*
X-00148Y-003D02*
Y-00278D01*
Y-003D02*
X-00102D01*
Y-00278*
X-00132D02*
X-00102D01*
X-00126Y-00375D02*
Y-00359D01*
X-00148D02*
X-00126D01*
X-00148Y-00405D02*
Y-00359D01*
Y-00405D02*
X-00126D01*
Y-00375*
X-00124Y-00329D02*
Y-00313D01*
X-00146D02*
X-00124D01*
X-00146Y-00359D02*
Y-00313D01*
Y-00359D02*
X-00124D01*
Y-00329*
X-00183Y-00493D02*
Y-00477D01*
Y-00493D02*
X-00161D01*
Y-00447*
X-00183D02*
X-00161D01*
X-00183Y-00477D02*
Y-00447D01*
X-00333Y-00474D02*
Y-00458D01*
X-00355D02*
X-00333D01*
X-00355Y-00504D02*
Y-00458D01*
Y-00504D02*
X-00333D01*
Y-00474*
X-00354Y-00352D02*
Y-00336D01*
X-00376D02*
X-00354D01*
X-00376Y-00382D02*
Y-00336D01*
Y-00382D02*
X-00354D01*
Y-00352*
X-00364Y-00328D02*
X-00348D01*
Y-00306*
X-00394D02*
X-00348D01*
X-00394Y-00328D02*
Y-00306D01*
Y-00328D02*
X-00364D01*
X-00952Y00245D02*
X-00922Y00163D01*
X-00826Y00198*
X-00855Y0028D02*
X-00826Y00198D01*
X-00952Y00245D02*
X-00855Y0028D01*
X-00989Y-00497D02*
X-00948Y-00558D01*
X-00989Y-00497D02*
X-00956Y-00475D01*
X-00915Y-00535*
X-00948Y-00558D02*
X-00915Y-00535D01*
X-01082Y-00322D02*
X-01072Y-00335D01*
X-01055Y-0032*
X-01085Y-00285D02*
X-01055Y-0032D01*
X-01102Y-00299D02*
X-01085Y-00285D01*
X-01102Y-00299D02*
X-01082Y-00322D01*
X-01257Y-00501D02*
X-01245Y-00512D01*
X-01271Y-00518D02*
X-01257Y-00501D01*
X-01271Y-00518D02*
X-01236Y-00548D01*
X-01222Y-00531*
X-01245Y-00512D02*
X-01222Y-00531D01*
X-01115Y-00264D02*
X-01099D01*
Y-00242*
X-01145D02*
X-01099D01*
X-01145Y-00264D02*
Y-00242D01*
Y-00264D02*
X-01115D01*
X-01108Y-00287D02*
X-01092D01*
Y-00265*
X-01138D02*
X-01092D01*
X-01138Y-00287D02*
Y-00265D01*
Y-00287D02*
X-01108D01*
X-01106Y-00331D02*
X-01095Y-00344D01*
X-01078Y-0033*
X-01108Y-00294D02*
X-01078Y-0033D01*
X-01125Y-00308D02*
X-01108Y-00294D01*
X-01125Y-00308D02*
X-01106Y-00331D01*
X-0092Y-00767D02*
X-00904D01*
Y-00745*
X-0095D02*
X-00904D01*
X-0095Y-00767D02*
Y-00745D01*
Y-00767D02*
X-0092D01*
X-0089Y-00749D02*
X-00874D01*
X-0089Y-00771D02*
Y-00749D01*
Y-00771D02*
X-00844D01*
Y-00749*
X-00874D02*
X-00844D01*
X-00763Y-00796D02*
X-00733D01*
Y-00818D02*
Y-00796D01*
X-00779Y-00818D02*
X-00733D01*
X-00779D02*
Y-00796D01*
X-00763*
X-00779Y-00758D02*
X-00763D01*
X-00779Y-0078D02*
Y-00758D01*
Y-0078D02*
X-00733D01*
Y-00758*
X-00763D02*
X-00733D01*
X-00897Y-00743D02*
X-00867D01*
X-00897D02*
Y-00721D01*
X-00851*
Y-00743D02*
Y-00721D01*
X-00867Y-00743D02*
X-00851D01*
X-00868Y-00697D02*
X-00852D01*
X-00868Y-00719D02*
Y-00697D01*
Y-00719D02*
X-00822D01*
Y-00697*
X-00852D02*
X-00822D01*
X-00905Y-00786D02*
X-00889D01*
X-00905Y-00808D02*
Y-00786D01*
Y-00808D02*
X-00859D01*
Y-00786*
X-00889D02*
X-00859D01*
X-00778Y-00676D02*
Y-00646D01*
X-00756*
Y-00692D02*
Y-00646D01*
X-00778Y-00692D02*
X-00756D01*
X-00778D02*
Y-00676D01*
X-00646Y-00734D02*
X-00616D01*
Y-00756D02*
Y-00734D01*
X-00662Y-00756D02*
X-00616D01*
X-00662D02*
Y-00734D01*
X-00646*
X-00767D02*
X-00751D01*
X-00767Y-00756D02*
Y-00734D01*
Y-00756D02*
X-00721D01*
Y-00734*
X-00751D02*
X-00721D01*
X-00789Y-00708D02*
X-00759D01*
Y-0073D02*
Y-00708D01*
X-00805Y-0073D02*
X-00759D01*
X-00805D02*
Y-00708D01*
X-00789*
X-0067Y-00812D02*
X-00654D01*
Y-0079*
X-007D02*
X-00654D01*
X-007Y-00812D02*
Y-0079D01*
Y-00812D02*
X-0067D01*
X-01208Y-00157D02*
X-01178D01*
Y-00179D02*
Y-00157D01*
X-01224Y-00179D02*
X-01178D01*
X-01224D02*
Y-00157D01*
X-01208*
X-0122Y-00232D02*
Y-00216D01*
Y-00232D02*
X-01198D01*
Y-00186*
X-0122D02*
X-01198D01*
X-0122Y-00216D02*
Y-00186D01*
X-01122Y-00083D02*
X-01092D01*
X-01122D02*
Y-00061D01*
X-01076*
Y-00083D02*
Y-00061D01*
X-01092Y-00083D02*
X-01076D01*
X-01088Y-00052D02*
X-01072D01*
Y-0003*
X-01118D02*
X-01072D01*
X-01118Y-00052D02*
Y-0003D01*
Y-00052D02*
X-01088D01*
X-01266Y0015D02*
X-01236D01*
X-01266D02*
Y00172D01*
X-0122*
Y0015D02*
Y00172D01*
X-01236Y0015D02*
X-0122D01*
X-01255Y00127D02*
X-01239D01*
Y00149*
X-01285D02*
X-01239D01*
X-01285Y00127D02*
Y00149D01*
Y00127D02*
X-01255D01*
X-00468Y-00617D02*
X-00452D01*
Y-00595*
X-00498D02*
X-00452D01*
X-00498Y-00617D02*
Y-00595D01*
Y-00617D02*
X-00468D01*
X-00498Y-00664D02*
X-00468D01*
X-00498D02*
Y-00642D01*
X-00452*
Y-00664D02*
Y-00642D01*
X-00468Y-00664D02*
X-00452D01*
X-00497Y-00618D02*
X-00481D01*
X-00497Y-0064D02*
Y-00618D01*
Y-0064D02*
X-00451D01*
Y-00618*
X-00481D02*
X-00451D01*
X-00339Y-00625D02*
Y-00595D01*
X-00361Y-00625D02*
X-00339D01*
X-00361D02*
Y-00579D01*
X-00339*
Y-00595D02*
Y-00579D01*
X-00345Y-00554D02*
X-00329D01*
X-00345Y-00576D02*
Y-00554D01*
Y-00576D02*
X-00299D01*
Y-00554*
X-00329D02*
X-00299D01*
X-00397Y-0047D02*
Y-0044D01*
X-00375*
Y-00486D02*
Y-0044D01*
X-00397Y-00486D02*
X-00375D01*
X-00397D02*
Y-0047D01*
X-00355Y-00526D02*
X-00339D01*
X-00355Y-00548D02*
Y-00526D01*
Y-00548D02*
X-00309D01*
Y-00526*
X-00339D02*
X-00309D01*
X-00444Y-00563D02*
X-00442Y-00561D01*
X-00448Y-00567D02*
X-00444Y-00563D01*
X-00448Y-00615D02*
Y-00567D01*
Y-00615D02*
X-00395D01*
X-00394D02*
Y-00561D01*
X-00441D02*
X-00394D01*
G54D15*
X-00146Y-00428D02*
Y-00279D01*
X-00351D02*
X-00146D01*
X-00351Y-00428D02*
Y-00279D01*
Y-00428D02*
X-00146D01*
M02*