%FSTAX23Y23*%
%MOIN*%
%SFA1B1*%

%IPPOS*%
%AMD93*
4,1,4,0.070900,-0.010200,-0.028700,0.065600,-0.070900,0.010200,0.028700,-0.065600,0.070900,-0.010200,0.0*
%
%AMD94*
4,1,4,-0.056600,0.020600,-0.020100,-0.056800,0.056600,-0.020600,0.020100,0.056800,-0.056600,0.020600,0.0*
%
%AMD96*
4,1,4,-0.064300,0.006800,-0.027500,-0.058600,0.064300,-0.006800,0.027500,0.058600,-0.064300,0.006800,0.0*
%
%ADD11C,0.007874*%
%ADD57C,0.047244*%
%ADD62C,0.007087*%
%ADD70C,0.015748*%
%ADD71C,0.023622*%
%ADD72C,0.019685*%
%ADD87C,0.007480*%
%ADD88C,0.006693*%
%ADD89C,0.031496*%
%ADD90R,0.060709X0.063059*%
%ADD91R,0.042559X0.071649*%
%ADD92R,0.049917X0.074909*%
G04~CAMADD=93~9~0.0~0.0~1252.3~697.8~0.0~0.0~0~0.0~0.0~0.0~0.0~0~0.0~0.0~0.0~0.0~0~0.0~0.0~0.0~322.7~1418.0~1311.0*
%ADD93D93*%
G04~CAMADD=94~9~0.0~0.0~856.6~848.9~0.0~0.0~0~0.0~0.0~0.0~0.0~0~0.0~0.0~0.0~0.0~0~0.0~0.0~0.0~115.2~1132.0~1135.0*
%ADD94D94*%
%ADD95R,0.078657X0.055248*%
G04~CAMADD=96~9~0.0~0.0~751.5~1054.7~0.0~0.0~0~0.0~0.0~0.0~0.0~0~0.0~0.0~0.0~0.0~0~0.0~0.0~0.0~119.4~1286.0~1171.0*
%ADD96D96*%
%ADD97R,0.070012X0.080508*%
%ADD98R,0.135941X0.084256*%
%LNflytta-36-1*%
%LPD*%
G36*
X-00955Y00318D02*
Y00309D01*
X-00954Y00306*
X-00951Y00305*
X-00916*
X-00672Y00226*
X-00672Y00221*
X-00675Y00217*
X-00789*
X-0079Y00217*
X-00792Y00217*
X-00845Y00205*
X-00846Y00205*
X-00846Y00205*
X-00898Y00186*
X-00898Y00185*
X-00899Y00185*
X-00909Y00179*
X-0091Y00178*
X-00911Y00178*
X-00919Y0017*
X-0092Y00169*
X-00921Y00168*
X-00928Y00159*
X-00928Y00159*
X-00928Y00159*
X-01028Y00003*
X-01028Y00002*
X-01028Y00002*
X-01054Y-00046*
X-01058Y-00047*
X-01064Y-00046*
X-0107Y-00047*
X-01075Y-0005*
X-01076Y-00051*
X-01123*
X-01125Y-00049*
X-01125Y-00046*
X-01115Y-00036*
X-01112Y-00036*
X-01106Y-0004*
X-011Y-00041*
X-01094Y-0004*
X-01089Y-00036*
X-01085Y-00031*
X-01084Y-00025*
X-01085Y-00019*
X-01089Y-00013*
X-01094Y-0001*
X-011Y-00009*
X-01104Y-0001*
X-01121Y00007*
Y00014*
X-01118Y00014*
X-01113Y00018*
X-0111Y00023*
X-01108Y00029*
X-0111Y00035*
X-01113Y00041*
X-01118Y00044*
X-01125Y00045*
X-01131Y00044*
X-01136Y00041*
X-01139Y00035*
X-01141Y00029*
X-01139Y00023*
X-01137Y0002*
Y00003*
X-01137Y0*
X-01135Y-00001*
X-0112Y-00016*
X-01121Y-00019*
X-01137Y-00036*
X-01183Y-00081*
X-01261*
X-01264Y-00082*
X-01267Y-00084*
X-01272Y-00088*
X-01272Y-00089*
X-0128Y-00097*
X-01281Y-00099*
X-01282Y-00102*
Y-00178*
X-01289Y-00185*
X-01291Y-00187*
X-01291Y-0019*
Y-00205*
X-01295Y-00207*
X-01298Y-00212*
X-01299Y-00218*
X-01298Y-00224*
X-01295Y-00229*
X-01289Y-00233*
X-01283Y-00234*
X-01277Y-00233*
X-01272Y-00229*
X-01268Y-00224*
X-01267Y-00218*
X-01268Y-00212*
X-01272Y-00207*
X-01275Y-00205*
Y-00194*
X-0127Y-00189*
X-01269Y-00189*
X-01266Y-0019*
X-01262*
X-0126Y-00195*
X-01262Y-00198*
X-01263Y-00205*
X-01262Y-00211*
X-01259Y-00216*
X-01254Y-00219*
X-01247Y-00221*
X-01241Y-00219*
X-01236Y-00216*
X-01233Y-00211*
X-01231Y-00205*
X-01233Y-00198*
X-01233Y-00198*
X-01229Y-00194*
X-01229Y-00194*
X-01223Y-00196*
X-01217Y-00194*
X-01212Y-00191*
X-01211Y-0019*
X-01201*
X-012Y-00191*
X-01198Y-00195*
X-01198Y-00199*
X-01197Y-00206*
X-01194Y-00211*
X-01188Y-00214*
X-01188Y-00214*
X-01186Y-0022*
X-01193Y-00227*
X-01195Y-00229*
X-01196Y-00233*
Y-00246*
X-01225Y-00276*
X-01248*
X-01251Y-00277*
X-01253Y-0028*
Y-00314*
X-01258Y-00315*
X-01258Y-00314*
X-01263Y-00311*
X-01265Y-00311*
X-0127Y-00306*
X-0127Y-00305*
Y-00286*
X-0127Y-00283*
X-01272Y-00281*
X-01307Y-00246*
Y-00208*
X-01303Y-00205*
X-01302Y-00203*
X-01301Y-00199*
Y-00177*
X-01292Y-00168*
X-0129Y-00165*
X-0129Y-00162*
Y-00054*
X-01272Y-00036*
X-0127Y-00034*
X-0127Y-00031*
Y00039*
X-0127Y00042*
X-01272Y00045*
X-01293Y00066*
X-01292Y0007*
X-01293Y00076*
X-01297Y00081*
X-01302Y00085*
X-01308Y00086*
X-01314Y00085*
X-01319Y00081*
X-01323Y00076*
X-01324Y0007*
X-01323Y00064*
X-01319Y00058*
X-01318Y00057*
Y00051*
X-01318Y00051*
X-01319Y0005*
X-01321Y00049*
X-01321Y00048*
X-01337*
Y00055*
X-01339Y00058*
X-01342Y00059*
X-01373*
X-01376Y00064*
X-01371Y00077*
X-01349Y00125*
X-01327Y00166*
X-01316Y00182*
X-01309Y00182*
X-01184*
Y00048*
X-01148*
Y00167*
X-01063Y00245*
X-00961Y0032*
X-00955Y00318*
G37*
G36*
X-01286Y00033D02*
Y-00027D01*
X-01304Y-00045*
X-01305Y-00048*
X-01306Y-00051*
Y-00157*
X-01308Y-00159*
X-01313Y-00157*
Y00001*
X-0131Y00006*
X-01309Y00012*
X-0131Y00018*
X-01309Y0002*
X-01307Y00023*
X-01302Y00024*
X-01297Y00028*
X-01293Y00033*
X-01293Y00033*
X-01288Y00034*
X-01286Y00033*
G37*
G36*
X-01388Y00013D02*
Y-00016D01*
X-01387Y-00019*
X-01384Y-0002*
X-01342*
X-01339Y-00019*
X-01337Y-00016*
Y-00005*
X-01333Y-00002*
X-01329Y-00004*
Y-00165*
X-01338Y-00173*
X-01339Y-00176*
X-0134Y-00179*
Y-00218*
X-01345Y-00221*
X-01399*
X-014Y-00221*
X-014Y-00209*
X-014Y-00184*
X-01399Y-00144*
X-01399Y-00143*
X-01399Y-00143*
X-01399Y-00142*
X-01395Y-00139*
X-01394Y-00138*
X-01394Y-00138*
X-01345*
X-01342Y-00137*
X-01341Y-00134*
Y-00059*
X-01342Y-00056*
X-01345Y-00055*
X-01395*
X-01398Y-00056*
X-01399Y-00059*
Y-00122*
X-01404Y-00123*
X-01405Y-00121*
X-01406Y-00121*
X-01406Y-00121*
X-01409Y-00115*
X-01412Y-0011*
X-01415Y-001*
X-01416Y-00091*
X-01416Y-0008*
X-0141Y-00048*
X-01402Y-00016*
X-01393Y00013*
X-01388Y00013*
G37*
G36*
X-01403Y-00262D02*
Y-00289D01*
X-01402Y-00292*
X-01399Y-00293*
X-0136*
X-01357Y-00295*
X-01351Y-00296*
X-01345Y-00295*
X-01342Y-00293*
X-01338*
X-01335Y-00292*
X-01334Y-00289*
Y-00277*
X-01329Y-00275*
X-01313Y-00291*
X-01313Y-00295*
X-01312Y-00301*
X-01309Y-00306*
X-01304Y-00309*
X-013Y-0031*
X-01298Y-00315*
X-013Y-00318*
X-013Y-0032*
X-01303Y-00322*
X-01305Y-00322*
X-01306Y-00322*
X-01312Y-00321*
X-01318Y-00322*
X-01323Y-00325*
X-01327Y-00331*
X-01327Y-00332*
X-01333Y-00334*
X-01333Y-00333*
X-01338Y-0033*
X-01344Y-00329*
X-0135Y-0033*
X-01355Y-00333*
X-01359Y-00339*
X-0136Y-00345*
X-01359Y-00351*
X-01355Y-00356*
X-0135Y-0036*
X-01344Y-00361*
X-01338Y-0036*
X-01333Y-00356*
X-01329Y-00351*
X-01329Y-00349*
X-01324Y-0035*
Y-00525*
X-01323Y-00528*
X-01322Y-00531*
X-01303Y-0055*
X-013Y-00552*
X-01297Y-00552*
X-01207*
X-01173Y-00587*
X-01175Y-00592*
X-01183Y-0059*
X-01184Y-0059*
X-01185Y-00589*
X-01196Y-00589*
X-01197Y-00589*
X-01198Y-00589*
X-01208Y-00591*
X-01209Y-00591*
X-0121Y-00591*
X-01212Y-00592*
X-01213Y-00592*
X-01213Y-00592*
X-01213Y-00592*
X-01213Y-00592*
X-01214Y-00592*
X-01218Y-00594*
X-01219Y-00594*
X-0122Y-00595*
X-01226Y-00598*
X-01227Y-00598*
X-01227Y-00599*
X-01233Y-00603*
X-01233Y-00603*
X-01234Y-00603*
X-01239Y-00608*
X-01239Y-00608*
X-0124Y-00608*
X-0126Y-00629*
X-01261Y-0063*
X-01266Y-0063*
X-01284Y-00609*
X-01314Y-00566*
X-0134Y-00521*
X-01361Y-00478*
X-01381Y-0043*
X-01396Y-00385*
X-01407Y-00341*
X-01416Y-00297*
X-01416Y-00291*
X-01416Y-00285*
X-01415Y-00275*
X-01411Y-00266*
X-01408Y-0026*
X-01403Y-00262*
G37*
G36*
X-01253Y-00338D02*
Y-00343D01*
X-01251Y-00346*
X-01248Y-00347*
X-01188*
X-01187Y-00347*
X-01182Y-0035*
Y-00471*
X-01182Y-00474*
X-0118Y-00476*
X-01148Y-00508*
X-01149Y-00512*
X-01148Y-00519*
X-01147Y-00519*
X-0115Y-00524*
X-01166*
X-01166Y-00524*
X-01285*
X-01295Y-00514*
Y-00359*
X-01287Y-00351*
X-01287*
X-01285Y-00348*
X-01284Y-00345*
Y-0034*
X-01284Y-0034*
X-01279Y-00338*
X-01275Y-00341*
X-01269Y-00342*
X-01263Y-00341*
X-01258Y-00337*
X-01258Y-00337*
X-01253Y-00338*
G37*
G36*
X-011Y-00308D02*
X-01089Y-00319D01*
X-01089Y-00319*
X-01064Y-00344*
Y-00396*
X-01069Y-00398*
X-01108Y-00359*
Y-00311*
X-01106Y-00309*
X-01106Y-00309*
X-01105Y-00308*
X-011Y-00308*
X-011Y-00308*
G37*
G36*
X-01156Y-00267D02*
Y-00281D01*
X-01156Y-00281*
X-01158Y-00284*
X-01159Y-00287*
Y-00431*
X-01158Y-00434*
X-01156Y-00436*
X-0115Y-00443*
X-01147Y-00444*
X-01144Y-00445*
X-01077*
X-0103Y-00493*
X-01031Y-00498*
X-01032Y-00498*
X-01035Y-00496*
X-01038Y-00494*
X-01041Y-00493*
X-01094*
X-01097Y-00494*
X-01099Y-00496*
X-01112Y-00508*
X-01118Y-00507*
X-01118Y-00506*
X-01121Y-00501*
X-01127Y-00498*
X-01133Y-00496*
X-01137Y-00497*
X-01166Y-00467*
Y-00272*
X-01165Y-00271*
X-01163Y-00268*
X-01163Y-00265*
X-01161Y-00264*
X-01156Y-00267*
G37*
G36*
X-01065Y-00514D02*
X-01065Y-00515D01*
X-01066Y-00521*
X-01066Y-00523*
X-01067Y-00527*
X-01069Y-00528*
X-01073Y-00529*
X-01078Y-00532*
X-01081Y-00537*
X-01083Y-00543*
X-01083Y-00544*
X-01087Y-00548*
X-01091Y-00549*
X-01096Y-00553*
X-011Y-00558*
X-01101Y-00563*
X-01105Y-00566*
X-01106Y-00566*
X-01112Y-00567*
X-01117Y-00571*
X-01121Y-00576*
X-01122Y-00582*
X-01121Y-00588*
X-01117Y-00593*
X-01112Y-00597*
X-01111Y-00597*
X-01043Y-00665*
X-01041Y-00667*
X-01038Y-00667*
X-01035Y-00667*
X-01004*
X-00959Y-00712*
X-0096Y-00717*
X-00964Y-00718*
X-0097Y-00722*
X-00973Y-00727*
X-00974Y-00733*
X-00973Y-00739*
X-0097Y-00744*
X-00964Y-00748*
X-00958Y-00749*
X-00956Y-00749*
X-00934Y-00771*
Y-00779*
X-00936Y-0078*
X-00939Y-00785*
X-00941Y-00792*
X-00939Y-00798*
X-00936Y-00803*
X-00931Y-00806*
X-00925Y-00808*
X-00918Y-00806*
X-00913Y-00803*
X-00911Y-008*
X-00873*
X-00873Y-00801*
X-00861Y-00812*
X-00864Y-00817*
X-00865Y-00816*
X-00934*
X-01048Y-00702*
Y-00683*
X-01049Y-0068*
X-01051Y-00677*
X-0113Y-00598*
X-01133Y-00596*
X-01136Y-00596*
X-01141*
X-01192Y-00545*
X-0119Y-0054*
X-01167*
X-01166Y-0054*
X-01125*
X-01121Y-00539*
X-01119Y-00538*
X-0109Y-00509*
X-01067*
X-01065Y-00514*
G37*
G36*
X-00073Y-00279D02*
X-00067Y-0028D01*
X-00061Y-00283*
X-00055Y-00287*
X-0005Y-00292*
X-00046Y-00297*
X-00044Y-00302*
X-00042Y-00309*
X-00041Y-00316*
X-00042Y-00323*
X-00052Y-00369*
X-00066Y-00414*
X-00083Y-00458*
X-00102Y-00501*
X-0014Y-00567*
X-00185Y-00629*
X-00186Y-0063*
X-00187Y-0063*
X-00187Y-00631*
X-00188Y-00631*
X-00189Y-00631*
X-0019Y-00631*
X-00191Y-0063*
X-00192Y-0063*
X-00193Y-00629*
X-00213Y-00608*
X-00214Y-00608*
X-00214Y-00608*
X-00221Y-00602*
X-00222Y-00602*
X-00222Y-00601*
X-0023Y-00596*
X-0023Y-00596*
X-00231Y-00596*
X-00234Y-00594*
X-00234Y-00594*
X-00235Y-00594*
X-00239Y-00592*
X-0024Y-00592*
X-0024Y-00592*
X-0024Y-00592*
X-0024Y-00592*
X-0024Y-00592*
X-00243Y-00591*
X-00244Y-00591*
X-00244Y-00591*
X-00251Y-0059*
X-00252Y-0059*
X-00252Y-00589*
X-00259Y-00589*
X-0026Y-00589*
X-00261Y-00589*
X-00271Y-0059*
X-00272Y-0059*
X-00273Y-0059*
X-00279Y-00592*
X-00282Y-00588*
X-00224Y-0053*
X-00169Y-00572*
X-00165Y-00573*
X-00163Y-00571*
X-0012Y-00515*
X-0012Y-00512*
X-00121Y-00509*
X-00221Y-00434*
X-00224Y-00433*
X-00227Y-00434*
X-00269Y-0049*
X-0027Y-00493*
X-00268Y-00496*
X-00259Y-00503*
X-00259Y-00508*
X-00289Y-00538*
X-00294Y-00536*
X-00295Y-00536*
X-00298Y-00531*
X-00303Y-00527*
X-00309Y-00526*
X-00316Y-00527*
X-00321Y-00531*
X-00324Y-00536*
X-00325Y-00542*
X-00324Y-00548*
X-00321Y-00553*
X-00316Y-00557*
X-00315Y-00557*
X-00314Y-00562*
X-0042Y-00669*
X-00448*
Y-0066*
X-00449Y-00657*
X-00452Y-00656*
X-00531*
X-00534Y-00657*
X-00535Y-0066*
Y-00682*
X-00539Y-00684*
X-00542Y-0069*
X-00544Y-00696*
X-00542Y-00702*
X-00539Y-00707*
X-00535Y-0071*
Y-00715*
X-00534Y-00718*
X-00531Y-0072*
X-00488*
X-00488Y-00721*
X-00485Y-00727*
X-0048Y-0073*
X-0048Y-00733*
X-0048Y-00735*
X-00534Y-00761*
X-00537Y-00763*
X-00536Y-00767*
X-005Y-00843*
X-005Y-00845*
X-00502Y-00849*
X-00506Y-00851*
X-00551Y-00864*
X-00603Y-00875*
X-00616Y-00877*
X-00619Y-00873*
X-00567Y-00821*
X-00565Y-00819*
X-00565Y-00816*
Y-00665*
X-00532Y-00632*
X-00495*
X-00492Y-00631*
X-0049Y-0063*
X-00446Y-00585*
X-00377*
X-00375Y-00586*
X-00372Y-00585*
X-0037Y-00584*
X-00354Y-00568*
X-00353Y-00566*
X-00352Y-00564*
X-00339Y-00551*
X-00337Y-00548*
X-00337Y-00545*
Y-00526*
X-00337Y-00523*
X-00339Y-0052*
X-00354Y-00506*
X-00356Y-00504*
X-00359Y-00504*
X-0037*
X-0038Y-00494*
X-00383Y-00492*
X-00386Y-00491*
X-00442*
X-00445Y-00492*
X-00448Y-00494*
X-00504Y-0055*
X-00515*
X-00518Y-00547*
X-00523Y-00543*
X-00524Y-00542*
X-00525Y-0054*
X-00525Y-00538*
X-00525Y-00537*
X-00479Y-00465*
X-00474Y-00466*
X-00473Y-00468*
X-0047Y-00473*
X-00465Y-00477*
X-00459Y-00478*
X-00452Y-00477*
X-00447Y-00473*
X-00444Y-00468*
X-00442Y-00462*
X-00444Y-00456*
X-00447Y-0045*
X-00452Y-00447*
X-00459Y-00446*
X-00461Y-00446*
X-00464Y-00442*
X-00425Y-00381*
X-00425Y-00381*
X-00425Y-0038*
X-00398Y-00329*
X-00397Y-00328*
X-00397Y-00328*
X-00388Y-00304*
X-00387Y-00301*
X-00386Y-00299*
X-00383Y-00294*
X-00379Y-00289*
X-00374Y-00286*
X-00369Y-00283*
X-00364Y-0028*
X-00358Y-00279*
X-00352Y-00279*
X-00079*
X-00073Y-00279*
G37*
G36*
X-00465Y-00541D02*
Y-0055D01*
X-00508Y-00593*
X-00532*
X-00545Y-0058*
X-00547Y-00578*
X-0055Y-00578*
X-00556*
X-00559Y-00578*
X-00562Y-0058*
X-00569Y-00588*
X-00585*
X-00588Y-00588*
X-0059Y-0059*
X-00605Y-00605*
X-00611Y-00606*
X-00617Y-00602*
X-00623Y-00601*
X-00629Y-00602*
X-00629Y-00602*
X-0063Y-00602*
X-00719*
X-0072Y-00601*
X-00717Y-00596*
X-00664*
X-00662Y-00595*
X-00661Y-00595*
X-00608Y-00584*
X-00607Y-00584*
X-00607Y-00584*
X-00556Y-00564*
X-00555Y-00564*
X-00554Y-00563*
X-00549Y-0056*
X-00544Y-00562*
X-00544Y-00564*
X-0054Y-00569*
X-00535Y-00573*
X-00529Y-00574*
X-00523Y-00573*
X-00518Y-00569*
X-00515Y-00566*
X-005*
X-00497Y-00565*
X-00495Y-00564*
X-0047Y-00539*
X-00465Y-00541*
G37*
G36*
X-00928Y-00537D02*
X-00928Y-00537D01*
X-00928Y-00538*
X-00923Y-00544*
X-00923Y-00544*
X-00923Y-00545*
X-00917Y-00551*
X-00917Y-00551*
X-00916Y-00552*
X-00907Y-00559*
X-00906Y-0056*
X-00905Y-0056*
X-00884Y-0057*
X-00884Y-0057*
X-00883Y-00571*
X-00805Y-00594*
X-00804Y-00594*
X-00803Y-00594*
X-00802Y-00594*
X-008Y-006*
X-00803Y-00603*
X-00804Y-00609*
X-00803Y-00615*
X-00799Y-00621*
X-00794Y-00624*
X-0079Y-00625*
X-00791Y-0063*
X-00819*
X-0082Y-00625*
X-00817Y-00623*
X-00813Y-00617*
X-00812Y-00611*
X-00813Y-00605*
X-00817Y-006*
X-00822Y-00596*
X-00828Y-00595*
X-00834Y-00596*
X-0084Y-006*
X-00843Y-00605*
X-00844Y-00611*
X-00843Y-00616*
X-00844Y-00618*
X-00846Y-00619*
X-00847Y-0062*
X-00849Y-0062*
X-00874*
X-00935Y-00559*
Y-00539*
X-00935Y-00538*
X-00934Y-00537*
X-00929Y-00536*
X-00928Y-00537*
G37*
G36*
X-00601Y-00658D02*
X-006Y-00658D01*
Y-00707*
X-00647Y-00755*
X-00649Y-00757*
X-00649Y-0076*
Y-00778*
X-00653Y-00781*
X-00656Y-00786*
X-00658Y-00792*
X-00656Y-00798*
X-00654Y-00802*
X-00669Y-00817*
X-00671Y-0082*
X-00672Y-00823*
Y-00826*
X-00677Y-00827*
X-00679Y-00823*
X-00685Y-00819*
X-00691Y-00818*
X-00695Y-00819*
X-00704Y-00809*
X-00707Y-00807*
X-0071Y-00807*
X-0072*
X-00726Y-008*
Y-0079*
X-0072Y-00783*
X-0069*
X-00688Y-00783*
X-00685Y-00783*
X-00683Y-00781*
X-00659Y-00757*
X-00657Y-00754*
X-00656Y-00751*
Y-00735*
X-00657Y-00732*
X-00659Y-00729*
X-00681Y-00707*
X-00684Y-00705*
X-00687Y-00705*
X-00689Y-00705*
X-00745*
X-00788Y-00662*
X-00786Y-00657*
X-00611*
X-00608Y-00657*
X-00605Y-00655*
X-00601Y-00658*
G37*
G36*
X-00323Y-00636D02*
X-00325Y-0064D01*
X-00325Y-00641*
X-00325Y-00642*
X-00326Y-00653*
X-00326Y-00654*
X-00326Y-00655*
X-00325Y-00665*
X-00325Y-00666*
X-00325Y-00667*
X-00325Y-00668*
X-00325Y-00668*
X-00329Y-00673*
X-00421Y-00725*
X-00423Y-00727*
X-00422Y-0073*
X-00387Y-00792*
X-00389Y-00799*
X-00412Y-00812*
X-00415Y-00808*
X-00415Y-00807*
X-00415Y-00804*
X-00452Y-00727*
X-00452Y-00726*
X-00453Y-0072*
X-00452Y-0072*
X-00449Y-00718*
X-00448Y-00715*
Y-00709*
X-00411*
X-00404Y-00707*
X-00397Y-00703*
X-00328Y-00633*
X-00323Y-00636*
G37*
G36*
X-00581Y-00717D02*
Y-00812D01*
X-00638Y-00869*
X-00656Y-00872*
X-00702Y-00875*
X-0075*
X-00771Y-00874*
X-00794Y-00851*
Y-00851*
X-00796Y-00849*
X-00799Y-00848*
X-00808*
X-00811Y-00843*
X-0081Y-00843*
X-00809Y-00837*
X-0081Y-00835*
X-00807Y-00831*
X-00791*
X-00763Y-00859*
X-0076Y-00861*
X-00757Y-00862*
X-00735*
X-00733Y-00864*
X-0073Y-00866*
X-00727Y-00867*
X-00688*
X-00684Y-00866*
X-00682Y-00864*
X-00658Y-0084*
X-00656Y-00838*
X-00655Y-00835*
Y-00826*
X-00636Y-00807*
X-00635Y-00807*
X-0063Y-00803*
X-00627Y-00798*
X-00625Y-00792*
X-00627Y-00786*
X-0063Y-00781*
X-00633Y-00778*
Y-00764*
X-00587Y-00717*
X-00586Y-00716*
X-00581Y-00717*
G37*
G36*
X-01064Y-00686D02*
Y-00705D01*
X-01064Y-00709*
X-01062Y-00711*
X-00943Y-0083*
X-0094Y-00832*
X-00937Y-00832*
X-00869*
X-00839Y-00862*
X-00837Y-00864*
X-00833Y-00864*
X-00803*
X-00788Y-00879*
X-0079Y-00883*
X-00801Y-00882*
X-00853Y-00875*
X-00899Y-00865*
X-00949Y-0085*
X-00993Y-00833*
X-01041Y-00811*
X-01082Y-00789*
X-01167Y-0073*
X-01167Y-0073*
X-01168Y-00729*
X-01168Y-00728*
X-01168Y-00727*
X-01168Y-00726*
X-01168Y-00725*
X-01168Y-00724*
X-01168Y-00724*
X-01167Y-00723*
X-01146Y-00702*
X-01146Y-00702*
X-01146Y-00702*
X-01141Y-00697*
X-01141Y-00696*
X-01141Y-00696*
X-01137Y-0069*
X-01136Y-00689*
X-01135Y-00689*
X-01131Y-00679*
X-01131Y-00678*
X-01131Y-00678*
X-0113Y-00676*
X-0113Y-00676*
X-0113Y-00676*
X-0113Y-00675*
X-0113Y-00675*
X-0113Y-00674*
X-01128Y-00667*
X-01128Y-00666*
X-01127Y-00666*
X-01127Y-00659*
X-01127Y-00658*
X-01127Y-00658*
X-01127Y-00651*
X-01127Y-0065*
X-01127Y-00649*
X-01129Y-00638*
X-01129Y-00637*
X-01129Y-00636*
X-01133Y-00626*
X-01134Y-00625*
X-01134Y-00624*
X-01135Y-00622*
X-01132Y-00619*
X-01064Y-00686*
G37*
%LNflytta-36-2*%
%LPC*%
G36*
X-01296Y00153D02*
X-01302Y00152D01*
X-01307Y00149*
X-01311Y00143*
X-01312Y00137*
X-01311Y00131*
X-01307Y00126*
X-01302Y00122*
X-01296Y00121*
X-0129Y00122*
X-01285Y00126*
X-01281Y00131*
X-0128Y00137*
X-01281Y00143*
X-01285Y00149*
X-0129Y00152*
X-01296Y00153*
G37*
G36*
X-004Y-00435D02*
X-00406Y-00436D01*
X-00411Y-0044*
X-00414Y-00445*
X-00416Y-00451*
X-00414Y-00457*
X-00411Y-00462*
X-00406Y-00466*
X-004Y-00467*
X-00393Y-00466*
X-00388Y-00462*
X-00385Y-00457*
X-00384Y-00451*
X-00385Y-00445*
X-00388Y-0044*
X-00393Y-00436*
X-004Y-00435*
G37*
G36*
X-00134Y-00424D02*
X-0014Y-00425D01*
X-00146Y-00428*
X-00149Y-00434*
X-0015Y-0044*
X-00149Y-00446*
X-00146Y-00451*
X-00142Y-00454*
X-00141Y-00455*
Y-00458*
X-00142Y-00459*
X-00146Y-00462*
X-00149Y-00467*
X-0015Y-00473*
X-00149Y-00479*
X-00146Y-00485*
X-0014Y-00488*
X-00134Y-00489*
X-00128Y-00488*
X-00123Y-00485*
X-00119Y-00479*
X-00118Y-00473*
X-00119Y-00467*
X-00123Y-00462*
X-00127Y-00459*
X-00127Y-00458*
Y-00455*
X-00127Y-00454*
X-00123Y-00451*
X-00119Y-00446*
X-00118Y-0044*
X-00119Y-00434*
X-00123Y-00428*
X-00128Y-00425*
X-00134Y-00424*
G37*
G36*
X-0109Y-00722D02*
X-01096Y-00723D01*
X-01101Y-00727*
X-01105Y-00732*
X-01106Y-00738*
X-01105Y-00744*
X-01101Y-0075*
X-01096Y-00753*
X-0109Y-00754*
X-01084Y-00753*
X-01079Y-0075*
X-01075Y-00744*
X-01074Y-00738*
X-01075Y-00732*
X-01079Y-00727*
X-01084Y-00723*
X-0109Y-00722*
G37*
%LNflytta-36-3*%
%LPD*%
G54D11*
X-00799Y-00856D02*
D01*
X-00833D02*
X-00799D01*
X-00737Y-00609D02*
X-00732D01*
X-00731Y-0061*
X-0063*
X-00757Y-00854D02*
X-00732D01*
X-00788Y-00823D02*
X-00757Y-00854D01*
X-00811Y-00823D02*
X-00788D01*
X-00634Y-00877D02*
X-00573Y-00816D01*
X-00799Y-00856D02*
X-00774Y-00882D01*
X-00655Y-0088D02*
X-00634Y-00877D01*
X-00774Y-00882D02*
X-0075Y-00883D01*
X-00702*
X-00655Y-0088*
X-01104Y-00258D02*
X-01087Y-00275D01*
X-01104Y-00205D02*
X-01094Y-00194D01*
X-01129Y-0027D02*
Y-0025D01*
X-01087Y-00277D02*
X-01077Y-00287D01*
X-01104Y-00232D02*
X-01104Y-00233D01*
X-01104Y-00232D02*
Y-00205D01*
X-01077Y-00288D02*
Y-00287D01*
X-01104Y-00258D02*
Y-00233D01*
X-01099Y-00283D02*
X-01095Y-00286D01*
X-01116Y-00265D02*
X-01099Y-00282D01*
Y-00283D02*
Y-00282D01*
X-01094Y-00194D02*
Y-0011D01*
X-01129Y-00249D02*
X-01129Y-0025D01*
X-01117Y-00244D02*
X-01116Y-00245D01*
X-01117Y-00244D02*
Y-002D01*
X-01116Y-00265D02*
Y-00245D01*
X-01094Y-0011D02*
X-01083Y-00099D01*
X-01087Y-00277D02*
Y-00275D01*
X-01129Y-00249D02*
Y-00142D01*
X-01188Y-00233D02*
X-01163Y-00208D01*
X-01171Y-00144D02*
X-01163Y-00152D01*
Y-00208D02*
Y-00152D01*
X-00942Y-00536D02*
X-00942Y-00535D01*
X-01025Y-00517D02*
X-01023D01*
X-01144Y-00437D02*
X-01075D01*
X-01041Y-00501D02*
X-01025Y-00517D01*
X-01151Y-00431D02*
X-01144Y-00437D01*
X-01171Y-0025D02*
X-01168Y-00247D01*
X-01171Y-00265D02*
Y-0025D01*
X-01174Y-00269D02*
X-01171Y-00265D01*
X-01174Y-00471D02*
Y-00269D01*
X-01129Y-00142D02*
X-01128Y-00142D01*
X-01171Y-00144D02*
Y-00137D01*
X-0116Y-00126*
Y-00093*
X-01148Y-00284D02*
Y-00098D01*
X-01126Y-00059D02*
X-01071D01*
X-01069Y-00062D02*
X-01064D01*
X-01071Y-00059D02*
X-01069Y-00062D01*
X-01148Y-00098D02*
X-01121Y-00072D01*
X-0116Y-00093D02*
X-01126Y-00059D01*
X-01151Y-00287D02*
X-01148Y-00284D01*
X-01315Y-00205D02*
X-01309Y-00199D01*
X-01278Y-00031D02*
Y00039D01*
X-01309Y-00199D02*
Y-00173D01*
X-01298Y-00162*
Y-00051*
X-01278Y-00031*
X-01297Y-00544D02*
X-01204D01*
X-01056Y-00705D02*
X-00937Y-00824D01*
X-01204Y-00544D02*
X-01144Y-00604D01*
X-01136*
X-01056Y-00683*
Y-00705D02*
Y-00683D01*
X-01106Y-00582D02*
X-01106Y-00582D01*
X-00924Y-00792D02*
X-0087D01*
X-01303Y-00517D02*
X-01288Y-00532D01*
X-01166*
X-00958Y-00733D02*
X-00958Y-00733D01*
X-01166Y-00532D02*
X-01125D01*
X-01094Y-00501*
X-01084Y-00565D02*
X-01073D01*
X-00958Y-00735D02*
Y-00733D01*
X-00925Y-00793D02*
X-00924Y-00792D01*
X-0087D02*
X-00867Y-00795D01*
X-01166Y-00532D02*
X-01166Y-00532D01*
X-01085Y-00564D02*
X-01084Y-00565D01*
X-01067Y-00545D02*
Y-00544D01*
X-01316Y-00525D02*
X-01297Y-00544D01*
X-0063Y-0061D02*
X-00623Y-00617D01*
X-01226Y-00288D02*
X-01188Y-0025D01*
X-01226Y-00301D02*
Y-00288D01*
X-01188Y-0025D02*
Y-00233D01*
X-01128Y-00106D02*
X-01107Y-00126D01*
X-01095Y-00072D02*
X-01083Y-00083D01*
X-01121Y-00072D02*
X-01095D01*
X-01107Y-0019D02*
Y-00126D01*
X-01117Y-002D02*
X-01107Y-0019D01*
X-01129Y-0027D02*
X-01111Y-00287D01*
X-01174Y-00471D02*
X-01133Y-00512D01*
X-01151Y-00431D02*
Y-00287D01*
X-01083Y-00099D02*
Y-00083D01*
X-01346Y0004D02*
X-01309D01*
X-01308Y00039*
X-01321Y-00168D02*
Y00009D01*
X-01325Y00012D02*
X-01321Y00009D01*
X-01283Y-00218D02*
Y-0019D01*
X-01308Y0007D02*
X-01278Y00039D01*
X-01274Y-00102D02*
X-01266Y-00094D01*
Y-00094D02*
X-01261Y-00089D01*
X-01283Y-0019D02*
X-01274Y-00181D01*
Y-00102*
X-01261Y-00089D02*
X-01179D01*
X-01266Y-00094D02*
Y-00094D01*
X-01094Y-00501D02*
X-01041D01*
X-01292Y-00345D02*
Y-00321D01*
X-01278Y-00306*
X-01303Y-00355D02*
X-01292Y-00345D01*
X-01303Y-00517D02*
Y-00355D01*
X-01278Y-00306D02*
Y-00286D01*
X-01315Y-00249D02*
X-01278Y-00286D01*
X-01315Y-00249D02*
Y-00205D01*
X-00442Y-00499D02*
X-00386D01*
X-00359Y-00512D02*
X-00345Y-00526D01*
X-00386Y-00499D02*
X-00374Y-00512D01*
X-00359*
X-00529Y-00558D02*
X-005D01*
X-00442Y-00499*
X-00345Y-00545D02*
Y-00526D01*
X-00375Y-00578D02*
X-0036Y-00563D01*
Y-0056D02*
X-00345Y-00545D01*
X-0036Y-00563D02*
Y-0056D01*
X-01332Y-00218D02*
X-01327Y-00223D01*
X-01332Y-00218D02*
Y-00179D01*
X-01321Y-00168*
X-00887Y-00685D02*
X-0087D01*
X-0105Y-00525D02*
X-01036Y-00539D01*
Y-00559D02*
Y-00539D01*
X-0105Y-00525D02*
Y-00521D01*
X-01316Y-00341D02*
X-01312Y-00337D01*
X-01316Y-00525D02*
Y-00341D01*
X-01327Y-00265D02*
X-01297Y-00295D01*
X-01327Y-00265D02*
Y-00223D01*
X-00926Y-00788D02*
Y-00768D01*
X-00867Y-00795D02*
X-00825Y-00837D01*
X-00926Y-00788D02*
X-00925Y-00792D01*
X-00958Y-00735D02*
X-00926Y-00768D01*
X-00937Y-00824D02*
X-00865D01*
X-00563Y-00607D02*
X-00558Y-00612D01*
X-00438Y-00551D02*
Y-00546D01*
X-00573Y-00816D02*
Y-00662D01*
X-01095Y-00301D02*
X-01083Y-00313D01*
X-01095Y-00301D02*
Y-00286D01*
X-00789Y-00745D02*
X-00773D01*
X-00829Y-00705D02*
X-00789Y-00745D01*
X-00746Y-00732D02*
X-00715D01*
X-00687Y-00713D02*
X-00664Y-00735D01*
X-01106Y-00591D02*
X-01038Y-00659D01*
X-01075Y-00593D02*
X-01061D01*
X-00664Y-00751D02*
Y-00735D01*
X-00688Y-00775D02*
X-00664Y-00751D01*
X-00433Y-00518D02*
X-00432Y-00519D01*
X-00395Y-00534D02*
X-00365D01*
X-0044Y-00518D02*
X-00433D01*
X-00479Y-00492D02*
X-00476Y-00489D01*
X-00437Y-00546D02*
X-00407D01*
X-00458Y-00537D02*
X-0044Y-00518D01*
X-00407Y-00546D02*
X-00395Y-00534D01*
X-01129Y00003D02*
X-011Y-00025D01*
X-01129Y00003D02*
Y00028D01*
X-01132Y-00041D02*
X-01115Y-00025D01*
X-011*
X-00733Y-00769D02*
X-00728Y-00763D01*
X-00688Y-00859D02*
X-00663Y-00835D01*
X-00727Y-00859D02*
X-00688D01*
X-00723Y-00815D02*
X-0071D01*
X-00691Y-00834*
X-00692Y-00743D02*
X-00684D01*
X-00734Y-00803D02*
Y-00787D01*
Y-00803D02*
X-00723Y-00815D01*
X-00732Y-00854D02*
X-00727Y-00859D01*
X-00737Y-00839D02*
X-00719D01*
X-01179Y-00089D02*
X-01132Y-00041D01*
X-01083Y-00313D02*
X-01056Y-0034D01*
X-01083Y-00313D02*
X-01083D01*
X-01131Y-00363D02*
Y-00295D01*
X-01111Y-00303D02*
Y-00287D01*
X-01116Y-00308D02*
X-01111Y-00303D01*
X-00579Y-00635D02*
X-00572Y-00627D01*
X-00579Y-00635D02*
Y-00635D01*
X-00861Y-00693D02*
X-00813D01*
X-0087Y-00685D02*
X-00861Y-00693D01*
X-00865Y-00824D02*
X-00833Y-00856D01*
X-01106Y-00591D02*
Y-00582D01*
X-00823Y-00783D02*
X-00822D01*
X-00663Y-00835D02*
Y-00823D01*
X-00641Y-00801*
Y-0076D02*
X-00592Y-00711D01*
X-00641Y-00801D02*
Y-0076D01*
G54D57*
X-00174Y00042D03*
G54D62*
X-00535Y-00601D02*
X-00505D01*
X-00585Y-00595D02*
X-00566D01*
X-00556Y-00585*
X-0055*
X-00535Y-00601*
X-00805Y-00673D02*
X-00746Y-00732D01*
X-00882Y-00753D02*
X-00811Y-00823D01*
X-01003Y-00525D02*
Y-00508D01*
X-00952Y-0052D02*
Y-00509D01*
X-00942Y-00535D02*
Y-0053D01*
X-00952Y-0052D02*
X-00942Y-0053D01*
X-01075Y-00437D02*
X-01003Y-00508D01*
X-00611Y-00649D02*
X-00591Y-0063D01*
X-00603Y-00625D02*
Y-00614D01*
X-00585Y-00595*
X-00591Y-0063D02*
Y-00619D01*
X-0058Y-00607*
X-00449Y-00578D02*
X-00375D01*
X-01014Y-00536D02*
X-01003Y-00525D01*
X-00888Y-00705D02*
X-00829D01*
X-00991Y-00515D02*
X-00966Y-0054D01*
X-00979Y-0051D02*
X-00954Y-00535D01*
X-00979Y-0051D02*
Y-00498D01*
X-00991Y-00515D02*
Y-00503D01*
X-01131Y-00363D02*
X-00991Y-00503D01*
X-01116Y-00362D02*
X-00979Y-00498D01*
X-01056Y-00405D02*
X-00952Y-00509D01*
X-00458Y-00553D02*
Y-00537D01*
X-00505Y-00601D02*
X-00458Y-00553D01*
X-005Y-00612D02*
X-00438Y-00551D01*
X-00558Y-00612D02*
X-005D01*
X-00535Y-00624D02*
X-00495D01*
X-00573Y-00662D02*
X-00535Y-00624D01*
X-00495D02*
X-00449Y-00578D01*
X-00749Y-00713D02*
X-00687D01*
X-00908Y-00753D02*
X-00882D01*
X-00903Y-00741D02*
X-00864D01*
X-00898Y-00729D02*
X-00847D01*
X-00893Y-00717D02*
X-00842D01*
X-00791Y-00769D02*
X-00733D01*
X-00728Y-00763D02*
X-00713D01*
X-00723Y-00775D02*
X-00688D01*
X-00734Y-00787D02*
X-00723Y-00775D01*
X-00713Y-00763D02*
X-00692Y-00743D01*
X-00847Y-00729D02*
X-00737Y-00839D01*
X-01056Y-00405D02*
Y-0034D01*
X-01116Y-00362D02*
Y-00308D01*
X-00592Y-00648D02*
X-00579Y-00635D01*
X-00592Y-00711D02*
Y-00648D01*
X-0058Y-00607D02*
X-00563D01*
X-00864Y-00741D02*
X-00823Y-00783D01*
X-00842Y-00717D02*
X-00791Y-00769D01*
G54D70*
X-01261Y-00033D03*
X-01221Y-00073D03*
Y-00033D03*
Y00006D03*
X-01181Y-00033D03*
G54D71*
X-00479Y-00492D03*
X-00529Y-00558D03*
X-00737Y-00609D03*
X-01084Y-0025D03*
X-01085Y-00218D03*
X-01023Y-00517D03*
X-0109Y-00473D03*
X-01128Y-00142D03*
X-01067Y-00544D03*
X-01085Y-00564D03*
X-01106Y-00582D03*
X-00958Y-00733D03*
X-00623Y-00617D03*
X-0075Y00244D03*
X-01061Y-00031D03*
X-01128Y-00106D03*
X-01064Y-00062D03*
X-01168Y-00247D03*
X-01182Y-00199D03*
X-01103Y-00091D03*
X-01325Y00012D03*
X-01357Y-00077D03*
X-01308Y00039D03*
Y0007D03*
X-00862Y-00603D03*
X-00114Y-00307D03*
X-00095Y-00324D03*
X-00978Y0017D03*
X-0009Y-00348D03*
Y-00288D03*
X-00052Y-00298D03*
X-0035Y-00494D03*
X-0009Y-00422D03*
X-00105Y-00452D03*
X-00134Y-00473D03*
Y-0044D03*
X-00278Y-00375D03*
X-00194Y-0037D03*
X-00252Y-00329D03*
X-00064Y-00371D03*
X-00105Y-00369D03*
Y-00487D03*
X-00309Y-00542D03*
X-00336Y-00564D03*
X-00084Y-00389D03*
X-00064Y-00339D03*
X-00072Y-00311D03*
X-01344Y-00345D03*
X-01399Y-0031D03*
X-01297Y-00295D03*
X-01312Y-00337D03*
X-00247Y-00582D03*
X-004Y-00451D03*
X-01341Y-0016D03*
X-00986Y00076D03*
X-00972Y00099D03*
X-01049Y00116D03*
X-01057Y00062D03*
X-01036Y00204D03*
X-00955Y00191D03*
X-01065Y00092D03*
X-01105Y00177D03*
X-01059Y00145D03*
X-01082Y00157D03*
X-00998Y00243D03*
X-01019Y00224D03*
X-01059Y00178D03*
X-00968Y00265D03*
X-00931Y0029D03*
X-00728Y0023D03*
X-00776Y00256D03*
X-00968Y00305D03*
X-00995Y-00545D03*
X-01059Y00218D03*
X-0105Y-00521D03*
X-0078Y00221D03*
X-01019Y00264D03*
X-00998Y00283D03*
X-00568Y-00859D03*
X-00529Y-0085D03*
X-00465Y-00796D03*
X-0054Y-00746D03*
X-00612Y-00792D03*
X-00641D03*
X-00328Y-00732D03*
X-0034Y-00662D03*
X-01036Y00244D03*
X-00925Y-00792D03*
X-00902Y-00772D03*
X-00513Y-00581D03*
X-00773Y-00745D03*
X-00701Y-00692D03*
X-00715Y-00732D03*
X-01245Y-00247D03*
X-00438Y-00546D03*
X-00432Y-00519D03*
X-00459Y-00462D03*
X-00405Y-0038D03*
X-01096Y-00672D03*
X-01269Y-00326D03*
X-01223Y-00179D03*
X-011Y-00025D03*
X-01125Y00029D03*
X-00715Y-00795D03*
X-00719Y-00839D03*
X-00684Y-00743D03*
X-00788Y-00609D03*
X-01223Y00138D03*
X-01296Y00137D03*
X-01118Y00151D03*
X-01117Y00095D03*
X-01192Y00179D03*
X-01193Y00152D03*
X-01193Y00099D03*
X-01193Y00125D03*
X-01193Y00072D03*
X-00406Y-00626D03*
X-00828Y-00611D03*
X-01226Y00184D03*
X-01075Y-00293D03*
X-01095Y-00329D03*
X-01131Y-00295D03*
X-0108Y00119D03*
X-00505Y-00684D03*
X-00473Y-00715D03*
X-00473Y-00689D03*
X-00387Y-00356D03*
X-0087Y-00685D03*
X-0121Y-00241D03*
X-01376Y-00395D03*
X-00886Y00293D03*
X-00811Y00264D03*
X-00842Y00285D03*
X-01247Y-00205D03*
X-01283Y-00218D03*
X-00813Y-00693D03*
X-00822Y-00783D03*
X-01075Y-00593D03*
X-00825Y-00837D03*
X-00691Y-00834D03*
X-0019Y-0062D03*
X-0021Y-00598D03*
X-00572Y-00627D03*
X-01133Y-00512D03*
X-00528Y-00696D03*
X-01339Y-00489D03*
X-00365Y-00534D03*
X-00384Y-00558D03*
X-01238Y00075D03*
X-0109Y-00738D03*
X-01082Y00197D03*
X-01353Y-00459D03*
X-00384Y-00326D03*
X-01384Y-00032D03*
X-0127Y00183D03*
X-01297Y00183D03*
X-0139Y-00346D03*
X-01351Y-0028D03*
X-00641Y-0068D03*
X-00673Y-00678D03*
X-00612Y-00683D03*
G54D72*
X-0126Y00008D03*
Y-0007D03*
X-01187Y00008D03*
X-0119Y-00069D03*
G54D87*
X-00862Y-00665D02*
X-00854Y-00673D01*
X-00859Y-00651D02*
X-00849Y-00661D01*
X-00877Y-00628D02*
X-00849D01*
X-00839Y-00638*
X-00854Y-00639D02*
X-00844Y-00649D01*
X-0089Y-00665D02*
X-00862D01*
X-00887Y-00651D02*
X-00859D01*
X-008Y-00661D02*
X-00749Y-00713D01*
X-00882Y-00639D02*
X-00854D01*
X-00849Y-00661D02*
X-008D01*
X-00844Y-00649D02*
X-00611D01*
X-00839Y-00638D02*
X-00615D01*
X-00854Y-00673D02*
X-00805D01*
X-00615Y-00638D02*
X-00603Y-00625D01*
G54D88*
X-00942Y-00562D02*
X-00877Y-00628D01*
X-01067Y-00545D02*
X-00988Y-00624D01*
X-01014Y-00557D02*
X-00887Y-00685D01*
X-00995Y-0056D02*
Y-00545D01*
X-01014Y-00557D02*
Y-00536D01*
X-00995Y-0056D02*
X-0089Y-00665D01*
X-01036Y-00559D02*
X-00983Y-00612D01*
X-00982*
X-00888Y-00705*
X-00966Y-00572D02*
Y-0054D01*
X-00954Y-00567D02*
X-00882Y-00639D01*
X-00954Y-00567D02*
Y-00535D01*
X-00942Y-00562D02*
Y-00536D01*
X-00966Y-00572D02*
X-00887Y-00651D01*
X-00988Y-00624D02*
X-00986D01*
X-01038Y-00659D02*
X-01001D01*
X-01073Y-00565D02*
X-01002Y-00636D01*
X-01061Y-00593D02*
X-01007Y-00647D01*
X-01001Y-00659D02*
X-00908Y-00753D01*
X-00996Y-00647D02*
X-00903Y-00741D01*
X-01007Y-00647D02*
X-00996D01*
X-00991Y-00636D02*
X-00898Y-00729D01*
X-01002Y-00636D02*
X-00991D01*
X-00986Y-00624D02*
X-00893Y-00717D01*
G54D89*
X-00411Y-00689D02*
X-00219Y-00497D01*
X-00473Y-00689D02*
X-00411D01*
X-00219Y-00497D02*
X-00178D01*
G54D90*
X-01218Y-00311D03*
X-01368Y-00257D03*
G54D91*
X-01363Y00019D03*
G54D92*
X-0137Y-00097D03*
G54D93*
X-00195Y-00503D03*
G54D94*
X-00476Y-00785D03*
G54D95*
X-00491Y-00688D03*
G54D96*
X-00354Y-00735D03*
G54D97*
X-01231Y-00146D03*
G54D98*
X-00135Y-0035D03*
M02*