%FSTAX23Y23*%
%MOIN*%
%SFA1B1*%

%IPPOS*%
%AMD14*
4,1,4,0.000000,0.016700,-0.016700,0.000000,0.000000,-0.016700,0.016700,0.000000,0.000000,0.016700,0.0*
%
%AMD15*
4,1,4,0.011300,0.020800,-0.022000,0.008700,-0.011300,-0.020800,0.022000,-0.008700,0.011300,0.020800,0.0*
%
%AMD16*
4,1,4,-0.018000,0.002100,-0.004800,-0.017400,0.018000,-0.002100,0.004800,0.017400,-0.018000,0.002100,0.0*
%
%AMD18*
4,1,4,0.016700,0.000000,0.000000,0.016700,-0.016700,0.000000,0.000000,-0.016700,0.016700,0.000000,0.0*
%
%AMD22*
4,1,4,-0.017100,-0.006000,0.003400,-0.017800,0.017100,0.006000,-0.003400,0.017800,-0.017100,-0.006000,0.0*
%
%AMD25*
4,1,4,-0.000700,-0.008300,0.008300,-0.000700,0.000700,0.008300,-0.008300,0.000700,-0.000700,-0.008300,0.0*
%
%AMD26*
4,1,4,-0.000700,0.008300,-0.008300,-0.000700,0.000700,-0.008300,0.008300,0.000700,-0.000700,0.008300,0.0*
%
%AMD27*
4,1,4,0.005000,0.011700,-0.011700,-0.005000,-0.005000,-0.011700,0.011700,0.005000,0.005000,0.011700,0.0*
%
%AMD28*
4,1,4,0.011700,-0.005000,-0.005000,0.011700,-0.011700,0.005000,0.005000,-0.011700,0.011700,-0.005000,0.0*
%
%AMD29*
4,1,4,0.013900,0.070900,-0.070900,-0.013900,-0.013900,-0.070900,0.070900,0.013900,0.013900,0.070900,0.0*
%
%AMD30*
4,1,4,-0.020000,0.010100,0.006500,-0.021400,0.020000,-0.010100,-0.006500,0.021400,-0.020000,0.010100,0.0*
%
%AMD31*
4,1,4,-0.021900,-0.107000,0.109200,0.003000,0.021900,0.107000,-0.109200,-0.003000,-0.021900,-0.107000,0.0*
%
%AMD32*
4,1,4,0.001300,-0.018000,0.018000,-0.001300,-0.001300,0.018000,-0.018000,0.001300,0.001300,-0.018000,0.0*
%
%AMD33*
4,1,4,0.025500,0.006800,-0.006800,0.025500,-0.025500,-0.006800,0.006800,-0.025500,0.025500,0.006800,0.0*
%
%AMD40*
4,1,8,0.004900,-0.009400,0.004900,0.009400,0.004400,0.009800,-0.004400,0.009800,-0.004900,0.009400,-0.004900,-0.009400,-0.004400,-0.009800,0.004400,-0.009800,0.004900,-0.009400,0.0*
1,1,0.000984,0.004400,-0.009400*
1,1,0.000984,0.004400,0.009400*
1,1,0.000984,-0.004400,0.009400*
1,1,0.000984,-0.004400,-0.009400*
%
%AMD41*
4,1,8,0.039400,-0.015900,0.039400,0.015900,0.037600,0.017700,-0.037600,0.017700,-0.039400,0.015900,-0.039400,-0.015900,-0.037600,-0.017700,0.037600,-0.017700,0.039400,-0.015900,0.0*
1,1,0.003543,0.037600,-0.015900*
1,1,0.003543,0.037600,0.015900*
1,1,0.003543,-0.037600,0.015900*
1,1,0.003543,-0.037600,-0.015900*
%
%ADD10C,0.007874*%
%ADD11C,0.009843*%
G04~CAMADD=14~10~0.0~236.2~0.0~0.0~0.0~0.0~0~0.0~0.0~0.0~0.0~0~0.0~0.0~0.0~0.0~0~0.0~0.0~0.0~405.0~236.2~0.0*
%ADD14D14*%
G04~CAMADD=15~9~0.0~0.0~354.3~315.0~0.0~0.0~0~0.0~0.0~0.0~0.0~0~0.0~0.0~0.0~0.0~0~0.0~0.0~0.0~20.0~440.0~415.0*
%ADD15D15*%
G04~CAMADD=16~9~0.0~0.0~236.2~275.6~0.0~0.0~0~0.0~0.0~0.0~0.0~0~0.0~0.0~0.0~0.0~0~0.0~0.0~0.0~124.0~360.0~347.0*
%ADD16D16*%
%ADD17R,0.059055X0.102362*%
G04~CAMADD=18~10~0.0~236.2~0.0~0.0~0.0~0.0~0~0.0~0.0~0.0~0.0~0~0.0~0.0~0.0~0.0~0~0.0~0.0~0.0~315.0~236.2~0.0*
%ADD18D18*%
%ADD19R,0.023622X0.023622*%
%ADD20R,0.023622X0.023622*%
%ADD21R,0.023622X0.027559*%
G04~CAMADD=22~9~0.0~0.0~236.2~275.6~0.0~0.0~0~0.0~0.0~0.0~0.0~0~0.0~0.0~0.0~0.0~0~0.0~0.0~0.0~150.0~342.0~355.0*
%ADD22D22*%
%ADD23R,0.011811X0.011811*%
%ADD24R,0.011811X0.011811*%
G04~CAMADD=25~10~0.0~118.1~0.0~0.0~0.0~0.0~0~0.0~0.0~0.0~0.0~0~0.0~0.0~0.0~0.0~0~0.0~0.0~0.0~220.0~118.1~0.0*
%ADD25D25*%
G04~CAMADD=26~10~0.0~118.1~0.0~0.0~0.0~0.0~0~0.0~0.0~0.0~0.0~0~0.0~0.0~0.0~0.0~0~0.0~0.0~0.0~410.0~118.1~0.0*
%ADD26D26*%
G04~CAMADD=27~9~0.0~0.0~236.2~94.5~0.0~0.0~0~0.0~0.0~0.0~0.0~0~0.0~0.0~0.0~0.0~0~0.0~0.0~0.0~45.0~234.0~233.0*
%ADD27D27*%
G04~CAMADD=28~9~0.0~0.0~236.2~94.5~0.0~0.0~0~0.0~0.0~0.0~0.0~0~0.0~0.0~0.0~0.0~0~0.0~0.0~0.0~315.0~234.0~233.0*
%ADD28D28*%
G04~CAMADD=29~9~0.0~0.0~1200.8~807.1~0.0~0.0~0~0.0~0.0~0.0~0.0~0~0.0~0.0~0.0~0.0~0~0.0~0.0~0.0~45.0~1418.0~1417.0*
%ADD29D29*%
G04~CAMADD=30~9~0.0~0.0~413.4~177.2~0.0~0.0~0~0.0~0.0~0.0~0.0~0~0.0~0.0~0.0~0.0~0~0.0~0.0~0.0~130.0~400.0~427.0*
%ADD30D30*%
G04~CAMADD=31~9~0.0~0.0~1712.6~1358.3~0.0~0.0~0~0.0~0.0~0.0~0.0~0~0.0~0.0~0.0~0.0~0~0.0~0.0~0.0~220.0~2184.0~2139.0*
%ADD31D31*%
G04~CAMADD=32~9~0.0~0.0~236.2~275.6~0.0~0.0~0~0.0~0.0~0.0~0.0~0~0.0~0.0~0.0~0.0~0~0.0~0.0~0.0~225.0~360.0~359.0*
%ADD32D32*%
G04~CAMADD=33~10~0.0~374.0~0.0~0.0~0.0~0.0~0~0.0~0.0~0.0~0.0~0~0.0~0.0~0.0~0.0~0~0.0~0.0~0.0~330.0~374.0~0.0*
%ADD33D33*%
%ADD34O,0.007874X0.023622*%
%ADD35O,0.023622X0.007874*%
%ADD37C,0.009843*%
%ADD38R,0.020866X0.009055*%
%ADD39R,0.009055X0.020866*%
G04~CAMADD=40~8~0.0~0.0~196.9~98.4~4.9~0.0~15~0.0~0.0~0.0~0.0~0~0.0~0.0~0.0~0.0~0~0.0~0.0~0.0~270.0~98.0~196.0*
%ADD40D40*%
G04~CAMADD=41~8~0.0~0.0~354.3~787.4~17.7~0.0~15~0.0~0.0~0.0~0.0~0~0.0~0.0~0.0~0.0~0~0.0~0.0~0.0~270.0~788.0~354.0*
%ADD41D41*%
%ADD42R,0.037401X0.037401*%
%ADD43R,0.037401X0.037401*%
%ADD58C,0.047244*%
%ADD59C,0.015748*%
%ADD60R,0.110236X0.110236*%
%ADD61C,0.027559*%
%ADD62C,0.005905*%
%ADD63C,0.011811*%
%ADD64C,0.011842*%
%ADD65C,0.009449*%
%ADD66R,0.075531X0.031087*%
%ADD67R,0.059212X0.047701*%
%ADD68R,0.092000X0.021000*%
%ADD69R,0.023622X0.054669*%
%ADD70R,0.014323X0.066653*%
%ADD71R,0.051535X0.024606*%
%ADD72R,0.024724X0.035945*%
%ADD73C,0.015748*%
%ADD74C,0.023622*%
%LNflytta-32-1*%
%LPD*%
G36*
X-00955Y00311D02*
Y00309D01*
X-00954Y00306*
X-00951Y00305*
X-00903*
X-00718Y00244*
X-00724Y00213*
X-00788*
X-00789Y00212*
X-0079Y00212*
X-00793Y00212*
X-00798Y00216*
Y00243*
X-00821*
X-00834Y00256*
X-00837Y00258*
X-0084Y00258*
X-0085*
X-00857Y00277*
X-00885Y00267*
X-0089Y00271*
X-00893Y00273*
X-00896Y00274*
X-00908*
X-00911Y00273*
X-00912Y00272*
X-00916*
X-00917Y00272*
X-00918Y00272*
X-00955Y00259*
X-00955Y00259*
X-00955Y00259*
X-00956Y00258*
X-00957Y00257*
X-00957Y00257*
X-00958Y00257*
X-00961Y00253*
X-00963Y00251*
X-00963Y00248*
Y00243*
X-00963Y00242*
X-00963Y0024*
X-00958Y00227*
X-00991Y00194*
X-00994Y00193*
X-00996Y00192*
X-00996*
X-01028Y0016*
X-0103Y00157*
X-01031Y00154*
Y00042*
X-01059Y00014*
X-01084*
X-01086Y00018*
Y00049*
X-01109*
X-01113Y00051*
Y00054*
X-01112Y00055*
Y00079*
X-01113Y0008*
Y00083*
X-01117Y00083*
X-01118*
X-01134*
X-01137Y00087*
Y00174*
X-01087Y0022*
X-0096Y00313*
X-00955Y00311*
G37*
G36*
X-00894Y00252D02*
X-00884Y00225D01*
X-00843Y0024*
X-00839Y00238*
X-0083Y00229*
Y00211*
X-00819*
X-00819Y00206*
X-00843Y00201*
X-00844Y00201*
X-00845Y00201*
X-00879Y00188*
X-00884Y0019*
X-00894Y00218*
X-00934Y00203*
X-00929Y00187*
X-0096Y00156*
X-00964Y0016*
X-00986Y00138*
X-00981Y00132*
X-01009Y00103*
X-01014Y00105*
Y00151*
X-00987Y00178*
X-00985Y00179*
X-00982Y0018*
X-00944Y00218*
X-00943Y00221*
X-00942Y00224*
Y00228*
X-00942Y0023*
X-00943Y00231*
X-00947Y00244*
X-00914Y00256*
X-00909*
X-00906Y00257*
X-00906Y00257*
X-00899*
X-00894Y00252*
G37*
G36*
X-01173Y00177D02*
Y00122D01*
X-01173*
Y00091*
X-01173*
Y00083*
X-01173*
Y00081*
X-01174Y00079*
Y00059*
X-01178Y00056*
X-01179Y00056*
X-01181Y00056*
X-01185Y00056*
X-01187Y00054*
X-01189Y00051*
X-0119Y00048*
Y00032*
X-01189Y00029*
X-01187Y00027*
X-01185Y00025*
X-01181Y00024*
X-01178Y00025*
X-01178Y00025*
X-01173Y00026*
X-0117Y00025*
X-01169*
X-01166Y00025*
X-01165Y00024*
X-01162Y00021*
X-01161Y00018*
X-0116Y00015*
Y00011*
X-01161Y00008*
X-01162Y00005*
X-01161Y00002*
X-0116Y0*
Y-00004*
X-01161Y-00007*
X-01162Y-0001*
X-01161Y-00013*
X-0116Y-00016*
X-01157Y-00017*
X-01154Y-00018*
X-0112*
X-01116Y-00023*
X-01116Y-00025*
X-01116Y-00027*
X-01116Y-00029*
X-01119Y-00033*
X-01119Y-00033*
X-01154*
X-01157Y-00034*
X-0116Y-00036*
X-01161Y-00038*
X-01162Y-00041*
X-01161Y-00044*
X-0116Y-00047*
Y-00051*
X-01161Y-00054*
X-01162Y-00057*
X-01161Y-0006*
X-0116Y-00063*
Y-00067*
X-01161Y-0007*
X-01162Y-00073*
X-01161Y-00076*
X-0116Y-00079*
Y-00083*
X-01161Y-00086*
X-01162Y-00089*
X-01166Y-00092*
X-01169Y-00093*
X-01171Y-00095*
X-01176*
X-01178Y-00093*
X-01181Y-00092*
X-01185Y-00093*
X-01187Y-00095*
X-01192*
X-01194Y-00093*
X-01197Y-00092*
X-012Y-00093*
X-01203Y-00095*
X-01207*
X-0121Y-00093*
X-01213Y-00092*
X-01216Y-00093*
X-01219Y-00095*
X-0122Y-00097*
X-01221Y-001*
Y-00159*
X-01223*
Y-00163*
X-01223Y-00163*
X-01229Y-00165*
X-01231Y-00166*
X-01236Y-00163*
Y-001*
X-01237Y-00097*
X-01239Y-00095*
X-01241Y-00093*
X-01244Y-00092*
X-01248Y-00093*
X-0125Y-00095*
X-01255*
X-01257Y-00093*
X-0126Y-00092*
X-01263Y-00093*
X-01266Y-00095*
X-01268Y-00097*
X-01268Y-001*
Y-00127*
X-01278Y-00137*
X-0132*
Y-00183*
X-01274*
Y-00156*
X-01258Y-00139*
X-01253Y-00141*
Y-0019*
X-01254Y-0019*
X-01259Y-00193*
X-01262Y-00198*
X-01263*
Y-002*
X-01263Y-00203*
X-01268Y-00203*
X-01269Y-00203*
X-01272Y-00201*
X-01274*
Y-00194*
X-01318*
X-0132*
X-01323Y-00195*
X-01355*
Y-00219*
X-0136Y-00222*
X-0136Y-00222*
Y-00187*
X-01355Y-00183*
X-01353Y-0018*
X-01353Y-00177*
Y-00149*
X-013Y-00097*
X-01288*
X-01285Y-00096*
X-01282Y-00094*
X-0128Y-00092*
X-0128Y-00089*
X-0128Y-00086*
X-01282Y-00083*
Y-00079*
X-0128Y-00076*
X-0128Y-00073*
X-0128Y-0007*
X-01282Y-00067*
Y-00063*
X-0128Y-0006*
X-0128Y-00057*
X-0128Y-00054*
X-01282Y-00051*
Y-00047*
X-0128Y-00044*
X-0128Y-00041*
X-0128Y-00038*
X-01282Y-00036*
Y-00031*
X-0128Y-00029*
X-0128Y-00026*
X-0128Y-00023*
X-01282Y-0002*
Y-00016*
X-0128Y-00013*
X-0128Y-0001*
X-0128Y-00007*
X-01282Y-00004*
Y0*
X-0128Y00002*
X-0128Y00005*
X-0128Y00008*
X-01282Y00011*
Y00015*
X-0128Y00018*
X-0128Y00021*
X-01276Y00024*
X-01273Y00025*
X-0127Y00027*
X-01269Y00029*
X-01268Y00032*
Y00061*
X-01239Y0009*
X-01235*
X-01232Y00091*
X-01229Y00092*
X-01216Y00105*
X-01208*
Y00125*
X-01227*
X-01228*
X-01232*
X-01249*
X-0125Y00126*
X-01255Y0013*
X-01261Y00131*
X-01264Y00134*
Y00146*
X-01264Y00148*
X-0126Y00151*
X-01244*
Y00171*
X-01264*
Y00169*
X-01304*
X-01307Y00169*
X-0131Y00167*
X-01322Y00155*
X-01323Y00153*
X-01324Y0015*
Y00138*
X-01342Y00119*
X-01346Y00122*
X-01325Y00162*
X-01311Y00182*
X-01298Y00183*
X-01178*
X-01173Y00177*
G37*
G36*
X-01146Y00079D02*
X-01117D01*
Y00055*
X-01146*
Y00029*
X-0117*
Y00079*
X-01146*
Y00079*
G37*
G36*
X-01024Y00002D02*
X-01026Y-00001D01*
X-01026Y-00001*
X-01027Y-00001*
X-01054Y-00053*
X-01054Y-00054*
X-01054Y-00054*
X-01065Y-00083*
X-01065Y-00083*
X-01065Y-00083*
X-01073Y-00113*
X-01073Y-00114*
X-01073Y-00114*
X-01082Y-00175*
X-01082Y-00176*
X-01082Y-00176*
X-01082Y-00193*
X-01082Y-00193*
X-01082Y-00193*
X-01082Y-0021*
X-01082Y-0021*
X-01082Y-00211*
X-01073Y-00272*
X-01073Y-00272*
X-01074Y-00274*
X-01077Y-00277*
X-01081Y-00278*
X-01087Y-00282*
X-01091Y-0028*
X-01093Y-00279*
Y-00267*
X-01112*
X-01116*
X-01136*
Y-00276*
X-01138Y-00277*
X-01143Y-00274*
Y-00264*
X-01125Y-00247*
X-01117*
Y-00227*
X-01136*
Y-00235*
X-01144Y-00243*
X-01147Y-00242*
X-01149Y-00241*
X-0115Y-00235*
X-01151Y-00234*
X-01145Y-00228*
X-01143Y-00226*
X-01143Y-00223*
Y-00164*
X-01143Y-00161*
X-01145Y-00158*
X-01172Y-00131*
X-01172Y-00127*
X-01168Y-00124*
X-01166Y-00124*
X-01163Y-00129*
X-01162Y-00132*
X-01159Y-00137*
X-01153Y-0014*
X-01147Y-00142*
X-01141Y-0014*
X-01136Y-00137*
X-01132Y-00132*
X-01131Y-00126*
X-0113Y-00124*
X-01129Y-00123*
X-01127Y-00122*
X-01121Y-00121*
X-01116Y-00117*
X-01113Y-00112*
X-01112Y-0011*
X-01109Y-00106*
X-01107Y-00107*
X-01103Y-00107*
X-01097Y-00106*
X-01092Y-00103*
X-01088Y-00097*
X-01087Y-00091*
X-01088Y-00085*
X-01092Y-0008*
X-01095Y-00078*
X-01095Y-00077*
X-01096Y-00074*
X-01101Y-0007*
Y-00062*
X-01109*
X-01115Y-00056*
X-01113Y-00051*
X-01097*
Y-00043*
X-01092Y-00038*
X-01089Y-00036*
X-01085Y-00031*
X-01084Y-00025*
X-01085Y-00023*
X-01081Y-00018*
X-01055*
X-01052Y-00017*
X-01049Y-00016*
X-01028Y00005*
X-01024Y00002*
G37*
G36*
X-01359Y00083D02*
Y00056D01*
X-0137Y00046*
X-01372Y00043*
X-01373Y0004*
Y00001*
X-01372Y-00001*
X-0137Y-00004*
X-01343Y-00031*
X-0134Y-00033*
X-01337Y-00034*
X-01317*
X-01315Y-00039*
X-01415Y-00139*
X-0142Y-00137*
X-01418Y-00118*
X-01411Y-00067*
X-01401Y-0002*
X-01386Y00029*
X-01369Y00073*
X-01364Y00084*
X-01359Y00083*
G37*
G36*
X-01223Y-00196D02*
X-01219Y-00199D01*
Y-00207*
X-012*
X-01195Y-00209*
X-01194Y-00211*
X-01188Y-00214*
X-01188Y-00215*
X-01186Y-0022*
X-01192Y-00226*
X-01194Y-00229*
X-01195Y-00232*
Y-00252*
X-01199Y-00255*
X-01203Y-00258*
X-01213Y-00267*
X-01256*
X-01271Y-00252*
X-01274Y-0025*
X-01277Y-0025*
X-01298*
X-01302Y-00246*
X-013Y-00241*
X-01272*
X-01269Y-0024*
X-01267Y-00237*
Y-0023*
X-01263Y-00229*
X-01231*
Y-00199*
X-01231Y-00199*
X-01227Y-00195*
X-01223Y-00196*
G37*
G36*
X-01399Y-00243D02*
Y-00247D01*
X-01399Y-0025*
X-01397Y-00252*
X-0137Y-00279*
X-01368Y-00281*
X-01367Y-00281*
X-01366Y-00286*
X-01362Y-00291*
X-01357Y-00295*
X-01351Y-00296*
X-01345Y-00295*
X-0134Y-00291*
X-01336Y-00286*
X-01335Y-0028*
X-01336Y-00274*
X-01337Y-00273*
X-01334Y-00268*
X-0132*
X-0131Y-00278*
X-01309Y-00281*
X-01313Y-00285*
X-01329*
Y-00305*
X-01329*
Y-00309*
X-01329*
Y-00329*
X-01329*
X-01328Y-00334*
X-01328Y-00337*
X-01327Y-00341*
X-01327Y-00342*
X-0133Y-00345*
X-01331Y-00346*
X-01334*
X-01336Y-00345*
X-01337Y-00343*
X-01339Y-00342*
X-01348Y-00332*
Y-00324*
X-01368*
Y-00344*
X-01365*
X-01363Y-00347*
X-01363Y-00349*
X-01364Y-00354*
X-01363Y-0036*
X-0136Y-00366*
X-01355Y-00369*
X-01348Y-0037*
X-01342Y-00369*
X-01337Y-00366*
X-01323Y-0038*
X-01322Y-00382*
X-01322Y-00385*
X-01342Y-00406*
X-01344Y-00404*
X-01357Y-00419*
X-01343Y-00431*
X-01342Y-00432*
X-01339Y-00434*
X-01324Y-00447*
X-01322Y-00445*
X-01315Y-00445*
X-01206Y-00553*
X-01204Y-00555*
X-01201Y-00556*
X-01176*
X-01157Y-00577*
X-01141Y-00564*
X-01136Y-00566*
X-01136Y-00569*
X-01139Y-00572*
X-01141Y-00575*
X-01141Y-00578*
Y-00585*
X-01141Y-00588*
X-01139Y-0059*
X-01127Y-00602*
Y-00627*
X-01128Y-00628*
X-01128Y-00628*
X-01134Y-00626*
X-01138Y-00619*
X-01139Y-00619*
X-01139Y-00618*
X-01147Y-0061*
X-01148Y-00609*
X-01148Y-00609*
X-01157Y-00602*
X-01158Y-00602*
X-01159Y-00601*
X-01169Y-00597*
X-0117Y-00597*
X-01171Y-00596*
X-01181Y-00594*
X-01182Y-00594*
X-01183Y-00594*
X-01194Y-00593*
X-01195Y-00593*
X-01196Y-00593*
X-01207Y-00595*
X-01207Y-00595*
X-01208Y-00595*
X-01211Y-00596*
X-01211Y-00596*
X-01211Y-00596*
X-01211Y-00596*
X-01212Y-00596*
X-01212Y-00596*
X-01217Y-00598*
X-01217Y-00599*
X-01218Y-00599*
X-01224Y-00602*
X-01225Y-00603*
X-01225Y-00603*
X-01231Y-00607*
X-01232Y-00607*
X-01232Y-00607*
X-01237Y-00612*
X-01238Y-00612*
X-01238Y-00613*
X-01259Y-00633*
X-0126Y-00634*
X-0126Y-00635*
X-01261Y-00635*
X-01262Y-00635*
X-01263Y-00635*
X-01264Y-00635*
X-01265Y-00634*
X-01265Y-00634*
X-0127Y-00629*
X-01298Y-00591*
X-01323Y-00551*
X-01349Y-00505*
X-0137Y-00458*
X-01387Y-00413*
X-014Y-00368*
X-01411Y-00317*
X-01419Y-00265*
X-01421Y-00228*
X-01416Y-00226*
X-01399Y-00243*
G37*
G36*
X-00137Y-00283D02*
X-00102D01*
X-00068Y-00283*
X-00037Y-00283*
X-00034Y-00287*
X-00034Y-00293*
X-00044Y-00345*
X-00056Y-00391*
X-00072Y-0044*
X-00093Y-00488*
X-00114Y-0053*
X-00183Y-00633*
X-00184Y-00634*
X-00185Y-00634*
X-00186Y-00635*
X-00187Y-00635*
X-00187Y-00635*
X-00188Y-00635*
X-00189Y-00635*
X-0019Y-00634*
X-00191Y-00633*
X-00212Y-00613*
X-00212Y-00612*
X-00212Y-00612*
X-00219Y-00606*
X-0022Y-00606*
X-0022Y-00605*
X-00228Y-006*
X-00229Y-006*
X-00229Y-006*
X-00232Y-00598*
X-00233Y-00598*
X-00233Y-00598*
X-00238Y-00597*
X-00238Y-00596*
X-00238Y-00596*
X-00239Y-00596*
X-00239Y-00596*
X-00239Y-00596*
X-00242Y-00595*
X-00242Y-00595*
X-00243Y-00595*
X-00249Y-00594*
X-0025*
X-00251Y-00594*
X-00257Y-00593*
X-00258Y-00593*
X-00259Y-00593*
X-0027Y-00594*
X-00271Y-00594*
X-00272Y-00594*
X-00282Y-00598*
X-00283Y-00598*
X-00284Y-00598*
X-00294Y-00603*
X-00294Y-00604*
X-00295Y-00604*
X-00304Y-00611*
X-00304Y-00612*
X-00305Y-00612*
X-00312Y-00621*
X-00313Y-00622*
X-00313Y-00622*
X-00319Y-00632*
X-00319Y-00633*
X-0032Y-00634*
X-00323Y-00644*
X-00323Y-00645*
X-00323Y-00646*
X-00325Y-00657*
X-00325Y-00658*
X-00325Y-00659*
X-00324Y-0067*
X-00324Y-0067*
X-00324Y-00671*
X-00322Y-00679*
X-00322Y-00679*
X-00322Y-00679*
X-00321Y-0068*
X-00321Y-0068*
X-00321Y-0068*
X-00321Y-00682*
X-00321Y-00682*
X-0032Y-00683*
X-00318Y-00689*
X-00317Y-00689*
X-00317Y-0069*
X-00314Y-00696*
X-00313Y-00697*
X-00313Y-00697*
X-00306Y-00706*
X-00305Y-00706*
X-00305Y-00706*
X-00285Y-00727*
X-00284Y-00728*
X-00283Y-00729*
X-00283Y-00729*
X-00283Y-0073*
X-00283Y-00731*
X-00283Y-00732*
X-00283Y-00733*
X-00284Y-00733*
X-00289Y-00738*
X-00327Y-00766*
X-00367Y-00792*
X-00412Y-00817*
X-0046Y-00839*
X-00504Y-00855*
X-0055Y-00868*
X-00601Y-0088*
X-00653Y-00887*
X-00665Y-00888*
X-00667Y-00883*
Y-00883*
X-00642Y-00858*
X-00601*
X-00598Y-00858*
X-00595Y-00856*
X-00544Y-00804*
X-00479*
X-00477Y-00807*
X-00471Y-00811*
X-00465Y-00812*
X-00459Y-00811*
X-00454Y-00807*
X-0045Y-00802*
X-00449Y-00796*
X-0045Y-0079*
X-00454Y-00785*
X-00459Y-00781*
X-00465Y-0078*
X-00471Y-00781*
X-00477Y-00785*
X-00479Y-00788*
X-00535*
X-00537Y-00783*
X-0051Y-00756*
X-00428*
X-00425Y-00755*
X-00422Y-00753*
X-00409Y-0074*
X-00342*
X-0034Y-00743*
X-00334Y-00747*
X-00328Y-00748*
X-00322Y-00747*
X-00317Y-00743*
X-00313Y-00738*
X-00312Y-00732*
X-00313Y-00726*
X-00317Y-00721*
X-00322Y-00717*
X-00328Y-00716*
X-00334Y-00717*
X-0034Y-00721*
X-00342Y-00724*
X-00413*
X-00416Y-00725*
X-00418Y-00726*
X-00431Y-00739*
X-00513*
X-00516Y-0074*
X-00519Y-00742*
X-00549Y-00772*
X-0055Y-00772*
X-00553Y-00774*
X-00582Y-00804*
X-00624*
X-00627Y-00799*
X-00627Y-00798*
X-00625Y-00792*
X-00627Y-00786*
X-0063Y-00781*
X-00635Y-00777*
X-00641Y-00776*
X-00648Y-00777*
X-00653Y-00781*
X-00656Y-00786*
X-00657Y-00791*
X-00664*
X-00691Y-00763*
X-00694Y-00762*
X-00697Y-00761*
X-00704*
X-00713Y-00753*
X-00712Y-00748*
X-00711Y-00748*
X-00709Y-00747*
X-00705Y-00745*
X-007Y-00746*
X-00699Y-00746*
X-00699Y-00749*
X-00695Y-00754*
X-0069Y-00758*
X-00684Y-00759*
X-00678Y-00758*
X-00674Y-00755*
X-00645*
X-00644Y-00755*
X-00641*
Y-00752*
X-00641Y-00751*
Y-00732*
X-00585*
X-00584Y-00731*
X-0046*
X-00457Y-0073*
X-00456Y-00727*
Y-00693*
X-00419*
X-00415Y-00692*
X-00412Y-0069*
X-00345Y-00623*
X-0034*
Y-00614*
X-0034Y-00613*
X-0034Y-00612*
Y-00605*
Y-00604*
Y-00603*
X-00335Y-00598*
X-00321*
X-00318Y-00597*
X-00316Y-00595*
X-00305Y-00585*
X-00303Y-00582*
X-00303Y-0058*
X-00301Y-00575*
Y-00556*
X-00311*
X-00313Y-00551*
X-00309Y-00548*
X-00306Y-00543*
X-00305Y-00537*
X-00306Y-00531*
X-00297Y-00522*
X-00295Y-00523*
X-00289Y-00521*
X-00284Y-00518*
X-0028Y-00513*
X-00279Y-00507*
X-0028Y-00501*
X-00283Y-00496*
X-00282Y-00493*
X-00281Y-00491*
X-00275*
X-0027*
X-00258*
X-00253*
X-00241*
X-00236*
X-00224*
X-00219*
X-00202*
X-00197*
X-00185*
Y-00462*
X-00202*
X-00206Y-0046*
Y-00391*
X-00236Y-00391*
Y-00368*
X-00235Y-00367*
X-00179*
X-00176Y-00366*
X-00174Y-00365*
X-0016Y-00351*
X-00151*
Y-0034*
X-00151Y-00339*
X-00151Y-00338*
Y-00331*
X-00158*
X-00159Y-00331*
X-0016Y-00331*
X-00171*
Y-00339*
X-00179Y-00347*
X-00184Y-00345*
Y-00331*
X-00203*
Y-00332*
X-00209*
Y-00324*
X-00211Y-00321*
X-00212Y-00321*
Y-00315*
X-00243*
Y-0032*
X-00272*
X-00275Y-00321*
X-00277Y-00324*
Y-00351*
X-00283*
X-00287Y-00347*
Y-00346*
X-00288Y-00343*
X-00288Y-00341*
Y-00333*
X-00308*
Y-00352*
X-00303*
Y-00361*
X-00304Y-00366*
X-00321*
X-00325Y-00368*
X-00331Y-00362*
X-00334Y-0036*
X-00334Y-0036*
Y-00346*
X-00333Y-00345*
X-00332Y-00338*
X-00333Y-00332*
X-00337Y-00327*
X-00342Y-00324*
X-00348Y-00322*
X-00354Y-00324*
X-00359Y-00327*
X-00363Y-00332*
X-00364Y-00338*
X-00364Y-00339*
X-00365Y-0034*
X-00366Y-00343*
Y-00397*
X-00365Y-004*
X-00362Y-00402*
X-00352*
X-00349Y-00407*
X-0035Y-00407*
X-0035Y-00408*
X-00353Y-00409*
X-00363Y-0042*
X-00365Y-00422*
X-00365Y-00425*
Y-00427*
X-00369Y-00431*
X-00375Y-0043*
X-00376Y-00428*
X-00381Y-00425*
X-00387Y-00423*
X-00393Y-00425*
X-00399Y-00428*
X-00402Y-00433*
X-00403Y-0044*
X-00403Y-0044*
X-00408Y-00443*
X-00442Y-00423*
X-00444Y-00418*
X-00424Y-00385*
X-00423Y-00385*
X-00423Y-00385*
X-00408Y-00358*
X-00408Y-00358*
X-00408Y-00358*
X-00395Y-0033*
X-00395Y-00329*
X-00394Y-00329*
X-00384Y-003*
X-00383Y-00297*
X-00381Y-00294*
X-00379Y-00291*
X-00376Y-00288*
X-00372Y-00286*
X-00368Y-00284*
X-00365Y-00283*
X-0036Y-00283*
X-00357*
X-00137*
G37*
G36*
X-01011Y-00437D02*
Y-00456D01*
X-01011Y-00459*
X-01009Y-00462*
X-00985Y-00486*
X-00986Y-00492*
X-00987Y-00493*
X-00991Y-00489*
X-00992Y-00489*
X-00993Y-00488*
X-00993Y-00488*
X-00994Y-00488*
X-00995Y-00487*
X-00996Y-00487*
X-01052*
X-01055Y-00488*
X-01058Y-0049*
X-01095Y-00527*
X-01102Y-00526*
X-01118Y-00507*
X-01118Y-00506*
X-01121Y-00501*
X-01125Y-00499*
X-01128Y-00495*
X-01128Y-00495*
X-01055Y-00422*
X-01055*
X-01054Y-0042*
X-01053Y-00417*
Y-00402*
X-01048Y-00401*
X-01011Y-00437*
G37*
G36*
X-003Y-00462D02*
X-00304D01*
Y-00491*
X-00306Y-00495*
X-00307Y-00495*
X-0031Y-00501*
X-00311Y-00507*
X-0031Y-00513*
X-00319Y-00521*
X-00321Y-00521*
X-00327Y-00522*
X-00331Y-00525*
X-00335Y-00527*
X-00344*
X-00344Y-00527*
X-00347Y-00526*
X-00351*
X-00353Y-00523*
X-00357Y-00521*
Y-00501*
X-00323Y-00468*
X-00321Y-00465*
X-0032Y-00462*
Y-0045*
X-00316Y-00446*
X-003*
Y-00462*
G37*
G36*
X-00472Y-0047D02*
X-0047Y-00473D01*
X-00465Y-00477*
X-00459Y-00478*
X-00452Y-00477*
X-00447Y-00473*
X-00447Y-00473*
X-0043Y-00482*
X-0043Y-00487*
X-00438Y-00495*
X-0044Y-00498*
X-0044Y-00501*
Y-00506*
X-00444Y-00508*
X-00447Y-00513*
X-00448Y-00519*
X-00447Y-00525*
X-00446Y-00527*
X-00444Y-00531*
X-00447Y-00533*
X-0045Y-00535*
X-00453Y-0054*
X-00454Y-00546*
X-00453Y-00552*
X-0045Y-00557*
X-00445Y-0056*
Y-0057*
X-00446Y-00574*
X-00445Y-00577*
X-00443Y-0058*
X-0044Y-00582*
X-00437Y-00583*
X-00433Y-00582*
X-00432Y-00581*
X-00428Y-00585*
X-00429Y-00586*
X-0043Y-00589*
X-00429Y-00593*
X-00428Y-00594*
X-00432Y-00597*
X-00433Y-00597*
X-00437Y-00596*
X-0044Y-00597*
X-00441Y-00597*
X-00453*
Y-00596*
X-00473*
X-00477*
X-00478*
X-00496*
Y-00605*
X-00497Y-00607*
Y-0062*
X-00498Y-0062*
X-00501Y-00622*
X-00511Y-00631*
X-00515Y-00632*
X-00519Y-00629*
Y-00627*
X-00519Y-00624*
X-00521Y-00622*
X-00539Y-00604*
Y-00579*
X-00567*
X-00568Y-00574*
X-00554Y-00568*
X-00553Y-00568*
X-00552Y-00568*
X-00545Y-00563*
X-00544Y-00564*
X-0054Y-00569*
X-00535Y-00573*
X-00529Y-00574*
X-00523Y-00573*
X-00518Y-00569*
X-00514Y-00564*
X-00514Y-00563*
X-00509Y-00561*
X-00502Y-00568*
X-00479Y-00546*
X-00504Y-00521*
X-00508Y-00518*
X-00478Y-0047*
X-00472Y-0047*
G37*
G36*
X-00381Y-00534D02*
X-00381Y-00534D01*
X-00379Y-0054*
X-00376Y-00546*
X-00371Y-00549*
X-00365Y-0055*
X-00358Y-00549*
X-00358Y-00549*
X-00354Y-00547*
X-00335*
X-00331Y-00549*
X-00327Y-00552*
X-00324Y-00552*
X-00321Y-00556*
Y-00575*
X-00322Y-0058*
X-00325Y-00582*
X-0034*
Y-0058*
X-00359*
Y-00582*
X-00401*
X-00402Y-00581*
X-00405Y-0058*
X-00409Y-00581*
X-0041Y-00582*
X-00413Y-00578*
X-00412Y-00577*
X-00412Y-00574*
X-00412Y-0057*
X-00413Y-0057*
Y-0056*
X-00385Y-00532*
X-00381Y-00534*
G37*
G36*
X-00638Y-00623D02*
X-00638Y-00623D01*
X-00634Y-00628*
X-00629Y-00632*
X-00623Y-00633*
X-00621Y-00638*
Y-00652*
X-0062Y-00655*
X-00616Y-00657*
X-00607*
X-00605Y-00658*
X-00602Y-0066*
X-00602Y-00664*
X-00599Y-00667*
X-00598Y-00669*
X-00598Y-00674*
X-00599Y-00677*
Y-00702*
X-00677*
X-0068Y-00703*
X-00685Y-00704*
X-00686Y-00703*
X-00695*
X-00698Y-00705*
X-007Y-00708*
Y-00718*
X-00705Y-0072*
X-00709Y-00717*
X-00715Y-00716*
X-00721Y-00717*
X-00722Y-00718*
X-00726Y-00714*
X-00726Y-00712*
X-00724Y-00709*
X-00714*
Y-00689*
X-00698Y-00673*
X-00696Y-0067*
X-00695Y-00666*
Y-00657*
X-00695Y-00657*
X-00686*
X-00683Y-00655*
X-00679*
X-00678Y-00656*
X-00675Y-00657*
X-00667*
X-00663Y-00655*
X-00659*
X-00658Y-00656*
X-00656Y-00657*
X-00647*
X-00643Y-00655*
X-00642Y-00652*
Y-00633*
X-00643Y-0063*
Y-00621*
X-00643Y-00621*
X-00643Y-00621*
X-00638Y-00623*
G37*
G36*
X-00409Y-00598D02*
X-00405Y-00598D01*
X-00402Y-00598*
X-00364*
X-00359Y-006*
Y-00604*
Y-00605*
Y-00609*
X-00423Y-00673*
X-00471*
X-00473Y-00673*
X-00475Y-00673*
X-00493*
X-00493Y-00672*
X-00495Y-00671*
Y-00644*
X-0049Y-00639*
X-00486*
X-00485Y-00639*
X-00478*
X-00475Y-0064*
X-00473Y-00644*
Y-00662*
X-00453*
Y-00643*
X-00453Y-00639*
X-00449Y-00637*
X-00443*
X-00439Y-00637*
X-00437Y-00635*
X-00416Y-00613*
X-00414Y-00611*
X-00414Y-0061*
X-00412Y-00609*
X-00412Y-00605*
X-00412Y-00602*
X-00413Y-00601*
X-0041Y-00597*
X-00409Y-00598*
G37*
G36*
X-01031Y-00712D02*
X-01035Y-00715D01*
X-01035Y-00715*
X-01057Y-00738*
X-01045Y-0075*
X-01022Y-00728*
X-01022Y-00728*
X-01019Y-00724*
X-01015Y-00728*
X-01015Y-00728*
X-01011Y-00732*
X-01021Y-00742*
X-01009Y-00753*
X-01011Y-00758*
X-01059*
X-01075Y-00742*
X-01074Y-00738*
X-01075Y-00732*
X-01079Y-00727*
X-01084Y-00723*
X-0109Y-00722*
X-01093Y-00723*
X-01095Y-00718*
X-01095Y-00717*
X-01093Y-00715*
X-01093Y-00713*
X-01087Y-00708*
X-01086Y-00708*
X-01064Y-00686*
X-01064Y-00686*
X-01061Y-00683*
X-01031Y-00712*
G37*
G36*
X-00961Y-00556D02*
X-00959Y-00557D01*
X-00958Y-00557*
X-00954Y-00561*
X-00952Y-00563*
X-00949Y-00563*
X-00925*
X-00913Y-00575*
X-0092Y-00588*
X-00893Y-00604*
X-00877Y-00576*
X-00828Y-0059*
X-00829Y-00595*
X-00832Y-00596*
X-00842*
X-00845Y-00597*
X-00847Y-006*
Y-00648*
X-00845Y-00651*
X-00842Y-00652*
X-00785*
X-00776Y-00661*
Y-00667*
X-0077*
X-00767Y-00669*
X-00767Y-00669*
X-00764Y-00672*
X-0076Y-00675*
X-0076Y-00675*
X-00759Y-00677*
X-00746Y-0069*
Y-00709*
X-0075Y-00711*
X-0076*
Y-00709*
X-0078*
X-00784*
X-008*
X-00802Y-00706*
X-00802Y-00704*
X-00799Y-00699*
X-00797Y-00693*
X-00799Y-00687*
X-00802Y-00682*
X-00807Y-00678*
X-00813Y-00677*
X-0082Y-00678*
X-00825Y-00682*
X-00828Y-00687*
X-00829Y-00693*
X-00829Y-00694*
X-00834Y-00696*
X-00842Y-00688*
Y-00677*
X-00843Y-00674*
X-00844Y-00671*
X-00856Y-00659*
X-00859Y-00658*
X-00862Y-00657*
X-00885*
X-00889Y-00654*
X-00911Y-00632*
X-0092Y-00641*
X-00924Y-00638*
X-00924Y-00638*
X-00987Y-00575*
X-00987Y-00575*
X-0099Y-00572*
X-00981Y-00562*
X-00983Y-00559*
X-00983Y-00557*
X-0098Y-00551*
X-00979Y-00549*
X-00975Y-00545*
X-00974Y-00545*
X-00972*
X-00961Y-00556*
G37*
G36*
X-0046Y-00727D02*
X-00595D01*
X-00595Y-00677*
X-0046*
Y-00727*
G37*
G36*
X-00645Y-00751D02*
X-0069D01*
X-0069Y-00732*
X-00677*
Y-00707*
X-00645*
Y-00751*
G37*
G36*
X-00726Y-00763D02*
X-00724Y-00764D01*
X-00713Y-00775*
X-00711Y-00777*
X-00708Y-00777*
X-007*
X-00691Y-00786*
X-00693Y-00791*
X-00698*
Y-00795*
X-00698Y-00795*
X-00724Y-00821*
X-00726Y-00824*
X-00726Y-00825*
X-0073Y-00828*
X-00734Y-00833*
X-00735Y-00839*
X-00734Y-00845*
X-00733Y-00846*
X-00736Y-00851*
X-008*
X-0081Y-00841*
X-00809Y-00837*
X-0081Y-00831*
X-00814Y-00825*
X-00819Y-00822*
X-00825Y-00821*
X-00831Y-00822*
X-00837Y-00825*
X-0084Y-00831*
X-00841Y-00836*
X-00843Y-00837*
X-00846Y-00838*
X-00861Y-00823*
X-00848Y-0081*
X-00847Y-00807*
X-00846Y-00804*
Y-00804*
X-00841Y-00802*
X-00831Y-00812*
X-00828Y-00814*
X-00825Y-00815*
X-00778*
Y-00816*
X-00758*
Y-00797*
X-00778*
Y-00799*
X-0079*
Y-0079*
X-00782Y-00781*
X-00778Y-00779*
Y-00779*
X-00758*
Y-00759*
X-00756Y-00755*
X-00746*
X-00742*
X-00734*
X-00726Y-00763*
G37*
G36*
X-00936Y-00739D02*
X-00933Y-00741D01*
X-0093Y-00741*
X-00913*
X-0089Y-00764*
X-00888Y-00765*
Y-0077*
X-00869*
X-00867*
X-00862Y-00774*
Y-00787*
X-0088*
X-00881*
X-00885*
X-00904*
X-00909Y-00788*
X-0091Y-00785*
X-00913Y-0078*
X-00918Y-00777*
X-00925Y-00775*
X-00931Y-00777*
X-00936Y-0078*
X-00939Y-00785*
X-0094Y-00791*
X-00942Y-00792*
X-00945Y-00793*
X-0097Y-00768*
X-00967Y-00764*
X-00964Y-00765*
X-00964*
X-00949*
Y-00766*
X-00929*
Y-00746*
X-00944*
X-00946Y-00742*
X-00946Y-00741*
X-00945Y-0074*
X-00945Y-00738*
X-00944Y-00737*
X-00939Y-00736*
X-00936Y-00739*
G37*
G36*
X-00679Y-00811D02*
X-00675D01*
X-0067Y-00811*
X-00668Y-00813*
X-00664Y-00817*
X-00661Y-00819*
X-00658Y-0082*
X-00588*
X-00586Y-00824*
X-00604Y-00842*
X-00645*
X-00648Y-00843*
X-00651Y-00845*
X-00676Y-00869*
X-00703*
X-00705Y-00865*
X-00705Y-00864*
X-00691Y-0085*
X-00685Y-00849*
X-00679Y-00845*
X-00676Y-0084*
X-00675Y-00834*
X-00676Y-00828*
X-00679Y-00823*
X-00685Y-00819*
X-0069Y-00818*
X-00691Y-00816*
X-00692Y-00813*
X-0069Y-00811*
X-00679*
G37*
G36*
X-01127Y-0069D02*
Y-00715D01*
X-01126Y-00718*
X-01125Y-0072*
X-0112Y-00725*
X-0112*
X-01117Y-00727*
X-01114Y-00727*
X-01114*
X-01108*
X-01107Y-00727*
X-01104Y-00732*
X-01105Y-00732*
X-01106Y-00738*
X-01105Y-00744*
X-01101Y-0075*
X-01096Y-00753*
X-0109Y-00754*
X-01086Y-00754*
X-01068Y-00772*
X-01065Y-00774*
X-01062Y-00774*
X-01005*
X-0095Y-00829*
X-00947Y-0083*
X-00944Y-00831*
X-00876*
X-0083Y-00877*
X-00832Y-00882*
X-00851Y-00879*
X-00897Y-00869*
X-00948Y-00854*
X-00992Y-00838*
X-0104Y-00816*
X-01081Y-00793*
X-01166Y-00734*
X-01166Y-00734*
X-01166Y-00733*
X-01167Y-00732*
X-01167Y-00731*
X-01167Y-0073*
X-01167Y-00729*
X-01166Y-00729*
X-01166Y-00728*
X-01165Y-00727*
X-01145Y-00706*
X-01144Y-00706*
X-01144Y-00706*
X-0114Y-00701*
X-01139Y-007*
X-01139Y-007*
X-01135Y-00695*
X-01134Y-00694*
X-01134Y-00693*
X-01132Y-00688*
X-01127Y-0069*
G37*
%LNflytta-32-2*%
%LPC*%
G36*
X-01213Y00056D02*
X-01216Y00056D01*
X-01219Y00054*
X-01223*
X-01226Y00056*
X-01229Y00056*
X-01232Y00056*
X-01234Y00054*
X-01239*
X-01241Y00056*
X-01244Y00056*
X-01248Y00056*
X-0125Y00054*
X-01252Y00051*
X-01253Y00048*
Y00032*
X-01252Y00029*
X-0125Y00027*
X-01248Y00025*
X-01244Y00024*
X-01241Y00025*
X-01239Y00027*
X-01234*
X-01232Y00025*
X-01229Y00024*
X-01226Y00025*
X-01223Y00027*
X-01219*
X-01216Y00025*
X-01213Y00024*
X-0121Y00025*
X-01207Y00027*
X-01206Y00029*
X-01205Y00032*
Y00048*
X-01206Y00051*
X-01207Y00054*
X-0121Y00056*
X-01213Y00056*
G37*
G36*
X-01283Y-00493D02*
X-01289Y-00494D01*
X-01295Y-00498*
X-01298Y-00503*
X-01299Y-00509*
X-01298Y-00515*
X-01295Y-0052*
X-01291Y-00523*
Y-00533*
X-01291Y-00536*
X-01289Y-00538*
X-01249Y-00578*
X-01247Y-0058*
X-01244Y-0058*
X-01244*
X-01242*
X-0124Y-00583*
X-01234Y-00587*
X-01228Y-00588*
X-01222Y-00587*
X-01217Y-00583*
X-01213Y-00578*
X-01212Y-00572*
X-01213Y-00566*
X-01217Y-00561*
X-01222Y-00557*
X-01228Y-00556*
X-01234Y-00557*
X-0124Y-00561*
X-01243Y-00561*
X-01275Y-00529*
Y-00523*
X-01272Y-0052*
X-01268Y-00515*
X-01267Y-00509*
X-01268Y-00503*
X-01272Y-00498*
X-01277Y-00494*
X-01283Y-00493*
G37*
%LNflytta-32-3*%
%LPD*%
G54D10*
X-00816Y00227D02*
X-00807D01*
X-00991Y00186D02*
X-00988D01*
X-01023Y00038D02*
Y00154D01*
X-00991Y00186*
X-01055Y00006D02*
X-01023Y00038D01*
X-00955Y00243D02*
Y00248D01*
Y00243D02*
X-0095Y00228D01*
Y00224D02*
Y00228D01*
X-00988Y00186D02*
X-0095Y00224D01*
X-01009Y00036D02*
Y00093D01*
X-00964Y00138*
Y00138D02*
Y0014D01*
X-00911Y00194*
Y00195*
X-01055Y-0001D02*
X-01009Y00036D01*
X-00916Y00264D02*
X-00909D01*
X-00908Y00266D02*
X-00896D01*
X-00952Y00251D02*
X-00916Y00264D01*
X-00909D02*
X-00908Y00266D01*
X-00955Y00248D02*
X-00952Y00251D01*
X-01087Y-0001D02*
X-01055D01*
X-01138Y00005D02*
X-01137Y00006D01*
X-01146Y00005D02*
X-01138D01*
X-01137Y00006D02*
X-01055D01*
X-00896Y00266D02*
X-00885Y00255D01*
X-00934Y00293D02*
X-00931Y0029D01*
X-00934Y00293D02*
Y00299D01*
X-0095Y00315D02*
X-00934Y00299D01*
X-00885Y00255D02*
X-00874D01*
X-00869Y0025*
X-0084D02*
X-00816Y00227D01*
X-00869Y0025D02*
X-0084D01*
X-00963Y-00501D02*
Y-00497D01*
X-01003Y-00456D02*
X-00963Y-00497D01*
X-00975Y-00537D02*
X-0097D01*
X-01Y-00556D02*
X-00998Y-00557D01*
X-01Y-00556D02*
Y-00554D01*
X-00995Y-0055*
Y-00545*
X-00996Y-00516D02*
X-00975Y-00537D01*
X-00988Y-00502D02*
X-00986Y-00505D01*
X-00986*
X-01023Y-00516D02*
X-00996D01*
X-00952Y-00517D02*
X-00947Y-00524D01*
X-00942Y-00532*
X-00996Y-00495D02*
X-00989Y-00501D01*
X-00988Y-00502*
X-01052Y-00495D02*
X-00996D01*
X-01044Y00305D02*
Y00305D01*
X-01021Y00329D02*
Y00329D01*
X-01064Y00285D02*
X-01064D01*
X-01044Y00305D02*
X-01044D01*
X-01133Y-00585D02*
Y-00578D01*
X-01126Y-00571*
X-01119Y-00636D02*
Y-00599D01*
X-01133Y-00585D02*
X-01119Y-00599D01*
X-01019Y-00564D02*
Y-00552D01*
X-0105Y-00521D02*
X-01019Y-00552D01*
X-01119Y-00678D02*
Y-00678D01*
X-01118Y-00675D02*
X-01117Y-00674D01*
X-01117Y-00668D02*
X-01117Y-00667D01*
X-01116Y-00653D02*
X-01116Y-00655D01*
X-01117Y-00647D02*
X-01116Y-00648D01*
X-01119Y-00678D02*
X-01119Y-00678D01*
Y-00678D02*
X-01118Y-00677D01*
X-01117Y-00674D02*
X-01117Y-0067D01*
X-01117Y-00667D02*
X-01116Y-00666D01*
X-01116Y-00653D02*
Y-00652D01*
X-01118Y-00642D02*
X-01117Y-00647D01*
X-01119Y-00636D02*
X-01118Y-00639D01*
X-01118Y-00677D02*
Y-00677D01*
X-01117Y-0067D02*
X-01117Y-00669D01*
X-01116Y-00666D02*
Y-00655D01*
X-01116Y-00652D02*
X-01116Y-00652D01*
X-01118Y-00642D02*
Y-0064D01*
X-01118Y-00677D02*
X-01118Y-00675D01*
X-01117Y-00669D02*
Y-00668D01*
X-01116Y-00655D02*
X-01116Y-00655D01*
X-01116Y-00648D02*
X-01116Y-00652D01*
X-01118Y-00639D02*
X-01118Y-0064D01*
X-01119Y-00715D02*
Y-00678D01*
X-01106Y-00549D02*
X-01052Y-00495D01*
X-01319Y-00319D02*
X-01317Y-00321D01*
Y-00327D02*
X-01312Y-00333D01*
X-01317Y-00327D02*
Y-00321D01*
X-01312Y-00337D02*
Y-00333D01*
X-01328Y-00354D02*
X-01308Y-00375D01*
X-01348Y-00354D02*
X-01328D01*
X-01319Y-00295D02*
X-01319Y-00295D01*
X-01298*
X-01297Y-00295*
X-01289Y-00275D02*
X-01276Y-00288D01*
X-01301Y-00275D02*
X-01289D01*
X-01317Y-0026D02*
X-01301Y-00275D01*
X-01276Y-00288D02*
X-01258D01*
X-0126Y-00275D02*
X-01193D01*
X-01312Y-00247D02*
X-01302Y-00258D01*
X-01277D02*
X-0126Y-00275D01*
X-01302Y-00258D02*
X-01277D01*
X-00547Y-00796D02*
X-00465D01*
X-00722Y-00735D02*
X-00719D01*
X-00658Y-00812D02*
X-00579D01*
X-00645Y-0085D02*
X-00601D01*
X-00547Y-00796*
X-00545Y-0078D02*
X-00513Y-00747D01*
X-00579Y-00812D02*
X-00547Y-0078D01*
X-00545*
X-00818Y-00877D02*
X-00672D01*
X-00645Y-0085*
X-00873Y-00823D02*
X-00818Y-00877D01*
X-00944Y-00823D02*
X-00873D01*
X-00854Y-00804*
Y-00765*
X-00428Y-00747D02*
X-00413Y-00732D01*
X-00513Y-00747D02*
X-00428D01*
X-00413Y-00732D02*
X-00328D01*
X-00664Y-00801D02*
X-00663Y-00803D01*
X-00665Y-00801D02*
X-00664D01*
X-00663Y-00807D02*
X-00658Y-00812D01*
X-00663Y-00807D02*
Y-00803D01*
X-00612Y-00792D02*
Y-00761D01*
X-0077Y-00719D02*
X-00732D01*
X-01001Y-00766D02*
X-00944Y-00823D01*
X-00719Y-00827D02*
X-00693Y-00801D01*
X-00719Y-00839D02*
Y-00827D01*
X-00697Y-00769D02*
X-00665Y-00801D01*
X-00885Y-00811D02*
X-00871Y-00797D01*
X-00939Y-00811D02*
X-00885D01*
X-01003Y-00747D02*
X-00939Y-00811D01*
X-01358Y-00334D02*
X-01317Y-00375D01*
X-0092Y-00797D02*
X-00894D01*
X-0092D02*
Y-00796D01*
X-00925Y-00792D02*
X-0092Y-00796D01*
X-00915Y-00756D02*
X-00902Y-0077D01*
Y-00772D02*
Y-0077D01*
X-00504Y-00544D02*
X-00503Y-00544D01*
X-00515Y-00544D02*
X-00504D01*
X-00529Y-00558D02*
X-00515Y-00544D01*
X-00513Y-00581D02*
X-00457D01*
X-00449Y-00589*
X-00517Y-00579D02*
X-00515D01*
X-00513Y-00581*
X-00517Y-00597D02*
Y-00579D01*
X-00527Y-00644D02*
Y-00627D01*
X-0056Y-00594D02*
X-00527Y-00627D01*
X-00449Y-00589D02*
X-00437D01*
X-01416Y-00215D02*
Y-00166D01*
X-01414Y-00218D02*
X-01391Y-0024D01*
X-01416Y-00166D02*
X-01415Y-0015D01*
X-01306Y-00041*
X-01416Y-00215D02*
X-01414Y-00218D01*
X-00773Y-00745D02*
X-00756D01*
X-00732D02*
X-00722Y-00735D01*
X-00732Y-00745D02*
X-0072Y-00757D01*
X-0072*
X-00708Y-00769*
X-00732Y-00719D02*
X-00719Y-00732D01*
X-01368Y-00231D02*
Y-00184D01*
X-01351Y-00247D02*
X-01312D01*
X-01368Y-00231D02*
X-01351Y-00247D01*
X-01391Y-00247D02*
X-01365Y-00273D01*
X-01358*
X-01379Y-00242D02*
Y-00179D01*
X-01362Y-0026D02*
X-01317D01*
X-01379Y-00242D02*
X-01362Y-0026D01*
X-01391Y-00247D02*
Y-0024D01*
X-01358Y-0031D02*
X-01354D01*
X-01399D02*
X-01358D01*
X-01339Y-00211D02*
X-01333Y-00217D01*
X-01297*
X-00756Y-00664D02*
X-00753Y-00667D01*
X-01379Y-00179D02*
X-01372Y-00172D01*
X-01361Y-00146D02*
X-01304Y-00089D01*
X-01368Y-00184D02*
X-01361Y-00177D01*
Y-00146*
X-01372Y-00172D02*
Y-00141D01*
X-01305Y-00057D02*
X-01296D01*
X-01372Y-00141D02*
X-01304Y-00073D01*
X-01384Y-00161D02*
Y-00136D01*
X-01305Y-00057*
X-01304Y-00073D02*
X-01296D01*
X-01387Y-00164D02*
X-01384Y-00161D01*
X-0035Y-00367D02*
X-00337D01*
X-00318Y-00386*
X-0033Y-00403D02*
X-0031D01*
X-00342Y-00415D02*
X-0033Y-00403D01*
X-00328Y-0042D02*
X-0031D01*
X-00345Y-00438D02*
X-00328Y-0042D01*
X-00347Y-00415D02*
X-00342D01*
X-00357Y-00425D02*
X-00347Y-00415D01*
X-00357Y-00431D02*
Y-00425D01*
X-00345Y-00447D02*
Y-00438D01*
X-00319Y-00437D02*
X-0031D01*
X-00328Y-00446D02*
X-00319Y-00437D01*
X-00444Y-00462D02*
X-00435Y-00453D01*
X-00459Y-00462D02*
X-00444D01*
X-00438Y-00546D02*
X-00437Y-00547D01*
Y-00573D02*
Y-00547D01*
X-00432Y-00519D02*
Y-00501D01*
X-00406Y-00475*
X-00386Y-0045D02*
X-00386Y-00451D01*
X-00386Y-0045D02*
Y-0044D01*
X-00387Y-0044D02*
X-00386Y-0044D01*
X-00368Y-0046D02*
Y-00449D01*
X-00368Y-00449*
Y-00441*
X-00357Y-00431*
X-00348Y-0045D02*
X-00345Y-00447D01*
X-00479Y-00492D02*
X-00478Y-00493D01*
Y-00517D02*
Y-00493D01*
Y-00517D02*
X-00476Y-00518D01*
X-01095Y-00655D02*
X-0109Y-0066D01*
Y-00661D02*
Y-0066D01*
X-01093Y-00663D02*
X-0109Y-00661D01*
X-01093Y-00669D02*
Y-00663D01*
X-01096Y-00672D02*
X-01093Y-00669D01*
X-011Y-0071D02*
X-01081Y-00691D01*
X-011Y-00712D02*
Y-0071D01*
X-01119Y-00715D02*
X-01114Y-00719D01*
X-01108*
X-011Y-00712*
X-01126Y-00571D02*
Y-00557D01*
X-01158Y-00525D02*
X-01126Y-00557D01*
X-01348Y-00354D02*
X-01343Y-00349D01*
X-01097Y-00032D02*
Y-00029D01*
X-011Y-00025D02*
X-01097Y-00029D01*
X-01106Y-00041D02*
X-01097Y-00032D01*
X-01092Y-00005D02*
X-01087Y-0001D01*
X-01108Y-00005D02*
X-01092D01*
X-01113Y-0001D02*
X-01108Y-00005D01*
X-01146Y-0001D02*
X-01113D01*
X-01065Y-00066D02*
Y-00057D01*
X-01082Y-0004D02*
X-01065Y-00057D01*
X-01086Y-00066D02*
X-01065D01*
X-01106Y00029D02*
X-01101Y00034D01*
X-01125Y00029D02*
X-01106D01*
X-01128Y00026D02*
X-01125Y00029D01*
X-01146Y00021D02*
X-01138D01*
X-01133Y00026*
X-01128*
X-00708Y-00769D02*
X-00697D01*
X-00803Y-00859D02*
X-00711D01*
X-00825Y-00837D02*
X-00803Y-00859D01*
X-00711D02*
X-00691Y-00839D01*
Y-00834*
X-00733Y-00769D02*
X-00715Y-00788D01*
X-00744Y-00769D02*
X-00733D01*
X-00733Y-00807D02*
X-00722Y-00795D01*
X-00715*
Y-00788*
X-00717Y-00624D02*
X-00705Y-00611D01*
X-00717Y-00643D02*
Y-00624D01*
X-00724Y-00649D02*
X-00717Y-00643D01*
X-00705Y-00611D02*
X-00686D01*
X-00683Y-00609*
X-00663*
X-00643*
X-01264Y00112D02*
X-01261Y00115D01*
Y00109D02*
X-01255Y00115D01*
X-01242*
X-01235Y00098D02*
X-01218Y00115D01*
X-01242Y00098D02*
X-01235D01*
X-01276Y00064D02*
X-01242Y00098D01*
X-01276Y0004D02*
Y00064D01*
X-01336Y00097D02*
X-01296Y00138D01*
X-01274*
X-013D02*
X-01296D01*
X-0039Y-00558D02*
X-00384D01*
X-00405Y-00574D02*
X-0039Y-00558D01*
X-00487Y-00661D02*
Y-00653D01*
Y-00661D02*
X-00478Y-00669D01*
X-00405Y-00625D02*
Y-00605D01*
X-00449Y-00669D02*
X-00405Y-00625D01*
X-00478Y-00669D02*
X-00449D01*
X-00421Y-00608D02*
Y-00605D01*
X-00443Y-00629D02*
X-00421Y-00608D01*
X-00405Y-0059D02*
X-0035D01*
X-00405Y-00589D02*
X-00405Y-0059D01*
X-00311Y-00579D02*
Y-00565D01*
X-00321Y-0059D02*
X-00311Y-00579D01*
X-0035Y-0059D02*
X-00321D01*
X-00365Y-00498D02*
X-00328Y-00462D01*
X-00365Y-00534D02*
Y-00498D01*
Y-00534D02*
X-00347D01*
X-00344Y-00537*
X-00321Y-00534D02*
X-00295Y-00509D01*
X-00324Y-00533D02*
X-00321Y-00537D01*
X-00324Y-00533D02*
Y-00531D01*
X-01168Y-00547D02*
X-01163Y-00552D01*
X-01201Y-00547D02*
X-01168D01*
X-01315Y-00433D02*
X-01201Y-00547D01*
X-01244Y-00572D02*
X-01228D01*
X-01283Y-00533D02*
X-01244Y-00572D01*
X-01283Y-00533D02*
Y-00509D01*
X-01343Y-00418D02*
X-01308Y-00383D01*
Y-00379*
X-01301*
X-01269Y-00346*
X-01325Y-00433D02*
X-01315D01*
X-01258Y-00288D02*
X-01231Y-00314D01*
X-01308Y-00379D02*
Y-00375D01*
X-00744Y-00807D02*
X-00733D01*
X-01165Y-00296D02*
Y-00277D01*
X-01187Y-00255D02*
X-01165Y-00277D01*
X-01187Y-00255D02*
Y-00232D01*
X-01151Y-00261D02*
X-01126Y-00237D01*
X-01151Y-00303D02*
Y-00261D01*
X-01351Y00053D02*
Y00099D01*
X-01365Y0004D02*
X-01351Y00053D01*
X-01365Y00001D02*
Y0004D01*
X-0134Y00046D02*
Y00094D01*
X-01352Y00034D02*
X-0134Y00046D01*
X-01352Y00005D02*
Y00034D01*
X-01328Y00062D02*
X-01296Y00029D01*
Y00021D02*
Y00029D01*
X-01078Y-00293D02*
X-01075D01*
X-01086Y-00301D02*
X-01078Y-00293D01*
X-01103Y-00284D02*
X-01086Y-00301D01*
X-01103Y-00284D02*
Y-00276D01*
X-01071Y-00319D02*
X-01064Y-00326D01*
X-00861Y-00705D02*
X-00858Y-00709D01*
X-00905Y-00705D02*
X-00861D01*
X-0093Y-00733D02*
X-00909D01*
X-0096Y-00703D02*
X-0093Y-00733D01*
X-01086Y-00621D02*
X-01073D01*
X-01067Y-00627*
X-01106Y-00601D02*
X-01086Y-00621D01*
X-01106Y-00601D02*
Y-00582D01*
X-00825Y-00807D02*
X-00798D01*
Y-00786D02*
X-00781Y-00769D01*
X-00798Y-00807D02*
Y-00786D01*
Y-00807D02*
X-00768D01*
X-00841Y-00791D02*
X-00825Y-00807D01*
X-01251Y-00205D02*
X-01244Y-00211D01*
X-01251Y-00205D02*
X-01251D01*
X-01251D02*
X-01249Y-00203D01*
X-01138Y-00317D02*
X-01061Y-00393D01*
X-01213Y-00344D02*
X-01165Y-00296D01*
X-01225Y-00344D02*
X-01213D01*
X-01241Y-0036D02*
X-01225Y-00344D01*
X-01241Y-0036D02*
Y-0036D01*
X-01257Y-00376D02*
X-01241Y-0036D01*
X-01257Y-00376D02*
D01*
X-01257Y-00376D02*
X-01257Y-00376D01*
X-01258Y-00376D02*
X-01257D01*
X-01315Y-00433D02*
X-01258Y-00376D01*
X-01064Y-00373D02*
Y-00326D01*
Y-00373D02*
X-01003Y-00434D01*
X-01126Y-00293D02*
Y-00276D01*
Y-00293D02*
X-01109Y-0031D01*
X-01003Y-00456D02*
Y-00434D01*
X-00463Y-00653D02*
X-00463Y-00652D01*
Y-00629*
X-00443*
X-00497Y-00715D02*
X-00473D01*
X-00499Y-00713D02*
X-00497Y-00715D01*
X-00459Y-00605D02*
X-00437D01*
X-01316Y0015D02*
X-01304Y00161D01*
X-01316Y00135D02*
Y0015D01*
X-01348Y00103D02*
X-01316Y00135D01*
X-01336Y00097D02*
Y00097D01*
X-0134Y00094D02*
X-01336Y00097D01*
X-00171Y-0042D02*
Y-00385D01*
Y-00442D02*
Y-0042D01*
Y-00385D02*
X-00167Y-0038D01*
X-00183Y-00454D02*
X-00171Y-00442D01*
Y-00379D02*
X-00168D01*
X-00167Y-0038*
X-00318Y-00386D02*
X-00312Y-0038D01*
X-00781Y-00769D02*
X-00768D01*
X-00747Y-00619D02*
X-00733Y-00605D01*
X-00601Y-00597D02*
X-00572Y-00627D01*
X-00632Y-00597D02*
X-00601D01*
X-00643Y-00609D02*
X-00632Y-00597D01*
X-00651Y-00643D02*
Y-00621D01*
X-00623Y-00617D02*
X-00618D01*
X-00612Y-00623*
X-00406Y-00475D02*
X-00386D01*
X-00365Y-00534D02*
X-00361Y-00531D01*
X-00312Y-00456D02*
X-0031Y-00454D01*
X-00312Y-00477D02*
Y-00456D01*
X-00194Y-0038D02*
X-00167D01*
X-00194Y-0038D02*
X-00194Y-0038D01*
X-00298Y-00342D02*
X-00295Y-00346D01*
X-01301Y00077D02*
X-01289D01*
X-01308Y0007D02*
X-01301Y00077D01*
X-01313Y001D02*
X-01289D01*
X-01328Y00085D02*
X-01313Y001D01*
X-01351Y00099D02*
X-01348Y00102D01*
X-00898Y-00685D02*
X-0087D01*
X-00906Y-00649D02*
X-0089Y-00665D01*
X-0085Y-00692D02*
X-00833Y-00708D01*
X-0085Y-00692D02*
Y-00677D01*
X-00862Y-00665D02*
X-0085Y-00677D01*
X-0089Y-00665D02*
X-00862D01*
X-00876Y-00717D02*
X-00862Y-00732D01*
X-00921Y-00717D02*
X-00876D01*
X-01073Y-00593D02*
X-01054Y-00613D01*
X-01075Y-00593D02*
X-01073D01*
X-00814Y-00747D02*
Y-00696D01*
X-00822Y-00782D02*
X-00803Y-00762D01*
Y-00741D02*
X-00794Y-00732D01*
X-00803Y-00762D02*
Y-00741D01*
X-00841Y-00774D02*
X-00814Y-00747D01*
X-00794Y-00732D02*
Y-00719D01*
X-01062Y-00766D02*
X-01001D01*
X-0109Y-00738D02*
X-01062Y-00766D01*
X-00964Y-00757D02*
X-0094D01*
X-00989Y-00733D02*
X-00964Y-00757D01*
X-0096Y-00735D02*
Y-00733D01*
X-0099Y-00733D02*
X-00989D01*
X-0092Y-00663D02*
X-00898Y-00685D01*
X-00934Y-00677D02*
X-00905Y-00705D01*
X-00841Y-00791D02*
Y-00774D01*
X-00693Y-00801D02*
X-00688D01*
X-00179Y-00359D02*
X-00161Y-00341D01*
X-00239Y-00359D02*
X-00179D01*
X-00382Y-00474D02*
X-00368Y-0046D01*
X-00612Y-00643D02*
Y-00623D01*
X-01071Y-00565D02*
X-01045Y-00591D01*
X-01084Y-00565D02*
X-01071D01*
X-01158Y-0051D02*
X-01137Y-00489D01*
X-01158Y-00525D02*
Y-0051D01*
X-01061Y-00417D02*
Y-00393D01*
X-01138Y-00317D02*
Y-00317D01*
X-01304Y-00089D02*
X-01296D01*
X-01213Y-00168D02*
Y-00108D01*
X-01213Y-00168D02*
X-01213Y-00168D01*
X-01137Y-00073D02*
X-01126Y-00084D01*
X-01146Y-00073D02*
X-01137D01*
X-01102Y-00092D02*
Y-0008D01*
X-01125Y-00057D02*
X-01102Y-0008D01*
X-01146Y-00057D02*
X-01125D01*
X-01317Y00005D02*
X-01296D01*
X-01332Y0002D02*
X-01317Y00005D01*
X-01336Y-0001D02*
X-01296D01*
X-01352Y00005D02*
X-01336Y-0001D01*
X-01306Y-00041D02*
X-01296D01*
X-01086Y-00071D02*
Y-00066D01*
X-01083Y-00041D02*
X-01082Y-0004D01*
X-01087Y-00072D02*
X-01086Y-00071D01*
X-01328Y00062D02*
Y00085D01*
X-01066Y-00544D02*
X-01033Y-00576D01*
X-01067Y-00544D02*
X-01066D01*
X-00909Y-00733D02*
X-00884Y-00758D01*
X-00976Y-0072D02*
X-0096Y-00735D01*
X-00976Y-0072D02*
Y-00719D01*
X-01147Y-00125D02*
D01*
X-01182Y-002D02*
Y-00188D01*
X-0121Y-00241D02*
X-0121Y-00241D01*
X-01187Y-00232D02*
X-01163Y-00208D01*
X-01244Y-00211D02*
Y-00108D01*
X-01283Y-00219D02*
X-01278Y-00224D01*
X-01283Y-00219D02*
Y-00218D01*
X-0126Y-00131D02*
Y-00108D01*
X-01297Y-00167D02*
X-0126Y-00131D01*
X-00822Y-00783D02*
Y-00782D01*
X-00833Y-00738D02*
Y-00709D01*
X-01106Y-00582D02*
Y-00549D01*
X-01085Y-00564D02*
X-01084Y-00565D01*
X-01151Y-00303D02*
X-01138Y-00317D01*
X-00833Y-00709D02*
Y-00708D01*
X-00858Y-00709D02*
X-00857Y-00708D01*
X-00948Y-00691D02*
X-00921Y-00717D01*
X-01133Y-00489D02*
X-01061Y-00417D01*
X-01137Y-00489D02*
X-01133D01*
X-00533Y-00686D02*
X-00522D01*
X-00871Y-00746D02*
X-00841D01*
X-00855Y-0076D02*
X-00841Y-00746D01*
X-00833Y-00738*
X-00885Y-00732D02*
X-00871Y-00746D01*
X-00833Y-00709D02*
X-00831Y-00711D01*
X-01151Y-00223D02*
Y-00164D01*
X-01166Y-00238D02*
X-01151Y-00223D01*
X-01166Y-00239D02*
Y-00238D01*
X-01163Y-00208D02*
Y-00172D01*
X-01197Y-00137D02*
X-01163Y-00172D01*
X-01197Y-00137D02*
Y-00108D01*
X-01147Y-00125D02*
D01*
Y-0009*
X-01181Y-00133D02*
X-01151Y-00164D01*
X-01181Y-00133D02*
Y-00108D01*
X-01189Y-00168D02*
X-01182Y-00175D01*
Y-00188D02*
Y-00175D01*
Y-00188D02*
X-01182Y-00188D01*
X-01128Y-00106D02*
X-01126Y-00105D01*
Y-00084*
X-01147Y-0009D02*
X-01146Y-00089D01*
X-00328Y-00462D02*
Y-00446D01*
X-00663Y-00609D02*
X-00651Y-00621D01*
X-01304Y00161D02*
X-01254D01*
X-00591Y-00703D02*
X-00579D01*
X-00591Y-00714D02*
Y-00703D01*
X-00576Y-00714D02*
X-00568Y-00706D01*
X-00592Y-00715D02*
X-00591Y-00714D01*
X-00592Y-00717D02*
Y-00715D01*
X-00612Y-00717D02*
Y-00712D01*
X-00628Y-00745D02*
X-00612Y-00761D01*
X-00655Y-00714D02*
X-00651Y-00717D01*
X-00421Y-00556D02*
X-00386Y-00521D01*
X-00421Y-00574D02*
Y-00556D01*
X-00386Y-00521D02*
Y-00475D01*
X-00295Y-00509D02*
Y-00507D01*
X-00295Y-00507*
X-00321Y-00537D02*
Y-00534D01*
X-00295Y-00507D02*
Y-00477D01*
X-00421Y-00605D02*
X-00421Y-00605D01*
Y-00606D02*
Y-00605D01*
X-00295Y-00477D02*
X-00295Y-00477D01*
X-00493Y-00711D02*
X-00492Y-00712D01*
X-01211Y-00188D02*
Y-0017D01*
X-01213Y-00176D02*
Y-00168D01*
X-01211Y-00196D02*
Y-00188D01*
Y-00196D02*
X-01209Y-00197D01*
X-01213Y-00168D02*
X-01211Y-0017D01*
X-01365Y00001D02*
X-01337Y-00026D01*
X-01296*
X-00437Y-00573D02*
X-00437Y-00574D01*
X-00161Y-00341D02*
X-00159Y-00339D01*
X-0121Y-00241D02*
Y-00221D01*
X-01209Y-00221*
X-0114Y-00041D02*
X-01106D01*
X-00295Y-0038D02*
Y-00346D01*
Y-00477D02*
X-00278D01*
X-00229Y-0034D02*
X-00194D01*
X-00264Y-00372D02*
Y-00362D01*
X-00267Y-00375D02*
X-00264Y-00372D01*
X-00327Y-00492D02*
X-00312Y-00477D01*
X-00196Y-00437D02*
Y-0042D01*
X-00227Y-0038D02*
X-0021D01*
X-00196Y-0042D02*
Y-00403D01*
X-00244Y-00481D02*
Y-00477D01*
X-00641Y-0068D02*
X-00632Y-0067D01*
Y-00643*
X-00651Y-0067D02*
X-00641Y-0068D01*
X-0021Y-0038D02*
X-00194D01*
X-00196Y-00454D02*
X-00183D01*
X-00196Y-00403D02*
X-00194Y-00401D01*
Y-0038*
X-00295Y-0038D02*
Y-0038D01*
X-00244Y-00365D02*
X-00239Y-00359D01*
X-00244Y-0038D02*
Y-00365D01*
X-00264Y-00372D02*
X-00264D01*
G54D11*
X-0073Y-00692D02*
X-00704Y-00666D01*
X-0073Y-00693D02*
Y-00692D01*
X-00704Y-00666D02*
Y-00629D01*
X-00753Y-00671D02*
X-0073Y-00693D01*
X-00753Y-00671D02*
Y-00667D01*
X-00704Y-00629D02*
X-00699Y-00624D01*
G54D14*
X-00987Y00161D03*
X-00964Y00138D03*
X-01016Y00277D03*
X-01044Y00305D03*
G54D15*
X-00907Y00192D03*
X-00855Y0021D03*
X-0087Y00251D03*
X-00922Y00232D03*
G54D16*
X-00942Y-00532D03*
X-00963Y-00501D03*
G54D17*
X-00617Y00375D03*
X-00818D03*
G54D18*
X-00993Y00357D03*
X-01021Y00329D03*
X-01064Y00285D03*
X-01092Y00257D03*
G54D19*
X-0095Y00315D03*
Y00354D03*
X-00227Y-0033D03*
Y-00291D03*
X-0073Y-00693D03*
Y-00654D03*
X-01247Y-00214D03*
Y-00253D03*
X-01339Y-00211D03*
Y-00172D03*
X-01157Y00107D03*
Y00067D03*
G54D20*
X-00781Y00227D03*
X-00814D03*
X-01089Y00067D03*
X-01129D03*
X-00432Y-00706D03*
X-00472D03*
X-01157Y00131D03*
X-01118D03*
X-01101Y00034D03*
X-01062D03*
G54D21*
X-00517Y-00597D03*
X-00555D03*
G54D22*
X-00866Y-00599D03*
X-00898Y-0058D03*
G54D23*
X-01358Y-00334D03*
Y-0031D03*
X-01319Y-00319D03*
Y-00295D03*
X-01289Y00077D03*
Y001D03*
X-00767Y-00657D03*
Y-00681D03*
X-01209Y-00221D03*
Y-00197D03*
X-0035Y-00613D03*
Y-0059D03*
X-00386Y-00451D03*
Y-00475D03*
X-00298Y-00319D03*
Y-00342D03*
X-00193Y-00317D03*
Y-00341D03*
X-00161D03*
Y-00317D03*
G54D24*
X-01242Y00115D03*
X-01218D03*
X-01103Y-00237D03*
X-01126D03*
X-01103Y-00276D03*
X-01126D03*
X-00915Y-00756D03*
X-00939D03*
X-00879Y-0076D03*
X-00855D03*
X-00744Y-00807D03*
X-00768D03*
Y-00769D03*
X-00744D03*
X-00885Y-00732D03*
X-00862D03*
X-00857Y-00708D03*
X-00833D03*
X-00894Y-00797D03*
X-00871D03*
X-00628Y-00745D03*
X-00651D03*
X-00756D03*
X-00732D03*
X-0077Y-00719D03*
X-00794D03*
X-00665Y-00801D03*
X-00688D03*
X-01189Y-00168D03*
X-01213D03*
X-01111Y-00072D03*
X-01087D03*
X-01083Y-00041D03*
X-01106D03*
X-01254Y00161D03*
X-01231D03*
X-0125Y00138D03*
X-01274D03*
X-00463Y-00606D03*
X-00486D03*
X-00487Y-00653D03*
X-00463D03*
X-00486Y-00629D03*
X-00463D03*
X-00334Y-00565D03*
X-00311D03*
X-00344Y-00537D03*
X-00321D03*
X-00374Y-00389D03*
X-00351D03*
G54D25*
X-01071Y-00319D03*
X-01086Y-00301D03*
X-01094Y-00328D03*
X-01109Y-0031D03*
G54D26*
X-01343Y-00418D03*
X-01325Y-00433D03*
G54D27*
X-00962Y-00571D03*
X-01081Y-00691D03*
X-0104Y-00733D03*
X-0092Y-00613D03*
G54D28*
X-00998Y-00557D03*
X-01012Y-00571D03*
X-01026Y-00585D03*
X-0104Y-00599D03*
X-01054Y-00613D03*
X-01067Y-00627D03*
X-01081Y-00641D03*
X-01095Y-00655D03*
X-01003Y-00747D03*
X-0099Y-00733D03*
X-00976Y-00719D03*
X-00962Y-00705D03*
X-00948Y-00691D03*
X-00934Y-00677D03*
X-0092Y-00663D03*
X-00906Y-00649D03*
G54D29*
X-01001Y-00652D03*
G54D30*
X-01163Y-0055D03*
X-01125Y-00518D03*
X-01087Y-00486D03*
X-01048Y-00454D03*
X-01193Y-00282D03*
X-01231Y-00314D03*
X-01269Y-00346D03*
X-01308Y-00379D03*
G54D31*
X-01178Y-00416D03*
G54D32*
X-00476Y-00518D03*
X-00503Y-00544D03*
G54D33*
X-00435Y-00453D03*
X-00407Y-00404D03*
G54D34*
X-01166Y0004D03*
X-01181D03*
X-01197D03*
X-01213D03*
X-01229D03*
X-01244D03*
X-0126D03*
X-01276D03*
Y-00108D03*
X-0126D03*
X-01244D03*
X-01229D03*
X-01213D03*
X-01197D03*
X-01181D03*
X-01166D03*
G54D35*
X-01296Y00021D03*
Y00005D03*
Y-0001D03*
Y-00026D03*
Y-00041D03*
Y-00057D03*
Y-00073D03*
Y-00089D03*
X-01146D03*
Y-00073D03*
Y-00057D03*
Y-00041D03*
Y-00026D03*
Y-0001D03*
Y00005D03*
Y00021D03*
G54D37*
X-00405Y-00605D03*
Y-00589D03*
Y-00574D03*
X-00421Y-00605D03*
Y-00589D03*
Y-00574D03*
X-00437Y-00605D03*
Y-00589D03*
Y-00574D03*
G54D38*
X-00196Y-00403D03*
Y-0042D03*
Y-00454D03*
Y-00437D03*
X-0031D03*
Y-00454D03*
Y-0042D03*
Y-00403D03*
G54D39*
X-00312Y-0038D03*
X-00278D03*
X-00244D03*
X-00227D03*
X-00194D03*
X-0021D03*
X-00261D03*
X-00295D03*
Y-00477D03*
X-00261D03*
X-0021D03*
X-00194D03*
X-00227D03*
X-00244D03*
X-00278D03*
X-00312D03*
G54D40*
X-00612Y-00717D03*
X-00592D03*
X-00691Y-00643D03*
X-00671D03*
X-00612D03*
X-00592D03*
X-00691Y-00717D03*
X-00651D03*
X-00632D03*
X-00671D03*
X-00632Y-00643D03*
X-00651D03*
G54D41*
X-00641Y-0068D03*
G54D42*
X-00804Y-00619D03*
X-00747D03*
G54D43*
X-01297Y-00217D03*
Y-0016D03*
G54D58*
X-00167Y00034D03*
G54D59*
X-01128Y00221D02*
D01*
X-01133Y00216*
X-01137Y0021*
X-01141Y00205*
X-01145Y00199*
X-01148Y00192*
X-01151Y00186*
X-01153Y00179*
X-01155Y00173*
X-01156Y00166*
X-01157Y00159*
X-01157Y00152*
X-01157Y0015*
X-01128Y00221D02*
X-01092Y00257D01*
X-01157Y00107D02*
Y0015D01*
X-01044Y00305D02*
X-01021Y00329D01*
X-01064Y00285D02*
X-01044Y00305D01*
X-00765Y-00655D02*
X-00759Y-00661D01*
X-00767Y-00652D02*
X-00765Y-00655D01*
X-00591Y-00659D02*
Y-00648D01*
Y-00659D02*
X-00566Y-00683D01*
Y-00699D02*
Y-00683D01*
X-00794Y-00627D02*
X-00767Y-00652D01*
X-00591Y-00714D02*
X-00576D01*
X-00759Y-00661D02*
X-00756Y-00664D01*
X-00759Y-00661D02*
X-00759Y-00661D01*
G54D60*
X-01221Y-00033D03*
G54D61*
X-00993Y00357D02*
X-00811D01*
G54D62*
X-00922Y-00556D02*
X-00898Y-0058D01*
X-00949Y-00556D02*
X-00922D01*
X-00955Y-00551D02*
X-00949Y-00556D01*
X-00956Y-00551D02*
X-00955D01*
X-0097Y-00537D02*
X-00956Y-00551D01*
X-00986Y-00506D02*
X-00984Y-00508D01*
X-00986Y-00506D02*
Y-00505D01*
X-00984Y-00508D02*
X-00973Y-00523D01*
X-00965Y-00526D02*
X-00952Y-00517D01*
X-00973Y-00523D02*
X-00971Y-00526D01*
X-00965*
G54D63*
X-00513Y-00683D02*
X-00419D01*
X-00684Y-00743D02*
Y-00743D01*
X-00419Y-00683D02*
X-0035Y-00613D01*
X-00494Y-00629D02*
X-00486D01*
X-00505Y-0064D02*
X-00494Y-00629D01*
X-00505Y-00684D02*
Y-0064D01*
X-00487Y-00627D02*
Y-00607D01*
X-00267Y-00365D02*
X-00264Y-00362D01*
X-00267Y-00375D02*
Y-00365D01*
G54D64*
X-00505Y-00687D02*
Y-00684D01*
Y-00687D02*
X-00504Y-00688D01*
X-00514Y-00698D02*
X-00504Y-00688D01*
G54D65*
X-00671Y-00643D02*
Y-00631D01*
X-00678Y-00624D02*
X-00671Y-00631D01*
X-00699Y-00624D02*
X-00678D01*
G54D66*
X-01309Y-00221D03*
G54D67*
X-00813Y-00624D03*
G54D68*
X-00631Y-00717D03*
G54D69*
X-0035Y-0037D03*
G54D70*
X-00265Y-00358D03*
G54D71*
X-0024Y-00337D03*
G54D72*
X-0027Y-00373D03*
G54D73*
X-01261Y-00033D03*
X-01221Y-00073D03*
Y-00033D03*
Y00006D03*
X-01181Y-00033D03*
G54D74*
X-00988Y00067D03*
X-00973Y00092D03*
X-01049Y00116D03*
X-01057Y00062D03*
X-01036Y00204D03*
X-00955Y00191D03*
X-01065Y00092D03*
X-01105Y00177D03*
X-01059Y00145D03*
X-01082Y00157D03*
X-00998Y00243D03*
X-01019Y00224D03*
X-01059Y00178D03*
X-00968Y00265D03*
X-00931Y0029D03*
X-00728Y0023D03*
X-00742Y00256D03*
X-00776Y00256D03*
X-00968Y00305D03*
X-00995Y-00545D03*
X-01059Y00218D03*
X-01023Y-00516D03*
X-0105Y-00521D03*
X-0078Y00221D03*
X-01019Y00264D03*
X-00998Y00283D03*
X-00267Y-00506D03*
X-00295Y-00507D03*
X-01312Y-00337D03*
X-01297Y-00295D03*
X-00568Y-00859D03*
X-00529Y-0085D03*
X-00465Y-00796D03*
X-0054Y-00746D03*
X-00612Y-00792D03*
X-00641D03*
X-00328Y-00732D03*
X-0034Y-00662D03*
X-01036Y00244D03*
X-00925Y-00792D03*
X-00902Y-00772D03*
X-00527Y-00644D03*
X-00513Y-00581D03*
X-00529Y-00558D03*
X-00773Y-00745D03*
X-00701Y-00692D03*
X-00715Y-00732D03*
X-01335Y-0016D03*
X-01245Y-00247D03*
X-01396Y-00168D03*
X-00348Y-00338D03*
X-0035Y-00367D03*
X-00438Y-00546D03*
X-00432Y-00519D03*
X-00459Y-00462D03*
X-00405Y-0038D03*
X-00387Y-0044D03*
X-00348Y-0045D03*
X-00479Y-00492D03*
X-01096Y-00672D03*
X-01269Y-00326D03*
X-01348Y-00354D03*
X-01223Y-00179D03*
X-011Y-00025D03*
X-01065Y-00066D03*
X-01048Y-00033D03*
X-01125Y00029D03*
X-00715Y-00795D03*
X-00719Y-00839D03*
X-00684Y-00743D03*
X-00788Y-00609D03*
X-00731Y-0061D03*
X-00862Y-00603D03*
X-01261Y00115D03*
X-01223Y00138D03*
X-01296Y00137D03*
X-01118Y00151D03*
X-01117Y00095D03*
X-01192Y00179D03*
X-01193Y00152D03*
X-01193Y00099D03*
X-01193Y00125D03*
X-01193Y00072D03*
X-00406Y-00626D03*
X-00334Y-00565D03*
X-01228Y-00572D03*
X-00828Y-00611D03*
X-01165Y-00241D03*
X-01088Y-00249D03*
X-01226Y00184D03*
X-01075Y-00293D03*
X-01095Y-00329D03*
X-01131Y-00295D03*
X-0108Y00119D03*
X-00505Y-00684D03*
X-00473Y-00715D03*
X-00473Y-00689D03*
X-00171Y-0042D03*
Y-00379D03*
X-00171Y-00295D03*
X-00224Y-00295D03*
X-00387Y-00356D03*
X-00623Y-00617D03*
X-0087Y-00685D03*
X-0096Y-00733D03*
X-01283Y-00509D03*
X-01093Y-00183D03*
X-01147Y-00125D03*
X-01182Y-002D03*
X-0121Y-00241D03*
X-01376Y-00395D03*
X-01308Y0007D03*
X-00886Y00293D03*
X-00811Y00264D03*
X-00842Y00285D03*
X-01247Y-00205D03*
X-01283Y-00218D03*
X-00813Y-00693D03*
X-00822Y-00783D03*
X-01075Y-00593D03*
X-00825Y-00837D03*
X-00691Y-00834D03*
X-01067Y-00544D03*
X-0014Y-0032D03*
X-0019Y-0062D03*
X-0021Y-00598D03*
X-01085Y-00564D03*
X-01106Y-00582D03*
X-00572Y-00627D03*
X-01133Y-00512D03*
X-0109Y-00473D03*
X-01128Y-00106D03*
X-00528Y-00696D03*
X-01339Y-00489D03*
X-00365Y-00534D03*
X-00321Y-00537D03*
X-0033Y-00491D03*
X-00384Y-00558D03*
X-01238Y00075D03*
X-01332Y0002D03*
X-0109Y-00738D03*
X-00128Y-00404D03*
X-00247Y-00336D03*
X-01082Y00197D03*
X-01103Y-00091D03*
X-01353Y-00459D03*
X-01399Y-0031D03*
X-00247Y-00582D03*
X-00061Y-00295D03*
X-00114Y-00296D03*
X-00282Y-00295D03*
X-00334Y-00295D03*
X-00067Y-00356D03*
X-00088Y-00376D03*
X-00114Y-00377D03*
X-01389Y-00049D03*
X-0127Y00183D03*
X-01297Y00183D03*
X-0139Y-00346D03*
X-00116Y-00349D03*
X-00088Y-0034D03*
X-01351Y-0028D03*
X-00641Y-0068D03*
X-00673Y-00678D03*
X-00612Y-00683D03*
X-00267Y-00365D03*
M02*