%FSTAX23Y23*%
%MOIN*%
%SFA1B1*%

%IPPOS*%
%AMD18*
4,1,4,0.011300,0.020800,-0.022000,0.008700,-0.011300,-0.020800,0.022000,-0.008700,0.011300,0.020800,0.0*
%
%AMD19*
4,1,4,-0.017800,0.003400,-0.006000,-0.017100,0.017800,-0.003400,0.006000,0.017100,-0.017800,0.003400,0.0*
%
%AMD20*
4,1,4,0.000000,0.016700,-0.016700,0.000000,0.000000,-0.016700,0.016700,0.000000,0.000000,0.016700,0.0*
%
%AMD21*
4,1,4,-0.007100,-0.015100,0.015100,-0.007100,0.007100,0.015100,-0.015100,0.007100,-0.007100,-0.015100,0.0*
%
%AMD22*
4,1,4,-0.015400,-0.006400,0.006400,-0.015400,0.015400,0.006400,-0.006400,0.015400,-0.015400,-0.006400,0.0*
%
%AMD23*
4,1,4,0.016700,0.000000,0.000000,0.016700,-0.016700,0.000000,0.000000,-0.016700,0.016700,0.000000,0.0*
%
%AMD26*
4,1,4,-0.000700,-0.008300,0.008300,-0.000700,0.000700,0.008300,-0.008300,0.000700,-0.000700,-0.008300,0.0*
%
%AMD27*
4,1,4,-0.000700,0.008300,-0.008300,-0.000700,0.000700,-0.008300,0.008300,0.000700,-0.000700,0.008300,0.0*
%
%AMD28*
4,1,4,0.005000,0.011700,-0.011700,-0.005000,-0.005000,-0.011700,0.011700,0.005000,0.005000,0.011700,0.0*
%
%AMD29*
4,1,4,0.011700,-0.005000,-0.005000,0.011700,-0.011700,0.005000,0.005000,-0.011700,0.011700,-0.005000,0.0*
%
%AMD30*
4,1,4,0.013900,0.070900,-0.070900,-0.013900,-0.013900,-0.070900,0.070900,0.013900,0.013900,0.070900,0.0*
%
%AMD31*
4,1,4,-0.020000,0.010100,0.006500,-0.021400,0.020000,-0.010100,-0.006500,0.021400,-0.020000,0.010100,0.0*
%
%AMD32*
4,1,4,-0.021900,-0.107000,0.109200,0.003000,0.021900,0.107000,-0.109200,-0.003000,-0.021900,-0.107000,0.0*
%
%AMD33*
4,1,4,-0.017100,-0.006000,0.003400,-0.017800,0.017100,0.006000,-0.003400,0.017800,-0.017100,-0.006000,0.0*
%
%AMD35*
4,1,4,0.001300,-0.018000,0.018000,-0.001300,-0.001300,0.018000,-0.018000,0.001300,0.001300,-0.018000,0.0*
%
%AMD36*
4,1,4,0.025500,0.006800,-0.006800,0.025500,-0.025500,-0.006800,0.006800,-0.025500,0.025500,0.006800,0.0*
%
%AMD43*
4,1,8,0.004900,-0.009400,0.004900,0.009400,0.004400,0.009800,-0.004400,0.009800,-0.004900,0.009400,-0.004900,-0.009400,-0.004400,-0.009800,0.004400,-0.009800,0.004900,-0.009400,0.0*
1,1,0.000984,0.004400,-0.009400*
1,1,0.000984,0.004400,0.009400*
1,1,0.000984,-0.004400,0.009400*
1,1,0.000984,-0.004400,-0.009400*
%
%AMD44*
4,1,8,0.039400,-0.015900,0.039400,0.015900,0.037600,0.017700,-0.037600,0.017700,-0.039400,0.015900,-0.039400,-0.015900,-0.037600,-0.017700,0.037600,-0.017700,0.039400,-0.015900,0.0*
1,1,0.003543,0.037600,-0.015900*
1,1,0.003543,0.037600,0.015900*
1,1,0.003543,-0.037600,0.015900*
1,1,0.003543,-0.037600,-0.015900*
%
%ADD10C,0.007874*%
%ADD11C,0.009843*%
%ADD13C,0.019685*%
%ADD15R,0.023622X0.023622*%
%ADD16R,0.023622X0.023622*%
%ADD17R,0.021654X0.039370*%
G04~CAMADD=18~9~0.0~0.0~354.3~315.0~0.0~0.0~0~0.0~0.0~0.0~0.0~0~0.0~0.0~0.0~0.0~0~0.0~0.0~0.0~20.0~440.0~415.0*
%ADD18D18*%
G04~CAMADD=19~9~0.0~0.0~236.2~275.6~0.0~0.0~0~0.0~0.0~0.0~0.0~0~0.0~0.0~0.0~0.0~0~0.0~0.0~0.0~120.0~356.0~341.0*
%ADD19D19*%
G04~CAMADD=20~10~0.0~236.2~0.0~0.0~0.0~0.0~0~0.0~0.0~0.0~0.0~0~0.0~0.0~0.0~0.0~0~0.0~0.0~0.0~405.0~236.2~0.0*
%ADD20D20*%
G04~CAMADD=21~10~0.0~236.2~0.0~0.0~0.0~0.0~0~0.0~0.0~0.0~0.0~0~0.0~0.0~0.0~0.0~0~0.0~0.0~0.0~200.0~236.2~0.0*
%ADD21D21*%
G04~CAMADD=22~10~0.0~236.2~0.0~0.0~0.0~0.0~0~0.0~0.0~0.0~0.0~0~0.0~0.0~0.0~0.0~0~0.0~0.0~0.0~157.5~236.2~0.0*
%ADD22D22*%
G04~CAMADD=23~10~0.0~236.2~0.0~0.0~0.0~0.0~0~0.0~0.0~0.0~0.0~0~0.0~0.0~0.0~0.0~0~0.0~0.0~0.0~315.0~236.2~0.0*
%ADD23D23*%
%ADD24R,0.011811X0.011811*%
%ADD25R,0.011811X0.011811*%
G04~CAMADD=26~10~0.0~118.1~0.0~0.0~0.0~0.0~0~0.0~0.0~0.0~0.0~0~0.0~0.0~0.0~0.0~0~0.0~0.0~0.0~220.0~118.1~0.0*
%ADD26D26*%
G04~CAMADD=27~10~0.0~118.1~0.0~0.0~0.0~0.0~0~0.0~0.0~0.0~0.0~0~0.0~0.0~0.0~0.0~0~0.0~0.0~0.0~410.0~118.1~0.0*
%ADD27D27*%
G04~CAMADD=28~9~0.0~0.0~236.2~94.5~0.0~0.0~0~0.0~0.0~0.0~0.0~0~0.0~0.0~0.0~0.0~0~0.0~0.0~0.0~45.0~234.0~233.0*
%ADD28D28*%
G04~CAMADD=29~9~0.0~0.0~236.2~94.5~0.0~0.0~0~0.0~0.0~0.0~0.0~0~0.0~0.0~0.0~0.0~0~0.0~0.0~0.0~315.0~234.0~233.0*
%ADD29D29*%
G04~CAMADD=30~9~0.0~0.0~1200.8~807.1~0.0~0.0~0~0.0~0.0~0.0~0.0~0~0.0~0.0~0.0~0.0~0~0.0~0.0~0.0~45.0~1418.0~1417.0*
%ADD30D30*%
G04~CAMADD=31~9~0.0~0.0~413.4~177.2~0.0~0.0~0~0.0~0.0~0.0~0.0~0~0.0~0.0~0.0~0.0~0~0.0~0.0~0.0~130.0~400.0~427.0*
%ADD31D31*%
G04~CAMADD=32~9~0.0~0.0~1712.6~1358.3~0.0~0.0~0~0.0~0.0~0.0~0.0~0~0.0~0.0~0.0~0.0~0~0.0~0.0~0.0~220.0~2184.0~2139.0*
%ADD32D32*%
G04~CAMADD=33~9~0.0~0.0~236.2~275.6~0.0~0.0~0~0.0~0.0~0.0~0.0~0~0.0~0.0~0.0~0.0~0~0.0~0.0~0.0~150.0~342.0~355.0*
%ADD33D33*%
%ADD34R,0.023622X0.027559*%
G04~CAMADD=35~9~0.0~0.0~236.2~275.6~0.0~0.0~0~0.0~0.0~0.0~0.0~0~0.0~0.0~0.0~0.0~0~0.0~0.0~0.0~225.0~360.0~359.0*
%ADD35D35*%
G04~CAMADD=36~10~0.0~374.0~0.0~0.0~0.0~0.0~0~0.0~0.0~0.0~0.0~0~0.0~0.0~0.0~0.0~0~0.0~0.0~0.0~330.0~374.0~0.0*
%ADD36D36*%
%ADD37O,0.007874X0.023622*%
%ADD38O,0.023622X0.007874*%
%ADD40C,0.009843*%
%ADD41R,0.020866X0.009055*%
%ADD42R,0.009055X0.020866*%
G04~CAMADD=43~8~0.0~0.0~196.9~98.4~4.9~0.0~15~0.0~0.0~0.0~0.0~0~0.0~0.0~0.0~0.0~0~0.0~0.0~0.0~270.0~98.0~196.0*
%ADD43D43*%
G04~CAMADD=44~8~0.0~0.0~354.3~787.4~17.7~0.0~15~0.0~0.0~0.0~0.0~0~0.0~0.0~0.0~0.0~0~0.0~0.0~0.0~270.0~788.0~354.0*
%ADD44D44*%
%ADD45R,0.037401X0.037401*%
%ADD46R,0.037401X0.037401*%
%ADD61C,0.047244*%
%ADD62C,0.011701*%
%ADD63R,0.110236X0.110236*%
%ADD64C,0.011811*%
%ADD65C,0.015748*%
%ADD66C,0.011842*%
%ADD67C,0.009449*%
%ADD68R,0.057087X0.039370*%
%ADD69R,0.029527X0.039370*%
%ADD70R,0.080709X0.019685*%
%ADD71R,0.080709X0.019685*%
%ADD72R,0.075531X0.031087*%
%ADD73R,0.059212X0.047701*%
%ADD74R,0.092000X0.021000*%
%ADD75R,0.023622X0.054669*%
%ADD76R,0.014323X0.066653*%
%ADD77R,0.051535X0.024606*%
%ADD78R,0.024724X0.035945*%
%ADD79C,0.015748*%
%ADD80C,0.023622*%
%LNflytta-33-1*%
%LPD*%
G36*
X-00053Y-00027D02*
X-00057Y-00033D01*
X-00059Y-00034*
X-00082*
Y-00034*
X-00116*
X-0012*
X-00156*
X-00156Y-00038*
X-00192*
Y-00043*
X-002Y-00044*
X-00217Y-00048*
X-00233Y-00055*
X-00248Y-00064*
X-00262Y-00075*
X-00262Y-00075*
X-00283Y-00097*
X-00288Y-00092*
X-0031Y-00114*
X-00312Y-00113*
X-0034Y-00141*
X-00337Y-00144*
X-00364Y-00171*
X-00362Y-00173*
X-00415Y-00226*
X-00424Y-00236*
X-00431Y-00248*
X-00433Y-00253*
X-00436Y-0026*
Y-0026*
X-00451Y-00297*
X-00464Y-00328*
X-0046Y-00329*
X-00461Y-00338*
X-00466Y-00338*
Y-00377*
X-0047Y-0038*
X-00472Y-00384*
X-00473Y-00388*
Y-00403*
X-00472Y-00407*
X-0047Y-0041*
X-00467Y-00413*
X-00463Y-00413*
X-00459Y-00413*
X-00457Y-00411*
X-00456Y-00412*
X-00452Y-00414*
X-00447Y-00415*
X-00445Y-00419*
X-00443Y-00423*
X-00445Y-00427*
X-00445Y-00431*
X-00445Y-00435*
X-00442Y-00438*
Y-00439*
X-00445Y-00443*
X-00445Y-00447*
X-00445Y-0045*
X-00442Y-00454*
X-00439Y-00456*
X-00435Y-00457*
X-00413*
X-00408Y-00464*
X-0041Y-00468*
X-00435*
X-00439Y-00469*
X-00442Y-00471*
X-00445Y-00474*
X-00445Y-00478*
X-00445Y-00482*
X-00442Y-00485*
Y-00487*
X-00445Y-0049*
X-00445Y-00494*
X-00445Y-00498*
X-00442Y-00501*
Y-00502*
X-00445Y-00506*
X-00445Y-0051*
X-00445Y-00513*
X-00443Y-00517*
X-00445Y-00521*
X-00447Y-00526*
X-00451Y-00528*
X-00455Y-0053*
X-00459Y-00528*
X-00463Y-00527*
X-00467Y-00528*
X-0047Y-0053*
X-00472*
X-00475Y-00528*
X-00479Y-00527*
X-00482Y-00528*
X-00486Y-0053*
X-00487*
X-00491Y-00528*
X-00494Y-00527*
X-00498Y-00528*
X-00501Y-0053*
X-00504Y-00533*
X-00504Y-00537*
Y-00592*
X-00506Y-00593*
X-00508Y-00594*
X-00516Y-00587*
Y-00537*
X-00517Y-00533*
X-00519Y-0053*
X-00522Y-00528*
X-00526Y-00527*
X-0053Y-00528*
X-00533Y-0053*
X-00534*
X-00538Y-00528*
X-00542Y-00527*
X-00545Y-00528*
X-00549Y-0053*
X-00551Y-00533*
X-00552Y-00537*
Y-00563*
X-00561Y-00572*
X-00603*
Y-00621*
X-00554*
Y-00594*
X-00543Y-00583*
X-00536Y-00586*
Y-00625*
X-0054Y-00628*
X-00542Y-00629*
X-00546Y-00633*
X-00554Y-00632*
Y-00629*
X-00603*
Y-0063*
X-00633*
X-00636Y-00622*
X-00635Y-00621*
X-00633Y-00618*
X-00632Y-00614*
Y-00587*
X-00581Y-00535*
X-00569*
X-00565Y-00535*
X-00562Y-00532*
X-0056Y-00529*
X-00559Y-00525*
X-0056Y-00521*
X-00562Y-00517*
X-0056Y-00513*
X-00559Y-0051*
X-0056Y-00506*
X-00562Y-00502*
Y-00501*
X-0056Y-00498*
X-00559Y-00494*
X-0056Y-0049*
X-00562Y-00487*
Y-00485*
X-0056Y-00482*
X-00559Y-00478*
X-0056Y-00474*
X-00562Y-0047*
X-0056Y-00466*
X-00559Y-00462*
X-0056Y-00458*
X-00562Y-00455*
Y-00454*
X-0056Y-0045*
X-00559Y-00447*
X-0056Y-00443*
X-00562Y-00439*
Y-00438*
X-0056Y-00435*
X-00559Y-00431*
X-0056Y-00427*
X-00562Y-00423*
X-0056Y-00419*
X-00559Y-00415*
X-00557Y-00413*
X-00553Y-00413*
X-0055Y-0041*
X-00548Y-00407*
X-00547Y-00403*
Y-00376*
X-00519Y-00348*
X-00516*
X-00513Y-00347*
X-00509Y-00345*
X-00497Y-00332*
X-00487*
Y-00309*
X-00529*
X-0053Y-00308*
X-00535Y-00304*
X-00542Y-00303*
X-00543Y-00302*
Y-00286*
X-00524*
Y-00263*
X-00547*
Y-00265*
X-00584*
X-00587Y-0026*
X-00588Y-00257*
X-00542Y-00191*
X-00537Y-0019*
X-00533Y-0019*
X-00513Y-0021*
X-00513Y-00211*
X-00512Y-00211*
X-00505Y-00217*
X-00505Y-00217*
X-00504Y-00217*
X-00497Y-00222*
X-00496Y-00223*
X-00495Y-00223*
X-00493Y-00224*
X-00492Y-00225*
X-00492Y-00225*
X-00487Y-00226*
X-00487Y-00226*
X-00487Y-00227*
X-00486Y-00227*
X-00486Y-00227*
X-00486Y-00227*
X-00483Y-00228*
X-00483Y-00228*
X-00482Y-00228*
X-00475Y-00229*
X-00475Y-00229*
X-00474Y-00229*
X-00467Y-0023*
X-00467Y-0023*
X-00466Y-0023*
X-00455Y-00229*
X-00454Y-00229*
X-00453Y-00228*
X-00443Y-00225*
X-00442Y-00225*
X-00441Y-00225*
X-00431Y-0022*
X-0043Y-00219*
X-00429Y-00219*
X-00421Y-00212*
X-0042Y-00211*
X-00419Y-0021*
X-00412Y-00202*
X-00412Y-00201*
X-00411Y-00201*
X-00406Y-00191*
X-00406Y-0019*
X-00405Y-00189*
X-00402Y-00179*
X-00402Y-00178*
X-00401Y-00177*
X-004Y-00166*
X-004Y-00165*
X-004Y-00164*
X-00401Y-00153*
X-00401Y-00153*
X-00401Y-00152*
X-00403Y-00144*
X-00403Y-00144*
X-00403Y-00144*
X-00403Y-00143*
X-00403Y-00143*
X-00403Y-00143*
X-00404Y-00141*
X-00404Y-00141*
X-00404Y-0014*
X-00407Y-00134*
X-00407Y-00134*
X-00408Y-00133*
X-00411Y-00127*
X-00412Y-00126*
X-00412Y-00126*
X-00419Y-00117*
X-00419Y-00117*
X-0042Y-00117*
X-00439Y-00097*
X-00439Y-0009*
X-00439Y-00088*
X-00418Y-00072*
X-00376Y-00042*
X-00331Y-00016*
X-00324Y-00013*
X-00316Y-00011*
X-00307Y-0001*
X-00053*
Y-00027*
G37*
G36*
X00315Y-00011D02*
X00323Y-00013D01*
X0033Y-00016*
X00387Y-0005*
X00438Y-00088*
X00439Y-00093*
X00439Y-00096*
X00419Y-00117*
X00419Y-00117*
X00418Y-00117*
X00414Y-00122*
X00414Y-00123*
X00413Y-00123*
X00409Y-00128*
X00409Y-00129*
X00408Y-0013*
X00404Y-0014*
X00403Y-00141*
X00403Y-00141*
X00403Y-00143*
X00403Y-00143*
X00403Y-00143*
X00402Y-00144*
X00402Y-00144*
X00402Y-00144*
X004Y-00152*
X004Y-00152*
X004Y-00153*
X00399Y-0016*
X00399Y-00161*
X00399Y-00161*
X00399Y-00168*
X004Y-00169*
X004Y-0017*
X00401Y-00181*
X00402Y-00181*
X00402Y-00182*
X00406Y-00193*
X00406Y-00193*
X00407Y-00194*
X00413Y-00203*
X00413Y-00204*
X00414Y-00205*
X00421Y-00213*
X00422Y-00213*
X00423Y-00214*
X00432Y-0022*
X00432Y-00221*
X00433Y-00221*
X00443Y-00226*
X00444Y-00226*
X00445Y-00227*
X00456Y-00229*
X00457Y-00229*
X00457Y-00229*
X00468Y-0023*
X00469Y-0023*
X0047Y-0023*
X00481Y-00228*
X00482Y-00228*
X00482Y-00228*
X00485Y-00227*
X00485Y-00227*
X00485Y-00227*
X00486Y-00227*
X00486Y-00226*
X00486Y-00226*
X00491Y-00225*
X00492Y-00224*
X00492Y-00224*
X00499Y-00221*
X00499Y-0022*
X005Y-0022*
X00505Y-00216*
X00506Y-00216*
X00506Y-00215*
X00512Y-00211*
X00512Y-00211*
X00512Y-0021*
X00532Y-00191*
X00538Y-00191*
X00541Y-00191*
X00549Y-002*
X00576Y-00238*
X00602Y-00278*
X00626Y-00324*
X00645Y-00367*
X00662Y-00412*
X0069Y-00533*
X00689Y-00535*
X00684Y-0054*
X00622Y-0054*
X00602*
X00364*
X0036Y-0054*
X00358Y-00539*
X00354Y-00538*
X0035Y-00536*
X00347Y-00533*
X00344Y-0053*
X00342Y-00527*
X0034Y-00522*
X0033Y-00494*
X00329Y-00493*
X00329Y-00493*
X00316Y-00465*
X00316Y-00465*
X00316Y-00464*
X00301Y-00438*
X003Y-00438*
X003Y-00438*
X00201Y-00281*
X00201Y-00281*
X002Y-00281*
X00195Y-00274*
X00194Y-00273*
X00194Y-00273*
X00188Y-00266*
X00187Y-00266*
X00187Y-00265*
X00177Y-00258*
X00176Y-00258*
X00175Y-00257*
X0015Y-00246*
X0015Y-00246*
X00149Y-00246*
X00077Y-00225*
X00076Y-00225*
X00075Y-00224*
X00063Y-00223*
X00063Y-00223*
X00062Y-00223*
X-00063*
X-00064Y-00223*
X-00065Y-00223*
X-00118Y-00235*
X-00119Y-00235*
X-0012Y-00235*
X-00161Y-00251*
X-0017Y-00246*
X-00183Y-00209*
X-00228Y-00225*
X-0022Y-00246*
X-0023Y-00255*
X-00239Y-00246*
X-00264Y-00271*
X-00253Y-00282*
X-00292Y-0032*
X-00294Y-0032*
X-00299Y-00316*
X-00295Y-00246*
X-00229Y-0018*
X-00229*
X-00225Y-0018*
X-00222Y-00177*
X-00219Y-00175*
X-00198*
X-00195Y-00178*
X-00191Y-0018*
X-00188Y-00181*
X-00185*
X-00176Y-00206*
X-00131Y-0019*
X-00132Y-00187*
X-00127Y-0018*
X-00122Y-00181*
X-0012Y-00186*
X-00087Y-00174*
X-00099Y-0014*
X-00132Y-00153*
X-00135Y-00156*
X-0014*
X-00143Y-00157*
X-00146Y-00149*
X-00177Y-00161*
X-00183*
X-00186Y-00158*
X-0019Y-00156*
X-00193Y-00155*
X-00223*
X-00227Y-00156*
X-0023Y-00158*
X-00233Y-0016*
X-00233*
X-00237Y-00161*
X-0024Y-00163*
X-00311Y-00234*
X-00312Y-00236*
X-00313Y-00237*
X-00313Y-00237*
X-00314Y-00237*
X-00314Y-00239*
X-00314Y-00241*
X-00324Y-00383*
X-00331Y-00398*
X-00331Y-00398*
X-00331Y-00398*
X-00331Y-004*
X-00332Y-00402*
X-00332Y-00402*
X-00332Y-00402*
Y-00414*
X-00356*
X-00356Y-00413*
X-00359Y-00413*
X-0036Y-00413*
X-00365*
Y-00384*
X-00386*
X-00386Y-00384*
X-00392Y-0038*
X-00399Y-00379*
X-00406Y-0038*
X-00412Y-00384*
X-00416Y-0039*
X-00417Y-00397*
X-00417Y-00399*
X-00425Y-00405*
X-00427*
X-00435Y-00403*
Y-00398*
Y-00377*
X-00427*
Y-0034*
X-00413Y-00306*
X-004Y-00276*
X-00409Y-00272*
X-00408Y-00264*
X-00402Y-00254*
X-00395Y-00246*
X-00395Y-00245*
X-00342Y-00193*
X-00336Y-00198*
X-00308Y-00171*
X-00311Y-00168*
X-00284Y-00141*
X-00285Y-00139*
X-00263Y-00117*
X-00266Y-00114*
X-00245Y-00092*
X-00245Y-00092*
X-00234Y-00083*
X-00222Y-00076*
X-0021Y-00071*
X-00199Y-00068*
X-00192Y-00073*
Y-00073*
X-00156*
X-00156Y-00069*
X-0012*
X-00116*
X-00081*
Y-00069*
X-00047*
X-00043Y-00076*
Y-00125*
X00153*
Y-0001*
X00307*
X00315Y-00011*
G37*
G36*
X-00307Y-00448D02*
X-00329Y-0049D01*
X-00329Y-00491*
X-00329Y-00491*
X-0034Y-00519*
X-0034Y-0052*
X-0034Y-0052*
X-00348Y-0055*
X-00348Y-0055*
X-00349Y-00551*
X-00357Y-00612*
X-00357Y-00613*
X-00357Y-00613*
X-00357Y-0063*
X-00357Y-0063*
X-00357Y-0063*
X-00357Y-00646*
X-00357Y-00647*
X-00357Y-00648*
X-00349Y-00705*
X-00354Y-00711*
X-00356Y-00712*
X-00356Y-00712*
X-00357Y-00712*
X-00364Y-00713*
X-00364Y-00714*
X-00372Y-00709*
Y-00701*
X-0041*
X-00414Y-00693*
X-00405Y-00685*
X-00396*
Y-00662*
X-00414*
X-0042Y-0066*
X-00422Y-00655*
Y-00601*
X-00423Y-00597*
X-00425Y-00594*
X-00431Y-00588*
X-0043Y-00584*
X-00427Y-0058*
X-00422Y-00579*
X-00416Y-00575*
X-00412Y-00569*
X-00412Y-00568*
X-00409Y-00561*
X-00402Y-00559*
X-00396Y-00555*
X-00392Y-00549*
X-00391Y-00545*
X-00384Y-00546*
X-00378Y-00545*
X-00372Y-00541*
X-00368Y-00535*
X-00366Y-00528*
X-00368Y-00521*
X-00372Y-00515*
X-00374Y-00514*
X-00374Y-00513*
X-00376Y-0051*
X-0038Y-00506*
Y-00497*
X-00377Y-0049*
X-00376*
Y-0048*
X-00374Y-00478*
X-00373Y-00472*
X-00374Y-00466*
X-00375Y-00464*
X-00371Y-00457*
X-00331*
X-00327Y-00456*
X-00324Y-00454*
X-00313Y-00443*
X-00307Y-00448*
G37*
G36*
X-00656Y-00418D02*
Y-00435D01*
X-00655Y-00439*
X-00653Y-00442*
X-00626Y-00469*
X-00623Y-00472*
X-00619Y-00472*
X-00607*
X-00604Y-0048*
X-00687Y-00563*
X-00694Y-0056*
X-00694Y-00555*
X-00686Y-00503*
X-00676Y-00457*
X-00664Y-00416*
X-00656Y-00418*
G37*
G36*
X-00475Y-00652D02*
X-00473Y-0066D01*
X-00475Y-00661*
X-00477Y-00665*
X-00478Y-00668*
Y-00682*
X-0048Y-00689*
X-00495Y-00702*
X-00562*
X-00577Y-00687*
X-00574Y-00679*
X-00553*
X-00551Y-00679*
X-00549Y-00678*
X-00547Y-00676*
X-00547Y-00673*
X-00546Y-00668*
X-0051*
Y-00646*
X-00503Y-00646*
X-00479*
X-00475Y-00652*
G37*
G36*
X-00369Y-00754D02*
X-00369Y-00754D01*
X-00356Y-0077*
Y-00792*
X-00363Y-00795*
X-00388Y-0077*
X-00387Y-0076*
X-00374Y-00748*
X-00369Y-00754*
G37*
G36*
X-00683Y-00681D02*
Y-00683D01*
X-00682Y-00687*
X-0068Y-00691*
X-00653Y-00717*
X-0065Y-00719*
X-00649Y-00723*
X-00645Y-00729*
X-00639Y-00733*
X-00632Y-00735*
X-00626Y-00733*
X-0062Y-0073*
X-00617Y-0073*
X-00612Y-00733*
Y-00749*
X-00615Y-0075*
X-00621Y-00754*
X-00621Y-00755*
X-00628Y-00759*
X-00651*
Y-00782*
X-00648Y-0079*
X-00648Y-00791*
X-00646Y-00798*
X-00642Y-00804*
X-00637Y-00808*
X-0063Y-00809*
X-00623Y-00808*
X-00619Y-00805*
X-00606Y-00819*
X-00609Y-00825*
X-00624Y-0084*
X-00626Y-00838*
X-00641Y-00856*
X-00605Y-00887*
X-00604Y-00885*
X-00596Y-00885*
X-0056Y-00921*
X-00564Y-00928*
X-00565Y-00928*
X-00572Y-00929*
X-00577Y-00933*
X-00581Y-00939*
X-00583Y-00946*
X-00581Y-00953*
X-00577Y-00959*
X-00575Y-0096*
Y-00969*
X-00574Y-00973*
X-00572Y-00976*
X-00532Y-01016*
X-00529Y-01018*
X-00525Y-01019*
X-00524*
X-00522Y-01022*
X-00517Y-01026*
X-0051Y-01027*
X-00503Y-01026*
X-00497Y-01022*
X-00493Y-01016*
X-00492Y-01009*
X-00493Y-01002*
X-00497Y-00996*
X-00503Y-00992*
X-0051Y-00991*
X-00517Y-00992*
X-00522Y-00996*
X-00524Y-00996*
X-00552Y-00967*
X-00552Y-00959*
X-00548Y-00953*
X-00547Y-00946*
X-00547Y-00945*
X-00539Y-00941*
X-00489Y-00991*
X-00486Y-00993*
X-00482Y-00994*
X-00458*
X-00439Y-01017*
X-00438Y-01024*
X-00439Y-01026*
X-00439Y-01027*
X-00441Y-0103*
X-00444Y-01031*
X-00448Y-01033*
X-00456Y-01031*
X-00457Y-01031*
X-00458Y-01031*
X-00469Y-0103*
X-0047Y-0103*
X-00471Y-0103*
X-00482Y-01032*
X-00482Y-01032*
X-00483Y-01032*
X-00486Y-01033*
X-00486Y-01033*
X-00486Y-01033*
X-00487Y-01033*
X-00487Y-01033*
X-00487Y-01033*
X-00492Y-01035*
X-00493Y-01035*
X-00493Y-01036*
X-005Y-01039*
X-005Y-01039*
X-00501Y-0104*
X-00506Y-01044*
X-00507Y-01044*
X-00507Y-01044*
X-00512Y-01049*
X-00513Y-01049*
X-00513Y-01049*
X-00533Y-01069*
X-00541Y-0107*
X-00545Y-01066*
X-00573Y-01028*
X-00599Y-00988*
X-00624Y-00942*
X-00645Y-00895*
X-00662Y-0085*
X-00675Y-00805*
X-00686Y-00754*
X-00694Y-00702*
X-00695Y-00679*
X-00688Y-00675*
X-00683Y-00681*
G37*
G36*
X00282Y-00918D02*
X00283Y-00926D01*
X00278Y-0093*
X00276Y-00934*
X00275Y-00938*
Y-00941*
X00273Y-00943*
X00269Y-00949*
X00267Y-00956*
X00269Y-00963*
X00271Y-00967*
X00267Y-0097*
X00263Y-00976*
X00261Y-00983*
X00263Y-0099*
X00267Y-00996*
X00271Y-00998*
Y-01007*
X0027Y-0101*
X00271Y-01015*
X00273Y-01018*
X00277Y-01021*
X00277Y-01021*
X0028Y-01026*
X00277Y-01031*
X00277Y-01032*
X00277Y-01032*
X00267*
Y-01031*
X00219*
Y-01042*
X00219Y-01043*
Y-01055*
X00219Y-01055*
X00215Y-01057*
X00209Y-01063*
X00208Y-01064*
X00208Y-01064*
X002Y-01061*
X002Y-0106*
X00198Y-01057*
X00181Y-0104*
Y-01014*
X0017*
X00169Y-01006*
X0017Y-01005*
X00171Y-01005*
X00172Y-01005*
X00182Y-00999*
X0019Y-00999*
X00191Y-01*
X00196Y-01003*
X00203Y-01005*
X0021Y-01003*
X00211Y-01003*
X00216Y-01008*
X00241Y-00983*
X00215Y-00956*
X00241Y-00916*
X00251Y-00914*
X00252Y-00915*
X00259Y-00917*
X00266Y-00915*
X00271Y-00912*
X00282Y-00918*
G37*
G36*
X-00295Y-00875D02*
Y-00893D01*
X-00294Y-00897*
X-00292Y-009*
X-00277Y-00915*
X-00281Y-00922*
X-00282Y-00922*
Y-00922*
X-00334*
X-00338Y-00923*
X-00341Y-00925*
X-00376Y-0096*
X-00383Y-00959*
X-00397Y-00943*
X-00397Y-00942*
X-00401Y-00936*
X-00402Y-00927*
X-00335Y-0086*
X-00333Y-00857*
X-00332Y-00853*
Y-00848*
X-00325Y-00845*
X-00295Y-00875*
G37*
G36*
X00418Y-00897D02*
X00412D01*
Y-00929*
X0041Y-00931*
X00406Y-00936*
X00404Y-00943*
X00405Y-00949*
X00398Y-00956*
X00397Y-00956*
X0039Y-00957*
X00384Y-00961*
X00384Y-00962*
X00375*
X00374Y-00962*
X00371Y-00961*
X00368*
X00366Y-00958*
X00363Y-00956*
Y-00939*
X00397Y-00906*
X00399Y-00902*
X00399Y-00899*
Y-00887*
X00402Y-00884*
X00418*
X00418Y-00897*
G37*
G36*
X00602Y-0072D02*
X00622D01*
X00656Y-0072*
X00684Y-0072*
X0069Y-00727*
X00689Y-0073*
X0068Y-00782*
X00668Y-00828*
X00651Y-00877*
X00631Y-00925*
X0061Y-00967*
X00541Y-01069*
X00536Y-0107*
X00532Y-0107*
X00512Y-01049*
X00512Y-01049*
X00511Y-01049*
X00504Y-01043*
X00504Y-01043*
X00504Y-01042*
X00496Y-01037*
X00495Y-01037*
X00495Y-01037*
X00492Y-01035*
X00491Y-01035*
X00491Y-01035*
X00486Y-01033*
X00486Y-01033*
X00486Y-01033*
X00485Y-01033*
X00485Y-01033*
X00485Y-01033*
X00482Y-01032*
X00482Y-01032*
X00481Y-01032*
X00475Y-01031*
X00474Y-01031*
X00473Y-01031*
X00467Y-0103*
X00466Y-0103*
X00465Y-0103*
X00454Y-01031*
X00453Y-01031*
X00452Y-01031*
X00442Y-01034*
X00441Y-01035*
X0044Y-01035*
X0043Y-0104*
X00429Y-01041*
X00429Y-01041*
X0042Y-01048*
X00419Y-01049*
X00419Y-01049*
X00412Y-01058*
X00411Y-01059*
X0041Y-01059*
X00405Y-01069*
X00405Y-0107*
X00404Y-01071*
X00401Y-01081*
X00401Y-01082*
X00401Y-01083*
X00399Y-01094*
X00399Y-01095*
X00399Y-01096*
X004Y-01106*
X004Y-01107*
X004Y-01108*
X00402Y-01116*
X00402Y-01116*
X00402Y-01116*
X00402Y-01117*
X00403Y-01117*
X00403Y-01117*
X00403Y-01119*
X00403Y-01119*
X00403Y-01119*
X00406Y-01126*
X00406Y-01126*
X00407Y-01127*
X0041Y-01133*
X00411Y-01133*
X00411Y-01134*
X00418Y-01143*
X00419Y-01143*
X00419Y-01143*
X00438Y-01163*
X00439Y-01171*
X00435Y-01175*
X00397Y-01203*
X00357Y-01229*
X00311Y-01254*
X00264Y-01275*
X00255Y-01278*
X00251Y-01272*
X00288Y-01235*
X00291Y-01236*
X00298Y-01234*
X00304Y-0123*
X00308Y-01225*
X00309Y-01218*
X00308Y-01211*
X00304Y-01205*
X00298Y-01201*
X00291Y-012*
X00284Y-01201*
X00278Y-01205*
X00274Y-01211*
X00273Y-01218*
X00273Y-01221*
X00234Y-01261*
X00216*
X00212Y-01262*
X00209Y-01264*
X00195Y-01278*
X00185*
X00181Y-01278*
X00178Y-0128*
X00174Y-01284*
X0009*
X00086Y-01285*
X00083Y-01287*
X00071Y-01299*
X00033*
X00029Y-01291*
X00031Y-01288*
X00034Y-01287*
X0004Y-01283*
X00042Y-0128*
X00046Y-01277*
X00052Y-01275*
X00053Y-01275*
X00113*
X00117Y-01275*
X0012Y-01272*
X00195Y-01198*
X00269*
X00272Y-01197*
X00276Y-01195*
X0029Y-01181*
X00297*
X00297Y-01181*
X00301Y-01182*
X00319*
X00323Y-01181*
X00323Y-01181*
X00359*
X00361Y-01183*
X00366Y-01187*
X00373Y-01189*
X0038Y-01187*
X00386Y-01183*
X0039Y-01178*
X00391Y-01171*
X0039Y-01164*
X00386Y-01158*
X0038Y-01154*
X00373Y-01153*
X00366Y-01154*
X00361Y-01158*
X00359Y-01161*
X0032*
X00316Y-01161*
X00316Y-01162*
X00304*
X00304Y-01161*
X003Y-01161*
X00286*
X00282Y-01161*
X00279Y-01164*
X00266Y-01177*
X00264Y-01176*
X00262Y-01168*
X00262Y-01168*
X00263Y-01166*
X00264Y-01164*
Y-01132*
X00299*
X00303Y-01131*
X00307Y-01128*
X00373Y-01062*
X0038*
Y-01051*
X0038Y-0105*
X0038Y-01049*
Y-01037*
X00396*
X004Y-01036*
X00403Y-01034*
X00414Y-01023*
X00416Y-0102*
X00417Y-01016*
Y-01014*
X00419*
Y-0099*
X00417*
X00412Y-00982*
X00414Y-00981*
X00415Y-00974*
X00414Y-00968*
X00421Y-00961*
X00422Y-00961*
X00429Y-0096*
X00435Y-00956*
X00439Y-0095*
X00441Y-00943*
X00439Y-00938*
X00442Y-00933*
X00444Y-0093*
X00535*
Y-00897*
X00511*
Y-00828*
X00484Y-00828*
Y-00806*
X00538*
X00542Y-00805*
X00545Y-00803*
X00559Y-00789*
X00568*
Y-00776*
X00569Y-00776*
X00568Y-00775*
Y-00766*
X0056*
X00559Y-00765*
X00558Y-00766*
X00545*
Y-00769*
X00544Y-00769*
X00536Y-00766*
X00512*
X00509Y-00759*
X00509Y-00759*
X00508Y-00757*
X00508Y-00757*
Y-00749*
X00473*
Y-00755*
X00445*
X00443Y-00755*
X00441Y-00757*
X0044Y-00759*
X00439Y-00761*
Y-00767*
X00431Y-00771*
X00431Y-00771*
Y-00767*
X00408*
Y-00791*
X00412*
Y-00801*
X00395*
X00389Y-00798*
X00388Y-00797*
X00385Y-00795*
Y-00784*
X00386Y-00782*
X00388Y-00775*
X00386Y-00768*
X00383Y-00762*
X00377Y-00759*
X0037Y-00757*
X00363Y-00759*
X00357Y-00762*
X00353Y-00768*
X00352Y-00775*
X00351Y-00775*
X0035Y-00777*
X0035Y-00779*
Y-00834*
X0035Y-00836*
X00351Y-00838*
X00353Y-0084*
X00356Y-0084*
X00357*
X0036Y-00848*
X00353Y-00855*
X00351Y-00858*
X00351Y-0086*
X00345Y-00862*
X00342Y-00863*
X00337Y-0086*
X0033Y-00858*
X00324Y-0086*
X00318Y-00863*
X00314Y-00869*
X00314Y-0087*
X00305Y-00874*
X00282Y-00861*
X0028Y-00854*
X003Y-00822*
X003Y-00822*
X00301Y-00822*
X00316Y-00795*
X00316Y-00795*
X00316Y-00795*
X00329Y-00767*
X00329Y-00766*
X0033Y-00766*
X0034Y-00737*
X00341Y-00734*
X00343Y-00731*
X00345Y-00728*
X00348Y-00725*
X00352Y-00723*
X00355Y-00721*
X00359Y-0072*
X00364Y-0072*
X00587*
X00602*
G37*
G36*
X00336Y-00978D02*
X00337Y-00978D01*
X0034Y-00984*
X00346Y-00988*
X00353Y-00989*
X0036Y-00988*
X00363Y-00986*
X00384*
X00384Y-00986*
X0039Y-0099*
X00395Y-00991*
Y-01014*
X00392Y-01016*
X0038*
Y-01015*
X00356*
Y-01016*
X00318*
X00317Y-01016*
X00313Y-01015*
X00308Y-0101*
X00307Y-01006*
X00307Y-01006*
Y-00997*
X00328Y-00976*
X00336Y-00978*
G37*
G36*
X00088Y-0107D02*
X00095Y-01072D01*
Y-01089*
X00095Y-01091*
X00097Y-01093*
X00099Y-01095*
X00101Y-01095*
X0011*
X00113Y-01096*
X00114Y-01101*
X00117Y-01106*
X00119Y-01107*
X00118Y-0111*
X00117Y-01112*
X00117Y-01114*
Y-01137*
X00041*
X00039Y-01138*
X00037Y-01139*
X00036Y-0114*
X00034Y-01139*
X00031Y-01138*
X00023*
X0002Y-01139*
X00018Y-0114*
X00017Y-01142*
X00016Y-01143*
X00012Y-01146*
X00008Y-01147*
X00005Y-01145*
Y-01127*
X00021Y-01111*
X00023Y-01107*
X00024Y-01103*
Y-01095*
X00031*
X00034Y-01095*
X00036Y-01093*
X00038*
X0004Y-01095*
X00042Y-01095*
X00051*
X00054Y-01095*
X00056Y-01093*
X00057*
X00059Y-01095*
X00062Y-01095*
X00071*
X00073Y-01095*
X00075Y-01093*
X00077Y-01091*
X00077Y-01089*
Y-01072*
X00083Y-01069*
X00085Y-01068*
X00088Y-0107*
G37*
G36*
X00356Y-01045D02*
X00294Y-01108D01*
X0027*
X00267Y-01101*
Y-01078*
X00267*
Y-01076*
X00275*
X00279Y-01075*
X00282Y-01073*
X00304Y-01052*
X00306Y-01048*
X00306Y-01048*
X00307Y-01046*
X00308Y-01042*
X00313Y-01037*
X00315Y-01037*
X00356*
Y-01045*
G37*
G36*
X00243Y-01101D02*
X0024Y-01108D01*
X00226*
X00226Y-01107*
X00224Y-01107*
Y-01082*
X00228Y-01078*
X00231*
X00232Y-01078*
X00243*
Y-01101*
G37*
G36*
X-00363Y-01093D02*
X-0036Y-01095D01*
X-00361Y-01103*
X-0036Y-0111*
X-00382Y-01132*
X-00385Y-01132*
X-0039Y-0113*
Y-01074*
X-00382Y-01073*
X-00363Y-01093*
G37*
G36*
X-00246Y-00996D02*
X-00244Y-00996D01*
X-00238*
X-00206Y-01028*
X-00204Y-01031*
X-00202Y-01032*
X-00201Y-01033*
X-00197Y-01035*
X-00197Y-01035*
X-00197Y-01035*
X-00195Y-01035*
X-00193Y-01035*
X-00193Y-01035*
X-00193Y-01035*
X-00191Y-01035*
X-00189Y-01035*
X-00189Y-01035*
X-00189Y-01035*
X-00189Y-01034*
X-00174Y-01043*
X-00156Y-01012*
X-00118Y-01023*
X-00119Y-01031*
X-00124*
X-00126Y-01031*
X-00128Y-01033*
X-00129Y-01035*
X-0013Y-01037*
Y-01085*
X-00129Y-01087*
X-00128Y-01089*
X-00126Y-0109*
X-00124Y-01091*
X-00067*
X-0006Y-01098*
Y-01106*
X-00052*
X-0005Y-01108*
X-0005Y-01108*
X-00047Y-01111*
X-00043Y-01113*
X-00042Y-01115*
X-00029Y-01128*
Y-01146*
X-0004*
Y-01144*
X-00073*
X-00078Y-01137*
X-00078Y-01136*
X-00077Y-0113*
X-00078Y-01123*
X-00082Y-01117*
X-00088Y-01113*
X-00095Y-01112*
X-00102Y-01113*
X-00108Y-01117*
X-00108Y-01118*
X-00118Y-0112*
X-00121Y-01118*
Y-01113*
X-00122Y-0111*
X-00124Y-01106*
X-00136Y-01095*
X-00139Y-01093*
X-00143Y-01092*
X-0016*
X-00167Y-01091*
X-00192Y-01066*
X-00197Y-0107*
X-00203Y-01075*
X-00208Y-0107*
X-00263Y-01014*
X-00264Y-01013*
X-00264Y-01011*
X-00262Y-01004*
X-00258Y-01001*
X-00257Y-00999*
X-00253Y-00995*
X-00246Y-00996*
G37*
G36*
X00258Y-01164D02*
X00123D01*
Y-01114*
X00258*
Y-01164*
G37*
G36*
X00072Y-01188D02*
X00027D01*
X00028Y-01168*
X00041*
Y-01143*
X00072*
Y-01188*
G37*
G36*
X-00173Y-01202D02*
X-00172Y-01203D01*
Y-01208*
X-00145*
Y-01222*
X-00188*
X-00193Y-01216*
X-00193Y-01215*
X-00199Y-01212*
X-00204Y-01211*
X-00207Y-01206*
X-00209Y-01203*
Y-01181*
X-00201Y-0118*
X-00195*
X-00173Y-01202*
G37*
G36*
X-00009Y-01201D02*
X-00007Y-01202D01*
X00003Y-01213*
X00006Y-01215*
X0001Y-01216*
X00013*
X00015Y-01219*
X00017Y-01226*
X00016Y-01233*
X-00007Y-01257*
X-00009Y-0126*
X-0001Y-01261*
X-00013Y-01263*
X-00017Y-01269*
X-00018Y-01276*
X-00018Y-01277*
X-00024Y-01285*
X-00081*
X-00089Y-01277*
X-00089Y-01273*
X-0009Y-01267*
X-00094Y-01261*
X-00093Y-01258*
X-00091Y-01253*
X-00061*
Y-01255*
X-00037*
Y-01232*
X-00061*
X-00062Y-01231*
X-00063Y-01221*
X-0006Y-01218*
X-00037*
Y-01194*
X-00029Y-01194*
X-00016*
X-00009Y-01201*
G37*
G36*
X00191Y-0117D02*
X00191Y-01178D01*
X00187Y-01179*
X00184Y-01181*
X00109Y-01255*
X00094*
X00091Y-01247*
X00093Y-01244*
X00094Y-01237*
X00093Y-0123*
X00089Y-01225*
X00083Y-01221*
X00076Y-01219*
X00069Y-01221*
X00063Y-01225*
X00063Y-01226*
X00055*
X00034Y-01205*
X00037Y-01197*
X00041Y-01196*
X00044Y-01194*
X00072*
X00073Y-01194*
X00078*
Y-01188*
X00078Y-01188*
Y-0117*
X00133*
X00134Y-0117*
X00191Y-0117*
G37*
%LNflytta-33-2*%
%LPC*%
G36*
X-00494Y-00377D02*
X-00498Y-00378D01*
X-00502Y-0038*
X-00506Y-00378*
X-0051Y-00377*
X-00514Y-00378*
X-00517Y-0038*
X-00519*
X-00522Y-00378*
X-00526Y-00377*
X-0053Y-00378*
X-00533Y-0038*
X-00535Y-00384*
X-00536Y-00388*
Y-00403*
X-00535Y-00407*
X-00533Y-0041*
X-0053Y-00413*
X-00526Y-00413*
X-00522Y-00413*
X-00519Y-0041*
X-00517*
X-00514Y-00413*
X-0051Y-00413*
X-00506Y-00413*
X-00502Y-00411*
X-00498Y-00413*
X-00494Y-00413*
X-00491Y-00413*
X-00487Y-0041*
X-00485Y-00407*
X-00484Y-00403*
Y-00388*
X-00485Y-00384*
X-00487Y-0038*
X-00491Y-00378*
X-00494Y-00377*
G37*
%LNflytta-33-3*%
%LPD*%
G54D10*
X-00239Y-00969D02*
D01*
X-00237Y-00969*
X-00236Y-0097*
X-00235Y-0097*
X-00234Y-00971*
X-00233Y-00971*
X-00232Y-00972*
X-0023Y-00972*
X-00229Y-00972*
X-00228Y-00972*
X-00241Y-00967D02*
D01*
X-0024Y-00968*
X-00239Y-00968*
X-00239Y-00969*
X-00221Y-00971D02*
D01*
X-00221Y-00971*
X-00221Y-00971*
X-00221Y-00971*
X-00222Y-00971*
X-00222Y-00971*
X-00222Y-00971*
X-00222Y-00971*
X-00223Y-00972*
X-00223Y-00972*
X-00223Y-00972*
X-00223Y-00972*
X-00223Y-00972*
X-0027Y-00937D02*
D01*
X-00271Y-00936*
X-00272Y-00936*
X-00273Y-00935*
X-00274Y-00934*
X-00275Y-00934*
X-00276Y-00933*
X-00277Y-00933*
X-00278Y-00932*
X-0028Y-00932*
X-00281Y-00932*
X-00282Y-00932*
X-00282Y-00932*
X-00168Y-00171D02*
X-00161Y-00178D01*
X-00188Y-00171D02*
X-00168D01*
X-00193Y-00165D02*
X-00188Y-00171D01*
X-00223Y-00165D02*
X-00193D01*
X-00233Y-0017D02*
X-00229D01*
X-00304Y-00241D02*
X-00233Y-0017D01*
X-00229D02*
X-00223Y-00165D01*
X-00161Y-00178D02*
X-00151D01*
X-00113Y-00166D02*
X-00109Y-00163D01*
X-00151Y-00178D02*
X-0014Y-00166D01*
X-00113*
X-0027Y-00937D02*
X-0024Y-00967D01*
X-00241D02*
X-0024D01*
X-00228Y-00972D02*
X-00223D01*
X-00221Y-00971D02*
X-00215D01*
X-00334Y-00932D02*
X-00282D01*
X-0029Y-00967D02*
X-00262D01*
X-00304Y-00953D02*
X-0029Y-00967D01*
X-00249Y-00982D02*
Y-00979D01*
X-00262Y-00967D02*
X-00249Y-00979D01*
Y-00982D02*
X-00244Y-00986D01*
X-00304Y-00953D02*
D01*
X-00244Y-00986D02*
X-00234D01*
X-00199Y-01021*
X-00193Y-01025D02*
X-00191Y-01023D01*
X-00199Y-01021D02*
X-00197Y-01024D01*
X-00193Y-01025*
X-00242Y-00936D02*
X-00239Y-00933D01*
X-00243Y-00938D02*
X-00242Y-00936D01*
X-0024Y-00938*
X-00285Y-00893D02*
X-00242Y-00936D01*
X-00243Y-00938D02*
X-0024D01*
X-00331Y-00958D02*
X-0031Y-00979D01*
Y-00991D02*
Y-00979D01*
Y-00991D02*
X-003Y-01D01*
X-00045Y-01156D02*
X-00013D01*
X00191Y-01188D02*
X00269D01*
X003Y-01171D02*
X00301Y-01172D01*
X00269Y-01188D02*
X00286Y-01171D01*
X00301Y-01172D02*
X00319D01*
X0032Y-01171D02*
X00373D01*
X-00052Y-01156D02*
X-00045D01*
X00319Y-01172D02*
X0032Y-01171D01*
X00286D02*
X003D01*
X00113Y-01265D02*
X00191Y-01188D01*
X00199Y-01288D02*
X00216Y-01271D01*
X00238*
X00178Y-01294D02*
X00185Y-01288D01*
X0009Y-01294D02*
X00178D01*
X00238Y-01271D02*
X00291Y-01218D01*
X00185Y-01288D02*
X00199D01*
X00053Y-01265D02*
Y-01238D01*
Y-01265D02*
X00113D01*
X0Y-01169D02*
X00003D01*
X-00128Y-01282D02*
X-00102Y-01309D01*
X00075*
X-00128Y-01282D02*
Y-01248D01*
X00075Y-01309D02*
X0009Y-01294D01*
X-00135Y-01241D02*
X-00128Y-01248D01*
X-00166Y-01248D02*
X-00152Y-01234D01*
X-0022Y-01248D02*
X-00166D01*
X-00285Y-01183D02*
X-0022Y-01248D01*
X-00183Y-01209D02*
Y-01206D01*
X-00348Y-0098D02*
X-00347D01*
X-00352Y-01002D02*
X-00326Y-01028D01*
X-00365Y-01002D02*
X-00352D01*
X-00206Y-01228D02*
X-00201Y-01233D01*
X-00241Y-01172D02*
Y-0117D01*
X-0018Y-01122D02*
X-00151D01*
X00003Y-01232D02*
Y-01225D01*
X-00003Y-01232D02*
X00003D01*
X00025Y-01237D02*
X00029D01*
X0Y-01264D02*
X00025Y-01237D01*
X0Y-01061D02*
X00013Y-01048D01*
X0Y-01079D02*
Y-01061D01*
X-00005Y-01086D02*
X0Y-01079D01*
X00095Y-01054D02*
X00099D01*
X00086Y-01034D02*
X00116D01*
X00074Y-01046D02*
X00086Y-01034D01*
X00034Y-01046D02*
X00074D01*
X00027Y-01275D02*
Y-01271D01*
X0Y-01276D02*
Y-01264D01*
X-00107Y-01273D02*
X-00085Y-01295D01*
X-00103Y-01219D02*
Y-01218D01*
X-00107Y-01243D02*
X-00079D01*
X-00123Y-01227D02*
X-00107Y-01243D01*
X-00123Y-01227D02*
Y-01211D01*
X-00096Y-01184*
X-00084Y-01177D02*
X-00075Y-01169D01*
X-00084Y-01199D02*
Y-01177D01*
X-00096Y-01184D02*
Y-01132D01*
X-00135Y-01241D02*
Y-01202D01*
X-00131Y-01128D02*
X-00115Y-01145D01*
X-00131Y-01128D02*
Y-01113D01*
X-00143Y-01102D02*
X-00131Y-01113D01*
X-00171Y-01102D02*
X-00143D01*
X-00187Y-01086D02*
X-00171Y-01102D01*
X-00414Y-00429D02*
X-00407Y-00422D01*
X-00367Y-00424D02*
X-00366Y-00423D01*
X-00424Y-00415D02*
X-00421D01*
X-00407Y-00422D02*
X-004D01*
X-00366Y-00423D02*
X-0036D01*
X-00427Y-00431D02*
X-00426Y-00429D01*
X-004Y-00422D02*
X-00399Y-00424D01*
X-0036Y-00423D02*
X-00359Y-00424D01*
X-00426Y-00429D02*
X-00414D01*
X-00399Y-00424D02*
X-00367D01*
X-00359D02*
X-00328D01*
X-00322Y-00418*
Y-00402*
X-00427Y-00415D02*
X-00424D01*
X-00421D02*
X-00399Y-00397D01*
X-00331Y-00447D02*
X-00308Y-00424D01*
X-00427Y-00447D02*
X-00331D01*
X-00308Y-00424D02*
Y-00406D01*
X-00294Y-00351D02*
X-0029Y-00345D01*
X-00289Y-00343*
Y-00334D02*
X-00285Y-00328D01*
X-00289Y-00343D02*
Y-00334D01*
X-00285Y-00328D02*
X-00222Y-00265D01*
X-00294Y-00385D02*
Y-00351D01*
X-00296Y-00387D02*
X-00294Y-00385D01*
X-00308Y-00406D02*
X-00296Y-00387D01*
X-00322Y-00402D02*
X-00314Y-00386D01*
X-00304Y-00241*
X0024Y-00953D02*
X00241Y-00955D01*
X0024Y-00953D02*
Y-00942D01*
X00245Y-00937*
Y-00933*
X00202Y-01016D02*
X00204Y-01018D01*
X0026*
X00285Y-00956D02*
Y-00938D01*
X00116Y-01034D02*
X00146Y-01064D01*
X00191Y-01081D02*
Y-01064D01*
X002Y-01016D02*
X00202D01*
X0026Y-01018D02*
X00269Y-01026D01*
X00279Y-00983D02*
X00281Y-00984D01*
X00297Y-00993D02*
X00332Y-00958D01*
X00297Y-0101D02*
Y-00993D01*
X-00224Y-00263D02*
X-00191Y-00234D01*
X-00542Y-00326D02*
X-00537Y-00321D01*
X-00421Y-00478D02*
X-00389D01*
X-00447Y-00395D02*
Y-00358D01*
X-00639Y-0077D02*
X-00598Y-00812D01*
X-0061Y-00791D02*
X-00589Y-00812D01*
X-0063Y-00791D02*
X-0061D01*
X-00201Y-01234D02*
X-00176D01*
X-00201D02*
Y-01233D01*
X-00197Y-01193D02*
X-00183Y-01206D01*
X00214Y-0098D02*
X00215Y-00981D01*
X00203Y-0098D02*
X00214D01*
X002Y-01033D02*
Y-01016D01*
X00158Y-01031D02*
X00191Y-01064D01*
X00269Y-01026D02*
X00281D01*
X-00697Y-00652D02*
Y-00603D01*
X-00695Y-00655D02*
X-00673Y-00677D01*
X-00697Y-00603D02*
X-00696Y-00586D01*
X-00588Y-00478*
X-00697Y-00652D02*
X-00695Y-00655D01*
X-00054Y-01182D02*
X-00037D01*
X-00014D02*
X-00004Y-01172D01*
X0*
X-00014Y-01182D02*
X-00002Y-01194D01*
X-00001*
X0001Y-01206*
X-00013Y-01156D02*
X0Y-01169D01*
X-00649Y-00667D02*
Y-00621D01*
X-00632Y-00684D02*
X-00594D01*
X-00649Y-00667D02*
X-00632Y-00684D01*
X-00673Y-00683D02*
X-00646Y-0071D01*
X-00639*
X-00661Y-00679D02*
Y-00616D01*
X-00643Y-00696D02*
X-00598D01*
X-00661Y-00679D02*
X-00643Y-00696D01*
X-00673Y-00683D02*
Y-00677D01*
X-00639Y-00747D02*
X-00635D01*
X-0068D02*
X-00639D01*
X-0062Y-00648D02*
X-00614Y-00654D01*
X-00578*
X-00037Y-01101D02*
X-00034Y-01104D01*
X-00661Y-00616D02*
X-00654Y-00609D01*
X-00642Y-00582D02*
X-00585Y-00525D01*
X-00649Y-00621D02*
X-00642Y-00614D01*
Y-00582*
X-00654Y-00609D02*
Y-00577D01*
X-00587Y-00494D02*
X-00577D01*
X-00654Y-00577D02*
X-00586Y-0051D01*
X-00666Y-00597D02*
Y-00573D01*
X-00587Y-00494*
X-00586Y-0051D02*
X-00577D01*
X-00669Y-00601D02*
X-00666Y-00597D01*
X-00566Y-00712D02*
X-00474D01*
X00368Y-00804D02*
X00381D01*
X004Y-00823*
X00387Y-0084D02*
X00408D01*
X00376Y-00852D02*
X00387Y-0084D01*
X0039Y-00857D02*
X00408D01*
X00372Y-00875D02*
X0039Y-00857D01*
X0037Y-00852D02*
X00376D01*
X0036Y-00862D02*
X0037Y-00852D01*
X0036Y-00868D02*
Y-00862D01*
X00372Y-00884D02*
Y-00875D01*
X00398Y-00874D02*
X00408D01*
X00389Y-00883D02*
X00398Y-00874D01*
X00274Y-00899D02*
X00283Y-0089D01*
X00259Y-00899D02*
X00274D01*
X00281Y-0101D02*
Y-00984D01*
X00285Y-00938D02*
X00312Y-00911D01*
X00331Y-00887D02*
X00332Y-00888D01*
X00331Y-00887D02*
Y-00877D01*
X0033Y-00876D02*
X00331Y-00877D01*
X0035Y-00896D02*
Y-00886D01*
X0035Y-00886*
Y-00878*
X0036Y-00868*
X0037Y-00886D02*
X00372Y-00884D01*
X-00377Y-01091D02*
X-00372Y-01096D01*
Y-01098D02*
Y-01096D01*
X-00374Y-011D02*
X-00372Y-01098D01*
X-00374Y-01105D02*
Y-011D01*
X-00377Y-01108D02*
X-00374Y-01105D01*
X-00382Y-01147D02*
X-00363Y-01128D01*
X-00382Y-01148D02*
Y-01147D01*
X-004Y-01151D02*
X-00396Y-01156D01*
X-00389*
X-00382Y-01148*
X-004Y-01151D02*
Y-01066D01*
X-00408Y-01008D02*
Y-00994D01*
X-0043Y-01036D02*
X-004Y-01066D01*
X-0043Y-01036D02*
Y-0103D01*
X-00408Y-01008*
X-00439Y-00962D02*
X-00408Y-00994D01*
X-00601Y-00732D02*
X-00599Y-00734D01*
X-00592*
X-00587Y-00739*
X-00583*
X-00598Y-00696D02*
X-0057Y-00724D01*
X-00594Y-00684D02*
X-00566Y-00712D01*
X-0057Y-00724D02*
X-00539D01*
X-0063Y-00791D02*
X-00624Y-00786D01*
X-00346Y-00502D02*
Y-00494D01*
X-00363Y-00477D02*
X-00346Y-00494D01*
X-00367Y-00502D02*
X-00346D01*
X00021Y-01206D02*
X00053Y-01238D01*
X0001Y-01206D02*
X00021D01*
X-00085Y-01295D02*
X00007D01*
X00027Y-01275*
X-00015Y-01206D02*
X00003Y-01225D01*
X-00025Y-01206D02*
X-00015D01*
X-00015Y-01243D02*
X-00003Y-01232D01*
X00013Y-01048D02*
X00032D01*
X00034Y-01046*
X-00546Y-00324D02*
X-00542Y-00321D01*
X-00537D02*
X-00523D01*
X-00516Y-00338D02*
X-00499Y-00321D01*
X-00524Y-00338D02*
X-00516D01*
X-00557Y-00371D02*
X-00524Y-00338D01*
X-00557Y-00395D02*
Y-00371D01*
X-00618Y-00338D02*
X-00577Y-00298D01*
X-00555*
X-00581D02*
X-00577D01*
X00328Y-00995D02*
X00334D01*
X00313Y-0101D02*
X00328Y-00995D01*
X00231Y-01097D02*
Y-01089D01*
Y-01097D02*
X00239Y-01106D01*
X00313Y-01061D02*
Y-01042D01*
X00268Y-01106D02*
X00313Y-01061D01*
X00239Y-01106D02*
X00268D01*
X00296Y-01045D02*
Y-01042D01*
X00275Y-01066D02*
X00296Y-01045D01*
X00313Y-01027D02*
X00368D01*
X00313Y-01026D02*
X00313Y-01027D01*
X00407Y-01016D02*
Y-01002D01*
X00396Y-01027D02*
X00407Y-01016D01*
X00368Y-01027D02*
X00396D01*
X00353Y-00935D02*
X00389Y-00899D01*
X00353Y-00971D02*
Y-00935D01*
Y-00971D02*
X00371D01*
X00373Y-00974*
X00397Y-00971D02*
X00422Y-00946D01*
X00393Y-0097D02*
X00397Y-00974D01*
X00393Y-0097D02*
Y-00967D01*
X-0045Y-00984D02*
X-00445Y-00989D01*
X-00482Y-00984D02*
X-0045D01*
X-00596Y-0087D02*
X-00482Y-00984D01*
X-00525Y-01009D02*
X-0051D01*
X-00565Y-00969D02*
X-00525Y-01009D01*
X-00565Y-00969D02*
Y-00946D01*
X-00624Y-00855D02*
X-00589Y-00819D01*
Y-00815*
X-00583*
X-00551Y-00783*
X-00606Y-0087D02*
X-00596D01*
X-00539Y-00724D02*
X-00512Y-00751D01*
X-00589Y-00815D02*
Y-00812D01*
X-00025Y-01243D02*
X-00015D01*
X-00446Y-00732D02*
Y-00713D01*
X-00468Y-00692D02*
X-00446Y-00713D01*
X-00468Y-00692D02*
Y-00668D01*
X-00432Y-00698D02*
X-00408Y-00673D01*
X-00432Y-0074D02*
Y-00698D01*
X-00633Y-00383D02*
Y-00337D01*
X-00646Y-00396D02*
X-00633Y-00383D01*
X-00646Y-00435D02*
Y-00396D01*
X-00621Y-0039D02*
Y-00342D01*
X-00633Y-00402D02*
X-00621Y-0039D01*
X-00633Y-00431D02*
Y-00402D01*
X-00609Y-00374D02*
X-00577Y-00406D01*
Y-00415D02*
Y-00406D01*
X-00359Y-0073D02*
X-00357D01*
X-00367Y-00738D02*
X-00359Y-0073D01*
X-00384Y-00721D02*
X-00367Y-00738D01*
X-00384Y-00721D02*
Y-00713D01*
X-00352Y-00756D02*
X-00345Y-00762D01*
X-00143Y-01142D02*
X-00139Y-01146D01*
X-00187Y-01142D02*
X-00143D01*
X-00212Y-0117D02*
X-00191D01*
X-00242Y-0114D02*
X-00212Y-0117D01*
X-00367Y-01058D02*
X-00354D01*
X-00349Y-01064*
X-00388Y-01038D02*
X-00367Y-01058D01*
X-00388Y-01038D02*
Y-01019D01*
X-00079Y-01223D02*
X-00062Y-01206D01*
X-00079Y-01243D02*
Y-01223D01*
Y-01243D02*
X-00049D01*
X-00533Y-00641D02*
X-00526Y-00648D01*
X-00533Y-00641D02*
X-00533D01*
X-00533D02*
X-00531Y-00639D01*
X-00419Y-00753D02*
X-00342Y-0083D01*
X-00494Y-0078D02*
X-00446Y-00732D01*
X-00507Y-0078D02*
X-00494D01*
X-00523Y-00796D02*
X-00507Y-0078D01*
X-00523Y-00797D02*
Y-00796D01*
X-00539Y-00813D02*
X-00523Y-00797D01*
X-00539Y-00813D02*
D01*
X-00539Y-00813D02*
X-00539Y-00813D01*
X-00539Y-00813D02*
X-00539D01*
X-00596Y-0087D02*
X-00539Y-00813D01*
X-00345Y-0081D02*
Y-00762D01*
Y-0081D02*
X-00285Y-00871D01*
X-00408Y-0073D02*
Y-00713D01*
Y-0073D02*
X-0039Y-00747D01*
X-00285Y-00893D02*
Y-00871D01*
X00255Y-01089D02*
X00255Y-01089D01*
Y-01066*
X00275*
X00221Y-01152D02*
X00244D01*
X00218Y-0115D02*
X00221Y-01152D01*
X00259Y-01042D02*
X00281D01*
X-00597Y-00286D02*
X-00586Y-00275D01*
X-00597Y-00301D02*
Y-00286D01*
X-00629Y-00333D02*
X-00597Y-00301D01*
X-00618Y-00338D02*
Y-00338D01*
X-00621Y-00342D02*
X-00618Y-00338D01*
X00546Y-00857D02*
Y-00821D01*
Y-00878D02*
Y-00857D01*
Y-00821D02*
X00551Y-00817D01*
X00534Y-00891D02*
X00546Y-00878D01*
Y-00816D02*
X00549D01*
X00551Y-00817*
X004Y-00823D02*
X00406Y-00817D01*
X-00062Y-01206D02*
X-00049D01*
X-00028Y-01056D02*
X-00014Y-01041D01*
X00066Y-01079D02*
Y-01057D01*
X00099Y-01054D02*
X00106Y-0106D01*
X00312Y-00911D02*
X00332D01*
X00353Y-00971D02*
X00357Y-00967D01*
X00406Y-00893D02*
X00408Y-00891D01*
X00406Y-00914D02*
Y-00893D01*
X00524Y-00817D02*
X00551D01*
X00524Y-00817D02*
X00524Y-00817D01*
X00419Y-00779D02*
X00423Y-00782D01*
X-00583Y-00359D02*
X-0057D01*
X-00589Y-00366D02*
X-00583Y-00359D01*
X-00594Y-00336D02*
X-0057D01*
X-00609Y-00351D02*
X-00594Y-00336D01*
X-00633Y-00337D02*
X-0063Y-00334D01*
X-00157Y-01154D02*
X-00143Y-01169D01*
X-00203Y-01154D02*
X-00157D01*
X-00354Y-0103D02*
X-00335Y-0105D01*
X-00357Y-0103D02*
X-00354D01*
X-00103Y-01218D02*
X-00084Y-01199D01*
X-00075Y-01169D02*
Y-01156D01*
X-00246Y-01194D02*
X-00221D01*
X-0027Y-01169D02*
X-00246Y-01194D01*
X-00271Y-01169D02*
X-0027D01*
X-00201Y-011D02*
X-0018Y-01122D01*
X-00215Y-01114D02*
X-00187Y-01142D01*
X00538Y-00796D02*
X00557Y-00777D01*
X00479Y-00796D02*
X00538D01*
X00336Y-0091D02*
X0035Y-00896D01*
X00106Y-01079D02*
Y-0106D01*
X-00439Y-00946D02*
X-00418Y-00926D01*
X-00439Y-00962D02*
Y-00946D01*
X-00342Y-00853D02*
Y-0083D01*
X-00419Y-00753D02*
Y-00753D01*
X-00585Y-00525D02*
X-00577D01*
X-00494Y-00605D02*
Y-00545D01*
X-00495Y-00605D02*
X-00494Y-00605D01*
X-00419Y-0051D02*
X-00408Y-0052D01*
X-00427Y-0051D02*
X-00419D01*
X-00384Y-00528D02*
Y-00517D01*
X-00406Y-00494D02*
X-00384Y-00517D01*
X-00427Y-00494D02*
X-00406D01*
X-00599Y-00431D02*
X-00577D01*
X-00613Y-00416D02*
X-00599Y-00431D01*
X-00618Y-00447D02*
X-00577D01*
X-00633Y-00431D02*
X-00618Y-00447D01*
X-00588Y-00478D02*
X-00577D01*
X-00367Y-00507D02*
Y-00502D01*
X-00364Y-00478D02*
X-00363Y-00477D01*
X-00368Y-00508D02*
X-00367Y-00507D01*
X-00609Y-00374D02*
Y-00351D01*
X-00388Y-00986D02*
X-00334Y-00932D01*
X-00347Y-0098D02*
X-00314Y-01013D01*
X-00191Y-0117D02*
X-00166Y-01195D01*
X-00257Y-01157D02*
X-00241Y-01172D01*
X-00257Y-01157D02*
Y-01155D01*
X-00429Y-00562D02*
D01*
X-00464Y-00636D02*
Y-00625D01*
X-00491Y-00678D02*
X-00491Y-00678D01*
X-00468Y-00668D02*
X-00444Y-00644D01*
X-00526Y-00648D02*
Y-00545D01*
X-00565Y-00656D02*
X-0056Y-0066D01*
X-00565Y-00656D02*
Y-00655D01*
X-00542Y-00567D02*
Y-00545D01*
X-00578Y-00604D02*
X-00542Y-00567D01*
X-00115Y-01175D02*
Y-01145D01*
X-00388Y-01019D02*
Y-00986D01*
X-00366Y-01001D02*
X-00365Y-01002D01*
X-00432Y-0074D02*
X-00419Y-00753D01*
X-00115Y-01145D02*
Y-01145D01*
X-00139Y-01146D02*
X-00138Y-01145D01*
X-00229Y-01128D02*
X-00203Y-01154D01*
X-00415Y-00926D02*
X-00342Y-00853D01*
X-00418Y-00926D02*
X-00415D01*
X00184Y-01123D02*
X00196D01*
X-00153Y-01182D02*
X-00122D01*
X-00136Y-01197D02*
X-00122Y-01182D01*
X-00115Y-01175*
X-00167Y-01169D02*
X-00153Y-01182D01*
X-00115Y-01145D02*
X-00113Y-01147D01*
X-00432Y-00659D02*
Y-00601D01*
X-00447Y-00674D02*
X-00432Y-00659D01*
X-00447Y-00675D02*
Y-00674D01*
X-00444Y-00644D02*
Y-00609D01*
X-00479Y-00574D02*
X-00444Y-00609D01*
X-00479Y-00574D02*
Y-00545D01*
X-00429Y-00562D02*
D01*
Y-00527*
X-00463Y-0057D02*
X-00432Y-00601D01*
X-00463Y-0057D02*
Y-00545D01*
X-00471Y-00605D02*
X-00464Y-00612D01*
Y-00625D02*
Y-00612D01*
Y-00625D02*
X-00464Y-00625D01*
X-00409Y-00543D02*
X-00408Y-00541D01*
Y-0052*
X-00429Y-00527D02*
X-00427Y-00525D01*
X00389Y-00899D02*
Y-00883D01*
X00055Y-01046D02*
X00066Y-01057D01*
X-00586Y-00275D02*
X-00536D01*
X00126Y-01139D02*
X00139D01*
X00126Y-0115D02*
Y-01139D01*
X00142Y-0115D02*
X00149Y-01143D01*
X00125Y-01151D02*
X00126Y-0115D01*
X00125Y-01154D02*
Y-01151D01*
X00106Y-01154D02*
Y-01149D01*
Y-01234D02*
Y-01198D01*
X0009Y-01182D02*
X00106Y-01198D01*
X00063Y-0115D02*
X00066Y-01154D01*
X00332Y-00958D02*
Y-00911D01*
X00422Y-00946D02*
Y-00943D01*
X00422Y-00943*
X00397Y-00974D02*
Y-00971D01*
X00422Y-00943D02*
Y-00914D01*
X00296Y-01042D02*
X00297Y-01042D01*
Y-01042D02*
Y-01042D01*
X00422Y-00914D02*
X00423Y-00914D01*
X00225Y-01148D02*
X00225Y-01148D01*
X-00493Y-00625D02*
Y-00607D01*
X-00495Y-00612D02*
Y-00605D01*
X-00493Y-00632D02*
Y-00625D01*
Y-00632D02*
X-00491Y-00634D01*
X-00494Y-00605D02*
X-00493Y-00607D01*
X-00646Y-00435D02*
X-00619Y-00462D01*
X-00577*
X00281Y-0101D02*
X00281Y-0101D01*
X00557Y-00777D02*
X00559Y-00776D01*
X-00491Y-00678D02*
Y-00658D01*
X-00491Y-00658*
X00423Y-00817D02*
Y-00782D01*
Y-00914D02*
X00439D01*
X00489Y-00777D02*
X00523D01*
X00454Y-00809D02*
Y-00799D01*
X00451Y-00811D02*
X00453Y-00809D01*
X0039Y-00929D02*
X00406Y-00914D01*
X00522Y-00874D02*
Y-00857D01*
X0049Y-00817D02*
X00507D01*
X00522Y-00857D02*
Y-0084D01*
X00473Y-00918D02*
Y-00914D01*
X00076Y-01117D02*
X00086Y-01107D01*
Y-01079*
X00066Y-01107D02*
X00076Y-01117D01*
X00507Y-00817D02*
X00524D01*
X00522Y-00891D02*
X00534D01*
X00522Y-0084D02*
X00524Y-00838D01*
Y-00817*
X00423Y-00817D02*
Y-00817D01*
X00473Y-00802D02*
X00479Y-00796D01*
X00473Y-00817D02*
Y-00802D01*
X00453Y-00809D02*
X00454D01*
G54D11*
X00013Y-01103D02*
Y-01066D01*
X-00012Y-01129D02*
X00013Y-01103D01*
X-00012Y-0113D02*
Y-01129D01*
X-00034Y-01107D02*
X-00012Y-0113D01*
X-00034Y-01107D02*
Y-01104D01*
X00013Y-01066D02*
X00018Y-01061D01*
G54D13*
X-00302Y-00205D03*
X-00138Y-00128D03*
X-00215Y-00185D03*
X00437Y-0024D03*
X00543Y-00358D03*
X00334Y-00317D03*
X00243Y-00317D03*
X00649Y-00433D03*
X00582Y-00275D03*
X-00236Y-00208D03*
X-00542Y-00429D03*
X-00543Y-00507D03*
X-00464Y-00429D03*
X-00204Y-00086D03*
X-00051Y-00164D03*
X-0033Y-00303D03*
X-00374Y-00346D03*
X00259Y-00019D03*
X-00244Y-00118D03*
X-00279Y-00251D03*
X-00283Y-00291D03*
X-00153Y-00232D03*
X-00389Y-00472D03*
X00392Y-00427D03*
X00295Y-00216D03*
X00437Y-00314D03*
X00157Y-00236D03*
X00307Y-00415D03*
X00625Y-00346D03*
X00535Y-002D03*
X00574Y-00531D03*
X00464D03*
X00354D03*
X00685D03*
X-00248Y-00019D03*
X-00106D03*
X-00208Y-00031D03*
X-00315Y-00094D03*
X-00364Y-00137D03*
X-00393Y-00185D03*
X-0044Y-00236D03*
X-00456Y-00271D03*
X-00472Y-00307D03*
X-00484Y-00362D03*
X-00059Y-00118D03*
X-00118Y-0009D03*
X-00287Y-00169D03*
X-00342Y-00216D03*
X-00401Y-00314D03*
X-00389Y-00263D03*
X-00539Y-002D03*
X00196Y-00019D03*
X-00334Y-00377D03*
X-00503Y-00248D03*
X-00578Y-00253D03*
X00118Y-00137D03*
X0D03*
X00059D03*
X00169Y-00059D03*
X-00157Y-00019D03*
X-00314D03*
X00314D03*
X00285Y-00073D03*
X-00268Y-00055D03*
X00429Y-00094D03*
X00377Y-00055D03*
X00173Y-00118D03*
X00319Y-00114D03*
X00039Y-00185D03*
X-00031Y-00208D03*
X00153Y-00179D03*
X00503Y-00433D03*
X-00059Y-00019D03*
G54D15*
X00129Y-00027D03*
X00169D03*
X-00099Y-00052D03*
X-00138D03*
X-00446Y-00358D03*
X-00413D03*
X00285Y-01143D03*
X00246D03*
X-00383Y-00402D03*
X-00343D03*
G54D16*
X-00174Y-00056D03*
Y-00095D03*
X-00064Y-00052D03*
Y-00091D03*
X0049Y-00767D03*
Y-00728D03*
X-00012Y-0113D03*
Y-0109D03*
X-00528Y-0065D03*
Y-0069D03*
X-0062Y-00648D03*
Y-00609D03*
G54D17*
X00022Y-00027D03*
X00087D03*
G54D18*
X-00213Y-00197D03*
X-00161Y-00178D03*
X-00146Y-00218D03*
X-00198Y-00237D03*
G54D19*
X-00215Y-00971D03*
X-00234Y-00939D03*
G54D20*
X-00239Y-00271D03*
X-00262Y-00247D03*
X-00336Y-00171D03*
X-00313Y-00194D03*
G54D21*
X-00109Y-00163D03*
X-00098Y-00195D03*
G54D22*
X-00426Y-00286D03*
X-00438Y-00317D03*
G54D23*
X-00312Y-00141D03*
X-00288Y-00117D03*
G54D24*
X-00639Y-0077D03*
Y-00747D03*
X-00601Y-00756D03*
Y-00732D03*
X-0057Y-00359D03*
Y-00336D03*
X-00048Y-01094D03*
Y-01117D03*
X-00491Y-00658D03*
Y-00634D03*
X00368Y-0105D03*
Y-01027D03*
X00332Y-00888D03*
Y-00911D03*
X00419Y-00756D03*
Y-00779D03*
X00524Y-00754D03*
Y-00777D03*
X00557D03*
Y-00754D03*
G54D25*
X-00523Y-00321D03*
X-00499D03*
X-00384Y-00673D03*
X-00408D03*
X-00384Y-00713D03*
X-00408D03*
X-00197Y-01193D03*
X-0022D03*
X-0016Y-01197D03*
X-00136D03*
X-00025Y-01243D03*
X-00049D03*
Y-01206D03*
X-00025D03*
X-00167Y-01169D03*
X-00143D03*
X-00138Y-01145D03*
X-00115D03*
X-00176Y-01234D03*
X-00152D03*
X0009Y-01182D03*
X00066D03*
X-00037D03*
X-00014D03*
X-00052Y-01156D03*
X-00075D03*
X00053Y-01237D03*
X00029D03*
X-00471Y-00605D03*
X-00494D03*
X-00392Y-00508D03*
X-00368D03*
X-00364Y-00478D03*
X-00388D03*
X-00536Y-00275D03*
X-00512D03*
X-00532Y-00298D03*
X-00555D03*
X00255Y-01043D03*
X00231D03*
X00231Y-01089D03*
X00255D03*
X00231Y-01066D03*
X00255D03*
X00383Y-01002D03*
X00407D03*
X00373Y-00974D03*
X00397D03*
X00343Y-00826D03*
X00367D03*
G54D26*
X-00352Y-00756D03*
X-00367Y-00738D03*
X-00375Y-00765D03*
X-0039Y-00747D03*
G54D27*
X-00624Y-00855D03*
X-00606Y-0087D03*
G54D28*
X-00243Y-01008D03*
X-00363Y-01128D03*
X-00321Y-01169D03*
X-00201Y-0105D03*
G54D29*
X-00279Y-00994D03*
X-00293Y-01008D03*
X-00307Y-01022D03*
X-00321Y-01036D03*
X-00335Y-0105D03*
X-00349Y-01064D03*
X-00363Y-01077D03*
X-00377Y-01091D03*
X-00285Y-01183D03*
X-00271Y-01169D03*
X-00257Y-01155D03*
X-00243Y-01142D03*
X-00229Y-01128D03*
X-00215Y-01114D03*
X-00201Y-011D03*
X-00187Y-01086D03*
G54D30*
X-00282Y-01089D03*
G54D31*
X-00445Y-00987D03*
X-00406Y-00955D03*
X-00368Y-00923D03*
X-0033Y-00891D03*
X-00474Y-00719D03*
X-00512Y-00751D03*
X-00551Y-00783D03*
X-00589Y-00815D03*
G54D32*
X-00459Y-00853D03*
G54D33*
X-00147Y-01036D03*
X-00179Y-01017D03*
G54D34*
X002Y-01033D03*
X00163D03*
G54D35*
X00241Y-00955D03*
X00215Y-00981D03*
G54D36*
X00283Y-0089D03*
X00311Y-00841D03*
G54D37*
X-00447Y-00395D03*
X-00463D03*
X-00479D03*
X-00494D03*
X-0051D03*
X-00526D03*
X-00542D03*
X-00557D03*
Y-00545D03*
X-00542D03*
X-00526D03*
X-0051D03*
X-00494D03*
X-00479D03*
X-00463D03*
X-00447D03*
G54D38*
X-00577Y-00415D03*
Y-00431D03*
Y-00447D03*
Y-00462D03*
Y-00478D03*
Y-00494D03*
Y-0051D03*
Y-00525D03*
X-00427D03*
Y-0051D03*
Y-00494D03*
Y-00478D03*
Y-00462D03*
Y-00447D03*
Y-00431D03*
Y-00415D03*
G54D40*
X00313Y-01042D03*
Y-01026D03*
Y-0101D03*
X00297Y-01042D03*
Y-01026D03*
Y-0101D03*
X00281Y-01042D03*
Y-01026D03*
Y-0101D03*
G54D41*
X00522Y-0084D03*
Y-00857D03*
Y-00891D03*
Y-00874D03*
X00408D03*
Y-00891D03*
Y-00857D03*
Y-0084D03*
G54D42*
X00406Y-00817D03*
X00439D03*
X00473D03*
X0049D03*
X00524D03*
X00507D03*
X00456D03*
X00423D03*
Y-00914D03*
X00456D03*
X00507D03*
X00524D03*
X0049D03*
X00473D03*
X00439D03*
X00406D03*
G54D43*
X00106Y-01154D03*
X00125D03*
X00027Y-01079D03*
X00047D03*
X00106D03*
X00125D03*
X00027Y-01154D03*
X00066D03*
X00086D03*
X00047D03*
X00086Y-01079D03*
X00066D03*
G54D44*
X00076Y-01117D03*
G54D45*
X-00085Y-01056D03*
X-00028D03*
G54D46*
X-00578Y-00654D03*
Y-00597D03*
G54D61*
X00555Y-00402D03*
G54D62*
X-00405Y-00235D02*
D01*
X-00408Y-00239*
X-00411Y-00243*
X-00414Y-00247*
X-00417Y-00252*
X-00419Y-00256*
X-00421Y-00261*
X-00423Y-00266*
X-00424Y-00271*
X-00425Y-00276*
X-00426Y-00281*
X-00426Y-00286*
X-00426Y-00287*
X-00182Y-00055D02*
D01*
X-00189Y-00055*
X-00196Y-00056*
X-00203Y-00057*
X-0021Y-00058*
X-00217Y-00061*
X-00223Y-00063*
X-00229Y-00066*
X-00235Y-0007*
X-00241Y-00074*
X-00247Y-00078*
X-00252Y-00083*
X-00253Y-00084*
X-00439Y-00318D02*
D01*
X-0044Y-0032*
X-00442Y-00321*
X-00443Y-00323*
X-00444Y-00324*
X-00444Y-00326*
X-00445Y-00328*
X-00446Y-0033*
X-00446Y-00331*
X-00447Y-00333*
X-00447Y-00335*
X-00447Y-00337*
X-00447Y-00338*
X-00101Y-00055D02*
X0D01*
X-00338Y-00169D02*
X-00311Y-00141D01*
X-00405Y-00235D02*
X-00338Y-00169D01*
X-00287Y-00118D02*
X-00253Y-00084D01*
X-00173Y-00055D02*
X-00134D01*
X-00182D02*
X-00173D01*
X-00447Y-00358D02*
Y-00338D01*
G54D63*
X-00502Y-0047D03*
G54D64*
X00204Y-0112D02*
X00299D01*
X00212Y-01077D02*
X00223Y-01066D01*
X00212Y-0112D02*
Y-01077D01*
X00034Y-0118D02*
Y-01179D01*
X00299Y-0112D02*
X00368Y-0105D01*
X00223Y-01066D02*
X00231D01*
X00231Y-01064D02*
Y-01043D01*
X00451Y-00802D02*
X00454Y-00799D01*
X00451Y-00811D02*
Y-00802D01*
G54D65*
X-00046Y-01092D02*
X-0004Y-01097D01*
X-00049Y-01089D02*
X-00046Y-01092D01*
X00127Y-01096D02*
Y-01084D01*
Y-01096D02*
X00151Y-0112D01*
Y-01135D02*
Y-0112D01*
X-00075Y-01064D02*
X-00049Y-01089D01*
X00126Y-0115D02*
X00142D01*
X-0004Y-01098D02*
X-00037Y-01101D01*
X-0004Y-01097D02*
X-0004Y-01098D01*
G54D66*
X00213Y-01124D02*
Y-0112D01*
Y-01124D02*
X00214Y-01125D01*
X00204Y-01135D02*
X00214Y-01125D01*
G54D67*
X00047Y-01079D02*
Y-01067D01*
X0004Y-01061D02*
X00047Y-01067D01*
X00018Y-01061D02*
X0004D01*
G54D68*
X00105Y-00027D03*
G54D69*
X00018Y-00027D03*
G54D70*
X-00006Y-00017D03*
G54D71*
X-00006Y-00053D03*
G54D72*
X-00591Y-00658D03*
G54D73*
X-00094Y-01061D03*
G54D74*
X00087Y-01154D03*
G54D75*
X00367Y-00807D03*
G54D76*
X00453Y-00794D03*
G54D77*
X00478Y-00773D03*
G54D78*
X00447Y-0081D03*
G54D79*
X-00542Y-0047D03*
X-00502Y-0051D03*
Y-0047D03*
Y-0043D03*
X-00462Y-0047D03*
G54D80*
X-00271Y-00988D03*
X0031Y-0115D03*
X00178Y-01234D03*
X00204Y-01227D03*
X00196Y-0126D03*
X00225Y-01247D03*
X00373Y-01171D03*
X00291Y-01218D03*
X-00183Y-01209D03*
X-00348Y-0098D03*
X-00206Y-01228D03*
X-00241Y-0117D03*
X-00151Y-01122D03*
X-00095Y-0113D03*
X00003Y-01169D03*
Y-01232D03*
X00017Y-01129D03*
X-00013Y-01047D03*
X-0011Y-01048D03*
X00095Y-01054D03*
X00027Y-01271D03*
X0Y-01276D03*
X-00107Y-01273D03*
X-00103Y-01219D03*
X-00399Y-00397D03*
X00384Y-01096D03*
X00203Y-00987D03*
X00245Y-00933D03*
X00204Y-01018D03*
X00285Y-00956D03*
X00146Y-01064D03*
X00191Y-01081D03*
X00279Y-00983D03*
X-00608Y-00767D03*
X-00354Y-00094D03*
X-00054Y-01182D03*
X-00616Y-00597D03*
X-00526Y-00684D03*
X-00677Y-00605D03*
X0037Y-00775D03*
X00368Y-00804D03*
X00259Y-00899D03*
X00313Y-00817D03*
X0033Y-00876D03*
X0037Y-00886D03*
X-00377Y-01108D03*
X-00551Y-00763D03*
X-00583Y-00739D03*
X-0063Y-00791D03*
X-00504Y-00616D03*
X-00346Y-00502D03*
X-0033Y-0047D03*
X00034Y-0118D03*
X-00069Y-01046D03*
X-00143Y-0104D03*
X-00542Y-00321D03*
X-00504Y-00298D03*
X-00577Y-00298D03*
X00312Y-01062D03*
X00383Y-01002D03*
X-0051Y-01009D03*
X-00446Y-00678D03*
X-00369Y-00686D03*
X-00357Y-0073D03*
X-00376Y-00766D03*
X-00412Y-00732D03*
X00213Y-0112D03*
X00244Y-01152D03*
X00245Y-01125D03*
X00546Y-00857D03*
Y-00816D03*
X00546Y-00732D03*
X00493Y-00732D03*
X00331Y-00793D03*
X-00565Y-00946D03*
X-00304Y-00953D03*
X-00374Y-0062D03*
X-00429Y-00562D03*
X-00464Y-00636D03*
X-00491Y-00678D03*
X-00657Y-00832D03*
X-00589Y-00366D03*
X-00529Y-00641D03*
X-00565Y-00655D03*
X-00357Y-0103D03*
X-00331Y-00958D03*
X00582Y-00883D03*
X00527Y-01057D03*
X00507Y-01034D03*
X-00366Y-01001D03*
X-00388Y-01019D03*
X-00414Y-00949D03*
X-00371Y-0091D03*
X-00409Y-00543D03*
X0019Y-01133D03*
X00106Y-01234D03*
X-0062Y-00926D03*
X00353Y-00971D03*
X00422Y-00943D03*
X00397Y-00974D03*
X00388Y-00928D03*
X00334Y-00995D03*
X-00613Y-00416D03*
X00076Y-01237D03*
X00611Y-00855D03*
X0047Y-00773D03*
X-00425Y-0009D03*
X-00384Y-00528D03*
X-00634Y-00896D03*
X-0068Y-00747D03*
X0047Y-01019D03*
X00657Y-00732D03*
X00604Y-00733D03*
X00436Y-00731D03*
X00383Y-00732D03*
X00638Y-00855D03*
X00651Y-00827D03*
X00625Y-00828D03*
X-0067Y-00486D03*
X-00671Y-00783D03*
X00624Y-008D03*
X00639Y-00883D03*
X-00632Y-00716D03*
X00076Y-01117D03*
X00045Y-01115D03*
X00106Y-0112D03*
X00451Y-00802D03*
M02*