%FSTAX23Y23*%
%MOIN*%
%SFA1B1*%

%IPPOS*%
%AMD86*
4,1,4,0.070900,-0.010200,-0.028700,0.065600,-0.070900,0.010200,0.028700,-0.065600,0.070900,-0.010200,0.0*
%
%AMD87*
4,1,4,-0.056600,0.020600,-0.020100,-0.056800,0.056600,-0.020600,0.020100,0.056800,-0.056600,0.020600,0.0*
%
%AMD89*
4,1,4,-0.064300,0.006800,-0.027500,-0.058600,0.064300,-0.006800,0.027500,0.058600,-0.064300,0.006800,0.0*
%
%ADD10C,0.007874*%
%ADD58C,0.047244*%
%ADD73C,0.015748*%
%ADD74C,0.023622*%
%ADD85C,0.031496*%
G04~CAMADD=86~9~0.0~0.0~1252.3~697.8~0.0~0.0~0~0.0~0.0~0.0~0.0~0~0.0~0.0~0.0~0.0~0~0.0~0.0~0.0~322.7~1418.0~1311.0*
%ADD86D86*%
G04~CAMADD=87~9~0.0~0.0~856.6~848.9~0.0~0.0~0~0.0~0.0~0.0~0.0~0~0.0~0.0~0.0~0.0~0~0.0~0.0~0.0~115.2~1132.0~1135.0*
%ADD87D87*%
%ADD88R,0.078657X0.045220*%
G04~CAMADD=89~9~0.0~0.0~751.5~1054.7~0.0~0.0~0~0.0~0.0~0.0~0.0~0~0.0~0.0~0.0~0.0~0~0.0~0.0~0.0~119.4~1286.0~1171.0*
%ADD89D89*%
%ADD90R,0.070012X0.080508*%
%ADD91R,0.135941X0.084256*%
%ADD92R,0.070012X0.063059*%
%ADD93R,0.051909X0.074909*%
%LNflytta-32-1*%
%LPD*%
G36*
X-00954Y00307D02*
X-00954Y00306D01*
X-00951Y00305*
X-00895*
X-00655Y00227*
X-00653Y00216*
X-00657Y00212*
X-00661Y00213*
X-00661Y00213*
X-00662Y00213*
X-00788*
X-00789Y00212*
X-0079Y00212*
X-00843Y00201*
X-00844Y00201*
X-00845Y00201*
X-00896Y00181*
X-00897Y00181*
X-00898Y00181*
X-00908Y00174*
X-00908Y00174*
X-00909Y00173*
X-00918Y00166*
X-00918Y00165*
X-00919Y00164*
X-00926Y00155*
X-00926Y00155*
X-00926Y00154*
X-01026Y-00001*
X-01026Y-00001*
X-01027Y-00001*
X-01054Y-00053*
X-01054Y-00054*
X-01054Y-00054*
X-01065Y-00083*
X-01065Y-00083*
X-01065Y-00083*
X-01073Y-00113*
X-01073Y-00114*
X-01073Y-00114*
X-01082Y-00175*
X-01082Y-00176*
X-01082Y-00176*
X-01082Y-00193*
X-01082Y-00193*
X-01082Y-00193*
X-01082Y-0021*
X-01082Y-0021*
X-01082Y-00211*
X-01073Y-00272*
X-01077Y-00275*
X-01079Y-00275*
X-01099Y-00254*
Y-00207*
X-011Y-00204*
X-01102Y-00202*
X-01116Y-00188*
Y-00153*
X-01107Y-00145*
Y-00145*
X-01105Y-00142*
X-01105Y-00139*
Y-00132*
X-01089Y-00117*
X-01089Y-00117*
X-01078Y-00105*
X-01076Y-00103*
X-01075Y-00099*
Y-00083*
X-01076Y-0008*
X-01078Y-00077*
X-01089Y-00066*
X-01092Y-00064*
X-01095Y-00064*
X-01121*
X-01124Y-00064*
X-01127Y-00066*
X-01153Y-00092*
X-01153Y-00092*
X-01161Y-001*
X-01161Y-001*
X-01173Y-00112*
X-01174Y-00114*
X-01175Y-00117*
Y-00134*
X-01174Y-00137*
X-01173Y-00139*
X-01167Y-00145*
Y-00185*
X-01168Y-00186*
X-01172Y-00187*
X-01176Y-00185*
X-01182Y-00184*
X-01187Y-00184*
X-01191Y-00182*
X-01192Y-00181*
Y-00105*
X-01193Y-00102*
X-01193Y-00102*
X-01192Y-00097*
X-01179*
X-01176Y-00097*
X-01174Y-00095*
X-01126Y-00047*
X-01126*
X-01115Y-00036*
X-01112Y-00036*
X-01106Y-0004*
X-011Y-00041*
X-01094Y-0004*
X-01089Y-00036*
X-01085Y-00031*
X-01084Y-00025*
X-01085Y-00019*
X-01089Y-00013*
X-01094Y-0001*
X-011Y-00009*
X-01104Y-0001*
X-01121Y00007*
Y00014*
X-01118Y00014*
X-01113Y00018*
X-0111Y00023*
X-01108Y00029*
X-0111Y00035*
X-01113Y00041*
X-01118Y00044*
X-01125Y00045*
X-01131Y00044*
X-01136Y00041*
X-01139Y00035*
X-01141Y00029*
X-01139Y00023*
X-01137Y0002*
Y00003*
X-01137Y0*
X-01135Y-00001*
X-0112Y-00016*
X-01121Y-00019*
X-01137Y-00036*
X-01183Y-00081*
X-01264*
X-01267Y-00082*
X-0127Y-00084*
X-01282Y-00096*
X-01287Y-00094*
Y-00049*
X-01255Y-00017*
X-01254Y-00014*
X-01253Y-00011*
Y00102*
X-0125Y00104*
X-01246Y00109*
X-01245Y00115*
X-01246Y00121*
X-0125Y00126*
X-01255Y0013*
X-01261Y00131*
X-01267Y0013*
X-01272Y00126*
X-01276Y00121*
X-01277Y00115*
X-01276Y00109*
X-01272Y00104*
X-01269Y00102*
Y-00008*
X-01295Y-00034*
X-013Y-00033*
Y00056*
X-01297Y00058*
X-01293Y00064*
X-01292Y0007*
X-01293Y00076*
X-01297Y00081*
X-01302Y00085*
X-01308Y00086*
X-01314Y00085*
X-01319Y00081*
X-01323Y00076*
X-01324Y0007*
X-01323Y00064*
X-01319Y00058*
X-01316Y00056*
Y00033*
X-01319Y00032*
X-01321Y00031*
X-01326Y00034*
X-01332Y00036*
X-01338Y00034*
X-01343Y00031*
X-01347Y00026*
X-01348Y0002*
X-01347Y00016*
X-01365Y-00001*
X-01367Y-00004*
X-01368Y-00007*
Y-00111*
X-01372Y-00116*
X-01413*
X-01416Y-00113*
X-01417Y-00112*
X-01411Y-00067*
X-01401Y-0002*
X-01386Y00029*
X-01369Y00073*
X-01347Y00121*
X-01325Y00162*
X-01311Y00182*
X-01291Y00183*
X-01178*
X-01167Y0017*
Y00049*
X-01131*
Y0018*
X-01114Y00195*
X-0096Y00309*
X-00954Y00307*
G37*
G36*
X-01319Y00007D02*
X-01316Y00006D01*
Y-00195*
X-0132Y-00199*
X-01322Y-00202*
X-01323Y-00205*
Y-00209*
X-01327Y-00211*
X-01346Y-00192*
Y-00117*
Y-00117*
X-01347Y-00114*
X-01349Y-00111*
X-01352Y-00108*
Y-0001*
X-01336Y00004*
X-01332Y00004*
X-01326Y00005*
X-01321Y00008*
X-01319Y00007*
G37*
G36*
X-01269Y-00189D02*
X-01266Y-0019D01*
X-01262*
X-0126Y-00195*
X-01262Y-00198*
X-01263Y-00205*
X-01262Y-00211*
X-01259Y-00216*
X-01254Y-00219*
X-01247Y-00221*
X-01241Y-00219*
X-01236Y-00216*
X-01233Y-00211*
X-01231Y-00205*
X-01233Y-00198*
X-01233Y-00198*
X-01229Y-00194*
X-01229Y-00194*
X-01223Y-00196*
X-01217Y-00194*
X-01212Y-00191*
X-01211Y-0019*
X-01201*
X-012Y-00191*
X-01197Y-00195*
X-01198Y-002*
X-01197Y-00206*
X-01194Y-00211*
X-01188Y-00214*
X-01182Y-00216*
X-01176Y-00214*
X-01171Y-00211*
X-0117Y-00211*
X-0117Y-00211*
X-01166Y-00212*
X-01165Y-00213*
X-01155Y-00223*
X-01159Y-00227*
X-01159Y-00226*
X-01165Y-00225*
X-01171Y-00226*
X-01176Y-0023*
X-0118Y-00235*
X-01181Y-00241*
X-0118Y-00247*
X-01176Y-00253*
X-01173Y-00255*
Y-00265*
X-0118Y-00272*
X-01182Y-00274*
X-01182Y-00277*
Y-00471*
X-01182Y-00474*
X-0118Y-00476*
X-01148Y-00508*
X-01149Y-00512*
X-01148Y-00519*
X-01147Y-00519*
X-0115Y-00524*
X-01269*
X-01269Y-00524*
X-01271Y-00519*
X-01268Y-00515*
X-01267Y-00509*
X-01268Y-00503*
X-01272Y-00498*
X-01275Y-00496*
Y-00447*
X-01244Y-00415*
X-01242Y-00413*
X-01242Y-0041*
Y-0028*
X-01242Y-00276*
X-01244Y-00274*
X-01279Y-00239*
X-01278Y-00233*
X-01277Y-00233*
X-01272Y-00229*
X-01268Y-00224*
X-01267Y-00218*
X-01268Y-00212*
X-01272Y-00207*
X-01275Y-00205*
Y-00186*
X-0127Y-00186*
X-01269Y-00189*
G37*
G36*
X-01313Y-00291D02*
X-01313Y-00295D01*
X-01312Y-00301*
X-01309Y-00306*
X-01304Y-00309*
X-013Y-0031*
X-01298Y-00315*
X-013Y-00318*
X-013Y-0032*
X-01303Y-00322*
X-01305Y-00322*
X-01306Y-00322*
X-01312Y-00321*
X-01318Y-00322*
X-01323Y-00325*
X-01327Y-00331*
X-01328Y-00337*
X-01327Y-00343*
X-01324Y-00347*
Y-00525*
X-01323Y-00528*
X-01322Y-00531*
X-01303Y-0055*
X-013Y-00552*
X-01297Y-00552*
X-01235*
X-01234Y-00557*
X-01234Y-00557*
X-0124Y-00561*
X-01243Y-00566*
X-01244Y-00572*
X-01243Y-00578*
X-0124Y-00583*
X-01234Y-00587*
X-01228Y-00588*
X-01222Y-00587*
X-01217Y-00583*
X-01215Y-0058*
X-01171*
X-01148Y-00603*
X-01151Y-00607*
X-01157Y-00602*
X-01158Y-00602*
X-01159Y-00601*
X-01169Y-00597*
X-0117Y-00597*
X-01171Y-00596*
X-01181Y-00594*
X-01182Y-00594*
X-01183Y-00594*
X-01194Y-00593*
X-01195Y-00593*
X-01196Y-00593*
X-01207Y-00595*
X-01207Y-00595*
X-01208Y-00595*
X-01211Y-00596*
X-01211Y-00596*
X-01211Y-00596*
X-01211Y-00596*
X-01212Y-00596*
X-01212Y-00596*
X-01217Y-00598*
X-01217Y-00599*
X-01218Y-00599*
X-01224Y-00602*
X-01225Y-00603*
X-01225Y-00603*
X-01231Y-00607*
X-01232Y-00607*
X-01232Y-00607*
X-01237Y-00612*
X-01238Y-00612*
X-01238Y-00613*
X-01259Y-00633*
X-0126Y-00634*
X-0126Y-00635*
X-01261Y-00635*
X-01262Y-00635*
X-01263Y-00635*
X-01264Y-00635*
X-01265Y-00634*
X-01265Y-00634*
X-0127Y-00629*
X-01298Y-00591*
X-01323Y-00551*
X-01349Y-00505*
X-0137Y-00458*
X-01387Y-00413*
X-014Y-00368*
X-01411Y-00317*
X-01415Y-00294*
X-0141Y-00292*
X-01408Y-00293*
X-0136*
X-01357Y-00295*
X-01351Y-00296*
X-01345Y-00295*
X-01342Y-00293*
X-01338*
X-01335Y-00292*
X-01334Y-00289*
Y-00277*
X-01329Y-00275*
X-01313Y-00291*
G37*
G36*
X-01275Y-00341D02*
X-01269Y-00342D01*
X-01263Y-00341*
X-01263Y-0034*
X-01258Y-00343*
Y-00406*
X-01289Y-00438*
X-0129Y-00439*
X-01295Y-00438*
Y-00359*
X-01287Y-00351*
X-01287*
X-01285Y-00348*
X-01284Y-00345*
Y-0034*
X-01284Y-0034*
X-01279Y-00338*
X-01275Y-00341*
G37*
G36*
X-0103Y-00493D02*
X-01031Y-00498D01*
X-01032Y-00498*
X-01035Y-00496*
X-01038Y-00494*
X-01041Y-00493*
X-01094*
X-01097Y-00494*
X-01099Y-00496*
X-01112Y-00508*
X-01118Y-00507*
X-01118Y-00506*
X-01121Y-00501*
X-01127Y-00498*
X-01133Y-00496*
X-01137Y-00497*
X-01166Y-00467*
Y-00363*
X-01162Y-00361*
X-0103Y-00493*
G37*
G36*
X-00137Y-00283D02*
X-00102D01*
X-00068Y-00283*
X-00037Y-00283*
X-00034Y-00287*
X-00034Y-00293*
X-00044Y-00345*
X-00056Y-00391*
X-00072Y-0044*
X-00093Y-00488*
X-00099Y-00502*
X-00101Y-00502*
X-00106Y-00502*
X-00204Y-00428*
X-00207Y-00427*
X-0021Y-00428*
X-00252Y-00484*
X-00253Y-00487*
X-00251Y-0049*
X-00243Y-00496*
X-00243Y-00501*
X-0032Y-00578*
X-00326*
X-00334Y-00579*
X-00341Y-00584*
X-00426Y-00669*
X-00448*
Y-0066*
X-00449Y-00657*
X-00452Y-00656*
X-0051*
X-00513Y-00651*
X-00512Y-0065*
X-00511Y-00644*
X-00512Y-00638*
X-00512Y-00637*
X-0051Y-00632*
X-00495*
X-00492Y-00632*
X-0049Y-0063*
X-00445Y-00586*
X-00375*
X-00372Y-00585*
X-0037Y-00584*
X-00339Y-00553*
X-00337Y-0055*
X-00337Y-00549*
X-00332Y-00548*
X-00327Y-00552*
X-00321Y-00553*
X-00314Y-00552*
X-00309Y-00548*
X-00306Y-00543*
X-00305Y-00537*
X-00306Y-00531*
X-00309Y-00526*
X-00314Y-00522*
X-00321Y-00521*
X-00327Y-00522*
X-00332Y-00526*
X-00332Y-00526*
X-00332Y-00526*
X-00337Y-00524*
X-00337Y-00523*
X-00339Y-0052*
X-00351Y-00509*
X-00353Y-00507*
X-00356Y-00507*
X-00378*
X-00391Y-00494*
X-00394Y-00492*
X-00397Y-00491*
X-00459*
X-00462Y-00492*
X-00464Y-00494*
X-00515Y-00544*
X-00518Y-00544*
X-00521Y-00539*
X-00521Y-00539*
X-00478Y-0047*
X-00472Y-0047*
X-0047Y-00473*
X-00465Y-00477*
X-00459Y-00478*
X-00452Y-00477*
X-00447Y-00473*
X-00444Y-00468*
X-00442Y-00462*
X-00444Y-00456*
X-00447Y-0045*
X-00452Y-00447*
X-00456Y-00446*
X-00459Y-00441*
X-00424Y-00385*
X-00423Y-00385*
X-00423Y-00385*
X-00408Y-00358*
X-00408Y-00358*
X-00408Y-00358*
X-00395Y-0033*
X-00395Y-00329*
X-00394Y-00329*
X-00384Y-003*
X-00383Y-00297*
X-00381Y-00294*
X-00379Y-00291*
X-00376Y-00288*
X-00372Y-00286*
X-00368Y-00284*
X-00365Y-00283*
X-0036Y-00283*
X-00357*
X-00137*
G37*
G36*
X-01065Y-00514D02*
X-01065Y-00515D01*
X-01066Y-00521*
X-01066Y-00523*
X-01067Y-00527*
X-01069Y-00528*
X-01073Y-00529*
X-01078Y-00532*
X-01081Y-00537*
X-01083Y-00544*
X-01083Y-00544*
X-01086Y-00548*
X-01091Y-00549*
X-01096Y-00553*
X-011Y-00558*
X-01101Y-00564*
X-01104Y-00567*
X-01106Y-00566*
X-01112Y-00568*
X-01118Y-00571*
X-01121Y-00576*
X-01122Y-00581*
X-01127Y-00583*
X-01127Y-00583*
X-01165Y-00545*
X-01163Y-0054*
X-01125*
X-01121Y-00539*
X-01119Y-00538*
X-0109Y-00509*
X-01067*
X-01065Y-00514*
G37*
G36*
X-00447Y-00512D02*
X-00447Y-00513D01*
X-00447Y-00515*
X-00464Y-00531*
X-00465Y-00533*
X-00466Y-00537*
Y-0055*
X-00508Y-00593*
X-0055*
X-00553Y-0059*
X-00555Y-00588*
X-00559Y-00587*
X-00585*
X-00588Y-00588*
X-0059Y-0059*
X-00606Y-00605*
X-00611Y-00606*
X-00617Y-00602*
X-00623Y-00601*
X-00629Y-00602*
X-00629Y-00602*
X-0063Y-00602*
X-00648*
X-00648Y-00597*
X-00606Y-00588*
X-00606Y-00588*
X-00605Y-00588*
X-00554Y-00568*
X-00553Y-00568*
X-00552Y-00568*
X-00545Y-00563*
X-00544Y-00564*
X-0054Y-00569*
X-00535Y-00573*
X-00529Y-00574*
X-00523Y-00573*
X-00518Y-00569*
X-00515Y-00566*
X-00514Y-00565*
X-00512Y-00564*
X-00455Y-00507*
X-00449*
X-00447Y-00512*
G37*
G36*
X-00926Y-00541D02*
X-00926Y-00542D01*
X-00926Y-00542*
X-00922Y-00548*
X-00921Y-00549*
X-00921Y-00549*
X-00916Y-00555*
X-00915Y-00555*
X-00915Y-00556*
X-00905Y-00563*
X-00904Y-00564*
X-00903Y-00564*
X-00883Y-00574*
X-00882Y-00574*
X-00881Y-00575*
X-00828Y-0059*
X-00829Y-00595*
X-00834Y-00596*
X-0084Y-006*
X-00843Y-00605*
X-00844Y-00611*
X-00843Y-00616*
X-00844Y-00617*
X-00846Y-00619*
X-00847Y-0062*
X-00849Y-0062*
X-00874*
X-00934Y-00559*
Y-00539*
X-00934Y-00538*
X-00929Y-00538*
X-00926Y-00541*
G37*
G36*
X-00152Y-00566D02*
X-00148Y-00567D01*
X-00146Y-00565*
X-00128Y-00542*
X-00124Y-00545*
X-00183Y-00633*
X-00184Y-00634*
X-00185Y-00634*
X-00186Y-00635*
X-00187Y-00635*
X-00187Y-00635*
X-00188Y-00635*
X-00189Y-00635*
X-0019Y-00634*
X-00191Y-00633*
X-00212Y-00613*
X-00212Y-00612*
X-00212Y-00612*
X-00219Y-00606*
X-0022Y-00606*
X-0022Y-00605*
X-00228Y-006*
X-00229Y-006*
X-00229Y-006*
X-00232Y-00598*
X-00233Y-00598*
X-00233Y-00598*
X-00238Y-00597*
X-00238Y-00596*
X-00238Y-00596*
X-00239Y-00596*
X-00239Y-00596*
X-00239Y-00596*
X-00242Y-00595*
X-00242Y-00595*
X-00243Y-00595*
X-00249Y-00594*
X-0025*
X-00251Y-00594*
X-00257Y-00593*
X-00258Y-00593*
X-00259Y-00593*
X-0027Y-00594*
X-00271Y-00594*
X-00272Y-00594*
X-00273Y-00595*
X-00276Y-0059*
X-00208Y-00523*
X-00152Y-00566*
G37*
G36*
X-00603Y-00656D02*
X-006Y-00657D01*
Y-00708*
X-00647Y-00755*
X-00649Y-00757*
X-00649Y-0076*
Y-00778*
X-00653Y-00781*
X-00656Y-00786*
X-00658Y-00792*
X-00656Y-00798*
X-00654Y-00802*
X-00669Y-00817*
X-00671Y-0082*
X-00672Y-00823*
Y-00826*
X-00677Y-00827*
X-00679Y-00823*
X-00685Y-00819*
X-00691Y-00818*
X-00695Y-00819*
X-00704Y-00809*
X-00707Y-00807*
X-0071Y-00807*
X-0072*
X-00726Y-008*
Y-0079*
X-0072Y-00783*
X-00688*
X-00685Y-00783*
X-00683Y-00781*
X-00659Y-00757*
X-00657Y-00754*
X-00656Y-00751*
Y-00735*
X-00657Y-00732*
X-00659Y-00729*
X-00681Y-00707*
X-00684Y-00705*
X-00687Y-00705*
X-00745*
X-00788Y-00662*
X-00786Y-00657*
X-00611*
X-00608Y-00657*
X-00605Y-00655*
X-00603Y-00656*
G37*
G36*
X-00581Y-00717D02*
Y-00812D01*
X-00618Y-00849*
X-0066*
X-00662Y-00845*
X-00658Y-0084*
X-00656Y-00838*
X-00655Y-00835*
Y-00826*
X-00636Y-00807*
X-00635Y-00807*
X-0063Y-00803*
X-00627Y-00798*
X-00625Y-00792*
X-00627Y-00786*
X-0063Y-00781*
X-00633Y-00778*
Y-00764*
X-00587Y-00717*
X-00586Y-00716*
X-00581Y-00717*
G37*
G36*
X-00317Y-0062D02*
X-00316Y-00622D01*
X-00315Y-00625*
X-00319Y-00632*
X-00319Y-00633*
X-0032Y-00634*
X-00323Y-00644*
X-00323Y-00645*
X-00323Y-00646*
X-00325Y-00657*
X-00325Y-00658*
X-00325Y-00659*
X-00324Y-00668*
X-00325Y-0067*
X-00327Y-00672*
X-00328Y-00673*
X-00329Y-00673*
X-00421Y-00725*
X-00423Y-00727*
X-00422Y-0073*
X-00385Y-00796*
X-00385Y-00796*
X-00385Y-00802*
X-00412Y-00817*
X-0046Y-00839*
X-0049Y-00849*
X-00492Y-00845*
X-00417Y-0081*
X-00415Y-00807*
X-00415Y-00804*
X-00452Y-00727*
X-00454Y-00724*
X-00454*
X-00455Y-00724*
X-00458Y-0072*
X-00457Y-00715*
X-00457Y-00713*
X-00454Y-0071*
X-00452*
X-0045Y-00709*
X-00417*
X-0041Y-00707*
X-00403Y-00703*
X-0032Y-0062*
X-00318Y-00619*
X-00317Y-0062*
G37*
G36*
X-00535Y-0067D02*
Y-00682D01*
X-00539Y-00684*
X-00542Y-0069*
X-00544Y-00696*
X-00542Y-00702*
X-00539Y-00707*
X-00534Y-00711*
X-00528Y-00712*
X-00521Y-00711*
X-0052Y-0071*
X-00492*
X-00489Y-00713*
X-00489Y-00715*
X-00488Y-00721*
X-00485Y-00727*
X-0048Y-0073*
X-0048Y-00733*
X-0048Y-00735*
X-00534Y-00761*
X-00537Y-00763*
X-00536Y-00767*
X-005Y-00844*
X-00497Y-00846*
X-00494Y-00846*
X-00493Y-00851*
X-00504Y-00855*
X-0055Y-00868*
X-00601Y-0088*
X-00602Y-0088*
X-00604Y-00875*
X-00604Y-00875*
X-00555Y-00826*
Y-00826*
X-00554Y-00824*
X-00553Y-00821*
Y-00821*
Y-00681*
X-0054Y-00668*
X-00535Y-0067*
G37*
G36*
X-00968Y-00783D02*
X-00968Y-00783D01*
X-00968Y-00783*
X-00964Y-00786*
Y-00786*
X-00965Y-00787*
X-00965Y-00788*
X-00965Y-00788*
X-00965Y-00789*
X-00965Y-0079*
Y-00813*
X-00965Y-00816*
X-00963Y-00818*
X-0096Y-00821*
X-00939Y-00842*
X-00937Y-00844*
X-00934Y-00844*
X-00874*
X-00844Y-00874*
X-00841Y-00876*
X-00843Y-0088*
X-00851Y-00879*
X-00897Y-00869*
X-00948Y-00854*
X-00992Y-00838*
X-0104Y-00816*
X-01081Y-00793*
X-01166Y-00734*
X-01166Y-00734*
X-01166Y-00733*
X-01167Y-00732*
X-01167Y-00731*
X-01167Y-0073*
X-01167Y-00729*
X-01166Y-00729*
X-01166Y-00728*
X-01165Y-00727*
X-01145Y-00706*
X-01144Y-00706*
X-01144Y-00706*
X-0114Y-00701*
X-01139Y-007*
X-01139Y-007*
X-01135Y-00695*
X-01134Y-00694*
X-01134Y-00693*
X-01129Y-00683*
X-01129Y-00682*
X-01129Y-00682*
X-01128Y-0068*
X-01128Y-0068*
X-01128Y-0068*
X-01128Y-00679*
X-01128Y-00679*
X-01128Y-00679*
X-01126Y-00671*
X-01126Y-00671*
X-01126Y-0067*
X-01125Y-00663*
X-01125Y-00662*
X-01125Y-00662*
X-01125Y-00655*
X-01125Y-00654*
X-01125Y-00653*
X-01127Y-00642*
X-01128Y-00641*
X-01128Y-00641*
X-01132Y-0063*
X-01132Y-0063*
X-01132Y-00629*
X-01138Y-00619*
X-01135Y-00616*
X-00968Y-00783*
G37*
%LNflytta-32-2*%
%LPC*%
G36*
X-01296Y00153D02*
X-01302Y00152D01*
X-01307Y00149*
X-01311Y00143*
X-01312Y00137*
X-01311Y00131*
X-01307Y00126*
X-01302Y00122*
X-01296Y00121*
X-0129Y00122*
X-01285Y00126*
X-01281Y00131*
X-0128Y00137*
X-01281Y00143*
X-01285Y00149*
X-0129Y00152*
X-01296Y00153*
G37*
G36*
X-01348Y-00338D02*
X-01355Y-00339D01*
X-0136Y-00343*
X-01363Y-00348*
X-01364Y-00354*
X-01363Y-0036*
X-0136Y-00366*
X-01355Y-00369*
X-01348Y-0037*
X-01342Y-00369*
X-01337Y-00366*
X-01334Y-0036*
X-01332Y-00354*
X-01334Y-00348*
X-01337Y-00343*
X-01342Y-00339*
X-01348Y-00338*
G37*
G36*
X-00247Y-0032D02*
X-00254Y-00322D01*
X-00259Y-00325*
X-00262Y-0033*
X-00263Y-00336*
X-00262Y-00343*
X-00261Y-00345*
X-00264Y-0035*
X-00267Y-00349*
X-00273Y-0035*
X-00278Y-00354*
X-00282Y-00359*
X-00283Y-00365*
X-00282Y-00371*
X-00278Y-00376*
X-00273Y-0038*
X-00267Y-00381*
X-00261Y-0038*
X-00256Y-00376*
X-00252Y-00371*
X-00251Y-00365*
X-00252Y-00359*
X-00254Y-00356*
X-00251Y-00352*
X-00247Y-00353*
X-00241Y-00351*
X-00236Y-00348*
X-00233Y-00343*
X-00231Y-00336*
X-00233Y-0033*
X-00236Y-00325*
X-00241Y-00322*
X-00247Y-0032*
G37*
G36*
X-00348Y-00322D02*
X-00354Y-00324D01*
X-00359Y-00327*
X-00363Y-00332*
X-00364Y-00338*
X-00363Y-00345*
X-00359Y-0035*
X-0036Y-00355*
X-00361Y-00356*
X-00364Y-00361*
X-00366Y-00367*
X-00364Y-00373*
X-00361Y-00379*
X-00356Y-00382*
X-0035Y-00383*
X-00343Y-00382*
X-00338Y-00379*
X-00335Y-00373*
X-00333Y-00367*
X-00335Y-00361*
X-00338Y-00356*
X-00337Y-0035*
X-00337Y-0035*
X-00333Y-00345*
X-00332Y-00338*
X-00333Y-00332*
X-00337Y-00327*
X-00342Y-00324*
X-00348Y-00322*
G37*
G36*
X-00387Y-00423D02*
X-00393Y-00425D01*
X-00399Y-00428*
X-00402Y-00433*
X-00403Y-0044*
X-00402Y-00446*
X-00399Y-00451*
X-00393Y-00454*
X-00387Y-00456*
X-00381Y-00454*
X-00376Y-00451*
X-00372Y-00446*
X-00371Y-0044*
X-00372Y-00433*
X-00376Y-00428*
X-00381Y-00425*
X-00387Y-00423*
G37*
G36*
X-00348Y-00434D02*
X-00354Y-00435D01*
X-00359Y-00438*
X-00363Y-00443*
X-00364Y-0045*
X-00363Y-00456*
X-00359Y-00461*
X-00354Y-00464*
X-00348Y-00466*
X-00342Y-00464*
X-00337Y-00461*
X-00333Y-00456*
X-00332Y-0045*
X-00333Y-00443*
X-00337Y-00438*
X-00342Y-00435*
X-00348Y-00434*
G37*
G36*
X-00295Y-00491D02*
X-00301Y-00492D01*
X-00307Y-00495*
X-0031Y-00501*
X-00311Y-00507*
X-0031Y-00513*
X-00307Y-00518*
X-00301Y-00521*
X-00295Y-00523*
X-00289Y-00521*
X-00284Y-00518*
X-0028Y-00513*
X-00279Y-00507*
X-0028Y-00501*
X-00284Y-00495*
X-00289Y-00492*
X-00295Y-00491*
G37*
G36*
X-0109Y-00722D02*
X-01096Y-00723D01*
X-01101Y-00727*
X-01105Y-00732*
X-01106Y-00738*
X-01105Y-00744*
X-01101Y-0075*
X-01096Y-00753*
X-0109Y-00754*
X-01084Y-00753*
X-01079Y-0075*
X-01075Y-00744*
X-01074Y-00738*
X-01075Y-00732*
X-01079Y-00727*
X-01084Y-00723*
X-0109Y-00722*
G37*
%LNflytta-32-3*%
%LPD*%
G54D10*
X-00995Y-0056D02*
Y-00545D01*
X-01014Y-00557D02*
Y-00536D01*
Y-00557D02*
X-00887Y-00685D01*
X-0087*
X-01014Y-00536D02*
X-01003Y-00525D01*
X-00995Y-0056D02*
X-0089Y-00665D01*
X-01003Y-00525D02*
Y-00508D01*
X-0105Y-00525D02*
X-01036Y-00539D01*
Y-00559D02*
Y-00539D01*
Y-00559D02*
X-00983Y-00612D01*
X-00982*
X-00888Y-00705*
X-00829*
X-00991Y-00515D02*
X-00966Y-0054D01*
Y-00572D02*
Y-0054D01*
X-00954Y-00567D02*
X-00882Y-00639D01*
X-00954Y-00567D02*
Y-00535D01*
X-00979Y-0051D02*
X-00954Y-00535D01*
X-00942Y-00562D02*
X-00877Y-00628D01*
X-00942Y-00562D02*
Y-00536D01*
X-00942Y-00535*
Y-00528*
X-00957Y-00513D02*
X-00942Y-00528D01*
X-0096Y-00513D02*
X-00957D01*
X-00967Y-00505D02*
X-0096Y-00513D01*
X-00966Y-00572D02*
X-00887Y-00651D01*
X-00979Y-0051D02*
Y-00498D01*
X-00967Y-00505D02*
Y-00494D01*
X-01067Y-00545D02*
X-00988Y-00624D01*
X-01067Y-00545D02*
Y-00544D01*
X-00988Y-00624D02*
X-00986D01*
X-00438Y-00545D02*
X-00437Y-00546D01*
X-00991Y-00515D02*
Y-00503D01*
X-01131Y-00363D02*
X-00991Y-00503D01*
X-01116Y-00362D02*
X-00979Y-00498D01*
X-01056Y-00405D02*
X-00967Y-00494D01*
X-01162Y-00349D02*
X-01003Y-00508D01*
X-01026Y-00516D02*
X-01023D01*
X-0105Y-00525D02*
Y-00521D01*
X-01094Y-00501D02*
X-01041D01*
X-00267Y-00506D02*
Y-00506D01*
X-00287Y-00526D02*
X-00267Y-00506D01*
X-01292Y-00345D02*
Y-00321D01*
X-01278Y-00306*
X-01303Y-00355D02*
X-01292Y-00345D01*
X-01303Y-00517D02*
Y-00355D01*
X-01316Y-00341D02*
X-01312Y-00337D01*
X-01316Y-00525D02*
Y-00341D01*
Y-00525D02*
X-01297Y-00544D01*
X-01177*
X-01327Y-00265D02*
X-01297Y-00295D01*
X-01327Y-00265D02*
Y-00223D01*
X-01278Y-00306D02*
Y-00286D01*
X-01315Y-00249D02*
X-01278Y-00286D01*
X-01315Y-00249D02*
Y-00205D01*
X-00303Y-00526D02*
X-00287D01*
X-00944Y-00794D02*
Y-00777D01*
X-01177Y-00544D02*
X-00944Y-00777D01*
X-00955Y-00815D02*
X-00934Y-00836D01*
X-00957Y-00813D02*
Y-0079D01*
X-01167Y-00572D02*
X-00962Y-00777D01*
X-00959Y-0078D01*
X-00956Y-00783*
Y-00789D02*
Y-00783D01*
X-00957Y-0079D02*
X-00956Y-00789D01*
X-00957Y-00813D02*
X-00955Y-00815D01*
X-00943Y-00807D02*
X-00926Y-00824D01*
X-00926Y-00788D02*
Y-00768D01*
Y-00793D02*
X-00869D01*
X-01228Y-00572D02*
X-01167D01*
X-00944Y-00794D02*
X-00943Y-00807D01*
X-00869Y-00793D02*
X-00867Y-00795D01*
X-00825Y-00837*
X-00926Y-00788D02*
X-00925Y-00792D01*
X-00961Y-00735D02*
X-00958D01*
X-00926Y-00768*
X-00926Y-00824D02*
X-00865D01*
X-00517Y-00558D02*
X-00459Y-00499D01*
X-00529Y-00558D02*
X-00517D01*
X-00458Y-00553D02*
Y-00537D01*
X-00505Y-00601D02*
X-00458Y-00553D01*
X-00553Y-00601D02*
X-00505D01*
X-00559Y-00595D02*
X-00553Y-00601D01*
X-005Y-00612D02*
X-00438Y-00551D01*
X-00558Y-00612D02*
X-005D01*
X-00563Y-00607D02*
X-00558Y-00612D01*
X-00438Y-00551D02*
Y-00546D01*
X-00535Y-00624D02*
X-00495D01*
X-00573Y-00662D02*
X-00535Y-00624D01*
X-00573Y-00816D02*
Y-00662D01*
X-00495Y-00624D02*
X-00449Y-00578D01*
X-00375*
X-00561Y-00678D02*
X-00527Y-00644D01*
X-00561Y-00821D02*
Y-00678D01*
X-01095Y-00301D02*
X-01083Y-00313D01*
X-01095Y-00301D02*
Y-00286D01*
X-01119Y-00263D02*
X-01095Y-00286D01*
X-00789Y-00745D02*
X-00773D01*
X-00829Y-00705D02*
X-00789Y-00745D01*
X-00746Y-00732D02*
X-00715D01*
X-00805Y-00673D02*
X-00746Y-00732D01*
X-00749Y-00713D02*
X-00687D01*
X-008Y-00661D02*
X-00749Y-00713D01*
X-00687D02*
X-00664Y-00735D01*
X-00849Y-00661D02*
X-008D01*
X-0089Y-00665D02*
X-00862D01*
X-00887Y-00651D02*
X-00859D01*
X-00882Y-00639D02*
X-00854D01*
X-01038Y-00659D02*
X-01001D01*
X-01106Y-00591D02*
X-01038Y-00659D01*
X-00877Y-00628D02*
X-00849D01*
X-01073Y-00565D02*
X-01002Y-00636D01*
X-01084Y-00565D02*
X-01073D01*
X-01061Y-00593D02*
X-01007Y-00647D01*
X-01075Y-00593D02*
X-01061D01*
X-01001Y-00659D02*
X-00908Y-00753D01*
X-00996Y-00647D02*
X-00903Y-00741D01*
X-01007Y-00647D02*
X-00996D01*
X-00991Y-00636D02*
X-00898Y-00729D01*
X-01002Y-00636D02*
X-00991D01*
X-00986Y-00624D02*
X-00893Y-00717D01*
X-00908Y-00753D02*
X-00882D01*
X-00903Y-00741D02*
X-00864D01*
X-00898Y-00729D02*
X-00847D01*
X-00893Y-00717D02*
X-00842D01*
X-0136Y-00111D02*
Y-00007D01*
X-01332Y0002*
X-0136Y-00111D02*
X-01354Y-00117D01*
Y-00196D02*
X-01327Y-00223D01*
X-01354Y-00196D02*
Y-00117D01*
X-00664Y-00751D02*
Y-00735D01*
X-00688Y-00775D02*
X-00664Y-00751D01*
X-00464Y-00488D02*
X-00437D01*
X-00433Y-00518D02*
X-00432Y-00519D01*
X-00395Y-00534D02*
X-00365D01*
X-00476Y-00489D02*
X-00465D01*
X-00437Y-00488D02*
X-00418Y-00469D01*
X-0041*
X-0044Y-00518D02*
X-00433D01*
X-00465Y-00489D02*
X-00464Y-00488D01*
X-00479Y-00492D02*
X-00476Y-00489D01*
X-00437Y-00546D02*
X-00407D01*
X-00397Y-00499D02*
X-00382Y-00515D01*
X-00458Y-00537D02*
X-0044Y-00518D01*
X-00407Y-00546D02*
X-00395Y-00534D01*
X-00459Y-00499D02*
X-00397D01*
X-01303Y-00226D02*
X-0125Y-0028D01*
Y-0041D02*
Y-0028D01*
X-01283Y-00443D02*
X-0125Y-0041D01*
X-01303Y-00517D02*
X-01288Y-00532D01*
X-01125*
X-01129Y00003D02*
X-011Y-00025D01*
X-01129Y00003D02*
Y00028D01*
X-01132Y-00041D02*
X-01115Y-00025D01*
X-011*
X-00733Y-00769D02*
X-00728Y-00763D01*
X-00791Y-00769D02*
X-00733D01*
X-00728Y-00763D02*
X-00713D01*
X-00723Y-00775D02*
X-00688D01*
X-00734Y-00787D02*
X-00723Y-00775D01*
X-00854Y-00673D02*
X-00805D01*
X-00688Y-00859D02*
X-00663Y-00835D01*
X-00727Y-00859D02*
X-00688D01*
X-00683Y-0087D02*
X-00669Y-00857D01*
X-00732Y-0087D02*
X-00683D01*
X-00678Y-00882D02*
X-00665Y-00869D01*
X-00737Y-00882D02*
X-00678D01*
X-00723Y-00815D02*
X-0071D01*
X-00691Y-00834*
X-00713Y-00763D02*
X-00692Y-00743D01*
X-00684*
X-0079Y-00865D02*
X-00737D01*
X-00847Y-00729D02*
X-00737Y-00839D01*
X-00734Y-00803D02*
Y-00787D01*
Y-00803D02*
X-00723Y-00815D01*
X-00742Y-00877D02*
X-00737Y-00882D01*
X-00795Y-00877D02*
X-00742D01*
X-00737Y-00865D02*
X-00732Y-0087D01*
X-00732Y-00854D02*
X-00727Y-00859D01*
X-00781Y-00854D02*
X-00732D01*
X-00737Y-00839D02*
X-00719D01*
X-0063Y-0061D02*
X-00623Y-00617D01*
X-00731Y-0061D02*
X-0063D01*
X-00839Y-00638D02*
X-00615D01*
X-00844Y-00649D02*
X-00611D01*
X-00591Y-0063*
X-00615Y-00638D02*
X-00603Y-00625D01*
X-00849Y-00628D02*
X-00839Y-00638D01*
X-00854Y-00639D02*
X-00844Y-00649D01*
X-00862Y-00665D02*
X-00854Y-00673D01*
X-01261Y-00011D02*
Y00115D01*
X-01165Y-00268D02*
Y-00241D01*
X-01144Y-00264D02*
Y-00222D01*
X-01162Y-00282D02*
X-01144Y-00264D01*
X-01131Y-00267D02*
Y-00217D01*
X-01119Y-00263D02*
Y-00212D01*
X-01107Y-00258D02*
X-01077Y-00288D01*
X-01107Y-00258D02*
Y-00207D01*
X-01083Y-00099D02*
Y-00083D01*
X-01095Y-00111D02*
X-01083Y-00099D01*
X-01095Y-00111D02*
X-01095D01*
X-01113Y-00129D02*
X-01095Y-00111D01*
X-01113Y-00139D02*
Y-00129D01*
X-01124Y-0015D02*
X-01113Y-00139D01*
X-01124Y-00191D02*
Y-0015D01*
X-01121Y-00072D02*
X-01095D01*
X-01083Y-00083*
X-01179Y-00089D02*
X-01132Y-00041D01*
X-01264Y-00089D02*
X-01179D01*
X-01083Y-00313D02*
X-01056Y-0034D01*
X-01083Y-00313D02*
X-01083D01*
X-01056Y-00405D02*
Y-0034D01*
X-01116Y-00362D02*
Y-00308D01*
X-01131Y-00363D02*
Y-00295D01*
X-01131Y-00267D02*
X-01123Y-00275D01*
Y-00276D02*
Y-00275D01*
Y-00276D02*
X-01123D01*
X-01111Y-00287*
Y-00303D02*
Y-00287D01*
X-01116Y-00308D02*
X-01111Y-00303D01*
X-01295Y-00045D02*
X-01261Y-00011D01*
X-00665Y-00869D02*
X-0061D01*
X-00669Y-00857D02*
X-00614D01*
X-00804Y-00868D02*
X-00795Y-00877D01*
X-00799Y-00856D02*
X-0079Y-00865D01*
X-00579Y-00635D02*
X-00572Y-00627D01*
X-00579Y-00635D02*
Y-00635D01*
X-00592Y-00648D02*
X-00579Y-00635D01*
X-00592Y-00711D02*
Y-00648D01*
X-0058Y-00607D02*
X-00563D01*
X-00591Y-00619D02*
X-0058Y-00607D01*
X-00585Y-00595D02*
X-00559D01*
X-00603Y-00614D02*
X-00585Y-00595D01*
X-00859Y-00651D02*
X-00849Y-00661D01*
X-00861Y-00693D02*
X-00813D01*
X-0087Y-00685D02*
X-00861Y-00693D01*
X-01283Y-00109D02*
X-01264Y-00089D01*
X-01283Y-00218D02*
Y-00109D01*
X-01167Y-00134D02*
Y-00117D01*
X-01147Y-00098D02*
X-01121Y-00072D01*
X-01147Y-00098D02*
Y-00098D01*
X-01155Y-00106D02*
X-01147Y-00098D01*
X-01155Y-00106D02*
X-01155D01*
X-01167Y-00117D02*
X-01155Y-00106D01*
X-01308Y-00198D02*
Y0007D01*
X-01315Y-00205D02*
X-01308Y-00198D01*
X-01295Y-00202D02*
Y-00045D01*
X-01303Y-0021D02*
X-01295Y-00202D01*
X-00864Y-00741D02*
X-00823Y-00783D01*
X-00882Y-00753D02*
X-00781Y-00854D01*
X-0041Y-00469D02*
X-00377Y-00503D01*
X-01162Y-00349D02*
Y-00282D01*
X-01174Y-00277D02*
X-01165Y-00268D01*
X-01174Y-00471D02*
Y-00277D01*
Y-00471D02*
X-01133Y-00512D01*
X-01159Y-00208D02*
X-01144Y-00222D01*
X-01159Y-00208D02*
Y-00142D01*
X-01147Y-00201D02*
X-01131Y-00217D01*
X-01147Y-00201D02*
Y-00125D01*
X-01135Y-00196D02*
X-01119Y-00212D01*
X-01283Y-00509D02*
Y-00443D01*
X-01041Y-00501D02*
X-01026Y-00516D01*
X-00865Y-00824D02*
X-00833Y-00856D01*
X-00934Y-00836D02*
X-0087D01*
X-00838Y-00868*
X-0061Y-00869D02*
X-00561Y-00821D01*
X-01128Y-00106D02*
X-01125Y-00109D01*
Y-00134D02*
Y-00109D01*
X-01135Y-00196D02*
Y-00145D01*
X-01124Y-00191D02*
X-01107Y-00207D01*
X-01135Y-00145D02*
X-01125Y-00134D01*
X-01167Y-00134D02*
X-01159Y-00142D01*
X-01303Y-00226D02*
Y-0021D01*
X-01106Y-00591D02*
Y-00582D01*
X-00842Y-00717D02*
X-00791Y-00769D01*
X-00823Y-00783D02*
X-00822D01*
X-00663Y-00835D02*
Y-00823D01*
X-00641Y-00801*
X-00833Y-00856D02*
X-00799D01*
X-00838Y-00868D02*
X-00804D01*
X-01085Y-00564D02*
X-01084Y-00565D01*
X-01125Y-00532D02*
X-01094Y-00501D01*
X-00603Y-00625D02*
Y-00614D01*
X-00591Y-0063D02*
Y-00619D01*
X-00614Y-00857D02*
X-00573Y-00816D01*
X-00377Y-00503D02*
X-00346D01*
X-00641Y-0076D02*
X-00592Y-00711D01*
X-00641Y-00801D02*
Y-0076D01*
X-00382Y-00515D02*
X-00356D01*
X-00375Y-00578D02*
X-00345Y-00547D01*
Y-00526*
X-00356Y-00515D02*
X-00345Y-00526D01*
X-00346Y-00503D02*
X-00332Y-00517D01*
X-00312D02*
X-00303Y-00526D01*
X-00332Y-00517D02*
X-00312D01*
G54D58*
X-00167Y00034D03*
G54D73*
X-01261Y-00033D03*
X-01221Y-00073D03*
Y-00033D03*
Y00006D03*
X-01181Y-00033D03*
G54D74*
X-00988Y00067D03*
X-00973Y00092D03*
X-01049Y00116D03*
X-01057Y00062D03*
X-01036Y00204D03*
X-00955Y00191D03*
X-01065Y00092D03*
X-01105Y00177D03*
X-01059Y00145D03*
X-01082Y00157D03*
X-00998Y00243D03*
X-01019Y00224D03*
X-01059Y00178D03*
X-00968Y00265D03*
X-00931Y0029D03*
X-00728Y0023D03*
X-00742Y00256D03*
X-00776Y00256D03*
X-00968Y00305D03*
X-00995Y-00545D03*
X-01059Y00218D03*
X-01023Y-00516D03*
X-0105Y-00521D03*
X-0078Y00221D03*
X-01019Y00264D03*
X-00998Y00283D03*
X-00267Y-00506D03*
X-00295Y-00507D03*
X-01312Y-00337D03*
X-01297Y-00295D03*
X-00568Y-00859D03*
X-00529Y-0085D03*
X-00465Y-00796D03*
X-0054Y-00746D03*
X-00612Y-00792D03*
X-00641D03*
X-00328Y-00732D03*
X-0034Y-00662D03*
X-01036Y00244D03*
X-00925Y-00792D03*
X-00902Y-00772D03*
X-00527Y-00644D03*
X-00513Y-00581D03*
X-00529Y-00558D03*
X-00773Y-00745D03*
X-00701Y-00692D03*
X-00715Y-00732D03*
X-01335Y-0016D03*
X-01245Y-00247D03*
X-01396Y-00168D03*
X-00348Y-00338D03*
X-0035Y-00367D03*
X-00438Y-00546D03*
X-00432Y-00519D03*
X-00459Y-00462D03*
X-00405Y-0038D03*
X-00387Y-0044D03*
X-00348Y-0045D03*
X-00479Y-00492D03*
X-01096Y-00672D03*
X-01269Y-00326D03*
X-01348Y-00354D03*
X-01223Y-00179D03*
X-011Y-00025D03*
X-01065Y-00066D03*
X-01048Y-00033D03*
X-01125Y00029D03*
X-00715Y-00795D03*
X-00719Y-00839D03*
X-00684Y-00743D03*
X-00788Y-00609D03*
X-00731Y-0061D03*
X-00862Y-00603D03*
X-01261Y00115D03*
X-01223Y00138D03*
X-01296Y00137D03*
X-01118Y00151D03*
X-01117Y00095D03*
X-01192Y00179D03*
X-01193Y00152D03*
X-01193Y00099D03*
X-01193Y00125D03*
X-01193Y00072D03*
X-00406Y-00626D03*
X-00334Y-00565D03*
X-01228Y-00572D03*
X-00828Y-00611D03*
X-01165Y-00241D03*
X-01088Y-00249D03*
X-01226Y00184D03*
X-01075Y-00293D03*
X-01095Y-00329D03*
X-01131Y-00295D03*
X-0108Y00119D03*
X-00505Y-00684D03*
X-00473Y-00715D03*
X-00473Y-00689D03*
X-00171Y-0042D03*
Y-00379D03*
X-00171Y-00295D03*
X-00224Y-00295D03*
X-00387Y-00356D03*
X-00623Y-00617D03*
X-0087Y-00685D03*
X-0096Y-00733D03*
X-01283Y-00509D03*
X-01093Y-00183D03*
X-01147Y-00125D03*
X-01182Y-002D03*
X-0121Y-00241D03*
X-01376Y-00395D03*
X-01308Y0007D03*
X-00886Y00293D03*
X-00811Y00264D03*
X-00842Y00285D03*
X-01247Y-00205D03*
X-01283Y-00218D03*
X-00813Y-00693D03*
X-00822Y-00783D03*
X-01075Y-00593D03*
X-00825Y-00837D03*
X-00691Y-00834D03*
X-01067Y-00544D03*
X-0014Y-0032D03*
X-0019Y-0062D03*
X-0021Y-00598D03*
X-01085Y-00564D03*
X-01106Y-00582D03*
X-00572Y-00627D03*
X-01133Y-00512D03*
X-0109Y-00473D03*
X-01128Y-00106D03*
X-00528Y-00696D03*
X-01339Y-00489D03*
X-00365Y-00534D03*
X-00321Y-00537D03*
X-0033Y-00491D03*
X-00384Y-00558D03*
X-01238Y00075D03*
X-01332Y0002D03*
X-0109Y-00738D03*
X-00128Y-00404D03*
X-00247Y-00336D03*
X-01082Y00197D03*
X-01103Y-00091D03*
X-01353Y-00459D03*
X-01399Y-0031D03*
X-00247Y-00582D03*
X-00061Y-00295D03*
X-00114Y-00296D03*
X-00282Y-00295D03*
X-00334Y-00295D03*
X-00067Y-00356D03*
X-00088Y-00376D03*
X-00114Y-00377D03*
X-01389Y-00049D03*
X-0127Y00183D03*
X-01297Y00183D03*
X-0139Y-00346D03*
X-00116Y-00349D03*
X-00088Y-0034D03*
X-01351Y-0028D03*
X-00641Y-0068D03*
X-00673Y-00678D03*
X-00612Y-00683D03*
X-00267Y-00365D03*
G54D85*
X-00311Y-00598D02*
X-00201Y-00487D01*
X-00326Y-00598D02*
X-00311D01*
X-00417Y-00689D02*
X-00326Y-00598D01*
X-00473Y-00689D02*
X-00417D01*
G54D86*
X-00178Y-00497D03*
G54D87*
X-00476Y-00785D03*
G54D88*
X-00491Y-00683D03*
G54D89*
X-00354Y-00735D03*
G54D90*
X-01231Y-00146D03*
G54D91*
X-00135Y-0035D03*
G54D92*
X-01373Y-00257D03*
G54D93*
X-01388Y-00157D03*
M02*