%FSTAX23Y23*%
%MOIN*%
%SFA1B1*%

%IPPOS*%
%ADD10C,0.007874*%
%ADD11C,0.009843*%
%ADD12C,0.010000*%
%ADD13C,0.003937*%
%LNflytta-32-1*%
%LPD*%
G36*
X-00267Y-00022D02*
Y-00032D01*
X-00272*
Y-00022*
X-00281Y-00007*
X-00275*
X-00269Y-00017*
X-00263Y-00007*
X-00257*
X-00267Y-00022*
G37*
G36*
X-00168Y-00026D02*
X-00177D01*
Y-00021*
X-00168*
Y-00026*
G37*
G36*
X-00148Y-00007D02*
X-00147Y-00007D01*
X-00147Y-00007*
X-00147Y-00007*
X-00146Y-00007*
X-00145Y-00008*
X-00145Y-00008*
X-00144Y-00008*
X-00144Y-00008*
X-00143Y-00009*
X-00143Y-00009*
X-00142Y-00009*
X-00142Y-00009*
X-00142Y-00009*
X-00142Y-00009*
X-00142Y-0001*
X-00142Y-0001*
X-00142Y-00011*
X-00141Y-00011*
X-00141Y-00012*
X-00141Y-00013*
X-00141Y-00013*
X-00141Y-00014*
Y-00014*
Y-00014*
X-00141Y-00014*
X-00141Y-00014*
X-00141Y-00014*
X-00141Y-00015*
X-00141Y-00015*
X-00141Y-00015*
X-00141Y-00016*
X-00142Y-00016*
X-00142Y-00017*
X-00142Y-00017*
X-00143Y-00018*
X-00143Y-00018*
X-00144Y-00018*
X-00144Y-00019*
X-00144*
X-00144Y-00019*
X-00144*
X-00144Y-00019*
X-00144Y-00019*
X-00143Y-00019*
X-00143Y-0002*
X-00142Y-0002*
X-00141Y-0002*
X-00141Y-00021*
X-00141Y-00021*
X-00141Y-00021*
X-0014Y-00022*
X-0014Y-00022*
X-0014Y-00023*
X-0014Y-00023*
X-0014Y-00024*
X-0014Y-00025*
Y-00025*
Y-00025*
Y-00025*
X-0014Y-00025*
X-0014Y-00026*
X-0014Y-00026*
X-0014Y-00026*
X-0014Y-00027*
X-0014Y-00028*
X-0014Y-00028*
X-00141Y-00029*
X-00141Y-00029*
X-00141Y-0003*
X-00142Y-0003*
X-00142Y-00031*
X-00142Y-00031*
X-00142Y-00031*
X-00142Y-00031*
X-00142Y-00031*
X-00143Y-00031*
X-00143Y-00031*
X-00143Y-00031*
X-00144Y-00032*
X-00144Y-00032*
X-00145Y-00032*
X-00145Y-00032*
X-00146Y-00032*
X-00146Y-00033*
X-00147Y-00033*
X-00147Y-00033*
X-00148Y-00033*
X-00148*
X-00149Y-00033*
X-00149Y-00033*
X-00149Y-00033*
X-0015Y-00033*
X-0015Y-00033*
X-00151Y-00032*
X-00152Y-00032*
X-00152Y-00032*
X-00153Y-00032*
X-00153Y-00031*
X-00154Y-00031*
X-00154Y-00031*
X-00154Y-00031*
X-00154Y-00031*
X-00154Y-00031*
X-00154Y-0003*
X-00154Y-0003*
X-00155Y-0003*
X-00155Y-00029*
X-00155Y-00029*
X-00155Y-00029*
X-00156Y-00028*
X-00156Y-00027*
X-00156Y-00026*
X-00156Y-00026*
X-00152Y-00025*
Y-00025*
Y-00025*
X-00152Y-00025*
X-00151Y-00026*
X-00151Y-00026*
X-00151Y-00027*
X-00151Y-00027*
X-00151Y-00028*
X-0015Y-00028*
X-0015Y-00028*
X-0015Y-00028*
X-0015Y-00028*
X-0015Y-00028*
X-00149Y-00029*
X-00149Y-00029*
X-00149Y-00029*
X-00148Y-00029*
X-00148*
X-00148Y-00029*
X-00148Y-00029*
X-00147Y-00029*
X-00147Y-00029*
X-00146Y-00028*
X-00146Y-00028*
X-00146Y-00028*
X-00145Y-00028*
X-00145Y-00027*
X-00145Y-00027*
X-00145Y-00027*
X-00145Y-00026*
X-00145Y-00026*
X-00145Y-00025*
X-00144Y-00025*
Y-00025*
Y-00025*
Y-00024*
X-00145Y-00024*
X-00145Y-00024*
X-00145Y-00023*
X-00145Y-00023*
X-00145Y-00022*
X-00145Y-00022*
X-00146Y-00022*
X-00146Y-00022*
X-00146Y-00021*
X-00146Y-00021*
X-00147Y-00021*
X-00147Y-00021*
X-00147Y-00021*
X-00148Y-00021*
X-00148*
X-00148Y-00021*
X-00149Y-00021*
X-00149Y-00021*
X-0015Y-00021*
X-0015Y-00021*
X-0015Y-00017*
X-00149*
X-00149Y-00017*
X-00148Y-00017*
X-00148Y-00017*
X-00147Y-00017*
X-00147Y-00017*
X-00147Y-00016*
X-00147Y-00016*
X-00146Y-00016*
X-00146Y-00016*
X-00146Y-00016*
X-00146Y-00015*
X-00146Y-00015*
X-00146Y-00014*
X-00145Y-00014*
Y-00014*
Y-00014*
X-00146Y-00013*
X-00146Y-00013*
X-00146Y-00013*
X-00146Y-00012*
X-00146Y-00012*
X-00146Y-00012*
X-00146Y-00012*
X-00146Y-00012*
X-00147Y-00012*
X-00147Y-00011*
X-00147Y-00011*
X-00147Y-00011*
X-00148Y-00011*
X-00148Y-00011*
X-00149*
X-00149Y-00011*
X-00149Y-00011*
X-00149Y-00011*
X-0015Y-00011*
X-0015Y-00012*
X-0015Y-00012*
X-0015Y-00012*
X-00151Y-00012*
X-00151Y-00012*
X-00151Y-00013*
X-00151Y-00013*
X-00151Y-00013*
X-00151Y-00014*
X-00151Y-00014*
X-00156Y-00014*
Y-00014*
X-00156Y-00014*
Y-00013*
X-00156Y-00013*
X-00156Y-00013*
X-00156Y-00012*
X-00155Y-00012*
X-00155Y-00011*
X-00155Y-00011*
X-00155Y-0001*
X-00154Y-0001*
X-00154Y-0001*
X-00154Y-0001*
X-00154Y-00009*
X-00153Y-00009*
X-00153Y-00009*
X-00152Y-00008*
X-00152Y-00008*
X-00152*
X-00152Y-00008*
X-00152Y-00008*
X-00151Y-00008*
X-00151Y-00007*
X-0015Y-00007*
X-0015Y-00007*
X-00149Y-00007*
X-00148Y-00007*
X-00148*
X-00148Y-00007*
G37*
G36*
X-00189Y-00032D02*
X-00195D01*
X-00197Y-00027*
X-00207*
X-00209Y-00032*
X-00214*
X-00205Y-00007*
X-00199*
X-00189Y-00032*
G37*
G36*
X-00215Y-00011D02*
X-00222D01*
Y-00032*
X-00228*
Y-00011*
X-00235*
Y-00007*
X-00215*
Y-00011*
G37*
G36*
X-00237D02*
X-00244D01*
Y-00032*
X-00249*
Y-00011*
X-00257*
Y-00007*
X-00237*
Y-00011*
G37*
G36*
X-00295Y-00028D02*
X-00282D01*
Y-00032*
X-003*
Y-00007*
X-00295*
Y-00028*
G37*
G36*
X-00304Y-00011D02*
X-00316D01*
Y-00017*
X-00306*
Y-00022*
X-00316*
Y-00032*
X-00321*
Y-00007*
X-00304*
Y-00011*
G37*
G36*
X-00128Y-00007D02*
X-00127Y-00007D01*
X-00127Y-00007*
X-00127Y-00007*
X-00126Y-00007*
X-00126Y-00007*
X-00125Y-00008*
X-00125Y-00008*
X-00124Y-00008*
X-00124Y-00008*
X-00123Y-00009*
X-00123Y-00009*
X-00123Y-0001*
X-00123Y-0001*
X-00123Y-0001*
X-00122Y-0001*
X-00122Y-0001*
X-00122Y-00011*
X-00122Y-00011*
X-00122Y-00012*
X-00121Y-00012*
X-00121Y-00013*
X-00121Y-00014*
X-00121Y-00014*
X-00121Y-00015*
X-0012Y-00016*
X-0012Y-00017*
X-0012Y-00019*
X-0012Y-0002*
Y-0002*
Y-0002*
Y-0002*
Y-0002*
Y-00021*
X-0012Y-00021*
X-0012Y-00022*
X-0012Y-00022*
X-0012Y-00023*
X-0012Y-00024*
X-00121Y-00025*
X-00121Y-00026*
X-00121Y-00026*
X-00121Y-00027*
X-00121Y-00028*
X-00122Y-00029*
X-00122Y-0003*
X-00123Y-0003*
X-00123Y-0003*
X-00123Y-0003*
X-00123Y-00031*
X-00123Y-00031*
X-00123Y-00031*
X-00123Y-00031*
X-00124Y-00031*
X-00124Y-00032*
X-00125Y-00032*
X-00125Y-00032*
X-00125Y-00032*
X-00126Y-00032*
X-00126Y-00033*
X-00127Y-00033*
X-00128Y-00033*
X-00128Y-00033*
X-00128*
X-00129Y-00033*
X-00129*
X-00129Y-00033*
X-0013Y-00033*
X-0013Y-00033*
X-0013Y-00032*
X-00131Y-00032*
X-00131Y-00032*
X-00132Y-00032*
X-00132Y-00032*
X-00133Y-00031*
X-00133Y-00031*
X-00134Y-00031*
X-00134Y-0003*
X-00134Y-0003*
X-00134Y-0003*
X-00134Y-0003*
X-00135Y-00029*
X-00135Y-00029*
X-00135Y-00029*
X-00135Y-00028*
X-00135Y-00028*
X-00136Y-00027*
X-00136Y-00026*
X-00136Y-00025*
X-00136Y-00025*
X-00136Y-00024*
X-00136Y-00022*
X-00136Y-00021*
X-00136Y-0002*
Y-0002*
Y-0002*
Y-0002*
Y-0002*
Y-00019*
X-00136Y-00019*
X-00136Y-00018*
X-00136Y-00017*
X-00136Y-00017*
X-00136Y-00016*
X-00136Y-00015*
X-00136Y-00014*
X-00136Y-00013*
X-00135Y-00013*
X-00135Y-00012*
X-00135Y-00011*
X-00134Y-0001*
X-00134Y-0001*
X-00134Y-0001*
X-00134Y-0001*
X-00134Y-00009*
X-00134Y-00009*
X-00133Y-00009*
X-00133Y-00009*
X-00133Y-00009*
X-00133Y-00008*
X-00132Y-00008*
X-00132Y-00008*
X-00131Y-00008*
X-00131Y-00007*
X-0013Y-00007*
X-0013Y-00007*
X-00129Y-00007*
X-00128Y-00007*
X-00128*
X-00128Y-00007*
G37*
G36*
X-00226Y-00058D02*
X-0023D01*
Y-00053*
X-00226*
Y-00058*
G37*
G36*
X-00157Y-00053D02*
X-00157Y-00053D01*
X-00156Y-00053*
X-00156Y-00053*
X-00155Y-00053*
X-00154Y-00053*
X-00153Y-00054*
X-00152Y-00054*
X-00152Y-00054*
X-00151Y-00055*
X-00151Y-00055*
X-00151Y-00055*
X-00151Y-00055*
X-0015Y-00055*
X-0015Y-00055*
X-0015Y-00055*
X-0015Y-00056*
X-0015Y-00056*
X-00149Y-00056*
X-00149Y-00057*
X-00149Y-00057*
X-00148Y-00058*
X-00148Y-00058*
X-00148Y-00059*
X-00148Y-00059*
X-00147Y-0006*
X-00147Y-0006*
X-00152Y-00061*
Y-00061*
X-00152Y-00061*
X-00152Y-00061*
X-00153Y-00061*
X-00153Y-0006*
X-00153Y-0006*
X-00153Y-00059*
X-00154Y-00059*
X-00154Y-00058*
X-00154Y-00058*
X-00155Y-00058*
X-00155Y-00058*
X-00155Y-00058*
X-00156Y-00058*
X-00157Y-00057*
X-00157Y-00057*
X-00158Y-00057*
X-00158*
X-00159Y-00057*
X-00159Y-00057*
X-00159Y-00057*
X-0016Y-00057*
X-0016Y-00058*
X-00161Y-00058*
X-00161Y-00058*
X-00162Y-00058*
X-00162Y-00058*
X-00163Y-00059*
X-00163Y-00059*
X-00163Y-00059*
X-00163Y-00059*
X-00163Y-0006*
X-00164Y-0006*
X-00164Y-0006*
X-00164Y-0006*
X-00164Y-0006*
X-00164Y-00061*
X-00164Y-00061*
X-00164Y-00061*
X-00165Y-00062*
X-00165Y-00062*
X-00165Y-00063*
X-00165Y-00064*
X-00165Y-00064*
X-00165Y-00065*
X-00165Y-00066*
Y-00066*
Y-00066*
Y-00066*
X-00165Y-00066*
X-00165Y-00067*
X-00165Y-00067*
X-00165Y-00068*
X-00165Y-00068*
X-00165Y-00069*
X-00164Y-0007*
X-00164Y-00071*
X-00164Y-00072*
X-00164Y-00072*
X-00163Y-00072*
X-00163Y-00073*
X-00163Y-00073*
X-00163Y-00073*
X-00163Y-00073*
X-00163Y-00073*
X-00163Y-00073*
X-00162Y-00073*
X-00162Y-00074*
X-00162Y-00074*
X-00161Y-00074*
X-0016Y-00074*
X-0016Y-00075*
X-00159Y-00075*
X-00159Y-00075*
X-00158Y-00075*
X-00158*
X-00157Y-00075*
X-00157Y-00075*
X-00157Y-00075*
X-00156Y-00074*
X-00155Y-00074*
X-00155Y-00074*
X-00155*
X-00155Y-00074*
X-00155Y-00074*
X-00154Y-00074*
X-00154Y-00074*
X-00153Y-00073*
X-00153Y-00073*
X-00153Y-00073*
X-00152Y-00073*
Y-00069*
X-00158*
Y-00065*
X-00147*
Y-00075*
X-00147Y-00075*
X-00147Y-00075*
X-00147Y-00075*
X-00147Y-00076*
X-00148Y-00076*
X-00148Y-00076*
X-00149Y-00077*
X-0015Y-00077*
X-00151Y-00077*
X-00152Y-00078*
X-00152*
X-00152Y-00078*
X-00152Y-00078*
X-00152Y-00078*
X-00152Y-00078*
X-00153Y-00078*
X-00153Y-00078*
X-00154Y-00078*
X-00154Y-00079*
X-00155Y-00079*
X-00157Y-00079*
X-00158Y-00079*
X-00158*
X-00158Y-00079*
X-00159*
X-00159Y-00079*
X-0016Y-00079*
X-0016Y-00079*
X-00161Y-00079*
X-00162Y-00078*
X-00164Y-00078*
X-00164Y-00078*
X-00165Y-00077*
X-00165Y-00077*
X-00165Y-00077*
X-00165Y-00077*
X-00165Y-00077*
X-00165Y-00077*
X-00166Y-00077*
X-00166Y-00076*
X-00166Y-00076*
X-00167Y-00076*
X-00168Y-00075*
X-00168Y-00074*
X-00169Y-00073*
Y-00073*
X-00169Y-00073*
X-00169Y-00072*
X-00169Y-00072*
X-00169Y-00072*
X-0017Y-00071*
X-0017Y-00071*
X-0017Y-00071*
X-0017Y-0007*
X-0017Y-0007*
X-0017Y-00069*
X-0017Y-00067*
X-00171Y-00066*
Y-00066*
Y-00066*
Y-00066*
X-0017Y-00065*
Y-00065*
X-0017Y-00065*
X-0017Y-00064*
X-0017Y-00064*
X-0017Y-00063*
X-0017Y-00061*
X-00169Y-0006*
X-00169Y-0006*
X-00169Y-00059*
X-00169Y-00059*
X-00169Y-00059*
X-00169Y-00059*
X-00169Y-00058*
X-00168Y-00058*
X-00168Y-00058*
X-00168Y-00058*
X-00168Y-00057*
X-00167Y-00057*
X-00167Y-00056*
X-00167Y-00056*
X-00166Y-00056*
X-00166Y-00055*
X-00165Y-00055*
X-00164Y-00054*
X-00164*
X-00164Y-00054*
X-00164Y-00054*
X-00164Y-00054*
X-00163Y-00054*
X-00163Y-00054*
X-00163Y-00054*
X-00162Y-00054*
X-00162Y-00053*
X-00162Y-00053*
X-00161Y-00053*
X-00161Y-00053*
X-00159Y-00053*
X-00158Y-00053*
X-00158*
X-00157Y-00053*
G37*
G36*
X-00302Y-00079D02*
X-00306D01*
Y-00076*
X-00306Y-00076*
X-00306Y-00076*
X-00307Y-00076*
X-00307Y-00077*
X-00307Y-00077*
X-00308Y-00078*
X-00308Y-00078*
X-00309Y-00078*
X-00309Y-00078*
X-00309Y-00078*
X-00309Y-00078*
X-0031Y-00079*
X-0031Y-00079*
X-00311Y-00079*
X-00311Y-00079*
X-00312Y-00079*
X-00312*
X-00312Y-00079*
X-00313Y-00079*
X-00313Y-00079*
X-00313Y-00079*
X-00314Y-00079*
X-00314Y-00079*
X-00315Y-00078*
X-00315Y-00078*
X-00315Y-00078*
X-00316Y-00078*
X-00316Y-00077*
X-00317Y-00077*
X-00317Y-00076*
X-00317Y-00076*
X-00317Y-00076*
X-00317Y-00076*
X-00318Y-00076*
X-00318Y-00076*
X-00318Y-00075*
X-00318Y-00075*
X-00318Y-00075*
X-00319Y-00074*
X-00319Y-00074*
X-00319Y-00073*
X-00319Y-00072*
X-00319Y-00072*
X-00319Y-00071*
X-00319Y-0007*
X-00319Y-00069*
Y-00069*
Y-00069*
Y-00069*
X-00319Y-00069*
X-00319Y-00068*
X-00319Y-00068*
X-00319Y-00067*
X-00319Y-00067*
X-00319Y-00066*
X-00319Y-00065*
X-00319Y-00064*
X-00318Y-00064*
X-00318Y-00063*
X-00318Y-00063*
X-00317Y-00062*
X-00317Y-00062*
X-00317Y-00062*
X-00317Y-00062*
X-00317Y-00062*
X-00317Y-00062*
X-00316Y-00062*
X-00316Y-00061*
X-00316Y-00061*
X-00315Y-00061*
X-00315Y-00061*
X-00314Y-0006*
X-00313Y-0006*
X-00313Y-0006*
X-00312Y-0006*
X-00312Y-0006*
X-00311*
X-00311Y-0006*
X-00311Y-0006*
X-00311Y-0006*
X-0031Y-0006*
X-0031Y-0006*
X-0031Y-0006*
X-00309Y-00061*
X-00309Y-00061*
X-00308Y-00061*
X-00308Y-00061*
X-00307Y-00062*
X-00307Y-00062*
X-00306Y-00062*
Y-00053*
X-00302*
Y-00079*
G37*
G36*
X-00121Y-0006D02*
X-00121Y-0006D01*
X-0012Y-0006*
X-0012Y-0006*
X-00119Y-0006*
X-00118Y-00061*
X-00118Y-00061*
X-00118Y-00061*
X-00118Y-00061*
X-00118Y-00061*
X-00117Y-00062*
X-00117Y-00062*
X-00117Y-00063*
X-00116Y-00063*
X-00116Y-00063*
X-00116Y-00063*
X-00116Y-00064*
X-00116Y-00064*
X-00116Y-00065*
X-00116Y-00065*
X-00116Y-00066*
X-00116Y-00067*
Y-00079*
X-00121*
Y-00068*
Y-00068*
Y-00068*
Y-00068*
Y-00068*
X-00121Y-00067*
X-00121Y-00067*
X-00121Y-00066*
X-00121Y-00066*
X-00121Y-00065*
X-00121Y-00065*
X-00121Y-00065*
X-00121Y-00065*
X-00121Y-00065*
X-00121Y-00064*
X-00122Y-00064*
X-00122Y-00064*
X-00122Y-00064*
X-00123Y-00064*
X-00123Y-00064*
X-00123*
X-00124Y-00064*
X-00124Y-00064*
X-00124Y-00064*
X-00124Y-00064*
X-00125Y-00064*
X-00125Y-00064*
X-00125Y-00064*
X-00125Y-00064*
X-00125Y-00065*
X-00126Y-00065*
X-00126Y-00065*
X-00126Y-00065*
X-00126Y-00066*
X-00126Y-00066*
Y-00066*
X-00126Y-00066*
X-00127Y-00067*
X-00127Y-00067*
X-00127Y-00068*
X-00127Y-00068*
X-00127Y-00069*
Y-0007*
Y-00079*
X-00132*
Y-00069*
Y-00069*
Y-00069*
Y-00068*
Y-00068*
Y-00068*
X-00132Y-00067*
X-00132Y-00067*
X-00132Y-00066*
X-00132Y-00066*
X-00132Y-00065*
X-00132Y-00065*
Y-00065*
X-00132Y-00065*
X-00132Y-00065*
X-00132Y-00065*
X-00132Y-00064*
X-00133Y-00064*
X-00133Y-00064*
X-00133Y-00064*
X-00133Y-00064*
X-00133Y-00064*
X-00133Y-00064*
X-00133Y-00064*
X-00134Y-00064*
X-00134Y-00064*
X-00134*
X-00135Y-00064*
X-00135Y-00064*
X-00135Y-00064*
X-00135Y-00064*
X-00136Y-00064*
X-00136Y-00064*
X-00136Y-00064*
X-00136Y-00064*
X-00136Y-00065*
X-00137Y-00065*
X-00137Y-00065*
X-00137Y-00065*
X-00137Y-00066*
X-00137Y-00066*
Y-00066*
X-00138Y-00066*
X-00138Y-00067*
X-00138Y-00067*
X-00138Y-00067*
X-00138Y-00068*
X-00138Y-00069*
Y-0007*
Y-00079*
X-00143*
Y-0006*
X-00138*
Y-00063*
X-00138Y-00063*
X-00138Y-00063*
X-00138Y-00063*
X-00138Y-00062*
X-00138Y-00062*
X-00137Y-00062*
X-00137Y-00062*
X-00137Y-00061*
X-00136Y-00061*
X-00136Y-00061*
X-00135Y-0006*
X-00134Y-0006*
X-00134Y-0006*
X-00133Y-0006*
X-00133Y-0006*
X-00132*
X-00132Y-0006*
X-00131Y-0006*
X-00131Y-0006*
X-00131Y-0006*
X-0013Y-0006*
X-00129Y-00061*
X-00129Y-00061*
X-00129Y-00061*
X-00129Y-00061*
X-00129Y-00061*
X-00128Y-00062*
X-00128Y-00062*
X-00128Y-00062*
X-00127Y-00063*
X-00127Y-00063*
X-00127Y-00063*
X-00127Y-00062*
X-00127Y-00062*
X-00126Y-00062*
X-00126Y-00061*
X-00125Y-00061*
X-00125Y-00061*
X-00125Y-00061*
X-00125Y-00061*
X-00124Y-0006*
X-00124Y-0006*
X-00123Y-0006*
X-00123Y-0006*
X-00122Y-0006*
X-00122Y-0006*
X-00121*
X-00121Y-0006*
G37*
G36*
X-0021D02*
X-00209Y-0006D01*
X-00209Y-0006*
X-00208Y-0006*
X-00208Y-0006*
X-00207Y-00061*
X-00207Y-00061*
X-00207Y-00061*
X-00207Y-00061*
X-00206Y-00061*
X-00206Y-00061*
X-00206Y-00061*
X-00205Y-00062*
X-00205Y-00062*
X-00205Y-00062*
X-00205Y-00062*
X-00205Y-00062*
X-00205Y-00063*
X-00205Y-00063*
X-00204Y-00063*
X-00204Y-00064*
X-00204Y-00064*
Y-00064*
X-00204Y-00064*
X-00204Y-00065*
X-00204Y-00065*
X-00204Y-00065*
X-00204Y-00066*
X-00204Y-00067*
Y-00067*
Y-00079*
X-00209*
Y-00069*
Y-00069*
Y-00069*
Y-00069*
Y-00069*
Y-00069*
Y-00068*
X-00209Y-00068*
X-00209Y-00067*
X-00209Y-00066*
X-00209Y-00066*
X-00209Y-00066*
X-00209Y-00065*
Y-00065*
X-00209Y-00065*
X-00209Y-00065*
X-00209Y-00065*
X-0021Y-00065*
X-0021Y-00064*
X-0021Y-00064*
X-0021Y-00064*
X-0021Y-00064*
X-0021Y-00064*
X-00211Y-00064*
X-00211Y-00064*
X-00211Y-00064*
X-00211Y-00064*
X-00212Y-00064*
X-00212*
X-00212Y-00064*
X-00213Y-00064*
X-00213Y-00064*
X-00213Y-00064*
X-00214Y-00064*
X-00214Y-00064*
X-00214Y-00064*
X-00214Y-00064*
X-00214Y-00065*
X-00215Y-00065*
X-00215Y-00065*
X-00215Y-00065*
X-00215Y-00066*
X-00215Y-00066*
Y-00066*
X-00215Y-00066*
X-00216Y-00067*
X-00216Y-00067*
X-00216Y-00067*
X-00216Y-00068*
X-00216Y-00068*
Y-00068*
X-00216Y-00069*
X-00216Y-00069*
Y-0007*
Y-0007*
Y-00079*
X-00221*
Y-0006*
X-00216*
Y-00063*
X-00216Y-00063*
X-00216Y-00063*
X-00216Y-00063*
X-00216Y-00063*
X-00215Y-00062*
X-00215Y-00062*
X-00215Y-00062*
X-00214Y-00061*
X-00214Y-00061*
X-00214Y-00061*
X-00213Y-00061*
X-00213Y-0006*
X-00212Y-0006*
X-00211Y-0006*
X-00211Y-0006*
X-0021Y-0006*
X-0021*
X-0021Y-0006*
G37*
G36*
X-00262D02*
X-00262Y-0006D01*
X-00262Y-0006*
X-00261Y-0006*
X-00261Y-0006*
X-0026Y-00061*
X-0026Y-00061*
X-0026Y-00061*
X-0026Y-00061*
X-00259Y-00061*
X-00259Y-00061*
X-00259Y-00061*
X-00258Y-00062*
X-00258Y-00062*
X-00258Y-00062*
X-00258Y-00062*
X-00258Y-00062*
X-00258Y-00063*
X-00257Y-00063*
X-00257Y-00063*
X-00257Y-00064*
X-00257Y-00064*
Y-00064*
X-00257Y-00064*
X-00257Y-00065*
X-00257Y-00065*
X-00257Y-00065*
X-00257Y-00066*
X-00257Y-00067*
Y-00067*
Y-00079*
X-00262*
Y-00069*
Y-00069*
Y-00069*
Y-00069*
Y-00069*
Y-00069*
Y-00068*
X-00262Y-00068*
X-00262Y-00067*
X-00262Y-00066*
X-00262Y-00066*
X-00262Y-00066*
X-00262Y-00065*
Y-00065*
X-00262Y-00065*
X-00262Y-00065*
X-00262Y-00065*
X-00262Y-00065*
X-00263Y-00064*
X-00263Y-00064*
X-00263Y-00064*
X-00263Y-00064*
X-00263Y-00064*
X-00263Y-00064*
X-00264Y-00064*
X-00264Y-00064*
X-00264Y-00064*
X-00265Y-00064*
X-00265*
X-00265Y-00064*
X-00265Y-00064*
X-00266Y-00064*
X-00266Y-00064*
X-00266Y-00064*
X-00267Y-00064*
X-00267Y-00064*
X-00267Y-00064*
X-00267Y-00065*
X-00267Y-00065*
X-00268Y-00065*
X-00268Y-00065*
X-00268Y-00066*
X-00268Y-00066*
Y-00066*
X-00268Y-00066*
X-00268Y-00067*
X-00268Y-00067*
X-00268Y-00067*
X-00268Y-00068*
X-00269Y-00068*
Y-00068*
X-00269Y-00069*
X-00269Y-00069*
Y-0007*
Y-0007*
Y-00079*
X-00273*
Y-0006*
X-00269*
Y-00063*
X-00269Y-00063*
X-00269Y-00063*
X-00269Y-00063*
X-00269Y-00063*
X-00268Y-00062*
X-00268Y-00062*
X-00268Y-00062*
X-00267Y-00061*
X-00267Y-00061*
X-00266Y-00061*
X-00266Y-00061*
X-00265Y-0006*
X-00265Y-0006*
X-00264Y-0006*
X-00264Y-0006*
X-00263Y-0006*
X-00263*
X-00262Y-0006*
G37*
G36*
X-00069Y-00079D02*
X-00074D01*
Y-00068*
X-00084*
Y-00079*
X-00089*
Y-00053*
X-00084*
Y-00063*
X-00074*
Y-00053*
X-00069*
Y-00079*
G37*
G36*
X-00343D02*
X-00348D01*
X-00348Y-00059*
X-00353Y-00079*
X-00358*
X-00363Y-00059*
Y-00079*
X-00367*
Y-00053*
X-0036*
X-00355Y-00071*
X-00351Y-00053*
X-00343*
Y-00079*
G37*
G36*
X-00226D02*
X-0023D01*
Y-0006*
X-00226*
Y-00079*
G37*
G36*
X-00278Y-00058D02*
X-00292D01*
Y-00063*
X-00279*
Y-00067*
X-00292*
Y-00074*
X-00278*
Y-00079*
X-00297*
Y-00053*
X-00278*
Y-00058*
G37*
G36*
X-00106Y-00062D02*
X-00106Y-00062D01*
X-00106Y-00062*
X-00106Y-00062*
X-00106Y-00062*
X-00106Y-00062*
X-00105Y-00062*
X-00105Y-00061*
X-00105Y-00061*
X-00104Y-00061*
X-00103Y-0006*
X-00103Y-0006*
X-00102Y-0006*
X-00102Y-0006*
X-00101Y-0006*
X-00101*
X-00101Y-0006*
X-001Y-0006*
X-001Y-0006*
X-001Y-0006*
X-00099Y-0006*
X-00098Y-00061*
X-00098Y-00061*
X-00097Y-00061*
X-00097Y-00061*
X-00096Y-00062*
X-00096Y-00062*
X-00096Y-00062*
X-00095Y-00062*
X-00095Y-00062*
X-00095Y-00063*
X-00095Y-00063*
X-00095Y-00063*
X-00095Y-00063*
X-00095Y-00064*
X-00094Y-00064*
X-00094Y-00065*
X-00094Y-00065*
X-00094Y-00066*
X-00094Y-00066*
X-00094Y-00067*
X-00093Y-00068*
X-00093Y-00068*
X-00093Y-00069*
Y-00069*
Y-00069*
Y-0007*
X-00093Y-0007*
X-00093Y-0007*
X-00093Y-00071*
X-00093Y-00071*
X-00094Y-00072*
X-00094Y-00073*
X-00094Y-00074*
X-00094Y-00074*
X-00095Y-00075*
X-00095Y-00075*
X-00095Y-00076*
X-00096Y-00076*
X-00096Y-00077*
X-00096Y-00077*
X-00096Y-00077*
X-00096Y-00077*
X-00096Y-00077*
X-00096Y-00077*
X-00097Y-00078*
X-00097Y-00078*
X-00097Y-00078*
X-00098Y-00078*
X-00099Y-00079*
X-00099Y-00079*
X-001Y-00079*
X-001Y-00079*
X-00101Y-00079*
X-00101*
X-00102Y-00079*
X-00102Y-00079*
X-00102Y-00079*
X-00103Y-00079*
X-00104Y-00078*
X-00104Y-00078*
X-00104Y-00078*
X-00104Y-00078*
X-00105Y-00078*
X-00105Y-00078*
X-00105Y-00077*
X-00106Y-00077*
X-00106Y-00076*
X-00107Y-00076*
Y-00079*
X-00111*
Y-00053*
X-00106*
Y-00062*
G37*
G36*
X-00191Y-0006D02*
X-00191Y-0006D01*
X-00191Y-0006*
X-0019Y-0006*
X-0019Y-0006*
X-00189Y-0006*
X-00189Y-00061*
X-00188Y-00061*
X-00188Y-00061*
X-00187Y-00061*
X-00187Y-00062*
X-00186Y-00062*
X-00186Y-00063*
X-00186Y-00063*
X-00186Y-00063*
X-00185Y-00063*
X-00185Y-00063*
X-00185Y-00063*
X-00185Y-00064*
X-00185Y-00064*
X-00185Y-00065*
X-00184Y-00065*
X-00184Y-00066*
X-00184Y-00067*
X-00184Y-00067*
X-00184Y-00068*
X-00183Y-00069*
X-00183Y-0007*
Y-00071*
X-00195*
Y-00071*
Y-00071*
Y-00071*
X-00195Y-00071*
X-00195Y-00072*
X-00195Y-00072*
X-00195Y-00073*
X-00195Y-00073*
X-00195Y-00074*
X-00194Y-00074*
X-00194Y-00074*
X-00194Y-00074*
X-00194Y-00075*
X-00194Y-00075*
X-00193Y-00075*
X-00193Y-00075*
X-00192Y-00075*
X-00192Y-00075*
X-00191*
X-00191Y-00075*
X-00191Y-00075*
X-00191Y-00075*
X-0019Y-00075*
X-0019Y-00075*
X-0019Y-00075*
X-0019Y-00075*
X-0019Y-00075*
X-00189Y-00075*
X-00189Y-00074*
X-00189Y-00074*
X-00189Y-00074*
X-00189Y-00073*
X-00188Y-00073*
X-00184Y-00074*
Y-00074*
X-00184Y-00074*
X-00184Y-00074*
X-00184Y-00074*
X-00184Y-00074*
X-00184Y-00074*
X-00184Y-00075*
X-00185Y-00076*
X-00185Y-00076*
X-00186Y-00077*
X-00187Y-00078*
X-00187*
X-00187Y-00078*
X-00187Y-00078*
X-00187Y-00078*
X-00187Y-00078*
X-00187Y-00078*
X-00188Y-00078*
X-00188Y-00078*
X-00189Y-00079*
X-0019Y-00079*
X-00191Y-00079*
X-00192Y-00079*
X-00192*
X-00192Y-00079*
X-00192*
X-00193Y-00079*
X-00193Y-00079*
X-00194Y-00079*
X-00194Y-00079*
X-00195Y-00078*
X-00195Y-00078*
X-00196Y-00078*
X-00197Y-00078*
X-00197Y-00077*
X-00198Y-00077*
X-00198Y-00076*
X-00199Y-00076*
X-00199Y-00076*
X-00199Y-00076*
X-00199Y-00076*
X-00199Y-00075*
X-00199Y-00075*
X-00199Y-00075*
X-00199Y-00075*
X-002Y-00074*
X-002Y-00074*
X-002Y-00073*
X-002Y-00073*
X-002Y-00072*
X-002Y-00072*
X-002Y-00071*
X-002Y-0007*
X-002Y-0007*
Y-0007*
Y-00069*
Y-00069*
X-002Y-00069*
X-002Y-00068*
X-002Y-00068*
X-002Y-00068*
X-002Y-00067*
X-002Y-00066*
X-002Y-00065*
X-00199Y-00065*
X-00199Y-00064*
X-00199Y-00064*
X-00198Y-00063*
X-00198Y-00063*
X-00198Y-00062*
X-00198Y-00062*
X-00198Y-00062*
X-00198Y-00062*
X-00197Y-00062*
X-00197Y-00062*
X-00197Y-00061*
X-00196Y-00061*
X-00196Y-00061*
X-00196Y-00061*
X-00195Y-00061*
X-00195Y-0006*
X-00194Y-0006*
X-00193Y-0006*
X-00193Y-0006*
X-00192Y-0006*
X-00192*
X-00191Y-0006*
G37*
G36*
X-0033D02*
X-0033Y-0006D01*
X-0033Y-0006*
X-00329Y-0006*
X-00329Y-0006*
X-00328Y-0006*
X-00328Y-00061*
X-00327Y-00061*
X-00327Y-00061*
X-00326Y-00061*
X-00326Y-00062*
X-00325Y-00062*
X-00325Y-00063*
X-00325Y-00063*
X-00324Y-00063*
X-00324Y-00063*
X-00324Y-00063*
X-00324Y-00063*
X-00324Y-00064*
X-00324Y-00064*
X-00323Y-00065*
X-00323Y-00065*
X-00323Y-00066*
X-00323Y-00067*
X-00323Y-00067*
X-00322Y-00068*
X-00322Y-00069*
X-00322Y-0007*
Y-00071*
X-00334*
Y-00071*
Y-00071*
Y-00071*
X-00334Y-00071*
X-00334Y-00072*
X-00334Y-00072*
X-00334Y-00073*
X-00334Y-00073*
X-00334Y-00074*
X-00333Y-00074*
X-00333Y-00074*
X-00333Y-00074*
X-00333Y-00075*
X-00332Y-00075*
X-00332Y-00075*
X-00332Y-00075*
X-00331Y-00075*
X-0033Y-00075*
X-0033*
X-0033Y-00075*
X-0033Y-00075*
X-0033Y-00075*
X-00329Y-00075*
X-00329Y-00075*
X-00329Y-00075*
X-00329Y-00075*
X-00328Y-00075*
X-00328Y-00075*
X-00328Y-00074*
X-00328Y-00074*
X-00328Y-00074*
X-00328Y-00073*
X-00327Y-00073*
X-00323Y-00074*
Y-00074*
X-00323Y-00074*
X-00323Y-00074*
X-00323Y-00074*
X-00323Y-00074*
X-00323Y-00074*
X-00323Y-00075*
X-00324Y-00076*
X-00324Y-00076*
X-00325Y-00077*
X-00326Y-00078*
X-00326*
X-00326Y-00078*
X-00326Y-00078*
X-00326Y-00078*
X-00326Y-00078*
X-00326Y-00078*
X-00327Y-00078*
X-00327Y-00078*
X-00328Y-00079*
X-00328Y-00079*
X-00329Y-00079*
X-0033Y-00079*
X-00331*
X-00331Y-00079*
X-00331*
X-00332Y-00079*
X-00332Y-00079*
X-00333Y-00079*
X-00333Y-00079*
X-00334Y-00078*
X-00334Y-00078*
X-00335Y-00078*
X-00335Y-00078*
X-00336Y-00077*
X-00337Y-00077*
X-00337Y-00076*
X-00338Y-00076*
X-00338Y-00076*
X-00338Y-00076*
X-00338Y-00076*
X-00338Y-00075*
X-00338Y-00075*
X-00338Y-00075*
X-00338Y-00075*
X-00338Y-00074*
X-00339Y-00074*
X-00339Y-00073*
X-00339Y-00073*
X-00339Y-00072*
X-00339Y-00072*
X-00339Y-00071*
X-00339Y-0007*
X-00339Y-0007*
Y-0007*
Y-00069*
Y-00069*
X-00339Y-00069*
X-00339Y-00068*
X-00339Y-00068*
X-00339Y-00068*
X-00339Y-00067*
X-00339Y-00066*
X-00339Y-00065*
X-00338Y-00065*
X-00338Y-00064*
X-00338Y-00064*
X-00337Y-00063*
X-00337Y-00063*
X-00337Y-00062*
X-00337Y-00062*
X-00337Y-00062*
X-00337Y-00062*
X-00336Y-00062*
X-00336Y-00062*
X-00336Y-00061*
X-00335Y-00061*
X-00335Y-00061*
X-00334Y-00061*
X-00334Y-00061*
X-00333Y-0006*
X-00333Y-0006*
X-00332Y-0006*
X-00332Y-0006*
X-00331Y-0006*
X-00331*
X-0033Y-0006*
G37*
G36*
X-00245D02*
X-00245D01*
X-00244Y-0006*
X-00244Y-0006*
X-00244Y-0006*
X-00243Y-0006*
X-00243Y-0006*
X-00242Y-00061*
X-00242Y-00061*
X-00241Y-00061*
X-00241Y-00062*
X-00241Y-00062*
X-0024Y-00062*
X-0024Y-00063*
Y-0006*
X-00235*
Y-00077*
Y-00077*
Y-00077*
Y-00077*
Y-00077*
Y-00078*
X-00235Y-00078*
X-00235Y-00079*
X-00235Y-00079*
X-00235Y-0008*
X-00235Y-00081*
X-00236Y-00081*
X-00236Y-00082*
X-00236Y-00082*
X-00236Y-00082*
X-00236Y-00082*
X-00236Y-00082*
X-00236Y-00083*
X-00237Y-00083*
X-00237Y-00084*
X-00237Y-00084*
X-00237Y-00084*
X-00237Y-00084*
X-00238Y-00084*
X-00238Y-00085*
X-00238Y-00085*
X-00239Y-00085*
X-00239Y-00085*
X-0024Y-00085*
X-0024Y-00086*
X-0024Y-00086*
X-0024Y-00086*
X-00241Y-00086*
X-00241Y-00086*
X-00242Y-00086*
X-00243Y-00086*
X-00244Y-00086*
X-00244*
X-00245Y-00086*
X-00245*
X-00245Y-00086*
X-00246Y-00086*
X-00246Y-00086*
X-00247Y-00086*
X-00249Y-00085*
X-00249Y-00085*
X-0025Y-00085*
X-0025Y-00085*
X-0025Y-00084*
X-0025Y-00084*
X-0025Y-00084*
X-00251Y-00084*
X-00251Y-00084*
X-00251Y-00083*
X-00252Y-00083*
X-00252Y-00082*
X-00252Y-00081*
X-00252Y-00081*
X-00252Y-0008*
Y-0008*
Y-0008*
Y-0008*
X-00252Y-0008*
X-00247Y-0008*
Y-0008*
X-00247Y-00081*
X-00247Y-00081*
X-00247Y-00081*
X-00246Y-00081*
X-00246Y-00082*
X-00246Y-00082*
X-00246Y-00082*
X-00246Y-00082*
X-00246Y-00082*
X-00246Y-00082*
X-00245Y-00082*
X-00245Y-00082*
X-00245Y-00082*
X-00244Y-00082*
X-00244*
X-00243Y-00082*
X-00243Y-00082*
X-00242Y-00082*
X-00242Y-00082*
X-00242Y-00082*
X-00241Y-00082*
X-00241Y-00082*
X-00241Y-00082*
X-00241Y-00082*
X-00241Y-00081*
X-00241Y-00081*
X-00241Y-00081*
X-0024Y-00081*
X-0024Y-0008*
Y-0008*
X-0024Y-0008*
X-0024Y-0008*
X-0024Y-0008*
X-0024Y-0008*
X-0024Y-00079*
X-0024Y-00079*
Y-00078*
Y-00076*
X-0024Y-00076*
X-0024Y-00076*
X-0024Y-00076*
X-0024Y-00076*
X-00241Y-00076*
X-00241Y-00077*
X-00241Y-00077*
X-00241Y-00077*
X-00242Y-00077*
X-00242Y-00078*
X-00243Y-00078*
X-00244Y-00078*
X-00244Y-00078*
X-00245Y-00079*
X-00245Y-00079*
X-00246*
X-00246Y-00079*
X-00246*
X-00246Y-00078*
X-00247Y-00078*
X-00247Y-00078*
X-00248Y-00078*
X-00248Y-00078*
X-00248Y-00078*
X-00249Y-00078*
X-00249Y-00077*
X-0025Y-00077*
X-0025Y-00077*
X-00251Y-00076*
X-00251Y-00076*
Y-00075*
X-00251Y-00075*
X-00251Y-00075*
X-00252Y-00075*
X-00252Y-00075*
X-00252Y-00075*
X-00252Y-00074*
X-00252Y-00074*
X-00252Y-00073*
X-00252Y-00073*
X-00253Y-00072*
X-00253Y-00072*
X-00253Y-00071*
X-00253Y-0007*
X-00253Y-00069*
Y-00069*
Y-00069*
Y-00069*
X-00253Y-00069*
X-00253Y-00068*
X-00253Y-00068*
X-00253Y-00067*
X-00253Y-00067*
X-00252Y-00066*
X-00252Y-00065*
X-00252Y-00064*
X-00252Y-00064*
X-00251Y-00063*
X-00251Y-00063*
X-00251Y-00062*
X-00251Y-00062*
X-00251Y-00062*
X-00251Y-00062*
X-0025Y-00062*
X-0025Y-00062*
X-0025Y-00062*
X-0025Y-00061*
X-00249Y-00061*
X-00249Y-00061*
X-00248Y-00061*
X-00248Y-0006*
X-00247Y-0006*
X-00246Y-0006*
X-00246Y-0006*
X-00245Y-0006*
X-00245*
X-00245Y-0006*
G37*
%LNflytta-32-2*%
%LPC*%
G36*
X-00202Y-00013D02*
X-00205Y-00022D01*
X-00198*
X-00202Y-00013*
G37*
G36*
X-00128Y-00011D02*
X-00128D01*
X-00129Y-00011*
X-00129Y-00011*
X-00129Y-00011*
X-00129Y-00011*
X-0013Y-00011*
X-0013Y-00012*
X-0013Y-00012*
X-0013Y-00012*
X-0013Y-00012*
X-0013Y-00012*
X-0013Y-00012*
X-00131Y-00013*
X-00131Y-00013*
X-00131Y-00014*
Y-00014*
X-00131Y-00014*
Y-00014*
X-00131Y-00014*
X-00131Y-00014*
X-00131Y-00014*
X-00131Y-00015*
X-00131Y-00015*
X-00131Y-00016*
X-00131Y-00016*
X-00131Y-00017*
X-00131Y-00017*
X-00131Y-00018*
Y-00018*
X-00131Y-00019*
Y-0002*
Y-0002*
Y-0002*
Y-0002*
Y-00021*
Y-00021*
X-00131Y-00021*
Y-00022*
X-00131Y-00022*
X-00131Y-00023*
X-00131Y-00024*
X-00131Y-00025*
X-00131Y-00025*
X-00131Y-00026*
X-00131Y-00026*
X-00131Y-00026*
X-00131Y-00026*
X-00131Y-00027*
X-00131Y-00027*
X-0013Y-00027*
X-0013Y-00028*
X-0013Y-00028*
X-0013Y-00028*
X-0013Y-00028*
X-0013Y-00028*
X-0013Y-00028*
X-00129Y-00029*
X-00129Y-00029*
X-00129Y-00029*
X-00129Y-00029*
X-00128Y-00029*
X-00128*
X-00128Y-00029*
X-00128Y-00029*
X-00128Y-00029*
X-00127Y-00029*
X-00127Y-00028*
X-00127Y-00028*
X-00127Y-00028*
X-00127Y-00028*
X-00127Y-00028*
X-00126Y-00028*
X-00126Y-00028*
X-00126Y-00027*
X-00126Y-00027*
X-00126Y-00026*
Y-00026*
X-00126Y-00026*
Y-00026*
X-00126Y-00026*
X-00126Y-00026*
X-00126Y-00025*
X-00126Y-00025*
X-00126Y-00025*
X-00125Y-00024*
X-00125Y-00024*
X-00125Y-00023*
X-00125Y-00023*
X-00125Y-00022*
Y-00022*
X-00125Y-00021*
Y-0002*
Y-0002*
Y-0002*
Y-0002*
Y-00019*
Y-00019*
X-00125Y-00018*
Y-00018*
X-00125Y-00018*
X-00125Y-00016*
X-00125Y-00016*
X-00126Y-00015*
X-00126Y-00015*
X-00126Y-00014*
X-00126Y-00014*
Y-00014*
X-00126Y-00014*
X-00126Y-00014*
X-00126Y-00013*
X-00126Y-00013*
X-00126Y-00013*
X-00126Y-00012*
X-00127Y-00012*
X-00127Y-00012*
X-00127Y-00012*
X-00127Y-00012*
X-00127Y-00011*
X-00127Y-00011*
X-00127Y-00011*
X-00128Y-00011*
X-00128Y-00011*
X-00128Y-00011*
G37*
G36*
X-0031Y-00064D02*
X-00311D01*
X-00311Y-00064*
X-00311Y-00064*
X-00311Y-00064*
X-00312Y-00064*
X-00312Y-00064*
X-00313Y-00065*
X-00313Y-00065*
X-00313Y-00065*
X-00314Y-00065*
X-00314Y-00066*
X-00314Y-00066*
X-00314Y-00067*
X-00314Y-00067*
X-00314Y-00068*
X-00314Y-00069*
Y-00069*
Y-00069*
Y-00069*
Y-0007*
X-00314Y-0007*
Y-0007*
X-00314Y-00071*
X-00314Y-00071*
X-00314Y-00072*
X-00314Y-00073*
X-00314Y-00073*
X-00314Y-00073*
Y-00073*
X-00314Y-00073*
X-00313Y-00074*
X-00313Y-00074*
X-00313Y-00074*
X-00312Y-00075*
X-00312Y-00075*
X-00311Y-00075*
X-00311Y-00075*
X-0031Y-00075*
X-0031*
X-0031Y-00075*
X-0031Y-00075*
X-00309Y-00075*
X-00309Y-00075*
X-00309Y-00075*
X-00308Y-00074*
X-00308Y-00074*
X-00308Y-00074*
X-00307Y-00074*
X-00307Y-00073*
X-00307Y-00073*
X-00307Y-00072*
X-00307Y-00071*
X-00306Y-00071*
X-00306Y-0007*
Y-0007*
Y-00069*
Y-00069*
Y-00069*
X-00306Y-00069*
X-00307Y-00068*
X-00307Y-00068*
X-00307Y-00067*
X-00307Y-00066*
X-00307Y-00066*
X-00307Y-00065*
X-00308Y-00065*
X-00308Y-00065*
X-00308Y-00065*
X-00308Y-00065*
X-00308Y-00064*
X-00309Y-00064*
X-00309Y-00064*
X-0031Y-00064*
X-0031Y-00064*
G37*
G36*
X-00102D02*
X-00102D01*
X-00103Y-00064*
X-00103Y-00064*
X-00103Y-00064*
X-00104Y-00064*
X-00104Y-00064*
X-00105Y-00065*
X-00105Y-00065*
X-00105Y-00065*
X-00105Y-00065*
X-00106Y-00066*
X-00106Y-00066*
X-00106Y-00067*
X-00106Y-00067*
X-00106Y-00068*
X-00106Y-00069*
Y-00069*
Y-00069*
Y-00069*
Y-0007*
X-00106Y-0007*
Y-0007*
X-00106Y-00071*
X-00106Y-00071*
X-00106Y-00072*
X-00106Y-00073*
X-00106Y-00073*
Y-00073*
X-00105Y-00073*
X-00105Y-00074*
X-00105Y-00074*
X-00105Y-00074*
X-00104Y-00075*
X-00104Y-00075*
X-00103Y-00075*
X-00103Y-00075*
X-00102Y-00075*
X-00102*
X-00102Y-00075*
X-00102Y-00075*
X-00101Y-00075*
X-00101Y-00075*
X-001Y-00075*
X-001Y-00074*
X-00099Y-00074*
X-00099Y-00074*
X-00099Y-00074*
X-00099Y-00073*
X-00099Y-00073*
X-00099Y-00072*
X-00098Y-00071*
X-00098Y-00071*
X-00098Y-00071*
X-00098Y-0007*
Y-0007*
Y-00069*
Y-00069*
Y-00069*
Y-00069*
X-00098Y-00069*
X-00098Y-00068*
X-00098Y-00068*
X-00099Y-00067*
X-00099Y-00066*
X-00099Y-00066*
X-00099Y-00065*
X-00099Y-00065*
X-00099Y-00065*
X-001Y-00065*
X-001Y-00065*
X-001Y-00064*
X-00101Y-00064*
X-00101Y-00064*
X-00102Y-00064*
X-00102Y-00064*
G37*
G36*
X-00192D02*
X-00192D01*
X-00192Y-00064*
X-00193Y-00064*
X-00193Y-00064*
X-00194Y-00064*
X-00194Y-00064*
X-00194Y-00065*
X-00194Y-00065*
X-00195Y-00065*
X-00195Y-00065*
X-00195Y-00066*
X-00195Y-00066*
X-00195Y-00067*
X-00195Y-00067*
X-00195Y-00068*
X-00188*
Y-00068*
Y-00068*
Y-00068*
X-00188Y-00068*
X-00188Y-00067*
X-00188Y-00067*
X-00188Y-00066*
X-00189Y-00066*
X-00189Y-00065*
X-00189Y-00065*
X-00189Y-00065*
X-00189Y-00065*
X-0019Y-00064*
X-0019Y-00064*
X-0019Y-00064*
X-00191Y-00064*
X-00191Y-00064*
X-00192Y-00064*
G37*
G36*
X-00331D02*
X-00331D01*
X-00331Y-00064*
X-00332Y-00064*
X-00332Y-00064*
X-00332Y-00064*
X-00333Y-00064*
X-00333Y-00065*
X-00333Y-00065*
X-00333Y-00065*
X-00334Y-00065*
X-00334Y-00066*
X-00334Y-00066*
X-00334Y-00067*
X-00334Y-00067*
X-00334Y-00068*
X-00327*
Y-00068*
Y-00068*
Y-00068*
X-00327Y-00068*
X-00327Y-00067*
X-00327Y-00067*
X-00327Y-00066*
X-00328Y-00066*
X-00328Y-00065*
X-00328Y-00065*
X-00328Y-00065*
X-00328Y-00065*
X-00329Y-00064*
X-00329Y-00064*
X-00329Y-00064*
X-0033Y-00064*
X-0033Y-00064*
X-00331Y-00064*
G37*
G36*
X-00244D02*
X-00244D01*
X-00244Y-00064*
X-00245Y-00064*
X-00245Y-00064*
X-00245Y-00064*
X-00246Y-00064*
X-00246Y-00065*
X-00247Y-00065*
X-00247Y-00065*
X-00247Y-00065*
X-00247Y-00066*
X-00247Y-00066*
X-00248Y-00067*
X-00248Y-00067*
X-00248Y-00068*
X-00248Y-00069*
Y-00069*
Y-00069*
Y-00069*
X-00248Y-0007*
Y-0007*
X-00248Y-0007*
X-00248Y-00071*
X-00248Y-00071*
X-00248Y-00072*
X-00247Y-00073*
X-00247Y-00073*
X-00247Y-00073*
X-00247Y-00074*
X-00246Y-00074*
X-00246Y-00074*
X-00246Y-00074*
X-00245Y-00074*
X-00245Y-00075*
X-00244Y-00075*
X-00244*
X-00244Y-00075*
X-00243Y-00075*
X-00243Y-00075*
X-00243Y-00074*
X-00242Y-00074*
X-00242Y-00074*
X-00241Y-00073*
X-00241Y-00073*
X-00241Y-00073*
X-00241Y-00073*
X-00241Y-00072*
X-0024Y-00072*
X-0024Y-00071*
X-0024Y-0007*
X-0024Y-00069*
Y-00069*
Y-00069*
Y-00069*
Y-00069*
X-0024Y-00069*
X-0024Y-00068*
X-0024Y-00068*
X-0024Y-00067*
X-0024Y-00066*
X-00241Y-00066*
X-00241Y-00065*
X-00241Y-00065*
X-00241Y-00065*
X-00242Y-00065*
X-00242Y-00064*
X-00242Y-00064*
X-00243Y-00064*
X-00243Y-00064*
X-00244Y-00064*
G37*
%LNflytta-32-3*%
%LPD*%
G54D10*
X-00973Y-00551D02*
D01*
X-00973Y-00551*
X-00973Y-00551*
X-00973Y-0055*
X-00972Y-0055*
X-00972Y-0055*
X-00972Y-0055*
X-00972Y-00549*
X-00972Y-00549*
X-00972Y-00549*
X-00972Y-00549*
X-00972Y-00548*
X-00972Y-00548*
X-00972Y-00548*
X-00972Y-00548*
X-00972Y-00547*
X-00972Y-00547*
X-00972Y-00547*
X-00972Y-00547*
X-00972Y-00546*
X-00973Y-00546*
X-00973Y-00546*
X-00973Y-00546*
X-00973Y-00545*
X-00973Y-00545*
X-00974Y-00545*
X-00974Y-00545*
X-00974Y-00545*
X-00974Y-00545*
X-00975Y-00545*
X-00975Y-00545*
X-00975Y-00544*
X-00975Y-00544*
X-00976Y-00544*
X-00976Y-00544*
X-00976Y-00544*
X-00976Y-00544*
X-00977Y-00544*
X-00977Y-00545*
X-00977Y-00545*
X-00977Y-00545*
X-00978Y-00545*
X-00978Y-00545*
X-00978Y-00545*
X-00978Y-00545*
X-00979Y-00546*
X-00979*
X-00979Y-00546D02*
D01*
X-00979Y-00546*
X-0098Y-00547*
X-0098Y-00547*
X-0098Y-00547*
X-0098Y-00547*
X-0098Y-00548*
X-0098Y-00548*
X-0098Y-00548*
X-0098Y-00548*
X-0098Y-00549*
X-0098Y-00549*
X-0098Y-00549*
X-0098Y-00549*
X-0098Y-0055*
X-0098Y-0055*
X-0098Y-0055*
X-0098Y-00551*
X-0098Y-00551*
X-0098Y-00551*
X-0098Y-00551*
X-0098Y-00551*
X-00979Y-00552*
X-00979Y-00552*
X-00979Y-00552*
X-00979Y-00552*
X-00979Y-00552*
X-00978Y-00553*
X-00978Y-00553*
X-00978Y-00553*
X-00978Y-00553*
X-00977Y-00553*
X-00977Y-00553*
X-00977Y-00553*
X-00976Y-00553*
X-00976Y-00553*
X-00976Y-00553*
X-00976Y-00553*
X-00975Y-00553*
X-00975Y-00553*
X-00975Y-00553*
X-00975Y-00552*
X-00974Y-00552*
X-00974Y-00552*
X-00974Y-00552*
X-00974Y-00552*
X-01015Y00161D02*
X-00987Y00189D01*
X-01015Y00161D02*
X-00964Y00111D01*
X-00937Y00138*
X-00987Y00189D02*
X-00937Y00138D01*
X-00833Y00247D02*
X-00762D01*
Y00207D02*
Y00247D01*
X-00833Y00207D02*
X-00762D01*
X-00833D02*
Y00247D01*
X-01133Y-00121D02*
Y-00113D01*
Y00033D02*
Y00053D01*
X-01153D02*
X-01133D01*
X-01141Y-00121D02*
X-01133D01*
X-01308D02*
X-01301D01*
X-01308D02*
Y-00113D01*
Y00053D02*
X-01301D01*
X-01308Y00045D02*
Y00053D01*
X-00702Y-00631D02*
X-00576D01*
X-00702Y-00731D02*
Y-00631D01*
Y-00731D02*
X-00576D01*
Y-00631*
G54D11*
X-01173Y-0056D02*
D01*
X-01173Y-00559*
X-01173Y-00559*
X-01173Y-00559*
X-01173Y-00558*
X-01173Y-00558*
X-01173Y-00558*
X-01173Y-00557*
X-01173Y-00557*
X-01173Y-00557*
X-01174Y-00556*
X-01174Y-00556*
X-01174Y-00556*
X-01174Y-00556*
X-01175Y-00555*
X-01175Y-00555*
X-01175Y-00555*
X-01176Y-00555*
X-01176Y-00555*
X-01176Y-00555*
X-01177Y-00555*
X-01177Y-00555*
X-01177Y-00555*
X-01178*
X-01178Y-00555*
X-01178Y-00555*
X-01179Y-00555*
X-01179Y-00555*
X-01179Y-00555*
X-0118Y-00555*
X-0118Y-00555*
X-0118Y-00555*
X-0118Y-00556*
X-01181Y-00556*
X-01181Y-00556*
X-01181Y-00556*
X-01181Y-00557*
X-01182Y-00557*
X-01182Y-00557*
X-01182Y-00558*
X-01182Y-00558*
X-01182Y-00558*
X-01182Y-00559*
X-01182Y-00559*
X-01182Y-00559*
X-01182Y-0056*
X-01182Y-0056*
X-01182Y-0056*
X-01182Y-00561*
X-01182Y-00561*
X-01182Y-00561*
X-01182Y-00562*
X-01182Y-00562*
X-01182Y-00562*
X-01181Y-00562*
X-01181Y-00563*
X-01181Y-00563*
X-01181Y-00563*
X-0118Y-00563*
X-0118Y-00564*
X-0118Y-00564*
X-0118Y-00564*
X-01179Y-00564*
X-01179Y-00564*
X-01179Y-00564*
X-01178Y-00564*
X-01178Y-00564*
X-01178Y-00564*
X-01177*
X-01177Y-00564*
X-01177Y-00564*
X-01176Y-00564*
X-01176Y-00564*
X-01176Y-00564*
X-01175Y-00564*
X-01175Y-00564*
X-01175Y-00564*
X-01174Y-00563*
X-01174Y-00563*
X-01174Y-00563*
X-01174Y-00563*
X-01173Y-00562*
X-01173Y-00562*
X-01173Y-00562*
X-01173Y-00562*
X-01173Y-00561*
X-01173Y-00561*
X-01173Y-00561*
X-01173Y-0056*
X-01173Y-0056*
X-01173Y-0056*
G54D12*
X-00448Y-0056D02*
D01*
X-00448Y-0056*
X-00448Y-0056*
X-00448Y-0056*
X-00448Y-0056*
X-00448Y-0056*
X-00448Y-00559*
X-00448Y-00559*
X-00448Y-00559*
X-00448Y-00559*
X-00448*
X-00908Y-00546D02*
X-00907Y-00547D01*
X-00578Y00316D02*
Y00433D01*
X-00857D02*
X-00578D01*
X-00857Y00316D02*
Y00433D01*
Y00316D02*
X-00578D01*
X-00993Y00392D02*
X-00958Y00357D01*
X-01055Y00329D02*
X-00993Y00392D01*
X-01055Y00329D02*
X-01021Y00294D01*
X-00958Y00357*
X-00975Y0029D02*
X-00925D01*
Y00379*
X-00975D02*
X-00925D01*
X-00975Y0029D02*
Y00379D01*
X-00486Y-00577D02*
X-00485D01*
X-00829Y-00597D02*
X-00828Y-00598D01*
X-01078Y00305D02*
X-01016Y00242D01*
X-01078Y00305D02*
X-01044Y0034D01*
X-00981Y00277*
X-01016Y00242D02*
X-00981Y00277D01*
X-00203Y-00355D02*
Y-00267D01*
X-00252Y-00355D02*
X-00203D01*
X-00252D02*
Y-00267D01*
X-00203*
X-00706Y-00718D02*
Y-00629D01*
X-00755Y-00718D02*
X-00706D01*
X-00755D02*
Y-00629D01*
X-00706*
X-01271Y-00278D02*
Y-00189D01*
X-01222*
Y-00278D02*
Y-00189D01*
X-01271Y-00278D02*
X-01222D01*
X-01314Y-00236D02*
Y-00147D01*
X-01363Y-00236D02*
X-01314D01*
X-01363D02*
Y-00147D01*
X-01314*
X-00469Y-00482D02*
X-00468Y-00481D01*
X-01064Y0032D02*
X-01029Y00285D01*
X-01127Y00257D02*
X-01064Y0032D01*
X-01127Y00257D02*
X-01092Y00222D01*
X-01029Y00285*
X-00424Y-00495D02*
X-00365Y-00393D01*
X-00477Y-00464D02*
X-00418Y-00362D01*
X-00365Y-00393*
X-00477Y-00464D02*
X-00424Y-00495D01*
X-01065Y00043D02*
Y00092D01*
X-01153D02*
X-01065D01*
X-01153Y00043D02*
Y00092D01*
Y00043D02*
X-01065D01*
X-00408Y-00731D02*
Y-00682D01*
X-00496D02*
X-00408D01*
X-00496Y-00731D02*
Y-00682D01*
Y-00731D02*
X-00408D01*
X-01134Y00066D02*
Y00067D01*
X-00341Y-0039D02*
X-00335D01*
X-00341Y-00381D02*
Y-00376D01*
Y-0037D02*
X-00335D01*
X-00341Y-0039D02*
Y-0037D01*
X-0033Y-00496D02*
Y-00362D01*
Y-00496D02*
X-00176D01*
Y-00362*
X-0033D02*
X-00176D01*
X-00335Y-0039D02*
Y-0037D01*
X-01182Y00043D02*
Y00131D01*
X-01133*
Y00043D02*
Y00131D01*
X-01182Y00043D02*
X-01133D01*
X-00834Y-00649D02*
X-00716D01*
X-00834Y-00588D02*
X-00716D01*
Y-00649D02*
Y-00588D01*
X-00834Y-00649D02*
Y-00588D01*
X-01266Y-00247D02*
Y-00129D01*
X-01327Y-00247D02*
Y-00129D01*
X-01266*
X-01327Y-00247D02*
X-01266D01*
X-01182Y00107D02*
X-01093D01*
X-01182D02*
Y00156D01*
X-01093*
Y00107D02*
Y00156D01*
X-01126Y00009D02*
X-01037D01*
X-01126D02*
Y00058D01*
X-01037*
Y00009D02*
Y00058D01*
X-00904Y00352D02*
X-00934D01*
X-00944Y00342*
Y00322*
X-00934Y00312*
X-00904*
X-00884D02*
X-00864D01*
X-00874*
Y00372*
X-00884*
X-00834Y00312D02*
Y00372D01*
Y00332D02*
X-00804Y00352D01*
X-00834Y00332D02*
X-00804Y00312D01*
X-00774D02*
X-00754D01*
X-00764*
Y00372*
X-00774Y00362*
G54D13*
X-00952Y00245D02*
X-00922Y00163D01*
X-00826Y00198*
X-00855Y0028D02*
X-00826Y00198D01*
X-00952Y00245D02*
X-00855Y0028D01*
X-00989Y-00497D02*
X-00948Y-00558D01*
X-00989Y-00497D02*
X-00956Y-00475D01*
X-00915Y-00535*
X-00948Y-00558D02*
X-00915Y-00535D01*
X-00572Y-00617D02*
X-00499D01*
X-00572D02*
Y-00577D01*
X-00499*
Y-00617D02*
Y-00577D01*
X-00923Y-00589D02*
X-0086Y-00625D01*
X-00923Y-00589D02*
X-00903Y-00554D01*
X-0084Y-00591*
X-0086Y-00625D02*
X-0084Y-00591D01*
X-01369Y-00345D02*
Y-00329D01*
Y-00345D02*
X-01347D01*
Y-00299*
X-01369D02*
X-01347D01*
X-01369Y-00329D02*
Y-00299D01*
X-01253Y00126D02*
X-01237D01*
X-01253Y00104D02*
Y00126D01*
Y00104D02*
X-01207D01*
Y00126*
X-01237D02*
X-01207D01*
X-0133Y-0033D02*
Y-00314D01*
Y-0033D02*
X-01308D01*
Y-00284*
X-0133D02*
X-01308D01*
X-0133Y-00314D02*
Y-00284D01*
X-013Y00066D02*
Y00082D01*
Y00066D02*
X-01278D01*
Y00112*
X-013D02*
X-01278D01*
X-013Y00082D02*
Y00112D01*
X-01082Y-00322D02*
X-01072Y-00335D01*
X-01055Y-0032*
X-01085Y-00285D02*
X-01055Y-0032D01*
X-01102Y-00299D02*
X-01085Y-00285D01*
X-01102Y-00299D02*
X-01082Y-00322D01*
X-01344Y-00403D02*
X-01332Y-00413D01*
X-01359Y-00419D02*
X-01344Y-00403D01*
X-01359Y-00419D02*
X-01323Y-00449D01*
X-01309Y-00432*
X-01332Y-00413D02*
X-01309Y-00432D01*
X-01108Y-00248D02*
X-01092D01*
Y-00226*
X-01138D02*
X-01092D01*
X-01138Y-00248D02*
Y-00226D01*
Y-00248D02*
X-01108D01*
X-01108Y-00287D02*
X-01092D01*
Y-00265*
X-01138D02*
X-01092D01*
X-01138Y-00287D02*
Y-00265D01*
Y-00287D02*
X-01108D01*
X-01106Y-00331D02*
X-01095Y-00344D01*
X-01078Y-0033*
X-01108Y-00294D02*
X-01078Y-0033D01*
X-01125Y-00308D02*
X-01108Y-00294D01*
X-01125Y-00308D02*
X-01106Y-00331D01*
X-0092Y-00767D02*
X-00904D01*
Y-00745*
X-0095D02*
X-00904D01*
X-0095Y-00767D02*
Y-00745D01*
Y-00767D02*
X-0092D01*
X-0089Y-00749D02*
X-00874D01*
X-0089Y-00771D02*
Y-00749D01*
Y-00771D02*
X-00844D01*
Y-00749*
X-00874D02*
X-00844D01*
X-00763Y-00796D02*
X-00733D01*
Y-00818D02*
Y-00796D01*
X-00779Y-00818D02*
X-00733D01*
X-00779D02*
Y-00796D01*
X-00763*
X-00779Y-00758D02*
X-00763D01*
X-00779Y-0078D02*
Y-00758D01*
Y-0078D02*
X-00733D01*
Y-00758*
X-00763D02*
X-00733D01*
X-00897Y-00743D02*
X-00867D01*
X-00897D02*
Y-00721D01*
X-00851*
Y-00743D02*
Y-00721D01*
X-00867Y-00743D02*
X-00851D01*
X-00868Y-00697D02*
X-00852D01*
X-00868Y-00719D02*
Y-00697D01*
Y-00719D02*
X-00822D01*
Y-00697*
X-00852D02*
X-00822D01*
X-00905Y-00786D02*
X-00889D01*
X-00905Y-00808D02*
Y-00786D01*
Y-00808D02*
X-00859D01*
Y-00786*
X-00889D02*
X-00859D01*
X-00778Y-00676D02*
Y-00646D01*
X-00756*
Y-00692D02*
Y-00646D01*
X-00778Y-00692D02*
X-00756D01*
X-00778D02*
Y-00676D01*
X-00646Y-00734D02*
X-00616D01*
Y-00756D02*
Y-00734D01*
X-00662Y-00756D02*
X-00616D01*
X-00662D02*
Y-00734D01*
X-00646*
X-00767D02*
X-00751D01*
X-00767Y-00756D02*
Y-00734D01*
Y-00756D02*
X-00721D01*
Y-00734*
X-00751D02*
X-00721D01*
X-00789Y-00708D02*
X-00759D01*
Y-0073D02*
Y-00708D01*
X-00805Y-0073D02*
X-00759D01*
X-00805D02*
Y-00708D01*
X-00789*
X-0067Y-00812D02*
X-00654D01*
Y-0079*
X-007D02*
X-00654D01*
X-007Y-00812D02*
Y-0079D01*
Y-00812D02*
X-0067D01*
X-01208Y-00157D02*
X-01178D01*
Y-00179D02*
Y-00157D01*
X-01224Y-00179D02*
X-01178D01*
X-01224D02*
Y-00157D01*
X-01208*
X-0122Y-00232D02*
Y-00216D01*
Y-00232D02*
X-01198D01*
Y-00186*
X-0122D02*
X-01198D01*
X-0122Y-00216D02*
Y-00186D01*
X-01122Y-00083D02*
X-01092D01*
X-01122D02*
Y-00061D01*
X-01076*
Y-00083D02*
Y-00061D01*
X-01092Y-00083D02*
X-01076D01*
X-01088Y-00052D02*
X-01072D01*
Y-0003*
X-01118D02*
X-01072D01*
X-01118Y-00052D02*
Y-0003D01*
Y-00052D02*
X-01088D01*
X-01266Y0015D02*
X-01236D01*
X-01266D02*
Y00172D01*
X-0122*
Y0015D02*
Y00172D01*
X-01236Y0015D02*
X-0122D01*
X-01255Y00127D02*
X-01239D01*
Y00149*
X-01285D02*
X-01239D01*
X-01285Y00127D02*
Y00149D01*
Y00127D02*
X-01255D01*
X-00468Y-00617D02*
X-00452D01*
Y-00595*
X-00498D02*
X-00452D01*
X-00498Y-00617D02*
Y-00595D01*
Y-00617D02*
X-00468D01*
X-00498Y-00664D02*
X-00468D01*
X-00498D02*
Y-00642D01*
X-00452*
Y-00664D02*
Y-00642D01*
X-00468Y-00664D02*
X-00452D01*
X-00497Y-00618D02*
X-00481D01*
X-00497Y-0064D02*
Y-00618D01*
Y-0064D02*
X-00451D01*
Y-00618*
X-00481D02*
X-00451D01*
X-00339Y-00625D02*
Y-00595D01*
X-00361Y-00625D02*
X-00339D01*
X-00361D02*
Y-00579D01*
X-00339*
Y-00595D02*
Y-00579D01*
X-00345Y-00554D02*
X-00329D01*
X-00345Y-00576D02*
Y-00554D01*
Y-00576D02*
X-00299D01*
Y-00554*
X-00329D02*
X-00299D01*
X-00397Y-0047D02*
Y-0044D01*
X-00375*
Y-00486D02*
Y-0044D01*
X-00397Y-00486D02*
X-00375D01*
X-00397D02*
Y-0047D01*
X-00355Y-00526D02*
X-00339D01*
X-00355Y-00548D02*
Y-00526D01*
Y-00548D02*
X-00309D01*
Y-00526*
X-00339D02*
X-00309D01*
X-00386Y-004D02*
X-00356D01*
X-00386D02*
Y-00378D01*
X-0034*
Y-004D02*
Y-00378D01*
X-00356Y-004D02*
X-0034D01*
X-00287Y-00324D02*
Y-00308D01*
X-00309D02*
X-00287D01*
X-00309Y-00354D02*
Y-00308D01*
Y-00354D02*
X-00287D01*
Y-00324*
X-00182Y-00322D02*
Y-00306D01*
X-00204D02*
X-00182D01*
X-00204Y-00352D02*
Y-00306D01*
Y-00352D02*
X-00182D01*
Y-00322*
X-0015Y-00352D02*
Y-00322D01*
X-00172Y-00352D02*
X-0015D01*
X-00172D02*
Y-00306D01*
X-0015*
Y-00322D02*
Y-00306D01*
X-00501Y-00571D02*
X-0045Y-00519D01*
X-0053Y-00543D02*
X-00501Y-00571D01*
X-0053Y-00543D02*
X-00478Y-00491D01*
X-0045Y-00519*
X-00444Y-00563D02*
X-00442Y-00561D01*
X-00448Y-00567D02*
X-00444Y-00563D01*
X-00448Y-00615D02*
Y-00567D01*
Y-00615D02*
X-00395D01*
X-00394D02*
Y-00561D01*
X-00441D02*
X-00394D01*
M02*