%FSTAX23Y23*%
%MOIN*%
%SFA1B1*%

%IPPOS*%
%AMD14*
4,1,4,0.000000,0.016700,-0.016700,0.000000,0.000000,-0.016700,0.016700,0.000000,0.000000,0.016700,0.0*
%
%AMD15*
4,1,4,0.011300,0.020800,-0.022000,0.008700,-0.011300,-0.020800,0.022000,-0.008700,0.011300,0.020800,0.0*
%
%AMD16*
4,1,4,-0.018000,0.002100,-0.004800,-0.017400,0.018000,-0.002100,0.004800,0.017400,-0.018000,0.002100,0.0*
%
%AMD18*
4,1,4,0.016700,0.000000,0.000000,0.016700,-0.016700,0.000000,0.000000,-0.016700,0.016700,0.000000,0.0*
%
%AMD22*
4,1,4,-0.017100,-0.006000,0.003400,-0.017800,0.017100,0.006000,-0.003400,0.017800,-0.017100,-0.006000,0.0*
%
%AMD25*
4,1,4,-0.000700,-0.008300,0.008300,-0.000700,0.000700,0.008300,-0.008300,0.000700,-0.000700,-0.008300,0.0*
%
%AMD26*
4,1,4,-0.000700,0.008300,-0.008300,-0.000700,0.000700,-0.008300,0.008300,0.000700,-0.000700,0.008300,0.0*
%
%AMD27*
4,1,4,0.005000,0.011700,-0.011700,-0.005000,-0.005000,-0.011700,0.011700,0.005000,0.005000,0.011700,0.0*
%
%AMD28*
4,1,4,0.011700,-0.005000,-0.005000,0.011700,-0.011700,0.005000,0.005000,-0.011700,0.011700,-0.005000,0.0*
%
%AMD29*
4,1,4,0.013900,0.070900,-0.070900,-0.013900,-0.013900,-0.070900,0.070900,0.013900,0.013900,0.070900,0.0*
%
%AMD30*
4,1,4,-0.020000,0.010100,0.006500,-0.021400,0.020000,-0.010100,-0.006500,0.021400,-0.020000,0.010100,0.0*
%
%AMD31*
4,1,4,-0.021900,-0.107000,0.109200,0.003000,0.021900,0.107000,-0.109200,-0.003000,-0.021900,-0.107000,0.0*
%
%AMD32*
4,1,4,0.001300,-0.018000,0.018000,-0.001300,-0.001300,0.018000,-0.018000,0.001300,0.001300,-0.018000,0.0*
%
%AMD33*
4,1,4,0.025500,0.006800,-0.006800,0.025500,-0.025500,-0.006800,0.006800,-0.025500,0.025500,0.006800,0.0*
%
%AMD40*
4,1,8,0.004900,-0.009400,0.004900,0.009400,0.004400,0.009800,-0.004400,0.009800,-0.004900,0.009400,-0.004900,-0.009400,-0.004400,-0.009800,0.004400,-0.009800,0.004900,-0.009400,0.0*
1,1,0.000984,0.004400,-0.009400*
1,1,0.000984,0.004400,0.009400*
1,1,0.000984,-0.004400,0.009400*
1,1,0.000984,-0.004400,-0.009400*
%
%AMD41*
4,1,8,0.039400,-0.015900,0.039400,0.015900,0.037600,0.017700,-0.037600,0.017700,-0.039400,0.015900,-0.039400,-0.015900,-0.037600,-0.017700,0.037600,-0.017700,0.039400,-0.015900,0.0*
1,1,0.003543,0.037600,-0.015900*
1,1,0.003543,0.037600,0.015900*
1,1,0.003543,-0.037600,0.015900*
1,1,0.003543,-0.037600,-0.015900*
%
G04‾CAMADD=14‾10‾0.0‾236.2‾0.0‾0.0‾0.0‾0.0‾0‾0.0‾0.0‾0.0‾0.0‾0‾0.0‾0.0‾0.0‾0.0‾0‾0.0‾0.0‾0.0‾405.0‾236.2‾0.0*
%ADD14D14*%
G04‾CAMADD=15‾9‾0.0‾0.0‾354.3‾315.0‾0.0‾0.0‾0‾0.0‾0.0‾0.0‾0.0‾0‾0.0‾0.0‾0.0‾0.0‾0‾0.0‾0.0‾0.0‾20.0‾440.0‾415.0*
%ADD15D15*%
G04‾CAMADD=16‾9‾0.0‾0.0‾236.2‾275.6‾0.0‾0.0‾0‾0.0‾0.0‾0.0‾0.0‾0‾0.0‾0.0‾0.0‾0.0‾0‾0.0‾0.0‾0.0‾124.0‾360.0‾347.0*
%ADD16D16*%
%ADD17R,0.059055X0.102362*%
G04‾CAMADD=18‾10‾0.0‾236.2‾0.0‾0.0‾0.0‾0.0‾0‾0.0‾0.0‾0.0‾0.0‾0‾0.0‾0.0‾0.0‾0.0‾0‾0.0‾0.0‾0.0‾315.0‾236.2‾0.0*
%ADD18D18*%
%ADD19R,0.023622X0.023622*%
%ADD20R,0.023622X0.023622*%
%ADD21R,0.023622X0.027559*%
G04‾CAMADD=22‾9‾0.0‾0.0‾236.2‾275.6‾0.0‾0.0‾0‾0.0‾0.0‾0.0‾0.0‾0‾0.0‾0.0‾0.0‾0.0‾0‾0.0‾0.0‾0.0‾150.0‾342.0‾355.0*
%ADD22D22*%
%ADD23R,0.011811X0.011811*%
%ADD24R,0.011811X0.011811*%
G04‾CAMADD=25‾10‾0.0‾118.1‾0.0‾0.0‾0.0‾0.0‾0‾0.0‾0.0‾0.0‾0.0‾0‾0.0‾0.0‾0.0‾0.0‾0‾0.0‾0.0‾0.0‾220.0‾118.1‾0.0*
%ADD25D25*%
G04‾CAMADD=26‾10‾0.0‾118.1‾0.0‾0.0‾0.0‾0.0‾0‾0.0‾0.0‾0.0‾0.0‾0‾0.0‾0.0‾0.0‾0.0‾0‾0.0‾0.0‾0.0‾410.0‾118.1‾0.0*
%ADD26D26*%
G04‾CAMADD=27‾9‾0.0‾0.0‾236.2‾94.5‾0.0‾0.0‾0‾0.0‾0.0‾0.0‾0.0‾0‾0.0‾0.0‾0.0‾0.0‾0‾0.0‾0.0‾0.0‾45.0‾234.0‾233.0*
%ADD27D27*%
G04‾CAMADD=28‾9‾0.0‾0.0‾236.2‾94.5‾0.0‾0.0‾0‾0.0‾0.0‾0.0‾0.0‾0‾0.0‾0.0‾0.0‾0.0‾0‾0.0‾0.0‾0.0‾315.0‾234.0‾233.0*
%ADD28D28*%
G04‾CAMADD=29‾9‾0.0‾0.0‾1200.8‾807.1‾0.0‾0.0‾0‾0.0‾0.0‾0.0‾0.0‾0‾0.0‾0.0‾0.0‾0.0‾0‾0.0‾0.0‾0.0‾45.0‾1418.0‾1417.0*
%ADD29D29*%
G04‾CAMADD=30‾9‾0.0‾0.0‾413.4‾177.2‾0.0‾0.0‾0‾0.0‾0.0‾0.0‾0.0‾0‾0.0‾0.0‾0.0‾0.0‾0‾0.0‾0.0‾0.0‾130.0‾400.0‾427.0*
%ADD30D30*%
G04‾CAMADD=31‾9‾0.0‾0.0‾1712.6‾1358.3‾0.0‾0.0‾0‾0.0‾0.0‾0.0‾0.0‾0‾0.0‾0.0‾0.0‾0.0‾0‾0.0‾0.0‾0.0‾220.0‾2184.0‾2139.0*
%ADD31D31*%
G04‾CAMADD=32‾9‾0.0‾0.0‾236.2‾275.6‾0.0‾0.0‾0‾0.0‾0.0‾0.0‾0.0‾0‾0.0‾0.0‾0.0‾0.0‾0‾0.0‾0.0‾0.0‾225.0‾360.0‾359.0*
%ADD32D32*%
G04‾CAMADD=33‾10‾0.0‾374.0‾0.0‾0.0‾0.0‾0.0‾0‾0.0‾0.0‾0.0‾0.0‾0‾0.0‾0.0‾0.0‾0.0‾0‾0.0‾0.0‾0.0‾330.0‾374.0‾0.0*
%ADD33D33*%
%ADD34O,0.007874X0.023622*%
%ADD35O,0.023622X0.007874*%
%ADD37C,0.009843*%
%ADD38R,0.020866X0.009055*%
%ADD39R,0.009055X0.020866*%
G04‾CAMADD=40‾8‾0.0‾0.0‾196.9‾98.4‾4.9‾0.0‾15‾0.0‾0.0‾0.0‾0.0‾0‾0.0‾0.0‾0.0‾0.0‾0‾0.0‾0.0‾0.0‾270.0‾98.0‾196.0*
%ADD40D40*%
G04‾CAMADD=41‾8‾0.0‾0.0‾354.3‾787.4‾17.7‾0.0‾15‾0.0‾0.0‾0.0‾0.0‾0‾0.0‾0.0‾0.0‾0.0‾0‾0.0‾0.0‾0.0‾270.0‾788.0‾354.0*
%ADD41D41*%
%ADD42R,0.037401X0.037401*%
%ADD43R,0.037401X0.037401*%
%ADD60R,0.110236X0.110236*%
%ADD73C,0.015748*%
%LNflytta-32-1*%
%LPD*%
G54D14*
X-00987Y00161D03*
X-00964Y00138D03*
X-01016Y00277D03*
X-01044Y00305D03*
G54D15*
X-00907Y00192D03*
X-00855Y0021D03*
X-0087Y00251D03*
X-00922Y00232D03*
G54D16*
X-00942Y-00532D03*
X-00963Y-00501D03*
G54D17*
X-00617Y00375D03*
X-00818D03*
G54D18*
X-00993Y00357D03*
X-01021Y00329D03*
X-01064Y00285D03*
X-01092Y00257D03*
G54D19*
X-0095Y00315D03*
Y00354D03*
X-00227Y-0033D03*
Y-00291D03*
X-0073Y-00693D03*
Y-00654D03*
X-01247Y-00214D03*
Y-00253D03*
X-01339Y-00211D03*
Y-00172D03*
X-01157Y00107D03*
Y00067D03*
G54D20*
X-00781Y00227D03*
X-00814D03*
X-01089Y00067D03*
X-01129D03*
X-00432Y-00706D03*
X-00472D03*
X-01157Y00131D03*
X-01118D03*
X-01101Y00034D03*
X-01062D03*
G54D21*
X-00517Y-00597D03*
X-00555D03*
G54D22*
X-00866Y-00599D03*
X-00898Y-0058D03*
G54D23*
X-01358Y-00334D03*
Y-0031D03*
X-01319Y-00319D03*
Y-00295D03*
X-01289Y00077D03*
Y001D03*
X-00767Y-00657D03*
Y-00681D03*
X-01209Y-00221D03*
Y-00197D03*
X-0035Y-00613D03*
Y-0059D03*
X-00386Y-00451D03*
Y-00475D03*
X-00298Y-00319D03*
Y-00342D03*
X-00193Y-00317D03*
Y-00341D03*
X-00161D03*
Y-00317D03*
G54D24*
X-01242Y00115D03*
X-01218D03*
X-01103Y-00237D03*
X-01126D03*
X-01103Y-00276D03*
X-01126D03*
X-00915Y-00756D03*
X-00939D03*
X-00879Y-0076D03*
X-00855D03*
X-00744Y-00807D03*
X-00768D03*
Y-00769D03*
X-00744D03*
X-00885Y-00732D03*
X-00862D03*
X-00857Y-00708D03*
X-00833D03*
X-00894Y-00797D03*
X-00871D03*
X-00628Y-00745D03*
X-00651D03*
X-00756D03*
X-00732D03*
X-0077Y-00719D03*
X-00794D03*
X-00665Y-00801D03*
X-00688D03*
X-01189Y-00168D03*
X-01213D03*
X-01111Y-00072D03*
X-01087D03*
X-01083Y-00041D03*
X-01106D03*
X-01254Y00161D03*
X-01231D03*
X-0125Y00138D03*
X-01274D03*
X-00463Y-00606D03*
X-00486D03*
X-00487Y-00653D03*
X-00463D03*
X-00486Y-00629D03*
X-00463D03*
X-00334Y-00565D03*
X-00311D03*
X-00344Y-00537D03*
X-00321D03*
X-00374Y-00389D03*
X-00351D03*
G54D25*
X-01071Y-00319D03*
X-01086Y-00301D03*
X-01094Y-00328D03*
X-01109Y-0031D03*
G54D26*
X-01343Y-00418D03*
X-01325Y-00433D03*
G54D27*
X-00962Y-00571D03*
X-01081Y-00691D03*
X-0104Y-00733D03*
X-0092Y-00613D03*
G54D28*
X-00998Y-00557D03*
X-01012Y-00571D03*
X-01026Y-00585D03*
X-0104Y-00599D03*
X-01054Y-00613D03*
X-01067Y-00627D03*
X-01081Y-00641D03*
X-01095Y-00655D03*
X-01003Y-00747D03*
X-0099Y-00733D03*
X-00976Y-00719D03*
X-00962Y-00705D03*
X-00948Y-00691D03*
X-00934Y-00677D03*
X-0092Y-00663D03*
X-00906Y-00649D03*
G54D29*
X-01001Y-00652D03*
G54D30*
X-01163Y-0055D03*
X-01125Y-00518D03*
X-01087Y-00486D03*
X-01048Y-00454D03*
X-01193Y-00282D03*
X-01231Y-00314D03*
X-01269Y-00346D03*
X-01308Y-00379D03*
G54D31*
X-01178Y-00416D03*
G54D32*
X-00476Y-00518D03*
X-00503Y-00544D03*
G54D33*
X-00435Y-00453D03*
X-00407Y-00404D03*
G54D34*
X-01166Y0004D03*
X-01181D03*
X-01197D03*
X-01213D03*
X-01229D03*
X-01244D03*
X-0126D03*
X-01276D03*
Y-00108D03*
X-0126D03*
X-01244D03*
X-01229D03*
X-01213D03*
X-01197D03*
X-01181D03*
X-01166D03*
G54D35*
X-01296Y00021D03*
Y00005D03*
Y-0001D03*
Y-00026D03*
Y-00041D03*
Y-00057D03*
Y-00073D03*
Y-00089D03*
X-01146D03*
Y-00073D03*
Y-00057D03*
Y-00041D03*
Y-00026D03*
Y-0001D03*
Y00005D03*
Y00021D03*
G54D37*
X-00405Y-00605D03*
Y-00589D03*
Y-00574D03*
X-00421Y-00605D03*
Y-00589D03*
Y-00574D03*
X-00437Y-00605D03*
Y-00589D03*
Y-00574D03*
G54D38*
X-00196Y-00403D03*
Y-0042D03*
Y-00454D03*
Y-00437D03*
X-0031D03*
Y-00454D03*
Y-0042D03*
Y-00403D03*
G54D39*
X-00312Y-0038D03*
X-00278D03*
X-00244D03*
X-00227D03*
X-00194D03*
X-0021D03*
X-00261D03*
X-00295D03*
Y-00477D03*
X-00261D03*
X-0021D03*
X-00194D03*
X-00227D03*
X-00244D03*
X-00278D03*
X-00312D03*
G54D40*
X-00612Y-00717D03*
X-00592D03*
X-00691Y-00643D03*
X-00671D03*
X-00612D03*
X-00592D03*
X-00691Y-00717D03*
X-00651D03*
X-00632D03*
X-00671D03*
X-00632Y-00643D03*
X-00651D03*
G54D41*
X-00641Y-0068D03*
G54D42*
X-00804Y-00619D03*
X-00747D03*
G54D43*
X-01297Y-00217D03*
Y-0016D03*
G54D60*
X-01221Y-00033D03*
G54D73*
X-01261Y-00033D03*
X-01221Y-00073D03*
Y-00033D03*
Y00006D03*
X-01181Y-00033D03*
M02*