%FSTAX23Y23*%
%MOIN*%
%SFA1B1*%

%IPPOS*%
%ADD10C,0.007874*%
%ADD11C,0.009843*%
%ADD12C,0.010000*%
%ADD13C,0.019685*%
%ADD14C,0.003937*%
%LNflytta-33-1*%
%LPD*%
G36*
X00492Y-00495D02*
X00487D01*
Y-0049*
X00492*
Y-00495*
G37*
G36*
X0056Y-0049D02*
X00561Y-0049D01*
X00561Y-0049*
X00562Y-0049*
X00562Y-0049*
X00563Y-0049*
X00565Y-00491*
X00565Y-00491*
X00566Y-00491*
X00566Y-00491*
X00567Y-00492*
X00567Y-00492*
X00567Y-00492*
X00567Y-00492*
X00567Y-00492*
X00568Y-00492*
X00568Y-00492*
X00568Y-00493*
X00568Y-00493*
X00569Y-00493*
X00569Y-00494*
X00569Y-00494*
X00569Y-00495*
X0057Y-00495*
X0057Y-00496*
X0057Y-00496*
X0057Y-00497*
X00565Y-00498*
Y-00498*
X00565Y-00498*
X00565Y-00498*
X00565Y-00497*
X00565Y-00497*
X00565Y-00496*
X00564Y-00496*
X00564Y-00496*
X00563Y-00495*
X00563Y-00495*
X00563Y-00495*
X00563Y-00495*
X00562Y-00495*
X00562Y-00494*
X00561Y-00494*
X0056Y-00494*
X0056Y-00494*
X00559*
X00559Y-00494*
X00559Y-00494*
X00558Y-00494*
X00558Y-00494*
X00558Y-00494*
X00557Y-00495*
X00556Y-00495*
X00556Y-00495*
X00556Y-00495*
X00555Y-00495*
X00555Y-00496*
X00554Y-00496*
X00554Y-00496*
X00554Y-00496*
X00554Y-00496*
X00554Y-00497*
X00554Y-00497*
X00554Y-00497*
X00553Y-00497*
X00553Y-00498*
X00553Y-00498*
X00553Y-00499*
X00553Y-00499*
X00553Y-005*
X00553Y-005*
X00552Y-00501*
X00552Y-00502*
X00552Y-00502*
Y-00502*
Y-00503*
Y-00503*
X00552Y-00503*
X00552Y-00504*
X00552Y-00504*
X00553Y-00504*
X00553Y-00505*
X00553Y-00506*
X00553Y-00507*
X00553Y-00508*
X00554Y-00508*
X00554Y-00509*
X00554Y-00509*
X00554Y-00509*
X00554Y-00509*
X00555Y-00509*
X00555Y-0051*
X00555Y-0051*
X00555Y-0051*
X00555Y-0051*
X00556Y-0051*
X00556Y-00511*
X00556Y-00511*
X00557Y-00511*
X00558Y-00511*
X00558Y-00511*
X00559Y-00511*
X0056Y-00511*
X0056*
X0056Y-00511*
X00561Y-00511*
X00561Y-00511*
X00562Y-00511*
X00562Y-00511*
X00563Y-00511*
X00563*
X00563Y-00511*
X00563Y-00511*
X00563Y-00511*
X00564Y-0051*
X00564Y-0051*
X00565Y-0051*
X00565Y-0051*
X00566Y-00509*
Y-00506*
X0056*
Y-00502*
X00571*
Y-00512*
X00571Y-00512*
X0057Y-00512*
X0057Y-00512*
X0057Y-00512*
X0057Y-00512*
X0057Y-00513*
X00569Y-00513*
X00568Y-00514*
X00567Y-00514*
X00566Y-00515*
X00566*
X00566Y-00515*
X00566Y-00515*
X00566Y-00515*
X00565Y-00515*
X00565Y-00515*
X00565Y-00515*
X00564Y-00515*
X00563Y-00515*
X00562Y-00516*
X00561Y-00516*
X0056Y-00516*
X00559*
X00559Y-00516*
X00559*
X00558Y-00516*
X00558Y-00516*
X00558Y-00516*
X00556Y-00515*
X00555Y-00515*
X00554Y-00515*
X00554Y-00514*
X00553Y-00514*
X00553Y-00514*
X00553Y-00514*
X00553Y-00514*
X00553Y-00514*
X00552Y-00514*
X00552Y-00513*
X00552Y-00513*
X00551Y-00513*
X00551Y-00512*
X0055Y-00511*
X00549Y-0051*
X00549Y-00509*
Y-00509*
X00549Y-00509*
X00548Y-00509*
X00548Y-00509*
X00548Y-00509*
X00548Y-00508*
X00548Y-00508*
X00548Y-00507*
X00548Y-00507*
X00548Y-00506*
X00547Y-00505*
X00547Y-00504*
X00547Y-00503*
Y-00503*
Y-00502*
Y-00502*
X00547Y-00502*
Y-00502*
X00547Y-00501*
X00547Y-00501*
X00547Y-005*
X00548Y-00499*
X00548Y-00498*
X00548Y-00497*
X00548Y-00496*
X00549Y-00496*
X00549Y-00496*
X00549Y-00496*
X00549Y-00495*
X00549Y-00495*
X00549Y-00495*
X00549Y-00495*
X0055Y-00494*
X0055Y-00494*
X0055Y-00494*
X00551Y-00493*
X00551Y-00493*
X00551Y-00492*
X00552Y-00492*
X00552Y-00492*
X00554Y-00491*
X00554*
X00554Y-00491*
X00554Y-00491*
X00554Y-00491*
X00554Y-00491*
X00555Y-00491*
X00555Y-0049*
X00555Y-0049*
X00556Y-0049*
X00556Y-0049*
X00557Y-0049*
X00557Y-0049*
X00558Y-0049*
X0056Y-0049*
X0056*
X0056Y-0049*
G37*
G36*
X00416Y-00515D02*
X00412D01*
Y-00513*
X00412Y-00513*
X00411Y-00513*
X00411Y-00513*
X00411Y-00514*
X0041Y-00514*
X0041Y-00514*
X00409Y-00515*
X00409Y-00515*
X00409Y-00515*
X00409Y-00515*
X00408Y-00515*
X00408Y-00515*
X00407Y-00516*
X00407Y-00516*
X00406Y-00516*
X00406Y-00516*
X00406*
X00405Y-00516*
X00405Y-00516*
X00405Y-00516*
X00404Y-00516*
X00404Y-00515*
X00404Y-00515*
X00403Y-00515*
X00403Y-00515*
X00402Y-00515*
X00402Y-00514*
X00401Y-00514*
X00401Y-00514*
X004Y-00513*
X004Y-00513*
X004Y-00513*
X004Y-00513*
X004Y-00513*
X004Y-00512*
X004Y-00512*
X004Y-00512*
X00399Y-00511*
X00399Y-00511*
X00399Y-0051*
X00399Y-0051*
X00399Y-00509*
X00398Y-00508*
X00398Y-00508*
X00398Y-00507*
X00398Y-00506*
Y-00506*
Y-00506*
Y-00506*
X00398Y-00505*
X00398Y-00505*
X00398Y-00505*
X00398Y-00504*
X00398Y-00504*
X00399Y-00502*
X00399Y-00502*
X00399Y-00501*
X00399Y-00501*
X004Y-005*
X004Y-005*
X004Y-00499*
X004Y-00499*
X004Y-00499*
X00401Y-00499*
X00401Y-00499*
X00401Y-00499*
X00401Y-00498*
X00402Y-00498*
X00402Y-00498*
X00402Y-00498*
X00403Y-00497*
X00404Y-00497*
X00404Y-00497*
X00405Y-00497*
X00405Y-00497*
X00406Y-00497*
X00406*
X00406Y-00497*
X00407Y-00497*
X00407Y-00497*
X00407Y-00497*
X00408Y-00497*
X00408Y-00497*
X00409Y-00497*
X00409Y-00497*
X00409Y-00498*
X0041Y-00498*
X0041Y-00498*
X00411Y-00499*
X00411Y-00499*
Y-0049*
X00416*
Y-00515*
G37*
G36*
X00597Y-00497D02*
X00597Y-00497D01*
X00598Y-00497*
X00598Y-00497*
X00599Y-00497*
X00599Y-00497*
X00599Y-00498*
X00599Y-00498*
X006Y-00498*
X006Y-00498*
X006Y-00498*
X00601Y-00499*
X00601Y-00499*
X00601Y-005*
X00601Y-005*
X00601Y-005*
X00602Y-005*
X00602Y-00501*
X00602Y-00501*
X00602Y-00502*
X00602Y-00503*
X00602Y-00504*
Y-00515*
X00597*
Y-00505*
Y-00505*
Y-00505*
Y-00505*
Y-00504*
X00597Y-00504*
X00597Y-00503*
X00597Y-00503*
X00597Y-00502*
X00597Y-00502*
X00597Y-00502*
X00597Y-00501*
X00596Y-00501*
X00596Y-00501*
X00596Y-00501*
X00596Y-00501*
X00596Y-00501*
X00595Y-00501*
X00595Y-005*
X00594Y-005*
X00594*
X00594Y-005*
X00594Y-005*
X00594Y-00501*
X00593Y-00501*
X00593Y-00501*
X00593Y-00501*
X00592Y-00501*
X00592Y-00501*
X00592Y-00501*
X00592Y-00501*
X00592Y-00502*
X00592Y-00502*
X00591Y-00502*
X00591Y-00503*
Y-00503*
X00591Y-00503*
X00591Y-00503*
X00591Y-00504*
X00591Y-00504*
X00591Y-00505*
X00591Y-00506*
Y-00507*
Y-00515*
X00586*
Y-00505*
Y-00505*
Y-00505*
Y-00505*
Y-00505*
Y-00504*
X00586Y-00504*
X00586Y-00503*
X00586Y-00503*
X00586Y-00502*
X00586Y-00502*
X00586Y-00502*
Y-00502*
X00586Y-00502*
X00586Y-00502*
X00586Y-00501*
X00585Y-00501*
X00585Y-00501*
X00585Y-00501*
X00585Y-00501*
X00585Y-00501*
X00585Y-00501*
X00585Y-00501*
X00584Y-005*
X00584Y-005*
X00584Y-005*
X00583*
X00583Y-005*
X00583Y-005*
X00583Y-00501*
X00582Y-00501*
X00582Y-00501*
X00581Y-00501*
X00581Y-00501*
X00581Y-00501*
X00581Y-00501*
X00581Y-00501*
X00581Y-00502*
X00581Y-00502*
X0058Y-00502*
X0058Y-00503*
Y-00503*
X0058Y-00503*
X0058Y-00503*
X0058Y-00504*
X0058Y-00504*
X0058Y-00505*
X0058Y-00506*
Y-00506*
Y-00515*
X00575*
Y-00497*
X00579*
Y-005*
X00579Y-005*
X0058Y-00499*
X0058Y-00499*
X0058Y-00499*
X0058Y-00499*
X0058Y-00499*
X00581Y-00498*
X00581Y-00498*
X00581Y-00498*
X00582Y-00498*
X00583Y-00497*
X00583Y-00497*
X00584Y-00497*
X00585Y-00497*
X00585Y-00497*
X00585*
X00586Y-00497*
X00586Y-00497*
X00587Y-00497*
X00587Y-00497*
X00588Y-00497*
X00588Y-00497*
X00588Y-00497*
X00588Y-00498*
X00589Y-00498*
X00589Y-00498*
X00589Y-00498*
X0059Y-00499*
X0059Y-00499*
X0059Y-005*
X0059Y-005*
X00591Y-00499*
X00591Y-00499*
X00591Y-00499*
X00591Y-00498*
X00592Y-00498*
X00592Y-00498*
X00593Y-00497*
X00593Y-00497*
X00593Y-00497*
X00593Y-00497*
X00594Y-00497*
X00594Y-00497*
X00595Y-00497*
X00595Y-00497*
X00596Y-00497*
X00596*
X00597Y-00497*
G37*
G36*
X00508D02*
X00508Y-00497D01*
X00509Y-00497*
X00509Y-00497*
X0051Y-00497*
X0051Y-00497*
X00511Y-00497*
X00511Y-00497*
X00511Y-00497*
X00511Y-00498*
X00512Y-00498*
X00512Y-00498*
X00512Y-00498*
X00512Y-00499*
X00513Y-00499*
X00513Y-00499*
X00513Y-00499*
X00513Y-00499*
X00513Y-005*
X00513Y-005*
X00513Y-005*
X00513Y-00501*
Y-00501*
X00513Y-00501*
X00514Y-00501*
X00514Y-00502*
X00514Y-00502*
X00514Y-00503*
X00514Y-00503*
Y-00504*
Y-00515*
X00509*
Y-00506*
Y-00506*
Y-00506*
Y-00506*
Y-00506*
Y-00505*
Y-00505*
X00509Y-00504*
X00509Y-00504*
X00509Y-00503*
X00509Y-00503*
X00509Y-00502*
X00509Y-00502*
Y-00502*
X00508Y-00502*
X00508Y-00502*
X00508Y-00502*
X00508Y-00501*
X00508Y-00501*
X00508Y-00501*
X00507Y-00501*
X00507Y-00501*
X00507Y-00501*
X00507Y-00501*
X00507Y-00501*
X00507Y-005*
X00506Y-005*
X00506Y-005*
X00506*
X00505Y-005*
X00505Y-005*
X00505Y-00501*
X00504Y-00501*
X00504Y-00501*
X00504Y-00501*
X00504Y-00501*
X00503Y-00501*
X00503Y-00501*
X00503Y-00502*
X00503Y-00502*
X00503Y-00502*
X00502Y-00503*
X00502Y-00503*
Y-00503*
X00502Y-00503*
X00502Y-00503*
X00502Y-00504*
X00502Y-00504*
X00502Y-00504*
X00502Y-00505*
Y-00505*
X00502Y-00506*
X00502Y-00506*
Y-00507*
Y-00507*
Y-00515*
X00497*
Y-00497*
X00502*
Y-005*
X00502Y-005*
X00502Y-005*
X00502Y-00499*
X00502Y-00499*
X00502Y-00499*
X00502Y-00499*
X00503Y-00498*
X00503Y-00498*
X00504Y-00498*
X00504Y-00498*
X00504Y-00497*
X00505Y-00497*
X00506Y-00497*
X00506Y-00497*
X00507Y-00497*
X00508Y-00497*
X00508*
X00508Y-00497*
G37*
G36*
X00455D02*
X00456Y-00497D01*
X00456Y-00497*
X00457Y-00497*
X00457Y-00497*
X00458Y-00497*
X00458Y-00497*
X00458Y-00497*
X00458Y-00497*
X00458Y-00498*
X00459Y-00498*
X00459Y-00498*
X00459Y-00498*
X0046Y-00499*
X0046Y-00499*
X0046Y-00499*
X0046Y-00499*
X0046Y-00499*
X0046Y-005*
X0046Y-005*
X0046Y-005*
X00461Y-00501*
Y-00501*
X00461Y-00501*
X00461Y-00501*
X00461Y-00502*
X00461Y-00502*
X00461Y-00503*
X00461Y-00503*
Y-00504*
Y-00515*
X00456*
Y-00506*
Y-00506*
Y-00506*
Y-00506*
Y-00506*
Y-00505*
Y-00505*
X00456Y-00504*
X00456Y-00504*
X00456Y-00503*
X00456Y-00503*
X00456Y-00502*
X00456Y-00502*
Y-00502*
X00456Y-00502*
X00456Y-00502*
X00455Y-00502*
X00455Y-00501*
X00455Y-00501*
X00455Y-00501*
X00455Y-00501*
X00455Y-00501*
X00454Y-00501*
X00454Y-00501*
X00454Y-00501*
X00454Y-005*
X00453Y-005*
X00453Y-005*
X00453*
X00453Y-005*
X00452Y-005*
X00452Y-00501*
X00452Y-00501*
X00451Y-00501*
X00451Y-00501*
X00451Y-00501*
X00451Y-00501*
X0045Y-00501*
X0045Y-00502*
X0045Y-00502*
X0045Y-00502*
X0045Y-00503*
X00449Y-00503*
Y-00503*
X00449Y-00503*
X00449Y-00503*
X00449Y-00504*
X00449Y-00504*
X00449Y-00504*
X00449Y-00505*
Y-00505*
X00449Y-00506*
X00449Y-00506*
Y-00507*
Y-00507*
Y-00515*
X00444*
Y-00497*
X00449*
Y-005*
X00449Y-005*
X00449Y-005*
X00449Y-00499*
X00449Y-00499*
X00449Y-00499*
X0045Y-00499*
X0045Y-00498*
X0045Y-00498*
X00451Y-00498*
X00451Y-00498*
X00452Y-00497*
X00452Y-00497*
X00453Y-00497*
X00453Y-00497*
X00454Y-00497*
X00455Y-00497*
X00455*
X00455Y-00497*
G37*
G36*
X00648Y-00515D02*
X00643D01*
Y-00504*
X00633*
Y-00515*
X00628*
Y-0049*
X00633*
Y-005*
X00643*
Y-0049*
X00648*
Y-00515*
G37*
G36*
X00375D02*
X0037D01*
X0037Y-00496*
X00365Y-00515*
X0036*
X00355Y-00496*
Y-00515*
X0035*
Y-0049*
X00358*
X00362Y-00507*
X00367Y-0049*
X00375*
Y-00515*
G37*
G36*
X00492D02*
X00487D01*
Y-00497*
X00492*
Y-00515*
G37*
G36*
X0044Y-00494D02*
X00426D01*
Y-005*
X00439*
Y-00504*
X00426*
Y-00511*
X0044*
Y-00515*
X00421*
Y-0049*
X0044*
Y-00494*
G37*
G36*
X00611Y-00499D02*
X00611Y-00499D01*
X00611Y-00499*
X00612Y-00499*
X00612Y-00499*
X00612Y-00499*
X00612Y-00498*
X00612Y-00498*
X00613Y-00498*
X00614Y-00497*
X00614Y-00497*
X00615Y-00497*
X00615Y-00497*
X00616Y-00497*
X00617Y-00497*
X00617*
X00617Y-00497*
X00617Y-00497*
X00618Y-00497*
X00618Y-00497*
X00619Y-00497*
X00619Y-00497*
X0062Y-00497*
X0062Y-00498*
X00621Y-00498*
X00621Y-00498*
X00622Y-00499*
X00622Y-00499*
X00622Y-00499*
X00622Y-00499*
X00622Y-00499*
X00622Y-005*
X00623Y-005*
X00623Y-005*
X00623Y-005*
X00623Y-00501*
X00623Y-00501*
X00624Y-00502*
X00624Y-00502*
X00624Y-00503*
X00624Y-00504*
X00624Y-00504*
X00624Y-00505*
X00624Y-00506*
Y-00506*
Y-00506*
Y-00506*
X00624Y-00507*
X00624Y-00507*
X00624Y-00508*
X00624Y-00508*
X00624Y-00509*
X00624Y-0051*
X00624Y-0051*
X00623Y-00511*
X00623Y-00512*
X00623Y-00512*
X00622Y-00513*
X00622Y-00513*
X00622Y-00513*
X00622Y-00513*
X00622Y-00513*
X00622Y-00514*
X00621Y-00514*
X00621Y-00514*
X00621Y-00514*
X00621Y-00514*
X0062Y-00515*
X0062Y-00515*
X00619Y-00515*
X00618Y-00516*
X00618Y-00516*
X00617Y-00516*
X00617Y-00516*
X00616*
X00616Y-00516*
X00616Y-00516*
X00615Y-00516*
X00615Y-00515*
X00614Y-00515*
X00614Y-00515*
X00613Y-00515*
X00613Y-00515*
X00613Y-00515*
X00613Y-00514*
X00612Y-00514*
X00612Y-00514*
X00611Y-00513*
X00611Y-00513*
Y-00515*
X00606*
Y-0049*
X00611*
Y-00499*
G37*
G36*
X00526Y-00497D02*
X00527Y-00497D01*
X00527Y-00497*
X00527Y-00497*
X00528Y-00497*
X00528Y-00497*
X00529Y-00497*
X00529Y-00498*
X0053Y-00498*
X0053Y-00498*
X00531Y-00498*
X00532Y-00499*
X00532Y-00499*
X00532Y-00499*
X00532Y-00499*
X00532Y-005*
X00532Y-005*
X00532Y-005*
X00533Y-00501*
X00533Y-00501*
X00533Y-00501*
X00533Y-00502*
X00534Y-00503*
X00534Y-00503*
X00534Y-00504*
X00534Y-00505*
X00534Y-00506*
X00534Y-00507*
Y-00508*
X00522*
Y-00508*
Y-00508*
Y-00508*
X00522Y-00508*
X00522Y-00508*
X00522Y-00509*
X00522Y-00509*
X00523Y-0051*
X00523Y-0051*
X00523Y-00511*
X00523Y-00511*
X00523Y-00511*
X00524Y-00511*
X00524Y-00512*
X00524Y-00512*
X00525Y-00512*
X00525Y-00512*
X00526Y-00512*
X00526*
X00526Y-00512*
X00527Y-00512*
X00527Y-00512*
X00527Y-00512*
X00528Y-00512*
X00528Y-00512*
X00528Y-00511*
X00528Y-00511*
X00528Y-00511*
X00528Y-00511*
X00529Y-00511*
X00529Y-0051*
X00529Y-0051*
X00529Y-0051*
X00534Y-0051*
Y-0051*
X00534Y-0051*
X00534Y-00511*
X00534Y-00511*
X00534Y-00511*
X00534Y-00511*
X00533Y-00512*
X00533Y-00512*
X00532Y-00513*
X00532Y-00514*
X00531Y-00514*
X00531*
X00531Y-00514*
X00531Y-00514*
X00531Y-00515*
X0053Y-00515*
X0053Y-00515*
X0053Y-00515*
X0053Y-00515*
X00529Y-00515*
X00528Y-00516*
X00527Y-00516*
X00526Y-00516*
X00526*
X00526Y-00516*
X00525*
X00525Y-00516*
X00524Y-00516*
X00524Y-00515*
X00523Y-00515*
X00523Y-00515*
X00522Y-00515*
X00522Y-00515*
X00521Y-00514*
X0052Y-00514*
X0052Y-00514*
X00519Y-00513*
X00519Y-00513*
X00519Y-00513*
X00519Y-00513*
X00519Y-00512*
X00519Y-00512*
X00519Y-00512*
X00518Y-00512*
X00518Y-00511*
X00518Y-00511*
X00518Y-0051*
X00518Y-0051*
X00518Y-0051*
X00517Y-00509*
X00517Y-00508*
X00517Y-00508*
X00517Y-00507*
X00517Y-00506*
Y-00506*
Y-00506*
Y-00506*
X00517Y-00506*
X00517Y-00505*
X00517Y-00505*
X00517Y-00504*
X00517Y-00504*
X00518Y-00503*
X00518Y-00502*
X00518Y-00501*
X00518Y-00501*
X00519Y-005*
X00519Y-005*
X0052Y-00499*
X0052Y-00499*
X0052Y-00499*
X0052Y-00499*
X0052Y-00499*
X0052Y-00499*
X00521Y-00498*
X00521Y-00498*
X00521Y-00498*
X00522Y-00498*
X00522Y-00497*
X00523Y-00497*
X00523Y-00497*
X00524Y-00497*
X00524Y-00497*
X00525Y-00497*
X00526Y-00497*
X00526*
X00526Y-00497*
G37*
G36*
X00387D02*
X00388Y-00497D01*
X00388Y-00497*
X00388Y-00497*
X00389Y-00497*
X00389Y-00497*
X0039Y-00497*
X00391Y-00498*
X00391Y-00498*
X00392Y-00498*
X00392Y-00498*
X00393Y-00499*
X00393Y-00499*
X00393Y-00499*
X00393Y-00499*
X00393Y-005*
X00393Y-005*
X00394Y-005*
X00394Y-00501*
X00394Y-00501*
X00394Y-00501*
X00394Y-00502*
X00395Y-00503*
X00395Y-00503*
X00395Y-00504*
X00395Y-00505*
X00395Y-00506*
X00395Y-00507*
Y-00508*
X00383*
Y-00508*
Y-00508*
Y-00508*
X00383Y-00508*
X00383Y-00508*
X00383Y-00509*
X00384Y-00509*
X00384Y-0051*
X00384Y-0051*
X00384Y-00511*
X00384Y-00511*
X00385Y-00511*
X00385Y-00511*
X00385Y-00512*
X00386Y-00512*
X00386Y-00512*
X00387Y-00512*
X00387Y-00512*
X00387*
X00388Y-00512*
X00388Y-00512*
X00388Y-00512*
X00388Y-00512*
X00389Y-00512*
X00389Y-00512*
X00389Y-00511*
X00389Y-00511*
X00389Y-00511*
X0039Y-00511*
X0039Y-00511*
X0039Y-0051*
X0039Y-0051*
X0039Y-0051*
X00395Y-0051*
Y-0051*
X00395Y-0051*
X00395Y-00511*
X00395Y-00511*
X00395Y-00511*
X00395Y-00511*
X00394Y-00512*
X00394Y-00512*
X00393Y-00513*
X00393Y-00514*
X00392Y-00514*
X00392*
X00392Y-00514*
X00392Y-00514*
X00392Y-00515*
X00392Y-00515*
X00391Y-00515*
X00391Y-00515*
X00391Y-00515*
X0039Y-00515*
X00389Y-00516*
X00388Y-00516*
X00387Y-00516*
X00387*
X00387Y-00516*
X00386*
X00386Y-00516*
X00386Y-00516*
X00385Y-00515*
X00384Y-00515*
X00384Y-00515*
X00383Y-00515*
X00383Y-00515*
X00382Y-00514*
X00382Y-00514*
X00381Y-00514*
X00381Y-00513*
X0038Y-00513*
X0038Y-00513*
X0038Y-00513*
X0038Y-00512*
X0038Y-00512*
X0038Y-00512*
X0038Y-00512*
X00379Y-00511*
X00379Y-00511*
X00379Y-0051*
X00379Y-0051*
X00379Y-0051*
X00379Y-00509*
X00378Y-00508*
X00378Y-00508*
X00378Y-00507*
X00378Y-00506*
Y-00506*
Y-00506*
Y-00506*
X00378Y-00506*
X00378Y-00505*
X00378Y-00505*
X00378Y-00504*
X00379Y-00504*
X00379Y-00503*
X00379Y-00502*
X00379Y-00501*
X0038Y-00501*
X0038Y-005*
X0038Y-005*
X00381Y-00499*
X00381Y-00499*
X00381Y-00499*
X00381Y-00499*
X00381Y-00499*
X00381Y-00499*
X00382Y-00498*
X00382Y-00498*
X00382Y-00498*
X00383Y-00498*
X00383Y-00497*
X00384Y-00497*
X00384Y-00497*
X00385Y-00497*
X00385Y-00497*
X00386Y-00497*
X00387Y-00497*
X00387*
X00387Y-00497*
G37*
G36*
X00473D02*
X00473D01*
X00473Y-00497*
X00474Y-00497*
X00474Y-00497*
X00474Y-00497*
X00475Y-00497*
X00475Y-00497*
X00476Y-00498*
X00476Y-00498*
X00477Y-00498*
X00477Y-00499*
X00478Y-00499*
X00478Y-005*
Y-00497*
X00483*
Y-00513*
Y-00514*
Y-00514*
Y-00514*
Y-00514*
Y-00514*
X00482Y-00515*
X00482Y-00515*
X00482Y-00516*
X00482Y-00517*
X00482Y-00518*
X00482Y-00518*
X00482Y-00518*
X00482Y-00518*
X00482Y-00519*
X00482Y-00519*
X00482Y-00519*
X00481Y-0052*
X00481Y-0052*
X00481Y-0052*
X0048Y-00521*
X0048Y-00521*
X0048Y-00521*
X0048Y-00521*
X0048Y-00521*
X00479Y-00522*
X00479Y-00522*
X00478Y-00522*
X00478Y-00522*
X00478Y-00522*
X00478Y-00522*
X00477Y-00522*
X00477Y-00522*
X00476Y-00523*
X00475Y-00523*
X00475Y-00523*
X00474Y-00523*
X00473*
X00473Y-00523*
X00473*
X00472Y-00523*
X00472Y-00523*
X00471Y-00523*
X0047Y-00522*
X00469Y-00522*
X00469Y-00522*
X00468Y-00522*
X00468Y-00521*
X00467Y-00521*
X00467Y-00521*
X00467Y-00521*
X00467Y-00521*
X00467Y-00521*
X00466Y-0052*
X00466Y-00519*
X00466Y-00519*
X00465Y-00518*
X00465Y-00518*
X00465Y-00517*
Y-00517*
Y-00517*
Y-00517*
X00465Y-00517*
X00471Y-00517*
Y-00517*
X00471Y-00517*
X00471Y-00518*
X00471Y-00518*
X00471Y-00518*
X00471Y-00518*
X00471Y-00518*
X00472Y-00519*
X00472Y-00519*
X00472Y-00519*
X00472Y-00519*
X00472Y-00519*
X00473Y-00519*
X00473Y-00519*
X00474Y-00519*
X00474*
X00474Y-00519*
X00475Y-00519*
X00475Y-00519*
X00476Y-00519*
X00476Y-00519*
X00476Y-00518*
X00477Y-00518*
X00477Y-00518*
X00477Y-00518*
X00477Y-00518*
X00477Y-00518*
X00477Y-00518*
X00477Y-00518*
X00477Y-00517*
Y-00517*
X00477Y-00517*
X00477Y-00517*
X00478Y-00517*
X00478Y-00516*
X00478Y-00516*
X00478Y-00516*
Y-00515*
Y-00512*
X00478Y-00512*
X00478Y-00512*
X00477Y-00513*
X00477Y-00513*
X00477Y-00513*
X00477Y-00513*
X00477Y-00514*
X00476Y-00514*
X00476Y-00514*
X00475Y-00514*
X00474Y-00515*
X00474Y-00515*
X00473Y-00515*
X00473Y-00515*
X00472Y-00515*
X00472*
X00472Y-00515*
X00472*
X00471Y-00515*
X00471Y-00515*
X00471Y-00515*
X0047Y-00515*
X0047Y-00515*
X00469Y-00515*
X00469Y-00514*
X00468Y-00514*
X00468Y-00514*
X00467Y-00513*
X00467Y-00513*
X00466Y-00512*
Y-00512*
X00466Y-00512*
X00466Y-00512*
X00466Y-00512*
X00466Y-00512*
X00466Y-00511*
X00466Y-00511*
X00466Y-00511*
X00465Y-0051*
X00465Y-0051*
X00465Y-00509*
X00465Y-00509*
X00465Y-00507*
X00465Y-00507*
X00465Y-00506*
Y-00506*
Y-00506*
Y-00506*
X00465Y-00505*
X00465Y-00505*
X00465Y-00505*
X00465Y-00504*
X00465Y-00504*
X00465Y-00502*
X00465Y-00502*
X00466Y-00501*
X00466Y-00501*
X00466Y-005*
X00466Y-005*
X00467Y-00499*
X00467Y-00499*
X00467Y-00499*
X00467Y-00499*
X00467Y-00499*
X00468Y-00499*
X00468Y-00498*
X00468Y-00498*
X00468Y-00498*
X00469Y-00498*
X00469Y-00497*
X0047Y-00497*
X00471Y-00497*
X00471Y-00497*
X00472Y-00497*
X00472Y-00497*
X00473*
X00473Y-00497*
G37*
G36*
X00451Y-00459D02*
Y-00469D01*
X00446*
Y-00458*
X00437Y-00444*
X00443*
X00449Y-00454*
X00454Y-00444*
X0046*
X00451Y-00459*
G37*
G36*
X0055Y-00462D02*
X00541D01*
Y-00458*
X0055*
Y-00462*
G37*
G36*
X0057Y-00444D02*
X0057Y-00444D01*
X00571Y-00444*
X00571Y-00444*
X00572Y-00444*
X00572Y-00444*
X00573Y-00444*
X00573Y-00445*
X00574Y-00445*
X00574Y-00445*
X00575Y-00446*
X00575Y-00446*
X00575Y-00446*
X00575Y-00446*
X00575Y-00446*
X00575Y-00446*
X00576Y-00447*
X00576Y-00447*
X00576Y-00448*
X00577Y-00449*
X00577Y-00449*
X00577Y-0045*
X00577Y-0045*
Y-0045*
Y-0045*
X00577Y-00451*
X00577Y-00451*
X00577Y-00451*
X00577Y-00451*
X00577Y-00452*
X00577Y-00452*
X00576Y-00453*
X00576Y-00453*
X00576Y-00453*
X00575Y-00454*
X00575Y-00454*
X00575Y-00455*
X00574Y-00455*
X00573Y-00456*
X00573*
X00573Y-00456*
X00574*
X00574Y-00456*
X00574Y-00456*
X00575Y-00456*
X00575Y-00456*
X00576Y-00457*
X00576Y-00457*
X00577Y-00458*
X00577Y-00458*
X00577Y-00458*
X00577Y-00458*
X00577Y-00459*
X00578Y-00459*
X00578Y-0046*
X00578Y-00461*
X00578Y-00462*
Y-00462*
Y-00462*
Y-00462*
X00578Y-00462*
X00578Y-00462*
X00578Y-00463*
X00578Y-00463*
X00578Y-00464*
X00578Y-00464*
X00577Y-00465*
X00577Y-00465*
X00577Y-00466*
X00576Y-00466*
X00576Y-00467*
X00576Y-00467*
X00576Y-00467*
X00576Y-00467*
X00575Y-00467*
X00575Y-00468*
X00575Y-00468*
X00575Y-00468*
X00574Y-00468*
X00574Y-00468*
X00574Y-00469*
X00573Y-00469*
X00573Y-00469*
X00572Y-00469*
X00572Y-00469*
X00571Y-00469*
X0057Y-0047*
X0057Y-0047*
X00569*
X00569Y-0047*
X00569Y-00469*
X00568Y-00469*
X00568Y-00469*
X00568Y-00469*
X00567Y-00469*
X00566Y-00469*
X00565Y-00469*
X00565Y-00468*
X00564Y-00468*
X00564Y-00468*
X00564Y-00468*
X00564Y-00467*
X00564Y-00467*
X00564Y-00467*
X00563Y-00467*
X00563Y-00467*
X00563Y-00467*
X00563Y-00466*
X00563Y-00466*
X00562Y-00465*
X00562Y-00465*
X00562Y-00464*
X00561Y-00463*
X00561Y-00462*
X00566Y-00462*
Y-00462*
Y-00462*
X00566Y-00462*
X00566Y-00462*
X00566Y-00463*
X00566Y-00463*
X00567Y-00464*
X00567Y-00464*
X00567Y-00465*
X00567Y-00465*
X00567Y-00465*
X00568Y-00465*
X00568Y-00465*
X00568Y-00465*
X00569Y-00465*
X00569Y-00466*
X0057Y-00466*
X0057*
X0057Y-00466*
X0057Y-00465*
X0057Y-00465*
X00571Y-00465*
X00571Y-00465*
X00572Y-00465*
X00572Y-00464*
X00572Y-00464*
X00572Y-00464*
X00572Y-00464*
X00573Y-00464*
X00573Y-00463*
X00573Y-00463*
X00573Y-00462*
X00573Y-00461*
Y-00461*
Y-00461*
Y-00461*
X00573Y-00461*
X00573Y-0046*
X00573Y-0046*
X00573Y-00459*
X00572Y-00459*
X00572Y-00458*
X00572Y-00458*
X00572Y-00458*
X00572Y-00458*
X00571Y-00458*
X00571Y-00458*
X00571Y-00458*
X0057Y-00457*
X0057Y-00457*
X00569*
X00569Y-00457*
X00569Y-00457*
X00568Y-00457*
X00568Y-00458*
X00568Y-00458*
X00568Y-00454*
X00568*
X00569Y-00454*
X00569Y-00454*
X0057Y-00454*
X0057Y-00453*
X00571Y-00453*
X00571Y-00453*
X00571Y-00453*
X00571Y-00453*
X00571Y-00453*
X00572Y-00452*
X00572Y-00452*
X00572Y-00452*
X00572Y-00451*
X00572Y-00451*
Y-0045*
Y-0045*
X00572Y-0045*
X00572Y-0045*
X00572Y-0045*
X00572Y-00449*
X00572Y-00449*
X00571Y-00449*
X00571Y-00448*
X00571Y-00448*
X00571Y-00448*
X00571Y-00448*
X00571Y-00448*
X0057Y-00448*
X0057Y-00448*
X00569Y-00448*
X00569*
X00569Y-00448*
X00569Y-00448*
X00568Y-00448*
X00568Y-00448*
X00568Y-00448*
X00567Y-00449*
X00567Y-00449*
X00567Y-00449*
X00567Y-00449*
X00567Y-00449*
X00567Y-0045*
X00566Y-0045*
X00566Y-00451*
X00566Y-00451*
X00562Y-0045*
Y-0045*
X00562Y-0045*
Y-0045*
X00562Y-0045*
X00562Y-0045*
X00562Y-00449*
X00562Y-00448*
X00563Y-00448*
X00563Y-00447*
X00563Y-00447*
X00563Y-00447*
X00563Y-00447*
X00564Y-00446*
X00564Y-00446*
X00564Y-00446*
X00565Y-00445*
X00565Y-00445*
X00566Y-00445*
X00566*
X00566Y-00445*
X00566Y-00444*
X00566Y-00444*
X00567Y-00444*
X00567Y-00444*
X00568Y-00444*
X00569Y-00444*
X00569Y-00444*
X0057*
X0057Y-00444*
G37*
G36*
X00529Y-00469D02*
X00523D01*
X00521Y-00463*
X00511*
X00509Y-00469*
X00503*
X00513Y-00444*
X00518*
X00529Y-00469*
G37*
G36*
X00503Y-00448D02*
X00495D01*
Y-00469*
X0049*
Y-00448*
X00483*
Y-00444*
X00503*
Y-00448*
G37*
G36*
X00481D02*
X00474D01*
Y-00469*
X00469*
Y-00448*
X00461*
Y-00444*
X00481*
Y-00448*
G37*
G36*
X00423Y-00465D02*
X00436D01*
Y-00469*
X00418*
Y-00444*
X00423*
Y-00465*
G37*
G36*
X00414Y-00448D02*
X00402D01*
Y-00454*
X00412*
Y-00458*
X00402*
Y-00469*
X00396*
Y-00444*
X00414*
Y-00448*
G37*
G36*
X0059Y-00444D02*
X0059Y-00444D01*
X00591Y-00444*
X00591Y-00444*
X00591Y-00444*
X00592Y-00444*
X00592Y-00444*
X00593Y-00445*
X00593Y-00445*
X00594Y-00445*
X00594Y-00446*
X00595Y-00446*
X00595Y-00446*
X00595Y-00446*
X00595Y-00447*
X00595Y-00447*
X00595Y-00447*
X00596Y-00447*
X00596Y-00448*
X00596Y-00448*
X00596Y-00449*
X00596Y-0045*
X00597Y-0045*
X00597Y-00451*
X00597Y-00452*
X00597Y-00453*
X00597Y-00454*
X00597Y-00455*
X00597Y-00457*
Y-00457*
Y-00457*
Y-00457*
Y-00457*
Y-00457*
X00597Y-00458*
X00597Y-00458*
X00597Y-00459*
X00597Y-0046*
X00597Y-00461*
X00597Y-00461*
X00597Y-00462*
X00597Y-00463*
X00596Y-00464*
X00596Y-00465*
X00596Y-00466*
X00595Y-00466*
X00595Y-00467*
X00595Y-00467*
X00595Y-00467*
X00595Y-00467*
X00595Y-00467*
X00594Y-00468*
X00594Y-00468*
X00594Y-00468*
X00594Y-00468*
X00593Y-00469*
X00593Y-00469*
X00592Y-00469*
X00592Y-00469*
X00591Y-00469*
X00591Y-00469*
X0059Y-0047*
X00589Y-0047*
X00589*
X00589Y-0047*
X00589*
X00588Y-00469*
X00588Y-00469*
X00588Y-00469*
X00587Y-00469*
X00587Y-00469*
X00586Y-00469*
X00586Y-00469*
X00585Y-00468*
X00585Y-00468*
X00584Y-00468*
X00584Y-00467*
X00583Y-00467*
X00583Y-00467*
X00583Y-00467*
X00583Y-00466*
X00583Y-00466*
X00583Y-00466*
X00583Y-00465*
X00582Y-00465*
X00582Y-00464*
X00582Y-00464*
X00582Y-00463*
X00582Y-00462*
X00582Y-00461*
X00581Y-0046*
X00581Y-00459*
X00581Y-00458*
X00581Y-00457*
Y-00457*
Y-00457*
Y-00456*
Y-00456*
Y-00456*
X00581Y-00455*
X00581Y-00455*
X00581Y-00454*
X00581Y-00453*
X00581Y-00453*
X00582Y-00452*
X00582Y-00451*
X00582Y-0045*
X00582Y-00449*
X00582Y-00448*
X00583Y-00448*
X00583Y-00447*
X00584Y-00446*
X00584Y-00446*
X00584Y-00446*
X00584Y-00446*
X00584Y-00446*
X00584Y-00446*
X00584Y-00446*
X00585Y-00445*
X00585Y-00445*
X00585Y-00445*
X00586Y-00445*
X00586Y-00444*
X00587Y-00444*
X00587Y-00444*
X00588Y-00444*
X00589Y-00444*
X00589Y-00444*
X0059*
X0059Y-00444*
G37*
%LNflytta-33-2*%
%LPC*%
G36*
X00407Y-005D02*
X00407D01*
X00407Y-005*
X00407Y-005*
X00406Y-00501*
X00406Y-00501*
X00405Y-00501*
X00405Y-00501*
X00404Y-00502*
X00404Y-00502*
X00404Y-00502*
X00404Y-00502*
X00404Y-00503*
X00404Y-00503*
X00403Y-00504*
X00403Y-00505*
X00403Y-00506*
Y-00506*
Y-00506*
Y-00506*
Y-00506*
X00403Y-00507*
Y-00507*
X00403Y-00507*
X00403Y-00508*
X00403Y-00509*
X00404Y-0051*
X00404Y-0051*
X00404Y-0051*
Y-0051*
X00404Y-0051*
X00404Y-0051*
X00404Y-00511*
X00405Y-00511*
X00405Y-00511*
X00406Y-00512*
X00406Y-00512*
X00407Y-00512*
X00407Y-00512*
X00407*
X00407Y-00512*
X00408Y-00512*
X00408Y-00512*
X00409Y-00512*
X00409Y-00511*
X0041Y-00511*
X0041Y-00511*
X0041Y-0051*
X0041Y-0051*
X0041Y-0051*
X00411Y-00509*
X00411Y-00509*
X00411Y-00508*
X00411Y-00507*
X00411Y-00506*
Y-00506*
Y-00506*
Y-00506*
Y-00506*
X00411Y-00506*
X00411Y-00505*
X00411Y-00505*
X00411Y-00504*
X00411Y-00503*
X0041Y-00502*
X0041Y-00502*
X0041Y-00502*
X0041Y-00502*
X0041Y-00502*
X0041Y-00501*
X00409Y-00501*
X00409Y-00501*
X00408Y-00501*
X00408Y-005*
X00407Y-005*
G37*
G36*
X00615D02*
X00615D01*
X00615Y-005*
X00615Y-005*
X00614Y-00501*
X00614Y-00501*
X00613Y-00501*
X00613Y-00501*
X00612Y-00502*
X00612Y-00502*
X00612Y-00502*
X00612Y-00502*
X00612Y-00503*
X00612Y-00503*
X00611Y-00504*
X00611Y-00505*
X00611Y-00506*
Y-00506*
Y-00506*
Y-00506*
Y-00506*
X00611Y-00507*
Y-00507*
X00611Y-00507*
X00611Y-00508*
X00612Y-00509*
X00612Y-00509*
X00612Y-0051*
Y-0051*
X00612Y-0051*
X00612Y-0051*
X00613Y-00511*
X00613Y-00511*
X00613Y-00511*
X00614Y-00512*
X00615Y-00512*
X00615Y-00512*
X00615Y-00512*
X00616*
X00616Y-00512*
X00616Y-00512*
X00616Y-00512*
X00617Y-00512*
X00617Y-00511*
X00618Y-00511*
X00618Y-00511*
X00618Y-0051*
X00618Y-0051*
X00619Y-0051*
X00619Y-0051*
X00619Y-00509*
X00619Y-00508*
X00619Y-00508*
X00619Y-00507*
X00619Y-00507*
Y-00506*
Y-00506*
Y-00506*
Y-00506*
Y-00506*
X00619Y-00505*
X00619Y-00505*
X00619Y-00505*
X00619Y-00504*
X00619Y-00503*
X00619Y-00502*
X00618Y-00502*
X00618Y-00502*
X00618Y-00502*
X00618Y-00502*
X00618Y-00501*
X00617Y-00501*
X00617Y-00501*
X00616Y-00501*
X00616Y-005*
X00615Y-005*
G37*
G36*
X00526D02*
X00526D01*
X00525Y-005*
X00525Y-00501*
X00525Y-00501*
X00524Y-00501*
X00524Y-00501*
X00523Y-00502*
X00523Y-00502*
X00523Y-00502*
X00523Y-00502*
X00523Y-00502*
X00523Y-00503*
X00522Y-00503*
X00522Y-00504*
X00522Y-00505*
X00529*
Y-00505*
Y-00505*
Y-00504*
X00529Y-00504*
X00529Y-00504*
X00529Y-00503*
X00529Y-00503*
X00529Y-00502*
X00529Y-00502*
X00528Y-00501*
X00528Y-00501*
X00528Y-00501*
X00528Y-00501*
X00528Y-00501*
X00527Y-00501*
X00527Y-00501*
X00526Y-005*
X00526Y-005*
G37*
G36*
X00387D02*
X00387D01*
X00386Y-005*
X00386Y-00501*
X00386Y-00501*
X00385Y-00501*
X00385Y-00501*
X00384Y-00502*
X00384Y-00502*
X00384Y-00502*
X00384Y-00502*
X00384Y-00502*
X00384Y-00503*
X00383Y-00503*
X00383Y-00504*
X00383Y-00505*
X00391*
Y-00505*
Y-00505*
Y-00504*
X0039Y-00504*
X0039Y-00504*
X0039Y-00503*
X0039Y-00503*
X0039Y-00502*
X0039Y-00502*
X00389Y-00501*
X00389Y-00501*
X00389Y-00501*
X00389Y-00501*
X00389Y-00501*
X00388Y-00501*
X00388Y-00501*
X00387Y-005*
X00387Y-005*
G37*
G36*
X00474D02*
X00474D01*
X00473Y-005*
X00473Y-005*
X00473Y-00501*
X00472Y-00501*
X00472Y-00501*
X00471Y-00501*
X00471Y-00502*
X00471Y-00502*
X00471Y-00502*
X0047Y-00502*
X0047Y-00503*
X0047Y-00503*
X0047Y-00504*
X0047Y-00505*
X0047Y-00506*
Y-00506*
Y-00506*
Y-00506*
X0047Y-00506*
Y-00507*
X0047Y-00507*
X0047Y-00507*
X0047Y-00508*
X0047Y-00509*
X0047Y-0051*
X00471Y-0051*
X00471Y-0051*
X00471Y-0051*
X00471Y-00511*
X00472Y-00511*
X00472Y-00511*
X00472Y-00511*
X00473Y-00511*
X00474Y-00511*
X00474*
X00474Y-00511*
X00474Y-00511*
X00475Y-00511*
X00475Y-00511*
X00476Y-00511*
X00476Y-00511*
X00477Y-0051*
X00477Y-0051*
X00477Y-0051*
X00477Y-00509*
X00477Y-00509*
X00477Y-00508*
X00478Y-00508*
X00478Y-00507*
X00478Y-00506*
Y-00506*
Y-00506*
Y-00506*
Y-00505*
X00478Y-00505*
X00478Y-00505*
X00478Y-00504*
X00477Y-00504*
X00477Y-00503*
X00477Y-00502*
X00477Y-00502*
X00477Y-00502*
X00476Y-00502*
X00476Y-00501*
X00476Y-00501*
X00475Y-00501*
X00475Y-00501*
X00474Y-005*
X00474Y-005*
G37*
G36*
X00516Y-0045D02*
X00512Y-00459D01*
X00519*
X00516Y-0045*
G37*
G36*
X00589Y-00448D02*
X00589D01*
X00589Y-00448*
X00589Y-00448*
X00589Y-00448*
X00588Y-00448*
X00588Y-00448*
X00588Y-00448*
X00588Y-00448*
X00588Y-00448*
X00588Y-00449*
X00587Y-00449*
X00587Y-00449*
X00587Y-00449*
X00587Y-0045*
X00587Y-0045*
Y-0045*
X00587Y-0045*
Y-00451*
X00587Y-00451*
X00587Y-00451*
X00587Y-00451*
X00587Y-00451*
X00586Y-00452*
X00586Y-00452*
X00586Y-00453*
X00586Y-00453*
X00586Y-00454*
X00586Y-00454*
Y-00455*
X00586Y-00456*
Y-00457*
Y-00457*
Y-00457*
Y-00457*
Y-00457*
Y-00458*
X00586Y-00458*
Y-00459*
X00586Y-00459*
X00586Y-0046*
X00586Y-00461*
X00586Y-00462*
X00587Y-00462*
X00587Y-00462*
X00587Y-00463*
X00587Y-00463*
X00587Y-00463*
X00587Y-00463*
X00587Y-00464*
X00587Y-00464*
X00587Y-00464*
X00588Y-00465*
X00588Y-00465*
X00588Y-00465*
X00588Y-00465*
X00588Y-00465*
X00588Y-00465*
X00588Y-00465*
X00589Y-00465*
X00589Y-00466*
X00589Y-00466*
X00589*
X0059Y-00466*
X0059Y-00465*
X0059Y-00465*
X0059Y-00465*
X00591Y-00465*
X00591Y-00465*
X00591Y-00465*
X00591Y-00465*
X00591Y-00465*
X00591Y-00465*
X00591Y-00464*
X00592Y-00464*
X00592Y-00464*
X00592Y-00463*
Y-00463*
X00592Y-00463*
Y-00463*
X00592Y-00463*
X00592Y-00462*
X00592Y-00462*
X00592Y-00462*
X00592Y-00462*
X00592Y-00461*
X00592Y-00461*
X00592Y-0046*
X00592Y-0046*
X00592Y-00459*
Y-00458*
X00592Y-00457*
Y-00457*
Y-00457*
Y-00456*
Y-00456*
Y-00456*
Y-00456*
X00592Y-00455*
Y-00455*
X00592Y-00454*
X00592Y-00453*
X00592Y-00452*
X00592Y-00452*
X00592Y-00451*
X00592Y-00451*
X00592Y-00451*
Y-00451*
X00592Y-0045*
X00592Y-0045*
X00592Y-0045*
X00592Y-0045*
X00591Y-00449*
X00591Y-00449*
X00591Y-00449*
X00591Y-00448*
X00591Y-00448*
X00591Y-00448*
X00591Y-00448*
X0059Y-00448*
X0059Y-00448*
X0059Y-00448*
X0059Y-00448*
X00589Y-00448*
G37*
%LNflytta-33-3*%
%LPD*%
G54D10*
X-00254Y-00988D02*
D01*
X-00254Y-00988*
X-00254Y-00987*
X-00254Y-00987*
X-00254Y-00987*
X-00254Y-00987*
X-00254Y-00986*
X-00253Y-00986*
X-00253Y-00986*
X-00253Y-00986*
X-00253Y-00985*
X-00253Y-00985*
X-00253Y-00985*
X-00253Y-00985*
X-00253Y-00984*
X-00253Y-00984*
X-00253Y-00984*
X-00254Y-00983*
X-00254Y-00983*
X-00254Y-00983*
X-00254Y-00983*
X-00254Y-00983*
X-00254Y-00982*
X-00254Y-00982*
X-00255Y-00982*
X-00255Y-00982*
X-00255Y-00982*
X-00255Y-00982*
X-00256Y-00981*
X-00256Y-00981*
X-00256Y-00981*
X-00256Y-00981*
X-00257Y-00981*
X-00257Y-00981*
X-00257Y-00981*
X-00258Y-00981*
X-00258Y-00981*
X-00258Y-00981*
X-00258Y-00981*
X-00259Y-00981*
X-00259Y-00981*
X-00259Y-00982*
X-00259Y-00982*
X-0026Y-00982*
X-0026Y-00982*
X-0026Y-00982*
X-00261Y-00983D02*
D01*
X-00261Y-00983*
X-00261Y-00983*
X-00261Y-00984*
X-00261Y-00984*
X-00261Y-00984*
X-00262Y-00984*
X-00262Y-00985*
X-00262Y-00985*
X-00262Y-00985*
X-00262Y-00985*
X-00262Y-00986*
X-00262Y-00986*
X-00262Y-00986*
X-00262Y-00986*
X-00262Y-00987*
X-00262Y-00987*
X-00262Y-00987*
X-00261Y-00988*
X-00261Y-00988*
X-00261Y-00988*
X-00261Y-00988*
X-00261Y-00988*
X-00261Y-00989*
X-0026Y-00989*
X-0026Y-00989*
X-0026Y-00989*
X-0026Y-00989*
X-00259Y-00989*
X-00259Y-00989*
X-00259Y-0099*
X-00259Y-0099*
X-00258Y-0099*
X-00258Y-0099*
X-00258Y-0099*
X-00258Y-0099*
X-00257Y-0099*
X-00257Y-0099*
X-00257Y-00989*
X-00256Y-00989*
X-00256Y-00989*
X-00256Y-00989*
X-00256Y-00989*
X-00256Y-00989*
X-00255Y-00989*
X-00255Y-00989*
X-00255*
X-00262Y-0022D02*
X-00211Y-0027D01*
X-00239Y-00298D02*
X-00211Y-0027D01*
X-00289Y-00248D02*
X-00239Y-00298D01*
X-00289Y-00248D02*
X-00262Y-0022D01*
X-00134Y-00152D02*
X-0011Y-00219D01*
X-00134Y-00152D02*
X-00097Y-00139D01*
X-00073Y-00205*
X-0011Y-00219D02*
X-00073Y-00205D01*
X-00464Y-00327D02*
X-00437Y-00261D01*
X-004Y-00276*
X-00427Y-00342D02*
X-004Y-00276D01*
X-00464Y-00327D02*
X-00427Y-00342D01*
X-00465Y-00377D02*
X-00394D01*
X-00465Y-00338D02*
Y-00377D01*
Y-00338D02*
X-00394D01*
Y-00377D02*
Y-00338D01*
X-00363Y-00171D02*
X-00313Y-00221D01*
X-00363Y-00171D02*
X-00335Y-00143D01*
X-00285Y-00194*
X-00313Y-00221D02*
X-00285Y-00194D01*
X-00311Y-00168D02*
X-00261Y-00118D01*
X-00339Y-0014D02*
X-00311Y-00168D01*
X-00339Y-0014D02*
X-00289Y-0009D01*
X-00261Y-00118*
X-00415Y-00558D02*
Y-0055D01*
Y-00402D02*
Y-00383D01*
X-00434D02*
X-00415D01*
X-00422Y-00558D02*
X-00415D01*
X-0059D02*
X-00582D01*
X-0059D02*
Y-0055D01*
Y-00383D02*
X-00582D01*
X-0059Y-0039D02*
Y-00383D01*
X00015Y-01068D02*
X00141D01*
X00015Y-01168D02*
Y-01068D01*
Y-01168D02*
X00141D01*
Y-01068*
G54D11*
X-00454Y-00996D02*
D01*
X-00454Y-00996*
X-00454Y-00996*
X-00454Y-00995*
X-00454Y-00995*
X-00454Y-00995*
X-00454Y-00994*
X-00454Y-00994*
X-00455Y-00994*
X-00455Y-00993*
X-00455Y-00993*
X-00455Y-00993*
X-00456Y-00993*
X-00456Y-00992*
X-00456Y-00992*
X-00456Y-00992*
X-00457Y-00992*
X-00457Y-00992*
X-00457Y-00992*
X-00458Y-00991*
X-00458Y-00991*
X-00458Y-00991*
X-00459Y-00991*
X-00459*
X-00459Y-00991*
X-0046Y-00991*
X-0046Y-00991*
X-0046Y-00992*
X-00461Y-00992*
X-00461Y-00992*
X-00461Y-00992*
X-00462Y-00992*
X-00462Y-00992*
X-00462Y-00993*
X-00462Y-00993*
X-00463Y-00993*
X-00463Y-00993*
X-00463Y-00994*
X-00463Y-00994*
X-00463Y-00994*
X-00463Y-00995*
X-00464Y-00995*
X-00464Y-00995*
X-00464Y-00996*
X-00464Y-00996*
X-00464Y-00996*
X-00464Y-00997*
X-00464Y-00997*
X-00464Y-00997*
X-00464Y-00998*
X-00463Y-00998*
X-00463Y-00998*
X-00463Y-00999*
X-00463Y-00999*
X-00463Y-00999*
X-00463Y-00999*
X-00462Y-01*
X-00462Y-01*
X-00462Y-01*
X-00462Y-01*
X-00461Y-01001*
X-00461Y-01001*
X-00461Y-01001*
X-0046Y-01001*
X-0046Y-01001*
X-0046Y-01001*
X-00459Y-01001*
X-00459Y-01001*
X-00459*
X-00458Y-01001*
X-00458Y-01001*
X-00458Y-01001*
X-00457Y-01001*
X-00457Y-01001*
X-00457Y-01001*
X-00456Y-01001*
X-00456Y-01*
X-00456Y-01*
X-00456Y-01*
X-00455Y-01*
X-00455Y-00999*
X-00455Y-00999*
X-00455Y-00999*
X-00454Y-00999*
X-00454Y-00998*
X-00454Y-00998*
X-00454Y-00998*
X-00454Y-00997*
X-00454Y-00997*
X-00454Y-00997*
X-00454Y-00996*
G54D12*
X00269Y-00997D02*
D01*
X00269Y-00996*
X00269Y-00996*
X00269Y-00996*
X00269Y-00996*
X00269Y-00996*
X00269Y-00996*
X00269Y-00996*
X00269Y-00996*
X00269Y-00996*
Y-00996*
X00105Y-00052D02*
X00193D01*
X00105D02*
Y-00002D01*
X00193*
Y-00052D02*
Y-00002D01*
X-00198Y-0012D02*
Y-00031D01*
X-00149*
Y-0012D02*
Y-00031D01*
X-00198Y-0012D02*
X-00149D01*
X-00089Y-00116D02*
Y-00027D01*
X-0004*
Y-00116D02*
Y-00027D01*
X-00089Y-00116D02*
X-0004D01*
X-00163Y-00027D02*
X-00074D01*
Y-00076D02*
Y-00027D01*
X-00163Y-00076D02*
X-00074D01*
X-00163D02*
Y-00027D01*
X-00182Y-00988D02*
X-00182Y-00989D01*
X00515Y-00792D02*
Y-00703D01*
X00466Y-00792D02*
X00515D01*
X00466D02*
Y-00703D01*
X00515*
X00012Y-01154D02*
Y-01066D01*
X-00036Y-01154D02*
X00012D01*
X-00036D02*
Y-01066D01*
X00012*
X-00553Y-00714D02*
Y-00626D01*
X-00504*
Y-00714D02*
Y-00626D01*
X-00553Y-00714D02*
X-00504D01*
X-00596Y-00672D02*
Y-00584D01*
X-00645Y-00672D02*
X-00596D01*
X-00645D02*
Y-00584D01*
X-00596*
X-0011Y-01034D02*
X-00109Y-01035D01*
X00231Y-01013D02*
X00232D01*
X00249Y-00919D02*
X0025Y-00918D01*
X00294Y-00932D02*
X00353Y-00829D01*
X00241Y-00901D02*
X003Y-00799D01*
X00353Y-00829*
X00241Y-00901D02*
X00294Y-00932D01*
X0031Y-01168D02*
Y-01119D01*
X00221D02*
X0031D01*
X00221Y-01168D02*
Y-01119D01*
Y-01168D02*
X0031D01*
X-00415Y-0037D02*
Y-00369D01*
X00376Y-00827D02*
X00383D01*
X00376Y-00818D02*
Y-00813D01*
Y-00806D02*
X00383D01*
X00376Y-00827D02*
Y-00806D01*
X00388Y-00932D02*
Y-00798D01*
Y-00932D02*
X00542D01*
Y-00798*
X00388D02*
X00542D01*
X00383Y-00827D02*
Y-00806D01*
X-00116Y-01086D02*
X00001D01*
X-00116Y-01025D02*
X00001D01*
Y-01086D02*
Y-01025D01*
X-00116Y-01086D02*
Y-01025D01*
X-00548Y-00684D02*
Y-00566D01*
X-00609Y-00684D02*
Y-00566D01*
X-00548*
X-00609Y-00684D02*
X-00548D01*
X-00407Y-00427D02*
X-00319D01*
X-00407D02*
Y-00377D01*
X-00319*
Y-00427D02*
Y-00377D01*
X-00037Y00022D02*
Y00062D01*
X-00017Y00082*
X00002Y00062*
Y00022*
Y00052*
X-00037*
X00022Y00022D02*
Y00082D01*
X00062Y00022*
Y00082*
X00082D02*
X00122D01*
X00102*
Y00022*
X-00195Y-00077D02*
X-00225D01*
X-00235Y-00087*
Y-00107*
X-00225Y-00117*
X-00195*
X-00175D02*
X-00155D01*
X-00165*
Y-00057*
X-00175*
X-00125Y-00117D02*
Y-00057D01*
Y-00097D02*
X-00095Y-00077D01*
X-00125Y-00097D02*
X-00095Y-00117D01*
X-00065D02*
X-00045D01*
X-00055*
Y-00057*
X-00065Y-00067*
G54D13*
X00047Y-00027D03*
G54D14*
X-00242Y-00184D02*
X-00146Y-00149D01*
X-00117Y-00231*
X-00213Y-00266D02*
X-00117Y-00231D01*
X-00242Y-00184D02*
X-00213Y-00266D01*
X-0026Y-00933D02*
X-00224Y-00997D01*
X-0026Y-00933D02*
X-00225Y-00913D01*
X-00189Y-00977*
X-00224Y-00997D02*
X-00189Y-00977D01*
X-0065Y-00781D02*
Y-00765D01*
Y-00781D02*
X-00628D01*
Y-00735*
X-0065D02*
X-00628D01*
X-0065Y-00765D02*
Y-00735D01*
X-00534Y-0031D02*
X-00518D01*
X-00534Y-00332D02*
Y-0031D01*
Y-00332D02*
X-00488D01*
Y-0031*
X-00518D02*
X-00488D01*
X-00612Y-00767D02*
Y-00751D01*
Y-00767D02*
X-0059D01*
Y-00721*
X-00612D02*
X-0059D01*
X-00612Y-00751D02*
Y-00721D01*
X-00581Y-0037D02*
Y-00354D01*
Y-0037D02*
X-00559D01*
Y-00324*
X-00581D02*
X-00559D01*
X-00581Y-00354D02*
Y-00324D01*
X-00364Y-00759D02*
X-00353Y-00771D01*
X-00337Y-00757*
X-00366Y-00722D02*
X-00337Y-00757D01*
X-00383Y-00736D02*
X-00366Y-00722D01*
X-00383Y-00736D02*
X-00364Y-00759D01*
X-00626Y-00839D02*
X-00614Y-0085D01*
X-0064Y-00856D02*
X-00626Y-00839D01*
X-0064Y-00856D02*
X-00605Y-00886D01*
X-00591Y-00869*
X-00614Y-0085D02*
X-00591Y-00869D01*
X-00389Y-00684D02*
X-00373D01*
Y-00662*
X-00419D02*
X-00373D01*
X-00419Y-00684D02*
Y-00662D01*
Y-00684D02*
X-00389D01*
X-00389Y-00724D02*
X-00373D01*
Y-00702*
X-00419D02*
X-00373D01*
X-00419Y-00724D02*
Y-00702D01*
Y-00724D02*
X-00389D01*
X-00387Y-00768D02*
X-00377Y-0078D01*
X-0036Y-00766*
X-00389Y-00731D02*
X-0036Y-00766D01*
X-00406Y-00745D02*
X-00389Y-00731D01*
X-00406Y-00745D02*
X-00387Y-00768D01*
X-00202Y-01204D02*
X-00186D01*
Y-01182*
X-00232D02*
X-00186D01*
X-00232Y-01204D02*
Y-01182D01*
Y-01204D02*
X-00202D01*
X-00171Y-01186D02*
X-00155D01*
X-00171Y-01208D02*
Y-01186D01*
Y-01208D02*
X-00125D01*
Y-01186*
X-00155D02*
X-00125D01*
X-00044Y-01232D02*
X-00014D01*
Y-01254D02*
Y-01232D01*
X-0006Y-01254D02*
X-00014D01*
X-0006D02*
Y-01232D01*
X-00044*
X-0006Y-01195D02*
X-00044D01*
X-0006Y-01217D02*
Y-01195D01*
Y-01217D02*
X-00014D01*
Y-01195*
X-00044D02*
X-00014D01*
X-00178Y-0118D02*
X-00148D01*
X-00178D02*
Y-01158D01*
X-00132*
Y-0118D02*
Y-01158D01*
X-00148Y-0118D02*
X-00132D01*
X-00149Y-01134D02*
X-00133D01*
X-00149Y-01156D02*
Y-01134D01*
Y-01156D02*
X-00103D01*
Y-01134*
X-00133D02*
X-00103D01*
X-00187Y-01223D02*
X-00171D01*
X-00187Y-01245D02*
Y-01223D01*
Y-01245D02*
X-00141D01*
Y-01223*
X-00171D02*
X-00141D01*
X-00059Y-01112D02*
Y-01082D01*
X-00037*
Y-01128D02*
Y-01082D01*
X-00059Y-01128D02*
X-00037D01*
X-00059D02*
Y-01112D01*
X00071Y-01171D02*
X00101D01*
Y-01193D02*
Y-01171D01*
X00055Y-01193D02*
X00101D01*
X00055D02*
Y-01171D01*
X00071*
X-00048D02*
X-00032D01*
X-00048Y-01193D02*
Y-01171D01*
Y-01193D02*
X-00002D01*
Y-01171*
X-00032D02*
X-00002D01*
X-0007Y-01145D02*
X-0004D01*
Y-01167D02*
Y-01145D01*
X-00086Y-01167D02*
X-0004D01*
X-00086D02*
Y-01145D01*
X-0007*
X00048Y-01248D02*
X00064D01*
Y-01226*
X00018D02*
X00064D01*
X00018Y-01248D02*
Y-01226D01*
Y-01248D02*
X00048D01*
X-00489Y-00594D02*
X-00459D01*
Y-00616D02*
Y-00594D01*
X-00505Y-00616D02*
X-00459D01*
X-00505D02*
Y-00594D01*
X-00489*
X-00502Y-00669D02*
Y-00653D01*
Y-00669D02*
X-0048D01*
Y-00623*
X-00502D02*
X-0048D01*
X-00502Y-00653D02*
Y-00623D01*
X-00403Y-00519D02*
X-00373D01*
X-00403D02*
Y-00497D01*
X-00357*
Y-00519D02*
Y-00497D01*
X-00373Y-00519D02*
X-00357D01*
X-00369Y-00489D02*
X-00353D01*
Y-00467*
X-00399D02*
X-00353D01*
X-00399Y-00489D02*
Y-00467D01*
Y-00489D02*
X-00369D01*
X-00547Y-00286D02*
X-00517D01*
X-00547D02*
Y-00264D01*
X-00501*
Y-00286D02*
Y-00264D01*
X-00517Y-00286D02*
X-00501D01*
X-00537Y-00309D02*
X-00521D01*
Y-00287*
X-00567D02*
X-00521D01*
X-00567Y-00309D02*
Y-00287D01*
Y-00309D02*
X-00537D01*
X0025Y-01054D02*
X00266D01*
Y-01032*
X0022D02*
X00266D01*
X0022Y-01054D02*
Y-01032D01*
Y-01054D02*
X0025D01*
X0022Y-011D02*
X0025D01*
X0022D02*
Y-01078D01*
X00266*
Y-011D02*
Y-01078D01*
X0025Y-011D02*
X00266D01*
X0022Y-01055D02*
X00236D01*
X0022Y-01077D02*
Y-01055D01*
Y-01077D02*
X00266D01*
Y-01055*
X00236D02*
X00266D01*
X00379Y-01062D02*
Y-01032D01*
X00357Y-01062D02*
X00379D01*
X00357D02*
Y-01016D01*
X00379*
Y-01032D02*
Y-01016D01*
X00372Y-00991D02*
X00388D01*
X00372Y-01013D02*
Y-00991D01*
Y-01013D02*
X00418D01*
Y-00991*
X00388D02*
X00418D01*
X00321Y-00906D02*
Y-00876D01*
X00343*
Y-00922D02*
Y-00876D01*
X00321Y-00922D02*
X00343D01*
X00321D02*
Y-00906D01*
X00362Y-00963D02*
X00378D01*
X00362Y-00985D02*
Y-00963D01*
Y-00985D02*
X00408D01*
Y-00963*
X00378D02*
X00408D01*
X00332Y-00837D02*
X00362D01*
X00332D02*
Y-00815D01*
X00378*
Y-00837D02*
Y-00815D01*
X00362Y-00837D02*
X00378D01*
X0043Y-00761D02*
Y-00745D01*
X00408D02*
X0043D01*
X00408Y-00791D02*
Y-00745D01*
Y-00791D02*
X0043D01*
Y-00761*
X00535Y-00759D02*
Y-00743D01*
X00513D02*
X00535D01*
X00513Y-00789D02*
Y-00743D01*
Y-00789D02*
X00535D01*
Y-00759*
X00568Y-00789D02*
Y-00759D01*
X00546Y-00789D02*
X00568D01*
X00546D02*
Y-00743D01*
X00568*
Y-00759D02*
Y-00743D01*
X-00205Y-01026D02*
X-00141Y-01062D01*
X-00205Y-01026D02*
X-00185Y-00991D01*
X-00121Y-01028*
X-00141Y-01062D02*
X-00121Y-01028D01*
X00145Y-01053D02*
X00218D01*
X00145D02*
Y-01013D01*
X00218*
Y-01053D02*
Y-01013D01*
X00216Y-01008D02*
X00268Y-00956D01*
X00188Y-00979D02*
X00216Y-01008D01*
X00188Y-00979D02*
X0024Y-00928D01*
X00268Y-00956*
X00273Y-00999D02*
X00275Y-00998D01*
X00269Y-01003D02*
X00273Y-00999D01*
X00269Y-01052D02*
Y-01003D01*
Y-01052D02*
X00322D01*
X00323D02*
Y-00998D01*
X00276D02*
X00323D01*
M02*