%FSTAX23Y23*%
%MOIN*%
%SFA1B1*%

%IPPOS*%
%AMD75*
4,1,4,0.094400,0.050300,0.058100,0.089700,-0.094400,-0.050300,-0.058100,-0.089700,0.094400,0.050300,0.0*
%
%AMD79*
1,1,0.041339,0.000000,0.000000*
1,0,0.025591,0.000000,0.000000*
4,0,4,0.011800,0.017300,-0.017300,-0.011800,-0.011800,-0.017300,0.017300,0.011800,0.011800,0.017300,0.0*
4,0,4,-0.011800,0.017300,0.017300,-0.011800,0.011800,-0.017300,-0.017300,0.011800,-0.011800,0.017300,0.0*
%
%AMD82*
4,1,4,0.239500,-0.061000,0.240800,0.055700,-0.239500,0.061000,-0.240800,-0.055700,0.239500,-0.061000,0.0*
%
%AMD83*
4,1,4,0.317100,-0.061900,0.318400,0.054900,-0.317100,0.061900,-0.318400,-0.054900,0.317100,-0.061900,0.0*
%
%AMD84*
4,1,4,0.097100,0.028800,0.036900,0.094300,-0.097100,-0.028800,-0.036900,-0.094300,0.097100,0.028800,0.0*
%
%ADD59C,0.015748*%
G04~CAMADD=75~9~0.0~0.0~537.6~2071.0~0.0~0.0~0~0.0~0.0~0.0~0.0~0~0.0~0.0~0.0~0.0~0~0.0~0.0~0.0~312.6~1888.0~1793.0*
%ADD75D75*%
%ADD78R,0.064020X0.207102*%
G04~CAMADD=79~12~0.0~0.0~0.0~0.0~0.0~0.0~0~413.4~255.9~0.0~45.0~4~78.7~0.0~0.0~0.0~0~0.0~0.0~0.0~0.0~413.4~413.4*
%ADD79D79*%
%ADD80C,0.031496*%
G04~CAMADD=82~9~0.0~0.0~1168.0~4804.6~0.0~0.0~0~0.0~0.0~0.0~0.0~0~0.0~0.0~0.0~0.0~0~0.0~0.0~0.0~269.4~4816.0~1219.0*
%ADD82D82*%
G04~CAMADD=83~9~0.0~0.0~1168.0~6356.3~0.0~0.0~0~0.0~0.0~0.0~0.0~0~0.0~0.0~0.0~0.0~0~0.0~0.0~0.0~269.4~6368.0~1237.0*
%ADD83D83*%
G04~CAMADD=84~9~0.0~0.0~891.3~1820.3~0.0~0.0~0~0.0~0.0~0.0~0.0~0~0.0~0.0~0.0~0.0~0~0.0~0.0~0.0~312.6~1942.0~1885.0*
%ADD84D84*%
%ADD85C,0.066929*%
%LNflytta-35-1*%
%LPD*%
G54D59*
X-01211Y-00603D02*
X-0121Y-00603D01*
X-01215Y-00604D02*
X-01211Y-00603D01*
Y00222D02*
X-0121Y00222D01*
X-0121Y00222*
X-0121Y00222*
X-0114Y00293D02*
X-0114Y00293D01*
X-0114Y00293D02*
X-0114Y00293D01*
X-0114Y00295D02*
X-0114Y00293D01*
X-00314Y00293D02*
X-00314Y00293D01*
X-00314Y00293D02*
X-00314Y00293D01*
X-00314Y00293D02*
X-00314Y00293D01*
X-00243Y00222D02*
X-00243Y00222D01*
X-00243Y00222*
X-00243Y00222*
X-00238Y00224*
X-00123Y-0011D02*
X-00104D01*
X-00139D02*
X-00123D01*
X-00139Y-00269D02*
X-00123D01*
X-00104*
X-00243Y-00603D02*
X-00243Y-00603D01*
X-00243Y-00603D02*
X-00243Y-00603D01*
X-00243Y-00603D02*
X-00243Y-00603D01*
X-00314Y-00674D02*
X-00314Y-00674D01*
X-00314Y-00674*
X-00313Y-00675*
X-0114Y-00674D02*
X-0114Y-00674D01*
X-0114Y-00674*
X-01139Y-00673*
X-0121Y-00603D02*
X-0121Y-00603D01*
X-0121Y-00603D02*
X-0121Y-00603D01*
X-00419Y00439D02*
X-00409Y00438D01*
X-01035Y00439D02*
X-00419D01*
X-01044Y00438D02*
X-01035Y00439D01*
X-01054Y00436D02*
X-01044Y00438D01*
X-01063Y00432D02*
X-01054Y00436D01*
X-01108Y00405D02*
X-01063Y00432D01*
X-01151Y00375D02*
X-01108Y00405D01*
X-01176Y00355D02*
X-01151Y00375D01*
X-01177Y00353D02*
X-01176Y00355D01*
X-01178Y0035D02*
X-01177Y00353D01*
X-01179Y00348D02*
X-01178Y0035D01*
X-01179Y00348D02*
X-01179Y00345D01*
X-01178Y00343*
X-01177Y0034*
X-01176Y00338*
X-01174Y00336*
X-01154Y00315*
X-01146Y00307*
X-01143Y00301*
X-0114Y00295*
X-0114Y00293D02*
X-01139Y00293D01*
X-01138Y00285*
X-01137Y00274*
X-01138Y00263D02*
X-01137Y00274D01*
X-01142Y00253D02*
X-01138Y00263D01*
X-01147Y00244D02*
X-01142Y00253D01*
X-01154Y00235D02*
X-01147Y00244D01*
X-01162Y00228D02*
X-01154Y00235D01*
X-01172Y00223D02*
X-01162Y00228D01*
X-01183Y0022D02*
X-01172Y00223D01*
X-01193Y00219D02*
X-01183Y0022D01*
X-012Y0022D02*
X-01193Y00219D01*
X-01207Y00221D02*
X-012Y0022D01*
X-0121Y00222D02*
X-01207Y00221D01*
X-01215Y00224D02*
X-01211Y00222D01*
X-01218Y00225D02*
X-01215Y00224D01*
X-01226Y0023D02*
X-01218Y00225D01*
X-01233Y00236D02*
X-01226Y0023D01*
X-01254Y00257D02*
X-01233Y00236D01*
X-01256Y00259D02*
X-01254Y00257D01*
X-01258Y0026D02*
X-01256Y00259D01*
X-01261Y00261D02*
X-01258Y0026D01*
X-01264Y00261D02*
X-01261Y00261D01*
X-01266Y00261D02*
X-01264Y00261D01*
X-01269Y00261D02*
X-01266Y00261D01*
X-01272Y00259D02*
X-01269Y00261D01*
X-01274Y00258D02*
X-01272Y00259D01*
X-01275Y00257D02*
X-01274Y00258D01*
X-01335Y0017D02*
X-01275Y00257D01*
X-01358Y00128D02*
X-01335Y0017D01*
X-01381Y0008D02*
X-01358Y00128D01*
X-01397Y00035D02*
X-01381Y0008D01*
X-01412Y-00015D02*
X-01397Y00035D01*
X-0142Y-00047D02*
X-01412Y-00015D01*
X-01426Y-0008D02*
X-0142Y-00047D01*
X-01427Y-00092D02*
X-01426Y-0008D01*
X-01427Y-00092D02*
X-01425Y-00104D01*
X-01421Y-00115*
X-01418Y-00121*
X-01414Y-00127*
X-01412Y-00131*
X-0141Y-00136*
X-01409Y-0014*
X-01409Y-00144*
X-01411Y-00185D02*
X-01409Y-00144D01*
X-01411Y-00185D02*
X-0141Y-0021D01*
X-01409Y-00235*
X-01409Y-0024D02*
X-01409Y-00235D01*
X-0141Y-00245D02*
X-01409Y-0024D01*
X-01412Y-00249D02*
X-0141Y-00245D01*
X-01414Y-00252D02*
X-01412Y-00249D01*
X-0142Y-00262D02*
X-01414Y-00252D01*
X-01424Y-00273D02*
X-0142Y-00262D01*
X-01426Y-00285D02*
X-01424Y-00273D01*
X-01427Y-00292D02*
X-01426Y-00285D01*
X-01427Y-00292D02*
X-01426Y-00299D01*
X-01417Y-00344*
X-01406Y-00389*
X-01391Y-00434*
X-01371Y-00483*
X-01349Y-00526*
X-01322Y-00572*
X-01292Y-00616*
X-01272Y-0064*
X-0127Y-00641*
X-01267Y-00642*
X-01264Y-00642*
X-01262Y-00642*
X-01259Y-00641*
X-01256Y-0064*
X-01255Y-00639*
X-01254Y-00637*
X-01233Y-00616*
X-01227Y-00612*
X-01222Y-00608*
X-01215Y-00604*
X-0121Y-00603D02*
X-01207Y-00602D01*
X-01196Y-006*
X-01185Y-006*
X-01175Y-00603*
X-01165Y-00607*
X-01156Y-00614*
X-01149Y-00622*
X-01143Y-00631*
X-01139Y-00641*
X-01137Y-00652*
X-01137Y-00659*
X-01138Y-00666D02*
X-01137Y-00659D01*
X-01139Y-00673D02*
X-01138Y-00666D01*
X-0114Y-00675D02*
X-0114Y-00674D01*
X-01145Y-00685D02*
X-0114Y-00675D01*
X-01149Y-00691D02*
X-01145Y-00685D01*
X-01154Y-00696D02*
X-01149Y-00691D01*
X-01174Y-00717D02*
X-01154Y-00696D01*
X-01176Y-00719D02*
X-01174Y-00717D01*
X-01178Y-00721D02*
X-01176Y-00719D01*
X-01178Y-00724D02*
X-01178Y-00721D01*
X-01179Y-00727D02*
X-01178Y-00724D01*
X-01179Y-00727D02*
X-01179Y-00729D01*
X-01178Y-00732*
X-01177Y-00735*
X-01175Y-00737*
X-01174Y-00738*
X-01088Y-00798*
X-01046Y-00821*
X-00998Y-00844*
X-00953Y-0086*
X-00902Y-00875*
X-00855Y-00886*
X-00802Y-00893*
X-00749Y-00897*
X-00701Y-00897*
X-00654Y-00894*
X-00601Y-00886*
X-00549Y-00875*
X-00503Y-00861*
X-00458Y-00845*
X-0041Y-00823*
X-00363Y-00797*
X-00323Y-00771*
X-00285Y-00742*
X-00278Y-00736*
X-00276Y-00734*
X-00275Y-00731*
X-00275Y-00729*
X-00275Y-00726*
X-00275Y-00724D02*
X-00275Y-00726D01*
X-00276Y-00721D02*
X-00275Y-00724D01*
X-00277Y-00719D02*
X-00276Y-00721D01*
X-00279Y-00717D02*
X-00277Y-00719D01*
X-003Y-00696D02*
X-00279Y-00717D01*
X-00307Y-00688D02*
X-003Y-00696D01*
X-0031Y-00682D02*
X-00307Y-00688D01*
X-00313Y-00675D02*
X-0031Y-00682D01*
X-00314Y-00673D02*
X-00314Y-00674D01*
X-00316Y-00666D02*
X-00314Y-00673D01*
X-00317Y-00655D02*
X-00316Y-00666D01*
X-00317Y-00655D02*
X-00315Y-00644D01*
X-00312Y-00634*
X-00307Y-00624*
X-00299Y-00616*
X-00291Y-00609*
X-00281Y-00604*
X-00271Y-00601*
X-0026Y-006*
X-00253Y-006*
X-00246Y-00602*
X-00243Y-00603*
X-00243Y-00603D02*
X-00238Y-00604D01*
X-00235Y-00606*
X-00228Y-00611*
X-00221Y-00616*
X-002Y-00637*
X-00197Y-00639*
X-00195Y-00641*
X-00192Y-00641*
X-0019Y-00642*
X-00187Y-00642*
X-00184Y-00641*
X-00182Y-0064*
X-00179Y-00638*
X-00177Y-00636*
X-00107Y-00532*
X-00086Y-00489*
X-00065Y-00441*
X-00048Y-0039*
X-00036Y-00344*
X-00026Y-00292*
X-00026Y-00284*
X-00026Y-00281D02*
X-00026Y-00284D01*
X-00027Y-00278D02*
X-00026Y-00281D01*
X-00028Y-00276D02*
X-00027Y-00278D01*
X-00029Y-00274D02*
X-00028Y-00276D01*
X-00032Y-00272D02*
X-00029Y-00274D01*
X-00034Y-00271D02*
X-00032Y-00272D01*
X-00036Y-0027D02*
X-00034Y-00271D01*
X-0007Y-00269D02*
X-00036Y-0027D01*
X-00104Y-00269D02*
X-0007D01*
X-00359D02*
X-00139D01*
X-00362D02*
X-00359D01*
X-00368Y-0027D02*
X-00362Y-00269D01*
X-00374Y-00271D02*
X-00368Y-0027D01*
X-00379Y-00274D02*
X-00374Y-00271D01*
X-00384Y-00277D02*
X-00379Y-00274D01*
X-00388Y-00281D02*
X-00384Y-00277D01*
X-00392Y-00286D02*
X-00388Y-00281D01*
X-00394Y-0029D02*
X-00392Y-00286D01*
X-00395Y-00294D02*
X-00394Y-0029D01*
X-00406Y-00322D02*
X-00395Y-00294D01*
X-00419Y-0035D02*
X-00406Y-00322D01*
X-00434Y-00377D02*
X-00419Y-0035D01*
X-00533Y-00533D02*
X-00434Y-00377D01*
X-00541Y-00542D02*
X-00533Y-00533D01*
X-00549Y-0055D02*
X-00541Y-00542D01*
X-00559Y-00556D02*
X-00549Y-0055D01*
X-0061Y-00575D02*
X-00559Y-00556D01*
X-00664Y-00586D02*
X-0061Y-00575D01*
X-0079Y-00586D02*
X-00664D01*
X-00802Y-00585D02*
X-0079Y-00586D01*
X-0088Y-00562D02*
X-00802Y-00585D01*
X-00901Y-00552D02*
X-0088Y-00562D01*
X-0091Y-00545D02*
X-00901Y-00552D01*
X-00915Y-00539D02*
X-0091Y-00545D01*
X-0092Y-00533D02*
X-00915Y-00539D01*
X-0102Y-00377D02*
X-0092Y-00533D01*
X-01047Y-00325D02*
X-0102Y-00377D01*
X-01057Y-00297D02*
X-01047Y-00325D01*
X-01065Y-00267D02*
X-01057Y-00297D01*
X-01074Y-00206D02*
X-01065Y-00267D01*
X-01074Y-0019D02*
X-01074Y-00206D01*
X-01074Y-0019D02*
X-01074Y-00173D01*
X-01065Y-00112*
X-01057Y-00083*
X-01047Y-00055*
X-0102Y-00003*
X-0092Y00152*
X-00913Y00161*
X-00904Y00169*
X-00894Y00175*
X-00843Y00195*
X-0079Y00206*
X-00664*
X-00652Y00205*
X-00579Y00184*
X-00555Y00173*
X-00545Y00166*
X-00539Y00159*
X-00533Y00152*
X-00434Y-00003*
X-00419Y-00029*
X-00406Y-00057*
X-00395Y-00086*
X-00393Y-00091*
X-0039Y-00096*
X-00386Y-00101*
X-00381Y-00104*
X-00376Y-00107*
X-00371Y-00109*
X-00367Y-0011*
X-00362Y-0011*
X-00359*
X-00139*
X-00104D02*
X-00037Y-0011D01*
X-00034Y-00109*
X-00031Y-00107*
X-00029Y-00105*
X-00028Y-00103*
X-00027Y-00101*
X-00026Y-00098*
X-00026Y-00096*
X-00026Y-00092D02*
X-00026Y-00096D01*
X-00054Y0003D02*
X-00026Y-00092D01*
X-00071Y00076D02*
X-00054Y0003D01*
X-00091Y00119D02*
X-00071Y00076D01*
X-00116Y00166D02*
X-00091Y00119D01*
X-00141Y00207D02*
X-00116Y00166D01*
X-00169Y00245D02*
X-00141Y00207D01*
X-0018Y00258D02*
X-00169Y00245D01*
X-00183Y0026D02*
X-0018Y00258D01*
X-00185Y00261D02*
X-00183Y0026D01*
X-00188Y00261D02*
X-00185Y00261D01*
X-00191Y00261D02*
X-00188Y00261D01*
X-00193Y00261D02*
X-00191Y00261D01*
X-00196Y0026D02*
X-00193Y00261D01*
X-00198Y00259D02*
X-00196Y0026D01*
X-002Y00257D02*
X-00198Y00259D01*
X-00221Y00236D02*
X-002Y00257D01*
X-00226Y00231D02*
X-00221Y00236D01*
X-00232Y00227D02*
X-00226Y00231D01*
X-00238Y00224D02*
X-00232Y00227D01*
X-00246Y00221D02*
X-00243Y00222D01*
X-00257Y0022D02*
X-00246Y00221D01*
X-00268Y0022D02*
X-00257Y0022D01*
X-00279Y00222D02*
X-00268Y0022D01*
X-00288Y00227D02*
X-00279Y00222D01*
X-00297Y00233D02*
X-00288Y00227D01*
X-00305Y00241D02*
X-00297Y00233D01*
X-00311Y0025D02*
X-00305Y00241D01*
X-00314Y0026D02*
X-00311Y0025D01*
X-00316Y00271D02*
X-00314Y0026D01*
X-00316Y00278D02*
X-00316Y00271D01*
X-00316Y00278D02*
X-00316Y00285D01*
X-00314Y00293*
X-00314Y00293D02*
X-00313Y00295D01*
X-00309Y00305*
X-00304Y0031*
X-003Y00315*
X-00279Y00336*
X-00277Y00338*
X-00276Y00341*
X-00275Y00343*
X-00275Y00346*
X-00275Y00349D02*
X-00275Y00346D01*
X-00275Y00352D02*
X-00275Y00349D01*
X-00277Y00354D02*
X-00275Y00352D01*
X-00278Y00356D02*
X-00277Y00354D01*
X-00279Y00358D02*
X-00278Y00356D01*
X-00333Y00398D02*
X-00279Y00358D01*
X-00391Y00432D02*
X-00333Y00398D01*
X-004Y00436D02*
X-00391Y00432D01*
X-00409Y00438D02*
X-004Y00436D01*
G54D75*
X-01091Y00262D03*
G54D78*
X-01158Y00108D03*
G54D79*
X-01182Y-00199D03*
X-01103Y-00091D03*
X-00134Y-00473D03*
Y-0044D03*
X-00309Y-00542D03*
X-01344Y-00345D03*
X-004Y-00451D03*
X-00459Y-00462D03*
X-01269Y-00326D03*
X-00788Y-00609D03*
X-01296Y00137D03*
X-00828Y-00611D03*
X-01247Y-00205D03*
G54D80*
X-01261Y-00033D03*
X-01221Y-00073D03*
Y-00033D03*
Y00006D03*
X-01181Y-00033D03*
X-00737Y-00609D03*
X-01084Y-0025D03*
X-01085Y-00218D03*
X-01023Y-00517D03*
X-0109Y-00473D03*
X-01128Y-00142D03*
X-01067Y-00544D03*
X-01085Y-00564D03*
X-01106Y-00582D03*
X-00958Y-00733D03*
X-00623Y-00617D03*
X-0075Y00244D03*
X-01061Y-00031D03*
X-01128Y-00106D03*
X-01064Y-00062D03*
X-01168Y-00247D03*
X-01325Y00012D03*
X-01357Y-00077D03*
X-01308Y00039D03*
X-0126Y00008D03*
Y-0007D03*
X-01308Y0007D03*
X-00862Y-00603D03*
X-00114Y-00307D03*
X-00095Y-00324D03*
X-00978Y0017D03*
X-0009Y-00348D03*
Y-00288D03*
X-00052Y-00298D03*
X-01187Y00008D03*
X-0119Y-00069D03*
X-0035Y-00494D03*
X-0009Y-00422D03*
X-00105Y-00452D03*
X-00278Y-00375D03*
X-00194Y-0037D03*
X-00252Y-00329D03*
X-00064Y-00371D03*
X-00105Y-00369D03*
Y-00487D03*
X-00336Y-00564D03*
X-00084Y-00389D03*
X-00064Y-00339D03*
X-00072Y-00311D03*
X-01399Y-0031D03*
X-01297Y-00295D03*
X-01312Y-00337D03*
X-00247Y-00582D03*
X-01341Y-0016D03*
X-00986Y00076D03*
X-00972Y00099D03*
X-01049Y00116D03*
X-01057Y00062D03*
X-01036Y00204D03*
X-00955Y00191D03*
X-01065Y00092D03*
X-01105Y00177D03*
X-01059Y00145D03*
X-01082Y00157D03*
X-00998Y00243D03*
X-01019Y00224D03*
X-01059Y00178D03*
X-00968Y00265D03*
X-00931Y0029D03*
X-00728Y0023D03*
X-00776Y00256D03*
X-00968Y00305D03*
X-00995Y-00545D03*
X-01059Y00218D03*
X-0105Y-00521D03*
X-0078Y00221D03*
X-01019Y00264D03*
X-00998Y00283D03*
X-00568Y-00859D03*
X-00529Y-0085D03*
X-00465Y-00796D03*
X-0054Y-00746D03*
X-00612Y-00792D03*
X-00641D03*
X-00328Y-00732D03*
X-0034Y-00662D03*
X-01036Y00244D03*
X-00925Y-00792D03*
X-00902Y-00772D03*
X-00513Y-00581D03*
X-00529Y-00558D03*
X-00773Y-00745D03*
X-00701Y-00692D03*
X-00715Y-00732D03*
X-01245Y-00247D03*
X-00438Y-00546D03*
X-00432Y-00519D03*
X-00405Y-0038D03*
X-00479Y-00492D03*
X-01096Y-00672D03*
X-01223Y-00179D03*
X-011Y-00025D03*
X-01125Y00029D03*
X-00715Y-00795D03*
X-00719Y-00839D03*
X-00684Y-00743D03*
X-01223Y00138D03*
X-01118Y00151D03*
X-01117Y00095D03*
X-01192Y00179D03*
X-01193Y00152D03*
X-01193Y00099D03*
X-01193Y00125D03*
X-01193Y00072D03*
X-00406Y-00626D03*
X-01226Y00184D03*
X-01075Y-00293D03*
X-01095Y-00329D03*
X-01131Y-00295D03*
X-0108Y00119D03*
X-00505Y-00684D03*
X-00473Y-00715D03*
X-00473Y-00689D03*
X-00387Y-00356D03*
X-0087Y-00685D03*
X-0121Y-00241D03*
X-01376Y-00395D03*
X-00886Y00293D03*
X-00811Y00264D03*
X-00842Y00285D03*
X-01283Y-00218D03*
X-00813Y-00693D03*
X-00822Y-00783D03*
X-01075Y-00593D03*
X-00825Y-00837D03*
X-00691Y-00834D03*
X-0019Y-0062D03*
X-0021Y-00598D03*
X-00572Y-00627D03*
X-01133Y-00512D03*
X-00528Y-00696D03*
X-01339Y-00489D03*
X-00365Y-00534D03*
X-00384Y-00558D03*
X-01238Y00075D03*
X-0109Y-00738D03*
X-01082Y00197D03*
X-01353Y-00459D03*
X-00384Y-00326D03*
X-01384Y-00032D03*
X-0127Y00183D03*
X-01297Y00183D03*
X-0139Y-00346D03*
X-01351Y-0028D03*
X-00641Y-0068D03*
X-00673Y-00678D03*
X-00612Y-00683D03*
G54D82*
X-00575Y00346D03*
G54D83*
X-00638Y0036D03*
X-00723Y0038D03*
G54D84*
X-01068Y00341D03*
G54D85*
X-00167Y00034D03*
M02*