%FSTAX23Y23*%
%MOIN*%
%SFA1B1*%

%IPPOS*%
%ADD9500C,0.011811*%
%ADD9501C,0.047244*%
%LNflytta-35-1*%
%LPD*%
G54D9500*
X-00465Y-00796D03*
X-00328Y-00732D03*
X-0034Y-00662D03*
X-00336Y-00564D03*
X-00309Y-00542D03*
X-00365Y-00534D03*
X-00384Y-00558D03*
X-00438Y-00546D03*
X-00432Y-00519D03*
X-0035Y-00494D03*
X-00406Y-00626D03*
X-00247Y-00582D03*
X-0021Y-00598D03*
X-0019Y-0062D03*
X-00134Y-00473D03*
X-00105Y-00487D03*
X-00479Y-00492D03*
X-00529Y-00558D03*
X-00513Y-00581D03*
X-00572Y-00627D03*
X-00623Y-00617D03*
X-00612Y-00683D03*
X-00641Y-0068D03*
X-00673Y-00678D03*
X-00701Y-00692D03*
X-00715Y-00732D03*
X-00684Y-00743D03*
X-00715Y-00795D03*
X-00719Y-00839D03*
X-00691Y-00834D03*
X-00641Y-00792D03*
X-00612D03*
X-00568Y-00859D03*
X-00529Y-0085D03*
X-0054Y-00746D03*
X-00528Y-00696D03*
X-00505Y-00684D03*
X-00473Y-00689D03*
X-00473Y-00715D03*
X-00773Y-00745D03*
X-00822Y-00783D03*
X-00825Y-00837D03*
X-00902Y-00772D03*
X-00925Y-00792D03*
X-00958Y-00733D03*
X-0087Y-00685D03*
X-00813Y-00693D03*
X-00828Y-00611D03*
X-00862Y-00603D03*
X-00788Y-00609D03*
X-00737Y-00609D03*
X-00995Y-00545D03*
X-01023Y-00517D03*
X-0105Y-00521D03*
X-01067Y-00544D03*
X-01085Y-00564D03*
X-01075Y-00593D03*
X-01106Y-00582D03*
X-01133Y-00512D03*
X-0109Y-00473D03*
X-01096Y-00672D03*
X-0109Y-00738D03*
X-01339Y-00489D03*
X-01353Y-00459D03*
X-01376Y-00395D03*
X-0139Y-00346D03*
X-01399Y-0031D03*
X-01351Y-0028D03*
X-01297Y-00295D03*
X-01312Y-00337D03*
X-01344Y-00345D03*
X-01269Y-00326D03*
X-01245Y-00247D03*
X-0121Y-00241D03*
X-01168Y-00247D03*
X-01182Y-00199D03*
X-01223Y-00179D03*
X-01247Y-00205D03*
X-01283Y-00218D03*
X-01341Y-0016D03*
X-01357Y-00077D03*
X-01384Y-00032D03*
X-01325Y00012D03*
X-01308Y00039D03*
Y0007D03*
X-01238Y00075D03*
X-01193Y00072D03*
X-01193Y00099D03*
X-01193Y00125D03*
X-01193Y00152D03*
X-01192Y00179D03*
X-01226Y00184D03*
X-0127Y00183D03*
X-01297Y00183D03*
X-01296Y00137D03*
X-01223Y00138D03*
X-01118Y00151D03*
X-01105Y00177D03*
X-01082Y00157D03*
X-01059Y00145D03*
Y00178D03*
Y00218D03*
X-01036Y00204D03*
X-01019Y00224D03*
X-01036Y00244D03*
X-01019Y00264D03*
X-00998Y00283D03*
Y00243D03*
X-00968Y00265D03*
Y00305D03*
X-00931Y0029D03*
X-00886Y00293D03*
X-00842Y00285D03*
X-00811Y00264D03*
X-00776Y00256D03*
X-0075Y00244D03*
X-00728Y0023D03*
X-0078Y00221D03*
X-00955Y00191D03*
X-00978Y0017D03*
X-00972Y00099D03*
X-00986Y00076D03*
X-01057Y00062D03*
X-01065Y00092D03*
X-01049Y00116D03*
X-0108Y00119D03*
X-01117Y00095D03*
X-01125Y00029D03*
X-011Y-00025D03*
X-01061Y-00031D03*
X-01064Y-00062D03*
X-01103Y-00091D03*
X-01128Y-00106D03*
X-01128Y-00142D03*
X-01085Y-00218D03*
X-01084Y-0025D03*
X-01075Y-00293D03*
X-01095Y-00329D03*
X-01131Y-00295D03*
X-0119Y-00069D03*
X-01221Y-00073D03*
Y-00033D03*
X-01261D03*
X-0126Y-0007D03*
Y00008D03*
X-01221Y00006D03*
X-01187Y00008D03*
X-01181Y-00033D03*
X-01082Y00197D03*
X-00384Y-00326D03*
X-00387Y-00356D03*
X-00405Y-0038D03*
X-004Y-00451D03*
X-00459Y-00462D03*
X-00278Y-00375D03*
X-00252Y-00329D03*
X-00194Y-0037D03*
X-00105Y-00369D03*
X-0009Y-00348D03*
X-00095Y-00324D03*
X-00072Y-00311D03*
X-00052Y-00298D03*
X-0009Y-00288D03*
X-00114Y-00307D03*
X-00064Y-00339D03*
Y-00371D03*
X-00084Y-00389D03*
X-0009Y-00422D03*
X-00105Y-00452D03*
X-00134Y-0044D03*
G54D9501*
X-00167Y00034D03*
M02*