M48
;Layer_Color=9474304
;FILE_FORMAT=4:4
METRIC,LZ
;TYPE=PLATED
T1F00S00C0.3000
%
T01
X-00112934Y-00203187
X-00096639Y-00184493
X-00086921Y-00189349
X-00083035Y-00180119
X-00049027Y-00130564
X-00054856Y-00123759
X-00040767Y-00135423
X-0012239Y-00195181
X-00123666Y-00203187
X-00304584Y-0008635
X-0030847Y-00080519
X-00310898Y-00038735
Y-00033391
X-00318186Y-00045052
X-00343936Y-00064486
X-00349281Y-00066429
X-00350437Y-00025666
X-00343936Y00001105
X-00343451Y00012278
X-00047081Y-00088778
X-00038338Y-00087322
X-00026677Y-00090723
X-00023274Y-00084892
M30
